%TF.GenerationSoftware,KiCad,Pcbnew,9.0.4*%
%TF.CreationDate,2025-10-04T20:19:20+02:00*%
%TF.ProjectId,DMH_VCA_Bank_PCB_1,444d485f-5643-4415-9f42-616e6b5f5043,1*%
%TF.SameCoordinates,Original*%
%TF.FileFunction,Drillmap*%
%TF.FilePolarity,Positive*%
%FSLAX45Y45*%
G04 Gerber Fmt 4.5, Leading zero omitted, Abs format (unit mm)*
G04 Created by KiCad (PCBNEW 9.0.4) date 2025-10-04 20:19:20*
%MOMM*%
%LPD*%
G01*
G04 APERTURE LIST*
%ADD10C,0.050000*%
%ADD11C,0.200000*%
%ADD12C,0.100000*%
%ADD13C,0.110000*%
G04 APERTURE END LIST*
D10*
X5100000Y-4250000D02*
X9900000Y-4250000D01*
X9900000Y-21750000D01*
X5100000Y-21750000D01*
X5100000Y-4250000D01*
D11*
D12*
X5360000Y-8105500D02*
X5440000Y-8185500D01*
X5440000Y-8105500D02*
X5360000Y-8185500D01*
X5360000Y-8359500D02*
X5440000Y-8439500D01*
X5440000Y-8359500D02*
X5360000Y-8439500D01*
X5380000Y-6330000D02*
X5460000Y-6410000D01*
X5460000Y-6330000D02*
X5380000Y-6410000D01*
X5380000Y-6584000D02*
X5460000Y-6664000D01*
X5460000Y-6584000D02*
X5380000Y-6664000D01*
X5380000Y-6838000D02*
X5460000Y-6918000D01*
X5460000Y-6838000D02*
X5380000Y-6918000D01*
X5380000Y-7055000D02*
X5460000Y-7135000D01*
X5460000Y-7055000D02*
X5380000Y-7135000D01*
X5380000Y-7309000D02*
X5460000Y-7389000D01*
X5460000Y-7309000D02*
X5380000Y-7389000D01*
X5380000Y-7563000D02*
X5460000Y-7643000D01*
X5460000Y-7563000D02*
X5380000Y-7643000D01*
X5385500Y-11885000D02*
X5465500Y-11965000D01*
X5465500Y-11885000D02*
X5385500Y-11965000D01*
X5405000Y-12805000D02*
X5485000Y-12885000D01*
X5485000Y-12805000D02*
X5405000Y-12885000D01*
X5405000Y-13059000D02*
X5485000Y-13139000D01*
X5485000Y-13059000D02*
X5405000Y-13139000D01*
X5405000Y-13313000D02*
X5485000Y-13393000D01*
X5485000Y-13313000D02*
X5405000Y-13393000D01*
X5405000Y-13530000D02*
X5485000Y-13610000D01*
X5485000Y-13530000D02*
X5405000Y-13610000D01*
X5405000Y-13784000D02*
X5485000Y-13864000D01*
X5485000Y-13784000D02*
X5405000Y-13864000D01*
X5405000Y-14038000D02*
X5485000Y-14118000D01*
X5485000Y-14038000D02*
X5405000Y-14118000D01*
X5460000Y-12160500D02*
X5540000Y-12240500D01*
X5540000Y-12160500D02*
X5460000Y-12240500D01*
X5460000Y-12414500D02*
X5540000Y-12494500D01*
X5540000Y-12414500D02*
X5460000Y-12494500D01*
X5560500Y-8660000D02*
X5640500Y-8740000D01*
X5640500Y-8660000D02*
X5560500Y-8740000D01*
X5639489Y-4760000D02*
X5719489Y-4840000D01*
X5719489Y-4760000D02*
X5639489Y-4840000D01*
X5639500Y-11885000D02*
X5719500Y-11965000D01*
X5719500Y-11885000D02*
X5639500Y-11965000D01*
X5685000Y-5335500D02*
X5765000Y-5415500D01*
X5765000Y-5335500D02*
X5685000Y-5415500D01*
X5685000Y-5589500D02*
X5765000Y-5669500D01*
X5765000Y-5589500D02*
X5685000Y-5669500D01*
X5760000Y-6435500D02*
X5840000Y-6515500D01*
X5840000Y-6435500D02*
X5760000Y-6515500D01*
X5760000Y-6689500D02*
X5840000Y-6769500D01*
X5840000Y-6689500D02*
X5760000Y-6769500D01*
X5760000Y-7305500D02*
X5840000Y-7385500D01*
X5840000Y-7305500D02*
X5760000Y-7385500D01*
X5760000Y-7559500D02*
X5840000Y-7639500D01*
X5840000Y-7559500D02*
X5760000Y-7639500D01*
X5760000Y-10210500D02*
X5840000Y-10290500D01*
X5840000Y-10210500D02*
X5760000Y-10290500D01*
X5760000Y-10464500D02*
X5840000Y-10544500D01*
X5840000Y-10464500D02*
X5760000Y-10544500D01*
X5785000Y-12160500D02*
X5865000Y-12240500D01*
X5865000Y-12160500D02*
X5785000Y-12240500D01*
X5785000Y-12414500D02*
X5865000Y-12494500D01*
X5865000Y-12414500D02*
X5785000Y-12494500D01*
X5785000Y-13030500D02*
X5865000Y-13110500D01*
X5865000Y-13030500D02*
X5785000Y-13110500D01*
X5785000Y-13284500D02*
X5865000Y-13364500D01*
X5865000Y-13284500D02*
X5785000Y-13364500D01*
X5814500Y-8660000D02*
X5894500Y-8740000D01*
X5894500Y-8660000D02*
X5814500Y-8740000D01*
X5839489Y-4760000D02*
X5919489Y-4840000D01*
X5919489Y-4760000D02*
X5839489Y-4840000D01*
X5852000Y-6035000D02*
X5932000Y-6115000D01*
X5932000Y-6035000D02*
X5852000Y-6115000D01*
X5852000Y-8210000D02*
X5932000Y-8290000D01*
X5932000Y-8210000D02*
X5852000Y-8290000D01*
X5852000Y-11210000D02*
X5932000Y-11290000D01*
X5932000Y-11210000D02*
X5852000Y-11290000D01*
X5852000Y-13835000D02*
X5932000Y-13915000D01*
X5932000Y-13835000D02*
X5852000Y-13915000D01*
X6085000Y-6435500D02*
X6165000Y-6515500D01*
X6165000Y-6435500D02*
X6085000Y-6515500D01*
X6085000Y-6689500D02*
X6165000Y-6769500D01*
X6165000Y-6689500D02*
X6085000Y-6769500D01*
X6085000Y-7305500D02*
X6165000Y-7385500D01*
X6165000Y-7305500D02*
X6085000Y-7385500D01*
X6085000Y-7559500D02*
X6165000Y-7639500D01*
X6165000Y-7559500D02*
X6085000Y-7639500D01*
X6085000Y-10210500D02*
X6165000Y-10290500D01*
X6165000Y-10210500D02*
X6085000Y-10290500D01*
X6085000Y-10464500D02*
X6165000Y-10544500D01*
X6165000Y-10464500D02*
X6085000Y-10544500D01*
X6106000Y-6035000D02*
X6186000Y-6115000D01*
X6186000Y-6035000D02*
X6106000Y-6115000D01*
X6106000Y-8210000D02*
X6186000Y-8290000D01*
X6186000Y-8210000D02*
X6106000Y-8290000D01*
X6106000Y-11210000D02*
X6186000Y-11290000D01*
X6186000Y-11210000D02*
X6106000Y-11290000D01*
X6106000Y-13835000D02*
X6186000Y-13915000D01*
X6186000Y-13835000D02*
X6106000Y-13915000D01*
X6110000Y-12160500D02*
X6190000Y-12240500D01*
X6190000Y-12160500D02*
X6110000Y-12240500D01*
X6110000Y-12414500D02*
X6190000Y-12494500D01*
X6190000Y-12414500D02*
X6110000Y-12494500D01*
X6110000Y-13030500D02*
X6190000Y-13110500D01*
X6190000Y-13030500D02*
X6110000Y-13110500D01*
X6110000Y-13284500D02*
X6190000Y-13364500D01*
X6190000Y-13284500D02*
X6110000Y-13364500D01*
X6230500Y-11885000D02*
X6310500Y-11965000D01*
X6310500Y-11885000D02*
X6230500Y-11965000D01*
X6360000Y-6035000D02*
X6440000Y-6115000D01*
X6440000Y-6035000D02*
X6360000Y-6115000D01*
X6360000Y-8210000D02*
X6440000Y-8290000D01*
X6440000Y-8210000D02*
X6360000Y-8290000D01*
X6360000Y-11210000D02*
X6440000Y-11290000D01*
X6440000Y-11210000D02*
X6360000Y-11290000D01*
X6360000Y-13835000D02*
X6440000Y-13915000D01*
X6440000Y-13835000D02*
X6360000Y-13915000D01*
X6405500Y-8660000D02*
X6485500Y-8740000D01*
X6485500Y-8660000D02*
X6405500Y-8740000D01*
X6410000Y-6435500D02*
X6490000Y-6515500D01*
X6490000Y-6435500D02*
X6410000Y-6515500D01*
X6410000Y-6689500D02*
X6490000Y-6769500D01*
X6490000Y-6689500D02*
X6410000Y-6769500D01*
X6410000Y-7305500D02*
X6490000Y-7385500D01*
X6490000Y-7305500D02*
X6410000Y-7385500D01*
X6410000Y-7559500D02*
X6490000Y-7639500D01*
X6490000Y-7559500D02*
X6410000Y-7639500D01*
X6410000Y-10210500D02*
X6490000Y-10290500D01*
X6490000Y-10210500D02*
X6410000Y-10290500D01*
X6410000Y-10464500D02*
X6490000Y-10544500D01*
X6490000Y-10464500D02*
X6410000Y-10544500D01*
X6435000Y-12160500D02*
X6515000Y-12240500D01*
X6515000Y-12160500D02*
X6435000Y-12240500D01*
X6435000Y-12414500D02*
X6515000Y-12494500D01*
X6515000Y-12414500D02*
X6435000Y-12494500D01*
X6435000Y-13030500D02*
X6515000Y-13110500D01*
X6515000Y-13030500D02*
X6435000Y-13110500D01*
X6435000Y-13284500D02*
X6515000Y-13364500D01*
X6515000Y-13284500D02*
X6435000Y-13364500D01*
X6484500Y-11885000D02*
X6564500Y-11965000D01*
X6564500Y-11885000D02*
X6484500Y-11965000D01*
X6659500Y-8660000D02*
X6739500Y-8740000D01*
X6739500Y-8660000D02*
X6659500Y-8740000D01*
X6660500Y-5360000D02*
X6740500Y-5440000D01*
X6740500Y-5360000D02*
X6660500Y-5440000D01*
X6735000Y-6435500D02*
X6815000Y-6515500D01*
X6815000Y-6435500D02*
X6735000Y-6515500D01*
X6735000Y-6689500D02*
X6815000Y-6769500D01*
X6815000Y-6689500D02*
X6735000Y-6769500D01*
X6735000Y-7305500D02*
X6815000Y-7385500D01*
X6815000Y-7305500D02*
X6735000Y-7385500D01*
X6735000Y-7559500D02*
X6815000Y-7639500D01*
X6815000Y-7559500D02*
X6735000Y-7639500D01*
X6735000Y-10210500D02*
X6815000Y-10290500D01*
X6815000Y-10210500D02*
X6735000Y-10290500D01*
X6735000Y-10464500D02*
X6815000Y-10544500D01*
X6815000Y-10464500D02*
X6735000Y-10544500D01*
X6760000Y-5930500D02*
X6840000Y-6010500D01*
X6840000Y-5930500D02*
X6760000Y-6010500D01*
X6760000Y-6184500D02*
X6840000Y-6264500D01*
X6840000Y-6184500D02*
X6760000Y-6264500D01*
X6760000Y-11680500D02*
X6840000Y-11760500D01*
X6840000Y-11680500D02*
X6760000Y-11760500D01*
X6760000Y-11934500D02*
X6840000Y-12014500D01*
X6840000Y-11934500D02*
X6760000Y-12014500D01*
X6760000Y-12160500D02*
X6840000Y-12240500D01*
X6840000Y-12160500D02*
X6760000Y-12240500D01*
X6760000Y-12414500D02*
X6840000Y-12494500D01*
X6840000Y-12414500D02*
X6760000Y-12494500D01*
X6760000Y-13030500D02*
X6840000Y-13110500D01*
X6840000Y-13030500D02*
X6760000Y-13110500D01*
X6760000Y-13284500D02*
X6840000Y-13364500D01*
X6840000Y-13284500D02*
X6760000Y-13364500D01*
X6760000Y-13510500D02*
X6840000Y-13590500D01*
X6840000Y-13510500D02*
X6760000Y-13590500D01*
X6760000Y-13764500D02*
X6840000Y-13844500D01*
X6840000Y-13764500D02*
X6760000Y-13844500D01*
X6860000Y-8105500D02*
X6940000Y-8185500D01*
X6940000Y-8105500D02*
X6860000Y-8185500D01*
X6860000Y-8359500D02*
X6940000Y-8439500D01*
X6940000Y-8359500D02*
X6860000Y-8439500D01*
X6914500Y-5360000D02*
X6994500Y-5440000D01*
X6994500Y-5360000D02*
X6914500Y-5440000D01*
X7079000Y-5960000D02*
X7159000Y-6040000D01*
X7159000Y-5960000D02*
X7079000Y-6040000D01*
X7079000Y-6214000D02*
X7159000Y-6294000D01*
X7159000Y-6214000D02*
X7079000Y-6294000D01*
X7079000Y-6468000D02*
X7159000Y-6548000D01*
X7159000Y-6468000D02*
X7079000Y-6548000D01*
X7079000Y-6722000D02*
X7159000Y-6802000D01*
X7159000Y-6722000D02*
X7079000Y-6802000D01*
X7079000Y-6976000D02*
X7159000Y-7056000D01*
X7159000Y-6976000D02*
X7079000Y-7056000D01*
X7079000Y-7230000D02*
X7159000Y-7310000D01*
X7159000Y-7230000D02*
X7079000Y-7310000D01*
X7079000Y-7484000D02*
X7159000Y-7564000D01*
X7159000Y-7484000D02*
X7079000Y-7564000D01*
X7079000Y-8960000D02*
X7159000Y-9040000D01*
X7159000Y-8960000D02*
X7079000Y-9040000D01*
X7079000Y-9214000D02*
X7159000Y-9294000D01*
X7159000Y-9214000D02*
X7079000Y-9294000D01*
X7079000Y-9468000D02*
X7159000Y-9548000D01*
X7159000Y-9468000D02*
X7079000Y-9548000D01*
X7079000Y-9722000D02*
X7159000Y-9802000D01*
X7159000Y-9722000D02*
X7079000Y-9802000D01*
X7079000Y-9976000D02*
X7159000Y-10056000D01*
X7159000Y-9976000D02*
X7079000Y-10056000D01*
X7079000Y-10230000D02*
X7159000Y-10310000D01*
X7159000Y-10230000D02*
X7079000Y-10310000D01*
X7079000Y-10484000D02*
X7159000Y-10564000D01*
X7159000Y-10484000D02*
X7079000Y-10564000D01*
X7079000Y-11960000D02*
X7159000Y-12040000D01*
X7159000Y-11960000D02*
X7079000Y-12040000D01*
X7079000Y-12214000D02*
X7159000Y-12294000D01*
X7159000Y-12214000D02*
X7079000Y-12294000D01*
X7079000Y-12468000D02*
X7159000Y-12548000D01*
X7159000Y-12468000D02*
X7079000Y-12548000D01*
X7079000Y-12722000D02*
X7159000Y-12802000D01*
X7159000Y-12722000D02*
X7079000Y-12802000D01*
X7079000Y-12976000D02*
X7159000Y-13056000D01*
X7159000Y-12976000D02*
X7079000Y-13056000D01*
X7079000Y-13230000D02*
X7159000Y-13310000D01*
X7159000Y-13230000D02*
X7079000Y-13310000D01*
X7079000Y-13484000D02*
X7159000Y-13564000D01*
X7159000Y-13484000D02*
X7079000Y-13564000D01*
X7210000Y-5610000D02*
X7290000Y-5690000D01*
X7290000Y-5610000D02*
X7210000Y-5690000D01*
X7210000Y-7835000D02*
X7290000Y-7915000D01*
X7290000Y-7835000D02*
X7210000Y-7915000D01*
X7210000Y-8610000D02*
X7290000Y-8690000D01*
X7290000Y-8610000D02*
X7210000Y-8690000D01*
X7210000Y-10835000D02*
X7290000Y-10915000D01*
X7290000Y-10835000D02*
X7210000Y-10915000D01*
X7210000Y-11610000D02*
X7290000Y-11690000D01*
X7290000Y-11610000D02*
X7210000Y-11690000D01*
X7210000Y-13835000D02*
X7290000Y-13915000D01*
X7290000Y-13835000D02*
X7210000Y-13915000D01*
X7710000Y-5610000D02*
X7790000Y-5690000D01*
X7790000Y-5610000D02*
X7710000Y-5690000D01*
X7710000Y-7835000D02*
X7790000Y-7915000D01*
X7790000Y-7835000D02*
X7710000Y-7915000D01*
X7710000Y-8610000D02*
X7790000Y-8690000D01*
X7790000Y-8610000D02*
X7710000Y-8690000D01*
X7710000Y-10835000D02*
X7790000Y-10915000D01*
X7790000Y-10835000D02*
X7710000Y-10915000D01*
X7710000Y-11610000D02*
X7790000Y-11690000D01*
X7790000Y-11610000D02*
X7710000Y-11690000D01*
X7710000Y-13835000D02*
X7790000Y-13915000D01*
X7790000Y-13835000D02*
X7710000Y-13915000D01*
X7841000Y-5960000D02*
X7921000Y-6040000D01*
X7921000Y-5960000D02*
X7841000Y-6040000D01*
X7841000Y-6214000D02*
X7921000Y-6294000D01*
X7921000Y-6214000D02*
X7841000Y-6294000D01*
X7841000Y-6468000D02*
X7921000Y-6548000D01*
X7921000Y-6468000D02*
X7841000Y-6548000D01*
X7841000Y-6722000D02*
X7921000Y-6802000D01*
X7921000Y-6722000D02*
X7841000Y-6802000D01*
X7841000Y-6976000D02*
X7921000Y-7056000D01*
X7921000Y-6976000D02*
X7841000Y-7056000D01*
X7841000Y-7230000D02*
X7921000Y-7310000D01*
X7921000Y-7230000D02*
X7841000Y-7310000D01*
X7841000Y-7484000D02*
X7921000Y-7564000D01*
X7921000Y-7484000D02*
X7841000Y-7564000D01*
X7841000Y-8960000D02*
X7921000Y-9040000D01*
X7921000Y-8960000D02*
X7841000Y-9040000D01*
X7841000Y-9214000D02*
X7921000Y-9294000D01*
X7921000Y-9214000D02*
X7841000Y-9294000D01*
X7841000Y-9468000D02*
X7921000Y-9548000D01*
X7921000Y-9468000D02*
X7841000Y-9548000D01*
X7841000Y-9722000D02*
X7921000Y-9802000D01*
X7921000Y-9722000D02*
X7841000Y-9802000D01*
X7841000Y-9976000D02*
X7921000Y-10056000D01*
X7921000Y-9976000D02*
X7841000Y-10056000D01*
X7841000Y-10230000D02*
X7921000Y-10310000D01*
X7921000Y-10230000D02*
X7841000Y-10310000D01*
X7841000Y-10484000D02*
X7921000Y-10564000D01*
X7921000Y-10484000D02*
X7841000Y-10564000D01*
X7841000Y-11960000D02*
X7921000Y-12040000D01*
X7921000Y-11960000D02*
X7841000Y-12040000D01*
X7841000Y-12214000D02*
X7921000Y-12294000D01*
X7921000Y-12214000D02*
X7841000Y-12294000D01*
X7841000Y-12468000D02*
X7921000Y-12548000D01*
X7921000Y-12468000D02*
X7841000Y-12548000D01*
X7841000Y-12722000D02*
X7921000Y-12802000D01*
X7921000Y-12722000D02*
X7841000Y-12802000D01*
X7841000Y-12976000D02*
X7921000Y-13056000D01*
X7921000Y-12976000D02*
X7841000Y-13056000D01*
X7841000Y-13230000D02*
X7921000Y-13310000D01*
X7921000Y-13230000D02*
X7841000Y-13310000D01*
X7841000Y-13484000D02*
X7921000Y-13564000D01*
X7921000Y-13484000D02*
X7841000Y-13564000D01*
X8010000Y-5485000D02*
X8090000Y-5565000D01*
X8090000Y-5485000D02*
X8010000Y-5565000D01*
X8060000Y-8105500D02*
X8140000Y-8185500D01*
X8140000Y-8105500D02*
X8060000Y-8185500D01*
X8060000Y-8359500D02*
X8140000Y-8439500D01*
X8140000Y-8359500D02*
X8060000Y-8439500D01*
X8110500Y-14335000D02*
X8190500Y-14415000D01*
X8190500Y-14335000D02*
X8110500Y-14415000D01*
X8110500Y-14660000D02*
X8190500Y-14740000D01*
X8190500Y-14660000D02*
X8110500Y-14740000D01*
X8135000Y-10935500D02*
X8215000Y-11015500D01*
X8215000Y-10935500D02*
X8135000Y-11015500D01*
X8135000Y-11189500D02*
X8215000Y-11269500D01*
X8215000Y-11189500D02*
X8135000Y-11269500D01*
X8160000Y-5930500D02*
X8240000Y-6010500D01*
X8240000Y-5930500D02*
X8160000Y-6010500D01*
X8160000Y-6184500D02*
X8240000Y-6264500D01*
X8240000Y-6184500D02*
X8160000Y-6264500D01*
X8160000Y-12135500D02*
X8240000Y-12215500D01*
X8240000Y-12135500D02*
X8160000Y-12215500D01*
X8160000Y-12389500D02*
X8240000Y-12469500D01*
X8240000Y-12389500D02*
X8160000Y-12469500D01*
X8160000Y-12860500D02*
X8240000Y-12940500D01*
X8240000Y-12860500D02*
X8160000Y-12940500D01*
X8160000Y-13114500D02*
X8240000Y-13194500D01*
X8240000Y-13114500D02*
X8160000Y-13194500D01*
X8160000Y-13660500D02*
X8240000Y-13740500D01*
X8240000Y-13660500D02*
X8160000Y-13740500D01*
X8160000Y-13914500D02*
X8240000Y-13994500D01*
X8240000Y-13914500D02*
X8160000Y-13994500D01*
X8185000Y-6435500D02*
X8265000Y-6515500D01*
X8265000Y-6435500D02*
X8185000Y-6515500D01*
X8185000Y-6689500D02*
X8265000Y-6769500D01*
X8265000Y-6689500D02*
X8185000Y-6769500D01*
X8185000Y-7305500D02*
X8265000Y-7385500D01*
X8265000Y-7305500D02*
X8185000Y-7385500D01*
X8185000Y-7559500D02*
X8265000Y-7639500D01*
X8265000Y-7559500D02*
X8185000Y-7639500D01*
X8210000Y-10230500D02*
X8290000Y-10310500D01*
X8290000Y-10230500D02*
X8210000Y-10310500D01*
X8210000Y-10484500D02*
X8290000Y-10564500D01*
X8290000Y-10484500D02*
X8210000Y-10564500D01*
X8264000Y-5485000D02*
X8344000Y-5565000D01*
X8344000Y-5485000D02*
X8264000Y-5565000D01*
X8330500Y-11660000D02*
X8410500Y-11740000D01*
X8410500Y-11660000D02*
X8330500Y-11740000D01*
X8364500Y-14335000D02*
X8444500Y-14415000D01*
X8444500Y-14335000D02*
X8364500Y-14415000D01*
X8364500Y-14660000D02*
X8444500Y-14740000D01*
X8444500Y-14660000D02*
X8364500Y-14740000D01*
X8430500Y-8660000D02*
X8510500Y-8740000D01*
X8510500Y-8660000D02*
X8430500Y-8740000D01*
X8485000Y-12135500D02*
X8565000Y-12215500D01*
X8565000Y-12135500D02*
X8485000Y-12215500D01*
X8485000Y-12389500D02*
X8565000Y-12469500D01*
X8565000Y-12389500D02*
X8485000Y-12469500D01*
X8485000Y-12860500D02*
X8565000Y-12940500D01*
X8565000Y-12860500D02*
X8485000Y-12940500D01*
X8485000Y-13114500D02*
X8565000Y-13194500D01*
X8565000Y-13114500D02*
X8485000Y-13194500D01*
X8510000Y-6435500D02*
X8590000Y-6515500D01*
X8590000Y-6435500D02*
X8510000Y-6515500D01*
X8510000Y-6689500D02*
X8590000Y-6769500D01*
X8590000Y-6689500D02*
X8510000Y-6769500D01*
X8510000Y-7305500D02*
X8590000Y-7385500D01*
X8590000Y-7305500D02*
X8510000Y-7385500D01*
X8510000Y-7559500D02*
X8590000Y-7639500D01*
X8590000Y-7559500D02*
X8510000Y-7639500D01*
X8562000Y-6035000D02*
X8642000Y-6115000D01*
X8642000Y-6035000D02*
X8562000Y-6115000D01*
X8562000Y-8210000D02*
X8642000Y-8290000D01*
X8642000Y-8210000D02*
X8562000Y-8290000D01*
X8562000Y-11210000D02*
X8642000Y-11290000D01*
X8642000Y-11210000D02*
X8562000Y-11290000D01*
X8562000Y-13835000D02*
X8642000Y-13915000D01*
X8642000Y-13835000D02*
X8562000Y-13915000D01*
X8584500Y-11660000D02*
X8664500Y-11740000D01*
X8664500Y-11660000D02*
X8584500Y-11740000D01*
X8684500Y-8660000D02*
X8764500Y-8740000D01*
X8764500Y-8660000D02*
X8684500Y-8740000D01*
X8810000Y-12135500D02*
X8890000Y-12215500D01*
X8890000Y-12135500D02*
X8810000Y-12215500D01*
X8810000Y-12389500D02*
X8890000Y-12469500D01*
X8890000Y-12389500D02*
X8810000Y-12469500D01*
X8810000Y-12860500D02*
X8890000Y-12940500D01*
X8890000Y-12860500D02*
X8810000Y-12940500D01*
X8810000Y-13114500D02*
X8890000Y-13194500D01*
X8890000Y-13114500D02*
X8810000Y-13194500D01*
X8810500Y-11660000D02*
X8890500Y-11740000D01*
X8890500Y-11660000D02*
X8810500Y-11740000D01*
X8816000Y-6035000D02*
X8896000Y-6115000D01*
X8896000Y-6035000D02*
X8816000Y-6115000D01*
X8816000Y-8210000D02*
X8896000Y-8290000D01*
X8896000Y-8210000D02*
X8816000Y-8290000D01*
X8816000Y-11210000D02*
X8896000Y-11290000D01*
X8896000Y-11210000D02*
X8816000Y-11290000D01*
X8816000Y-13835000D02*
X8896000Y-13915000D01*
X8896000Y-13835000D02*
X8816000Y-13915000D01*
X8835000Y-6435500D02*
X8915000Y-6515500D01*
X8915000Y-6435500D02*
X8835000Y-6515500D01*
X8835000Y-6689500D02*
X8915000Y-6769500D01*
X8915000Y-6689500D02*
X8835000Y-6769500D01*
X8835000Y-7305500D02*
X8915000Y-7385500D01*
X8915000Y-7305500D02*
X8835000Y-7385500D01*
X8835000Y-7559500D02*
X8915000Y-7639500D01*
X8915000Y-7559500D02*
X8835000Y-7639500D01*
X8906000Y-8985000D02*
X8986000Y-9065000D01*
X8986000Y-8985000D02*
X8906000Y-9065000D01*
X8910500Y-8660000D02*
X8990500Y-8740000D01*
X8990500Y-8660000D02*
X8910500Y-8740000D01*
X9064500Y-11660000D02*
X9144500Y-11740000D01*
X9144500Y-11660000D02*
X9064500Y-11740000D01*
X9070000Y-6035000D02*
X9150000Y-6115000D01*
X9150000Y-6035000D02*
X9070000Y-6115000D01*
X9070000Y-8210000D02*
X9150000Y-8290000D01*
X9150000Y-8210000D02*
X9070000Y-8290000D01*
X9070000Y-11210000D02*
X9150000Y-11290000D01*
X9150000Y-11210000D02*
X9070000Y-11290000D01*
X9070000Y-13835000D02*
X9150000Y-13915000D01*
X9150000Y-13835000D02*
X9070000Y-13915000D01*
X9089489Y-4760000D02*
X9169489Y-4840000D01*
X9169489Y-4760000D02*
X9089489Y-4840000D01*
X9130500Y-5410000D02*
X9210500Y-5490000D01*
X9210500Y-5410000D02*
X9130500Y-5490000D01*
X9135000Y-12135500D02*
X9215000Y-12215500D01*
X9215000Y-12135500D02*
X9135000Y-12215500D01*
X9135000Y-12389500D02*
X9215000Y-12469500D01*
X9215000Y-12389500D02*
X9135000Y-12469500D01*
X9135000Y-12860500D02*
X9215000Y-12940500D01*
X9215000Y-12860500D02*
X9135000Y-12940500D01*
X9135000Y-13114500D02*
X9215000Y-13194500D01*
X9215000Y-13114500D02*
X9135000Y-13194500D01*
X9160000Y-6435500D02*
X9240000Y-6515500D01*
X9240000Y-6435500D02*
X9160000Y-6515500D01*
X9160000Y-6689500D02*
X9240000Y-6769500D01*
X9240000Y-6689500D02*
X9160000Y-6769500D01*
X9160000Y-7305500D02*
X9240000Y-7385500D01*
X9240000Y-7305500D02*
X9160000Y-7385500D01*
X9160000Y-7559500D02*
X9240000Y-7639500D01*
X9240000Y-7559500D02*
X9160000Y-7639500D01*
X9160000Y-8985000D02*
X9240000Y-9065000D01*
X9240000Y-8985000D02*
X9160000Y-9065000D01*
X9164500Y-8660000D02*
X9244500Y-8740000D01*
X9244500Y-8660000D02*
X9164500Y-8740000D01*
X9289489Y-4760000D02*
X9369489Y-4840000D01*
X9369489Y-4760000D02*
X9289489Y-4840000D01*
X9384500Y-5410000D02*
X9464500Y-5490000D01*
X9464500Y-5410000D02*
X9384500Y-5490000D01*
X9485000Y-10885500D02*
X9565000Y-10965500D01*
X9565000Y-10885500D02*
X9485000Y-10965500D01*
X9485000Y-11139500D02*
X9565000Y-11219500D01*
X9565000Y-11139500D02*
X9485000Y-11219500D01*
X9540000Y-5857000D02*
X9620000Y-5937000D01*
X9620000Y-5857000D02*
X9540000Y-5937000D01*
X9540000Y-6111000D02*
X9620000Y-6191000D01*
X9620000Y-6111000D02*
X9540000Y-6191000D01*
X9540000Y-6365000D02*
X9620000Y-6445000D01*
X9620000Y-6365000D02*
X9540000Y-6445000D01*
X9540000Y-6582000D02*
X9620000Y-6662000D01*
X9620000Y-6582000D02*
X9540000Y-6662000D01*
X9540000Y-6836000D02*
X9620000Y-6916000D01*
X9620000Y-6836000D02*
X9540000Y-6916000D01*
X9540000Y-7090000D02*
X9620000Y-7170000D01*
X9620000Y-7090000D02*
X9540000Y-7170000D01*
X9540000Y-11532000D02*
X9620000Y-11612000D01*
X9620000Y-11532000D02*
X9540000Y-11612000D01*
X9540000Y-11786000D02*
X9620000Y-11866000D01*
X9620000Y-11786000D02*
X9540000Y-11866000D01*
X9540000Y-12040000D02*
X9620000Y-12120000D01*
X9620000Y-12040000D02*
X9540000Y-12120000D01*
X9540000Y-12257000D02*
X9620000Y-12337000D01*
X9620000Y-12257000D02*
X9540000Y-12337000D01*
X9540000Y-12511000D02*
X9620000Y-12591000D01*
X9620000Y-12511000D02*
X9540000Y-12591000D01*
X9540000Y-12765000D02*
X9620000Y-12845000D01*
X9620000Y-12765000D02*
X9540000Y-12845000D01*
X9660000Y-5280500D02*
X9740000Y-5360500D01*
X9740000Y-5280500D02*
X9660000Y-5360500D01*
X9660000Y-5534500D02*
X9740000Y-5614500D01*
X9740000Y-5534500D02*
X9660000Y-5614500D01*
X5350000Y-4800000D02*
G75*
G02*
X5250000Y-4800000I-50000J0D01*
G01*
X5250000Y-4800000D02*
G75*
G02*
X5350000Y-4800000I50000J0D01*
G01*
X5350000Y-5054000D02*
G75*
G02*
X5250000Y-5054000I-50000J0D01*
G01*
X5250000Y-5054000D02*
G75*
G02*
X5350000Y-5054000I50000J0D01*
G01*
X5350000Y-5308000D02*
G75*
G02*
X5250000Y-5308000I-50000J0D01*
G01*
X5250000Y-5308000D02*
G75*
G02*
X5350000Y-5308000I50000J0D01*
G01*
X5350000Y-5562000D02*
G75*
G02*
X5250000Y-5562000I-50000J0D01*
G01*
X5250000Y-5562000D02*
G75*
G02*
X5350000Y-5562000I50000J0D01*
G01*
X5350000Y-5816000D02*
G75*
G02*
X5250000Y-5816000I-50000J0D01*
G01*
X5250000Y-5816000D02*
G75*
G02*
X5350000Y-5816000I50000J0D01*
G01*
X5350000Y-6070000D02*
G75*
G02*
X5250000Y-6070000I-50000J0D01*
G01*
X5250000Y-6070000D02*
G75*
G02*
X5350000Y-6070000I50000J0D01*
G01*
X5350000Y-10300000D02*
G75*
G02*
X5250000Y-10300000I-50000J0D01*
G01*
X5250000Y-10300000D02*
G75*
G02*
X5350000Y-10300000I50000J0D01*
G01*
X5350000Y-10554000D02*
G75*
G02*
X5250000Y-10554000I-50000J0D01*
G01*
X5250000Y-10554000D02*
G75*
G02*
X5350000Y-10554000I50000J0D01*
G01*
X5350000Y-10808000D02*
G75*
G02*
X5250000Y-10808000I-50000J0D01*
G01*
X5250000Y-10808000D02*
G75*
G02*
X5350000Y-10808000I50000J0D01*
G01*
X5350000Y-11062000D02*
G75*
G02*
X5250000Y-11062000I-50000J0D01*
G01*
X5250000Y-11062000D02*
G75*
G02*
X5350000Y-11062000I50000J0D01*
G01*
X5350000Y-11316000D02*
G75*
G02*
X5250000Y-11316000I-50000J0D01*
G01*
X5250000Y-11316000D02*
G75*
G02*
X5350000Y-11316000I50000J0D01*
G01*
X5350000Y-11570000D02*
G75*
G02*
X5250000Y-11570000I-50000J0D01*
G01*
X5250000Y-11570000D02*
G75*
G02*
X5350000Y-11570000I50000J0D01*
G01*
X5440381Y-15465381D02*
G75*
G02*
X5340381Y-15465381I-50000J0D01*
G01*
X5340381Y-15465381D02*
G75*
G02*
X5440381Y-15465381I50000J0D01*
G01*
X5408059Y-15376993D02*
X5301993Y-15483059D01*
X5372703Y-15553769D02*
G75*
G02*
X5301993Y-15483059I-35355J35355D01*
G01*
X5372703Y-15553769D02*
X5478769Y-15447703D01*
X5478769Y-15447703D02*
G75*
G03*
X5408059Y-15376993I-35355J35355D01*
G01*
X5440381Y-17115381D02*
G75*
G02*
X5340381Y-17115381I-50000J0D01*
G01*
X5340381Y-17115381D02*
G75*
G02*
X5440381Y-17115381I50000J0D01*
G01*
X5408059Y-17026993D02*
X5301993Y-17133059D01*
X5372703Y-17203769D02*
G75*
G02*
X5301993Y-17133059I-35355J35355D01*
G01*
X5372703Y-17203769D02*
X5478769Y-17097703D01*
X5478769Y-17097703D02*
G75*
G03*
X5408059Y-17026993I-35355J35355D01*
G01*
X5440381Y-18765381D02*
G75*
G02*
X5340381Y-18765381I-50000J0D01*
G01*
X5340381Y-18765381D02*
G75*
G02*
X5440381Y-18765381I50000J0D01*
G01*
X5408059Y-18676993D02*
X5301993Y-18783059D01*
X5372703Y-18853769D02*
G75*
G02*
X5301993Y-18783059I-35355J35355D01*
G01*
X5372703Y-18853769D02*
X5478769Y-18747703D01*
X5478769Y-18747703D02*
G75*
G03*
X5408059Y-18676993I-35355J35355D01*
G01*
X5440381Y-20415381D02*
G75*
G02*
X5340381Y-20415381I-50000J0D01*
G01*
X5340381Y-20415381D02*
G75*
G02*
X5440381Y-20415381I50000J0D01*
G01*
X5408059Y-20326993D02*
X5301993Y-20433059D01*
X5372703Y-20503769D02*
G75*
G02*
X5301993Y-20433059I-35355J35355D01*
G01*
X5372703Y-20503769D02*
X5478769Y-20397703D01*
X5478769Y-20397703D02*
G75*
G03*
X5408059Y-20326993I-35355J35355D01*
G01*
X5736000Y-14574750D02*
G75*
G02*
X5636000Y-14574750I-50000J0D01*
G01*
X5636000Y-14574750D02*
G75*
G02*
X5736000Y-14574750I50000J0D01*
G01*
X5736000Y-14828750D02*
G75*
G02*
X5636000Y-14828750I-50000J0D01*
G01*
X5636000Y-14828750D02*
G75*
G02*
X5736000Y-14828750I50000J0D01*
G01*
X5990000Y-14574750D02*
G75*
G02*
X5890000Y-14574750I-50000J0D01*
G01*
X5890000Y-14574750D02*
G75*
G02*
X5990000Y-14574750I50000J0D01*
G01*
X5990000Y-14828750D02*
G75*
G02*
X5890000Y-14828750I-50000J0D01*
G01*
X5890000Y-14828750D02*
G75*
G02*
X5990000Y-14828750I50000J0D01*
G01*
X6150000Y-15275000D02*
G75*
G02*
X6050000Y-15275000I-50000J0D01*
G01*
X6050000Y-15275000D02*
G75*
G02*
X6150000Y-15275000I50000J0D01*
G01*
X6025000Y-15325000D02*
X6175000Y-15325000D01*
X6175000Y-15225000D02*
G75*
G02*
X6175000Y-15325000I0J-50000D01*
G01*
X6175000Y-15225000D02*
X6025000Y-15225000D01*
X6025000Y-15225000D02*
G75*
G03*
X6025000Y-15325000I0J-50000D01*
G01*
X6150000Y-16925000D02*
G75*
G02*
X6050000Y-16925000I-50000J0D01*
G01*
X6050000Y-16925000D02*
G75*
G02*
X6150000Y-16925000I50000J0D01*
G01*
X6025000Y-16975000D02*
X6175000Y-16975000D01*
X6175000Y-16875000D02*
G75*
G02*
X6175000Y-16975000I0J-50000D01*
G01*
X6175000Y-16875000D02*
X6025000Y-16875000D01*
X6025000Y-16875000D02*
G75*
G03*
X6025000Y-16975000I0J-50000D01*
G01*
X6150000Y-18575000D02*
G75*
G02*
X6050000Y-18575000I-50000J0D01*
G01*
X6050000Y-18575000D02*
G75*
G02*
X6150000Y-18575000I50000J0D01*
G01*
X6025000Y-18625000D02*
X6175000Y-18625000D01*
X6175000Y-18525000D02*
G75*
G02*
X6175000Y-18625000I0J-50000D01*
G01*
X6175000Y-18525000D02*
X6025000Y-18525000D01*
X6025000Y-18525000D02*
G75*
G03*
X6025000Y-18625000I0J-50000D01*
G01*
X6150000Y-20225000D02*
G75*
G02*
X6050000Y-20225000I-50000J0D01*
G01*
X6050000Y-20225000D02*
G75*
G02*
X6150000Y-20225000I50000J0D01*
G01*
X6025000Y-20275000D02*
X6175000Y-20275000D01*
X6175000Y-20175000D02*
G75*
G02*
X6175000Y-20275000I0J-50000D01*
G01*
X6175000Y-20175000D02*
X6025000Y-20175000D01*
X6025000Y-20175000D02*
G75*
G03*
X6025000Y-20275000I0J-50000D01*
G01*
X6244000Y-14574750D02*
G75*
G02*
X6144000Y-14574750I-50000J0D01*
G01*
X6144000Y-14574750D02*
G75*
G02*
X6244000Y-14574750I50000J0D01*
G01*
X6244000Y-14828750D02*
G75*
G02*
X6144000Y-14828750I-50000J0D01*
G01*
X6144000Y-14828750D02*
G75*
G02*
X6244000Y-14828750I50000J0D01*
G01*
X6498000Y-14574750D02*
G75*
G02*
X6398000Y-14574750I-50000J0D01*
G01*
X6398000Y-14574750D02*
G75*
G02*
X6498000Y-14574750I50000J0D01*
G01*
X6498000Y-14828750D02*
G75*
G02*
X6398000Y-14828750I-50000J0D01*
G01*
X6398000Y-14828750D02*
G75*
G02*
X6498000Y-14828750I50000J0D01*
G01*
X6550000Y-15875000D02*
G75*
G02*
X6450000Y-15875000I-50000J0D01*
G01*
X6450000Y-15875000D02*
G75*
G02*
X6550000Y-15875000I50000J0D01*
G01*
X6450000Y-15800000D02*
X6450000Y-15950000D01*
X6550000Y-15950000D02*
G75*
G02*
X6450000Y-15950000I-50000J0D01*
G01*
X6550000Y-15950000D02*
X6550000Y-15800000D01*
X6550000Y-15800000D02*
G75*
G03*
X6450000Y-15800000I-50000J0D01*
G01*
X6550000Y-17525000D02*
G75*
G02*
X6450000Y-17525000I-50000J0D01*
G01*
X6450000Y-17525000D02*
G75*
G02*
X6550000Y-17525000I50000J0D01*
G01*
X6450000Y-17450000D02*
X6450000Y-17600000D01*
X6550000Y-17600000D02*
G75*
G02*
X6450000Y-17600000I-50000J0D01*
G01*
X6550000Y-17600000D02*
X6550000Y-17450000D01*
X6550000Y-17450000D02*
G75*
G03*
X6450000Y-17450000I-50000J0D01*
G01*
X6550000Y-19175000D02*
G75*
G02*
X6450000Y-19175000I-50000J0D01*
G01*
X6450000Y-19175000D02*
G75*
G02*
X6550000Y-19175000I50000J0D01*
G01*
X6450000Y-19100000D02*
X6450000Y-19250000D01*
X6550000Y-19250000D02*
G75*
G02*
X6450000Y-19250000I-50000J0D01*
G01*
X6550000Y-19250000D02*
X6550000Y-19100000D01*
X6550000Y-19100000D02*
G75*
G03*
X6450000Y-19100000I-50000J0D01*
G01*
X6550000Y-20825000D02*
G75*
G02*
X6450000Y-20825000I-50000J0D01*
G01*
X6450000Y-20825000D02*
G75*
G02*
X6550000Y-20825000I50000J0D01*
G01*
X6450000Y-20750000D02*
X6450000Y-20900000D01*
X6550000Y-20900000D02*
G75*
G02*
X6450000Y-20900000I-50000J0D01*
G01*
X6550000Y-20900000D02*
X6550000Y-20750000D01*
X6550000Y-20750000D02*
G75*
G03*
X6450000Y-20750000I-50000J0D01*
G01*
X6752000Y-14574750D02*
G75*
G02*
X6652000Y-14574750I-50000J0D01*
G01*
X6652000Y-14574750D02*
G75*
G02*
X6752000Y-14574750I50000J0D01*
G01*
X6752000Y-14828750D02*
G75*
G02*
X6652000Y-14828750I-50000J0D01*
G01*
X6652000Y-14828750D02*
G75*
G02*
X6752000Y-14828750I50000J0D01*
G01*
X7006000Y-14574750D02*
G75*
G02*
X6906000Y-14574750I-50000J0D01*
G01*
X6906000Y-14574750D02*
G75*
G02*
X7006000Y-14574750I50000J0D01*
G01*
X7006000Y-14828750D02*
G75*
G02*
X6906000Y-14828750I-50000J0D01*
G01*
X6906000Y-14828750D02*
G75*
G02*
X7006000Y-14828750I50000J0D01*
G01*
X7042000Y-4621250D02*
G75*
G02*
X6942000Y-4621250I-50000J0D01*
G01*
X6942000Y-4621250D02*
G75*
G02*
X7042000Y-4621250I50000J0D01*
G01*
X7042000Y-4875250D02*
G75*
G02*
X6942000Y-4875250I-50000J0D01*
G01*
X6942000Y-4875250D02*
G75*
G02*
X7042000Y-4875250I50000J0D01*
G01*
X7090381Y-15465381D02*
G75*
G02*
X6990381Y-15465381I-50000J0D01*
G01*
X6990381Y-15465381D02*
G75*
G02*
X7090381Y-15465381I50000J0D01*
G01*
X7058059Y-15376993D02*
X6951993Y-15483059D01*
X7022703Y-15553769D02*
G75*
G02*
X6951993Y-15483059I-35355J35355D01*
G01*
X7022703Y-15553769D02*
X7128769Y-15447703D01*
X7128769Y-15447703D02*
G75*
G03*
X7058059Y-15376993I-35355J35355D01*
G01*
X7090381Y-17115381D02*
G75*
G02*
X6990381Y-17115381I-50000J0D01*
G01*
X6990381Y-17115381D02*
G75*
G02*
X7090381Y-17115381I50000J0D01*
G01*
X7058059Y-17026993D02*
X6951993Y-17133059D01*
X7022703Y-17203769D02*
G75*
G02*
X6951993Y-17133059I-35355J35355D01*
G01*
X7022703Y-17203769D02*
X7128769Y-17097703D01*
X7128769Y-17097703D02*
G75*
G03*
X7058059Y-17026993I-35355J35355D01*
G01*
X7090381Y-18765381D02*
G75*
G02*
X6990381Y-18765381I-50000J0D01*
G01*
X6990381Y-18765381D02*
G75*
G02*
X7090381Y-18765381I50000J0D01*
G01*
X7058059Y-18676993D02*
X6951993Y-18783059D01*
X7022703Y-18853769D02*
G75*
G02*
X6951993Y-18783059I-35355J35355D01*
G01*
X7022703Y-18853769D02*
X7128769Y-18747703D01*
X7128769Y-18747703D02*
G75*
G03*
X7058059Y-18676993I-35355J35355D01*
G01*
X7090381Y-20415381D02*
G75*
G02*
X6990381Y-20415381I-50000J0D01*
G01*
X6990381Y-20415381D02*
G75*
G02*
X7090381Y-20415381I50000J0D01*
G01*
X7058059Y-20326993D02*
X6951993Y-20433059D01*
X7022703Y-20503769D02*
G75*
G02*
X6951993Y-20433059I-35355J35355D01*
G01*
X7022703Y-20503769D02*
X7128769Y-20397703D01*
X7128769Y-20397703D02*
G75*
G03*
X7058059Y-20326993I-35355J35355D01*
G01*
X7260000Y-14574750D02*
G75*
G02*
X7160000Y-14574750I-50000J0D01*
G01*
X7160000Y-14574750D02*
G75*
G02*
X7260000Y-14574750I50000J0D01*
G01*
X7260000Y-14828750D02*
G75*
G02*
X7160000Y-14828750I-50000J0D01*
G01*
X7160000Y-14828750D02*
G75*
G02*
X7260000Y-14828750I50000J0D01*
G01*
X7296000Y-4621250D02*
G75*
G02*
X7196000Y-4621250I-50000J0D01*
G01*
X7196000Y-4621250D02*
G75*
G02*
X7296000Y-4621250I50000J0D01*
G01*
X7296000Y-4875250D02*
G75*
G02*
X7196000Y-4875250I-50000J0D01*
G01*
X7196000Y-4875250D02*
G75*
G02*
X7296000Y-4875250I50000J0D01*
G01*
X7514000Y-14574750D02*
G75*
G02*
X7414000Y-14574750I-50000J0D01*
G01*
X7414000Y-14574750D02*
G75*
G02*
X7514000Y-14574750I50000J0D01*
G01*
X7514000Y-14828750D02*
G75*
G02*
X7414000Y-14828750I-50000J0D01*
G01*
X7414000Y-14828750D02*
G75*
G02*
X7514000Y-14828750I50000J0D01*
G01*
X7550000Y-4621250D02*
G75*
G02*
X7450000Y-4621250I-50000J0D01*
G01*
X7450000Y-4621250D02*
G75*
G02*
X7550000Y-4621250I50000J0D01*
G01*
X7550000Y-4875250D02*
G75*
G02*
X7450000Y-4875250I-50000J0D01*
G01*
X7450000Y-4875250D02*
G75*
G02*
X7550000Y-4875250I50000J0D01*
G01*
X7800000Y-15275000D02*
G75*
G02*
X7700000Y-15275000I-50000J0D01*
G01*
X7700000Y-15275000D02*
G75*
G02*
X7800000Y-15275000I50000J0D01*
G01*
X7675000Y-15325000D02*
X7825000Y-15325000D01*
X7825000Y-15225000D02*
G75*
G02*
X7825000Y-15325000I0J-50000D01*
G01*
X7825000Y-15225000D02*
X7675000Y-15225000D01*
X7675000Y-15225000D02*
G75*
G03*
X7675000Y-15325000I0J-50000D01*
G01*
X7800000Y-16925000D02*
G75*
G02*
X7700000Y-16925000I-50000J0D01*
G01*
X7700000Y-16925000D02*
G75*
G02*
X7800000Y-16925000I50000J0D01*
G01*
X7675000Y-16975000D02*
X7825000Y-16975000D01*
X7825000Y-16875000D02*
G75*
G02*
X7825000Y-16975000I0J-50000D01*
G01*
X7825000Y-16875000D02*
X7675000Y-16875000D01*
X7675000Y-16875000D02*
G75*
G03*
X7675000Y-16975000I0J-50000D01*
G01*
X7800000Y-18575000D02*
G75*
G02*
X7700000Y-18575000I-50000J0D01*
G01*
X7700000Y-18575000D02*
G75*
G02*
X7800000Y-18575000I50000J0D01*
G01*
X7675000Y-18625000D02*
X7825000Y-18625000D01*
X7825000Y-18525000D02*
G75*
G02*
X7825000Y-18625000I0J-50000D01*
G01*
X7825000Y-18525000D02*
X7675000Y-18525000D01*
X7675000Y-18525000D02*
G75*
G03*
X7675000Y-18625000I0J-50000D01*
G01*
X7800000Y-20225000D02*
G75*
G02*
X7700000Y-20225000I-50000J0D01*
G01*
X7700000Y-20225000D02*
G75*
G02*
X7800000Y-20225000I50000J0D01*
G01*
X7675000Y-20275000D02*
X7825000Y-20275000D01*
X7825000Y-20175000D02*
G75*
G02*
X7825000Y-20275000I0J-50000D01*
G01*
X7825000Y-20175000D02*
X7675000Y-20175000D01*
X7675000Y-20175000D02*
G75*
G03*
X7675000Y-20275000I0J-50000D01*
G01*
X7804000Y-4621250D02*
G75*
G02*
X7704000Y-4621250I-50000J0D01*
G01*
X7704000Y-4621250D02*
G75*
G02*
X7804000Y-4621250I50000J0D01*
G01*
X7804000Y-4875250D02*
G75*
G02*
X7704000Y-4875250I-50000J0D01*
G01*
X7704000Y-4875250D02*
G75*
G02*
X7804000Y-4875250I50000J0D01*
G01*
X8058000Y-4621250D02*
G75*
G02*
X7958000Y-4621250I-50000J0D01*
G01*
X7958000Y-4621250D02*
G75*
G02*
X8058000Y-4621250I50000J0D01*
G01*
X8058000Y-4875250D02*
G75*
G02*
X7958000Y-4875250I-50000J0D01*
G01*
X7958000Y-4875250D02*
G75*
G02*
X8058000Y-4875250I50000J0D01*
G01*
X8200000Y-15875000D02*
G75*
G02*
X8100000Y-15875000I-50000J0D01*
G01*
X8100000Y-15875000D02*
G75*
G02*
X8200000Y-15875000I50000J0D01*
G01*
X8100000Y-15800000D02*
X8100000Y-15950000D01*
X8200000Y-15950000D02*
G75*
G02*
X8100000Y-15950000I-50000J0D01*
G01*
X8200000Y-15950000D02*
X8200000Y-15800000D01*
X8200000Y-15800000D02*
G75*
G03*
X8100000Y-15800000I-50000J0D01*
G01*
X8200000Y-17525000D02*
G75*
G02*
X8100000Y-17525000I-50000J0D01*
G01*
X8100000Y-17525000D02*
G75*
G02*
X8200000Y-17525000I50000J0D01*
G01*
X8100000Y-17450000D02*
X8100000Y-17600000D01*
X8200000Y-17600000D02*
G75*
G02*
X8100000Y-17600000I-50000J0D01*
G01*
X8200000Y-17600000D02*
X8200000Y-17450000D01*
X8200000Y-17450000D02*
G75*
G03*
X8100000Y-17450000I-50000J0D01*
G01*
X8200000Y-19175000D02*
G75*
G02*
X8100000Y-19175000I-50000J0D01*
G01*
X8100000Y-19175000D02*
G75*
G02*
X8200000Y-19175000I50000J0D01*
G01*
X8100000Y-19100000D02*
X8100000Y-19250000D01*
X8200000Y-19250000D02*
G75*
G02*
X8100000Y-19250000I-50000J0D01*
G01*
X8200000Y-19250000D02*
X8200000Y-19100000D01*
X8200000Y-19100000D02*
G75*
G03*
X8100000Y-19100000I-50000J0D01*
G01*
X8200000Y-20825000D02*
G75*
G02*
X8100000Y-20825000I-50000J0D01*
G01*
X8100000Y-20825000D02*
G75*
G02*
X8200000Y-20825000I50000J0D01*
G01*
X8100000Y-20750000D02*
X8100000Y-20900000D01*
X8200000Y-20900000D02*
G75*
G02*
X8100000Y-20900000I-50000J0D01*
G01*
X8200000Y-20900000D02*
X8200000Y-20750000D01*
X8200000Y-20750000D02*
G75*
G03*
X8100000Y-20750000I-50000J0D01*
G01*
X8550000Y-15675000D02*
G75*
G02*
X8450000Y-15675000I-50000J0D01*
G01*
X8450000Y-15675000D02*
G75*
G02*
X8550000Y-15675000I50000J0D01*
G01*
X8550000Y-15750000D02*
X8550000Y-15600000D01*
X8450000Y-15600000D02*
G75*
G02*
X8550000Y-15600000I50000J0D01*
G01*
X8450000Y-15600000D02*
X8450000Y-15750000D01*
X8450000Y-15750000D02*
G75*
G03*
X8550000Y-15750000I50000J0D01*
G01*
X8550000Y-17325000D02*
G75*
G02*
X8450000Y-17325000I-50000J0D01*
G01*
X8450000Y-17325000D02*
G75*
G02*
X8550000Y-17325000I50000J0D01*
G01*
X8550000Y-17400000D02*
X8550000Y-17250000D01*
X8450000Y-17250000D02*
G75*
G02*
X8550000Y-17250000I50000J0D01*
G01*
X8450000Y-17250000D02*
X8450000Y-17400000D01*
X8450000Y-17400000D02*
G75*
G03*
X8550000Y-17400000I50000J0D01*
G01*
X8550000Y-18975000D02*
G75*
G02*
X8450000Y-18975000I-50000J0D01*
G01*
X8450000Y-18975000D02*
G75*
G02*
X8550000Y-18975000I50000J0D01*
G01*
X8550000Y-19050000D02*
X8550000Y-18900000D01*
X8450000Y-18900000D02*
G75*
G02*
X8550000Y-18900000I50000J0D01*
G01*
X8450000Y-18900000D02*
X8450000Y-19050000D01*
X8450000Y-19050000D02*
G75*
G03*
X8550000Y-19050000I50000J0D01*
G01*
X8550000Y-20625000D02*
G75*
G02*
X8450000Y-20625000I-50000J0D01*
G01*
X8450000Y-20625000D02*
G75*
G02*
X8550000Y-20625000I50000J0D01*
G01*
X8550000Y-20700000D02*
X8550000Y-20550000D01*
X8450000Y-20550000D02*
G75*
G02*
X8550000Y-20550000I50000J0D01*
G01*
X8450000Y-20550000D02*
X8450000Y-20700000D01*
X8450000Y-20700000D02*
G75*
G03*
X8550000Y-20700000I50000J0D01*
G01*
X8740381Y-16384619D02*
G75*
G02*
X8640381Y-16384619I-50000J0D01*
G01*
X8640381Y-16384619D02*
G75*
G02*
X8740381Y-16384619I50000J0D01*
G01*
X8601993Y-16366941D02*
X8708059Y-16473007D01*
X8778769Y-16402297D02*
G75*
G02*
X8708059Y-16473007I-35355J-35355D01*
G01*
X8778769Y-16402297D02*
X8672703Y-16296231D01*
X8672703Y-16296231D02*
G75*
G03*
X8601993Y-16366941I-35355J-35355D01*
G01*
X8740381Y-18034619D02*
G75*
G02*
X8640381Y-18034619I-50000J0D01*
G01*
X8640381Y-18034619D02*
G75*
G02*
X8740381Y-18034619I50000J0D01*
G01*
X8601993Y-18016941D02*
X8708059Y-18123007D01*
X8778769Y-18052297D02*
G75*
G02*
X8708059Y-18123007I-35355J-35355D01*
G01*
X8778769Y-18052297D02*
X8672703Y-17946231D01*
X8672703Y-17946231D02*
G75*
G03*
X8601993Y-18016941I-35355J-35355D01*
G01*
X8740381Y-19684619D02*
G75*
G02*
X8640381Y-19684619I-50000J0D01*
G01*
X8640381Y-19684619D02*
G75*
G02*
X8740381Y-19684619I50000J0D01*
G01*
X8601993Y-19666941D02*
X8708059Y-19773007D01*
X8778769Y-19702297D02*
G75*
G02*
X8708059Y-19773007I-35355J-35355D01*
G01*
X8778769Y-19702297D02*
X8672703Y-19596231D01*
X8672703Y-19596231D02*
G75*
G03*
X8601993Y-19666941I-35355J-35355D01*
G01*
X8740381Y-21334619D02*
G75*
G02*
X8640381Y-21334619I-50000J0D01*
G01*
X8640381Y-21334619D02*
G75*
G02*
X8740381Y-21334619I50000J0D01*
G01*
X8601993Y-21316941D02*
X8708059Y-21423007D01*
X8778769Y-21352297D02*
G75*
G02*
X8708059Y-21423007I-35355J-35355D01*
G01*
X8778769Y-21352297D02*
X8672703Y-21246231D01*
X8672703Y-21246231D02*
G75*
G03*
X8601993Y-21316941I-35355J-35355D01*
G01*
X9150000Y-15275000D02*
G75*
G02*
X9050000Y-15275000I-50000J0D01*
G01*
X9050000Y-15275000D02*
G75*
G02*
X9150000Y-15275000I50000J0D01*
G01*
X9025000Y-15325000D02*
X9175000Y-15325000D01*
X9175000Y-15225000D02*
G75*
G02*
X9175000Y-15325000I0J-50000D01*
G01*
X9175000Y-15225000D02*
X9025000Y-15225000D01*
X9025000Y-15225000D02*
G75*
G03*
X9025000Y-15325000I0J-50000D01*
G01*
X9150000Y-16925000D02*
G75*
G02*
X9050000Y-16925000I-50000J0D01*
G01*
X9050000Y-16925000D02*
G75*
G02*
X9150000Y-16925000I50000J0D01*
G01*
X9025000Y-16975000D02*
X9175000Y-16975000D01*
X9175000Y-16875000D02*
G75*
G02*
X9175000Y-16975000I0J-50000D01*
G01*
X9175000Y-16875000D02*
X9025000Y-16875000D01*
X9025000Y-16875000D02*
G75*
G03*
X9025000Y-16975000I0J-50000D01*
G01*
X9150000Y-18575000D02*
G75*
G02*
X9050000Y-18575000I-50000J0D01*
G01*
X9050000Y-18575000D02*
G75*
G02*
X9150000Y-18575000I50000J0D01*
G01*
X9025000Y-18625000D02*
X9175000Y-18625000D01*
X9175000Y-18525000D02*
G75*
G02*
X9175000Y-18625000I0J-50000D01*
G01*
X9175000Y-18525000D02*
X9025000Y-18525000D01*
X9025000Y-18525000D02*
G75*
G03*
X9025000Y-18625000I0J-50000D01*
G01*
X9150000Y-20225000D02*
G75*
G02*
X9050000Y-20225000I-50000J0D01*
G01*
X9050000Y-20225000D02*
G75*
G02*
X9150000Y-20225000I50000J0D01*
G01*
X9025000Y-20275000D02*
X9175000Y-20275000D01*
X9175000Y-20175000D02*
G75*
G02*
X9175000Y-20275000I0J-50000D01*
G01*
X9175000Y-20175000D02*
X9025000Y-20175000D01*
X9025000Y-20175000D02*
G75*
G03*
X9025000Y-20275000I0J-50000D01*
G01*
X9750000Y-7700000D02*
G75*
G02*
X9650000Y-7700000I-50000J0D01*
G01*
X9650000Y-7700000D02*
G75*
G02*
X9750000Y-7700000I50000J0D01*
G01*
X9750000Y-7954000D02*
G75*
G02*
X9650000Y-7954000I-50000J0D01*
G01*
X9650000Y-7954000D02*
G75*
G02*
X9750000Y-7954000I50000J0D01*
G01*
X9750000Y-8208000D02*
G75*
G02*
X9650000Y-8208000I-50000J0D01*
G01*
X9650000Y-8208000D02*
G75*
G02*
X9750000Y-8208000I50000J0D01*
G01*
X9750000Y-8462000D02*
G75*
G02*
X9650000Y-8462000I-50000J0D01*
G01*
X9650000Y-8462000D02*
G75*
G02*
X9750000Y-8462000I50000J0D01*
G01*
X9750000Y-8716000D02*
G75*
G02*
X9650000Y-8716000I-50000J0D01*
G01*
X9650000Y-8716000D02*
G75*
G02*
X9750000Y-8716000I50000J0D01*
G01*
X9750000Y-8970000D02*
G75*
G02*
X9650000Y-8970000I-50000J0D01*
G01*
X9650000Y-8970000D02*
G75*
G02*
X9750000Y-8970000I50000J0D01*
G01*
X9750000Y-13200000D02*
G75*
G02*
X9650000Y-13200000I-50000J0D01*
G01*
X9650000Y-13200000D02*
G75*
G02*
X9750000Y-13200000I50000J0D01*
G01*
X9750000Y-13454000D02*
G75*
G02*
X9650000Y-13454000I-50000J0D01*
G01*
X9650000Y-13454000D02*
G75*
G02*
X9750000Y-13454000I50000J0D01*
G01*
X9750000Y-13708000D02*
G75*
G02*
X9650000Y-13708000I-50000J0D01*
G01*
X9650000Y-13708000D02*
G75*
G02*
X9750000Y-13708000I50000J0D01*
G01*
X9750000Y-13962000D02*
G75*
G02*
X9650000Y-13962000I-50000J0D01*
G01*
X9650000Y-13962000D02*
G75*
G02*
X9750000Y-13962000I50000J0D01*
G01*
X9750000Y-14216000D02*
G75*
G02*
X9650000Y-14216000I-50000J0D01*
G01*
X9650000Y-14216000D02*
G75*
G02*
X9750000Y-14216000I50000J0D01*
G01*
X9750000Y-14470000D02*
G75*
G02*
X9650000Y-14470000I-50000J0D01*
G01*
X9650000Y-14470000D02*
G75*
G02*
X9750000Y-14470000I50000J0D01*
G01*
D13*
X6250000Y-4387000D02*
X6250000Y-4497000D01*
X6195000Y-4442000D02*
X6305000Y-4442000D01*
X6250000Y-5403000D02*
X6250000Y-5513000D01*
X6195000Y-5458000D02*
X6305000Y-5458000D01*
X8750000Y-4387000D02*
X8750000Y-4497000D01*
X8695000Y-4442000D02*
X8805000Y-4442000D01*
X8750000Y-5403000D02*
X8750000Y-5513000D01*
X8695000Y-5458000D02*
X8805000Y-5458000D01*
D11*
X5358277Y-22063984D02*
X5358277Y-21863984D01*
X5358277Y-21863984D02*
X5405896Y-21863984D01*
X5405896Y-21863984D02*
X5434467Y-21873508D01*
X5434467Y-21873508D02*
X5453515Y-21892555D01*
X5453515Y-21892555D02*
X5463039Y-21911603D01*
X5463039Y-21911603D02*
X5472563Y-21949698D01*
X5472563Y-21949698D02*
X5472563Y-21978270D01*
X5472563Y-21978270D02*
X5463039Y-22016365D01*
X5463039Y-22016365D02*
X5453515Y-22035412D01*
X5453515Y-22035412D02*
X5434467Y-22054460D01*
X5434467Y-22054460D02*
X5405896Y-22063984D01*
X5405896Y-22063984D02*
X5358277Y-22063984D01*
X5558277Y-22063984D02*
X5558277Y-21930650D01*
X5558277Y-21968746D02*
X5567801Y-21949698D01*
X5567801Y-21949698D02*
X5577324Y-21940174D01*
X5577324Y-21940174D02*
X5596372Y-21930650D01*
X5596372Y-21930650D02*
X5615420Y-21930650D01*
X5682086Y-22063984D02*
X5682086Y-21930650D01*
X5682086Y-21863984D02*
X5672562Y-21873508D01*
X5672562Y-21873508D02*
X5682086Y-21883031D01*
X5682086Y-21883031D02*
X5691610Y-21873508D01*
X5691610Y-21873508D02*
X5682086Y-21863984D01*
X5682086Y-21863984D02*
X5682086Y-21883031D01*
X5805896Y-22063984D02*
X5786848Y-22054460D01*
X5786848Y-22054460D02*
X5777324Y-22035412D01*
X5777324Y-22035412D02*
X5777324Y-21863984D01*
X5910658Y-22063984D02*
X5891610Y-22054460D01*
X5891610Y-22054460D02*
X5882086Y-22035412D01*
X5882086Y-22035412D02*
X5882086Y-21863984D01*
X6139229Y-22063984D02*
X6139229Y-21863984D01*
X6139229Y-21863984D02*
X6205896Y-22006841D01*
X6205896Y-22006841D02*
X6272562Y-21863984D01*
X6272562Y-21863984D02*
X6272562Y-22063984D01*
X6453515Y-22063984D02*
X6453515Y-21959222D01*
X6453515Y-21959222D02*
X6443991Y-21940174D01*
X6443991Y-21940174D02*
X6424943Y-21930650D01*
X6424943Y-21930650D02*
X6386848Y-21930650D01*
X6386848Y-21930650D02*
X6367801Y-21940174D01*
X6453515Y-22054460D02*
X6434467Y-22063984D01*
X6434467Y-22063984D02*
X6386848Y-22063984D01*
X6386848Y-22063984D02*
X6367801Y-22054460D01*
X6367801Y-22054460D02*
X6358277Y-22035412D01*
X6358277Y-22035412D02*
X6358277Y-22016365D01*
X6358277Y-22016365D02*
X6367801Y-21997317D01*
X6367801Y-21997317D02*
X6386848Y-21987793D01*
X6386848Y-21987793D02*
X6434467Y-21987793D01*
X6434467Y-21987793D02*
X6453515Y-21978270D01*
X6548753Y-21930650D02*
X6548753Y-22130650D01*
X6548753Y-21940174D02*
X6567801Y-21930650D01*
X6567801Y-21930650D02*
X6605896Y-21930650D01*
X6605896Y-21930650D02*
X6624943Y-21940174D01*
X6624943Y-21940174D02*
X6634467Y-21949698D01*
X6634467Y-21949698D02*
X6643991Y-21968746D01*
X6643991Y-21968746D02*
X6643991Y-22025889D01*
X6643991Y-22025889D02*
X6634467Y-22044936D01*
X6634467Y-22044936D02*
X6624943Y-22054460D01*
X6624943Y-22054460D02*
X6605896Y-22063984D01*
X6605896Y-22063984D02*
X6567801Y-22063984D01*
X6567801Y-22063984D02*
X6548753Y-22054460D01*
X6729705Y-22044936D02*
X6739229Y-22054460D01*
X6739229Y-22054460D02*
X6729705Y-22063984D01*
X6729705Y-22063984D02*
X6720182Y-22054460D01*
X6720182Y-22054460D02*
X6729705Y-22044936D01*
X6729705Y-22044936D02*
X6729705Y-22063984D01*
X6729705Y-21940174D02*
X6739229Y-21949698D01*
X6739229Y-21949698D02*
X6729705Y-21959222D01*
X6729705Y-21959222D02*
X6720182Y-21949698D01*
X6720182Y-21949698D02*
X6729705Y-21940174D01*
X6729705Y-21940174D02*
X6729705Y-21959222D01*
D12*
X5017500Y-22352500D02*
X5097500Y-22432500D01*
X5097500Y-22352500D02*
X5017500Y-22432500D01*
D11*
X5396372Y-22283984D02*
X5415420Y-22283984D01*
X5415420Y-22283984D02*
X5434467Y-22293508D01*
X5434467Y-22293508D02*
X5443991Y-22303031D01*
X5443991Y-22303031D02*
X5453515Y-22322079D01*
X5453515Y-22322079D02*
X5463039Y-22360174D01*
X5463039Y-22360174D02*
X5463039Y-22407793D01*
X5463039Y-22407793D02*
X5453515Y-22445888D01*
X5453515Y-22445888D02*
X5443991Y-22464936D01*
X5443991Y-22464936D02*
X5434467Y-22474460D01*
X5434467Y-22474460D02*
X5415420Y-22483984D01*
X5415420Y-22483984D02*
X5396372Y-22483984D01*
X5396372Y-22483984D02*
X5377324Y-22474460D01*
X5377324Y-22474460D02*
X5367801Y-22464936D01*
X5367801Y-22464936D02*
X5358277Y-22445888D01*
X5358277Y-22445888D02*
X5348753Y-22407793D01*
X5348753Y-22407793D02*
X5348753Y-22360174D01*
X5348753Y-22360174D02*
X5358277Y-22322079D01*
X5358277Y-22322079D02*
X5367801Y-22303031D01*
X5367801Y-22303031D02*
X5377324Y-22293508D01*
X5377324Y-22293508D02*
X5396372Y-22283984D01*
X5548753Y-22464936D02*
X5558277Y-22474460D01*
X5558277Y-22474460D02*
X5548753Y-22483984D01*
X5548753Y-22483984D02*
X5539229Y-22474460D01*
X5539229Y-22474460D02*
X5548753Y-22464936D01*
X5548753Y-22464936D02*
X5548753Y-22483984D01*
X5672562Y-22369698D02*
X5653515Y-22360174D01*
X5653515Y-22360174D02*
X5643991Y-22350650D01*
X5643991Y-22350650D02*
X5634467Y-22331603D01*
X5634467Y-22331603D02*
X5634467Y-22322079D01*
X5634467Y-22322079D02*
X5643991Y-22303031D01*
X5643991Y-22303031D02*
X5653515Y-22293508D01*
X5653515Y-22293508D02*
X5672562Y-22283984D01*
X5672562Y-22283984D02*
X5710658Y-22283984D01*
X5710658Y-22283984D02*
X5729705Y-22293508D01*
X5729705Y-22293508D02*
X5739229Y-22303031D01*
X5739229Y-22303031D02*
X5748753Y-22322079D01*
X5748753Y-22322079D02*
X5748753Y-22331603D01*
X5748753Y-22331603D02*
X5739229Y-22350650D01*
X5739229Y-22350650D02*
X5729705Y-22360174D01*
X5729705Y-22360174D02*
X5710658Y-22369698D01*
X5710658Y-22369698D02*
X5672562Y-22369698D01*
X5672562Y-22369698D02*
X5653515Y-22379222D01*
X5653515Y-22379222D02*
X5643991Y-22388746D01*
X5643991Y-22388746D02*
X5634467Y-22407793D01*
X5634467Y-22407793D02*
X5634467Y-22445888D01*
X5634467Y-22445888D02*
X5643991Y-22464936D01*
X5643991Y-22464936D02*
X5653515Y-22474460D01*
X5653515Y-22474460D02*
X5672562Y-22483984D01*
X5672562Y-22483984D02*
X5710658Y-22483984D01*
X5710658Y-22483984D02*
X5729705Y-22474460D01*
X5729705Y-22474460D02*
X5739229Y-22464936D01*
X5739229Y-22464936D02*
X5748753Y-22445888D01*
X5748753Y-22445888D02*
X5748753Y-22407793D01*
X5748753Y-22407793D02*
X5739229Y-22388746D01*
X5739229Y-22388746D02*
X5729705Y-22379222D01*
X5729705Y-22379222D02*
X5710658Y-22369698D01*
X5872562Y-22283984D02*
X5891610Y-22283984D01*
X5891610Y-22283984D02*
X5910658Y-22293508D01*
X5910658Y-22293508D02*
X5920182Y-22303031D01*
X5920182Y-22303031D02*
X5929705Y-22322079D01*
X5929705Y-22322079D02*
X5939229Y-22360174D01*
X5939229Y-22360174D02*
X5939229Y-22407793D01*
X5939229Y-22407793D02*
X5929705Y-22445888D01*
X5929705Y-22445888D02*
X5920182Y-22464936D01*
X5920182Y-22464936D02*
X5910658Y-22474460D01*
X5910658Y-22474460D02*
X5891610Y-22483984D01*
X5891610Y-22483984D02*
X5872562Y-22483984D01*
X5872562Y-22483984D02*
X5853515Y-22474460D01*
X5853515Y-22474460D02*
X5843991Y-22464936D01*
X5843991Y-22464936D02*
X5834467Y-22445888D01*
X5834467Y-22445888D02*
X5824943Y-22407793D01*
X5824943Y-22407793D02*
X5824943Y-22360174D01*
X5824943Y-22360174D02*
X5834467Y-22322079D01*
X5834467Y-22322079D02*
X5843991Y-22303031D01*
X5843991Y-22303031D02*
X5853515Y-22293508D01*
X5853515Y-22293508D02*
X5872562Y-22283984D01*
X6063039Y-22283984D02*
X6082086Y-22283984D01*
X6082086Y-22283984D02*
X6101134Y-22293508D01*
X6101134Y-22293508D02*
X6110658Y-22303031D01*
X6110658Y-22303031D02*
X6120182Y-22322079D01*
X6120182Y-22322079D02*
X6129705Y-22360174D01*
X6129705Y-22360174D02*
X6129705Y-22407793D01*
X6129705Y-22407793D02*
X6120182Y-22445888D01*
X6120182Y-22445888D02*
X6110658Y-22464936D01*
X6110658Y-22464936D02*
X6101134Y-22474460D01*
X6101134Y-22474460D02*
X6082086Y-22483984D01*
X6082086Y-22483984D02*
X6063039Y-22483984D01*
X6063039Y-22483984D02*
X6043991Y-22474460D01*
X6043991Y-22474460D02*
X6034467Y-22464936D01*
X6034467Y-22464936D02*
X6024943Y-22445888D01*
X6024943Y-22445888D02*
X6015420Y-22407793D01*
X6015420Y-22407793D02*
X6015420Y-22360174D01*
X6015420Y-22360174D02*
X6024943Y-22322079D01*
X6024943Y-22322079D02*
X6034467Y-22303031D01*
X6034467Y-22303031D02*
X6043991Y-22293508D01*
X6043991Y-22293508D02*
X6063039Y-22283984D01*
X6215420Y-22483984D02*
X6215420Y-22350650D01*
X6215420Y-22369698D02*
X6224943Y-22360174D01*
X6224943Y-22360174D02*
X6243991Y-22350650D01*
X6243991Y-22350650D02*
X6272563Y-22350650D01*
X6272563Y-22350650D02*
X6291610Y-22360174D01*
X6291610Y-22360174D02*
X6301134Y-22379222D01*
X6301134Y-22379222D02*
X6301134Y-22483984D01*
X6301134Y-22379222D02*
X6310658Y-22360174D01*
X6310658Y-22360174D02*
X6329705Y-22350650D01*
X6329705Y-22350650D02*
X6358277Y-22350650D01*
X6358277Y-22350650D02*
X6377324Y-22360174D01*
X6377324Y-22360174D02*
X6386848Y-22379222D01*
X6386848Y-22379222D02*
X6386848Y-22483984D01*
X6482086Y-22483984D02*
X6482086Y-22350650D01*
X6482086Y-22369698D02*
X6491610Y-22360174D01*
X6491610Y-22360174D02*
X6510658Y-22350650D01*
X6510658Y-22350650D02*
X6539229Y-22350650D01*
X6539229Y-22350650D02*
X6558277Y-22360174D01*
X6558277Y-22360174D02*
X6567801Y-22379222D01*
X6567801Y-22379222D02*
X6567801Y-22483984D01*
X6567801Y-22379222D02*
X6577324Y-22360174D01*
X6577324Y-22360174D02*
X6596372Y-22350650D01*
X6596372Y-22350650D02*
X6624943Y-22350650D01*
X6624943Y-22350650D02*
X6643991Y-22360174D01*
X6643991Y-22360174D02*
X6653515Y-22379222D01*
X6653515Y-22379222D02*
X6653515Y-22483984D01*
X7043991Y-22274460D02*
X6872563Y-22531603D01*
X7301134Y-22283984D02*
X7320182Y-22283984D01*
X7320182Y-22283984D02*
X7339229Y-22293508D01*
X7339229Y-22293508D02*
X7348753Y-22303031D01*
X7348753Y-22303031D02*
X7358277Y-22322079D01*
X7358277Y-22322079D02*
X7367801Y-22360174D01*
X7367801Y-22360174D02*
X7367801Y-22407793D01*
X7367801Y-22407793D02*
X7358277Y-22445888D01*
X7358277Y-22445888D02*
X7348753Y-22464936D01*
X7348753Y-22464936D02*
X7339229Y-22474460D01*
X7339229Y-22474460D02*
X7320182Y-22483984D01*
X7320182Y-22483984D02*
X7301134Y-22483984D01*
X7301134Y-22483984D02*
X7282086Y-22474460D01*
X7282086Y-22474460D02*
X7272563Y-22464936D01*
X7272563Y-22464936D02*
X7263039Y-22445888D01*
X7263039Y-22445888D02*
X7253515Y-22407793D01*
X7253515Y-22407793D02*
X7253515Y-22360174D01*
X7253515Y-22360174D02*
X7263039Y-22322079D01*
X7263039Y-22322079D02*
X7272563Y-22303031D01*
X7272563Y-22303031D02*
X7282086Y-22293508D01*
X7282086Y-22293508D02*
X7301134Y-22283984D01*
X7453515Y-22464936D02*
X7463039Y-22474460D01*
X7463039Y-22474460D02*
X7453515Y-22483984D01*
X7453515Y-22483984D02*
X7443991Y-22474460D01*
X7443991Y-22474460D02*
X7453515Y-22464936D01*
X7453515Y-22464936D02*
X7453515Y-22483984D01*
X7586848Y-22283984D02*
X7605896Y-22283984D01*
X7605896Y-22283984D02*
X7624944Y-22293508D01*
X7624944Y-22293508D02*
X7634467Y-22303031D01*
X7634467Y-22303031D02*
X7643991Y-22322079D01*
X7643991Y-22322079D02*
X7653515Y-22360174D01*
X7653515Y-22360174D02*
X7653515Y-22407793D01*
X7653515Y-22407793D02*
X7643991Y-22445888D01*
X7643991Y-22445888D02*
X7634467Y-22464936D01*
X7634467Y-22464936D02*
X7624944Y-22474460D01*
X7624944Y-22474460D02*
X7605896Y-22483984D01*
X7605896Y-22483984D02*
X7586848Y-22483984D01*
X7586848Y-22483984D02*
X7567801Y-22474460D01*
X7567801Y-22474460D02*
X7558277Y-22464936D01*
X7558277Y-22464936D02*
X7548753Y-22445888D01*
X7548753Y-22445888D02*
X7539229Y-22407793D01*
X7539229Y-22407793D02*
X7539229Y-22360174D01*
X7539229Y-22360174D02*
X7548753Y-22322079D01*
X7548753Y-22322079D02*
X7558277Y-22303031D01*
X7558277Y-22303031D02*
X7567801Y-22293508D01*
X7567801Y-22293508D02*
X7586848Y-22283984D01*
X7720182Y-22283984D02*
X7843991Y-22283984D01*
X7843991Y-22283984D02*
X7777325Y-22360174D01*
X7777325Y-22360174D02*
X7805896Y-22360174D01*
X7805896Y-22360174D02*
X7824944Y-22369698D01*
X7824944Y-22369698D02*
X7834467Y-22379222D01*
X7834467Y-22379222D02*
X7843991Y-22398269D01*
X7843991Y-22398269D02*
X7843991Y-22445888D01*
X7843991Y-22445888D02*
X7834467Y-22464936D01*
X7834467Y-22464936D02*
X7824944Y-22474460D01*
X7824944Y-22474460D02*
X7805896Y-22483984D01*
X7805896Y-22483984D02*
X7748753Y-22483984D01*
X7748753Y-22483984D02*
X7729706Y-22474460D01*
X7729706Y-22474460D02*
X7720182Y-22464936D01*
X8034467Y-22483984D02*
X7920182Y-22483984D01*
X7977325Y-22483984D02*
X7977325Y-22283984D01*
X7977325Y-22283984D02*
X7958277Y-22312555D01*
X7958277Y-22312555D02*
X7939229Y-22331603D01*
X7939229Y-22331603D02*
X7920182Y-22341127D01*
X8215420Y-22283984D02*
X8120182Y-22283984D01*
X8120182Y-22283984D02*
X8110658Y-22379222D01*
X8110658Y-22379222D02*
X8120182Y-22369698D01*
X8120182Y-22369698D02*
X8139229Y-22360174D01*
X8139229Y-22360174D02*
X8186848Y-22360174D01*
X8186848Y-22360174D02*
X8205896Y-22369698D01*
X8205896Y-22369698D02*
X8215420Y-22379222D01*
X8215420Y-22379222D02*
X8224944Y-22398269D01*
X8224944Y-22398269D02*
X8224944Y-22445888D01*
X8224944Y-22445888D02*
X8215420Y-22464936D01*
X8215420Y-22464936D02*
X8205896Y-22474460D01*
X8205896Y-22474460D02*
X8186848Y-22483984D01*
X8186848Y-22483984D02*
X8139229Y-22483984D01*
X8139229Y-22483984D02*
X8120182Y-22474460D01*
X8120182Y-22474460D02*
X8110658Y-22464936D01*
X8301134Y-22283984D02*
X8301134Y-22322079D01*
X8377325Y-22283984D02*
X8377325Y-22322079D01*
X8672563Y-22560174D02*
X8663039Y-22550650D01*
X8663039Y-22550650D02*
X8643991Y-22522079D01*
X8643991Y-22522079D02*
X8634468Y-22503031D01*
X8634468Y-22503031D02*
X8624944Y-22474460D01*
X8624944Y-22474460D02*
X8615420Y-22426841D01*
X8615420Y-22426841D02*
X8615420Y-22388746D01*
X8615420Y-22388746D02*
X8624944Y-22341127D01*
X8624944Y-22341127D02*
X8634468Y-22312555D01*
X8634468Y-22312555D02*
X8643991Y-22293508D01*
X8643991Y-22293508D02*
X8663039Y-22264936D01*
X8663039Y-22264936D02*
X8672563Y-22255412D01*
X8739230Y-22303031D02*
X8748753Y-22293508D01*
X8748753Y-22293508D02*
X8767801Y-22283984D01*
X8767801Y-22283984D02*
X8815420Y-22283984D01*
X8815420Y-22283984D02*
X8834468Y-22293508D01*
X8834468Y-22293508D02*
X8843991Y-22303031D01*
X8843991Y-22303031D02*
X8853515Y-22322079D01*
X8853515Y-22322079D02*
X8853515Y-22341127D01*
X8853515Y-22341127D02*
X8843991Y-22369698D01*
X8843991Y-22369698D02*
X8729706Y-22483984D01*
X8729706Y-22483984D02*
X8853515Y-22483984D01*
X8920182Y-22283984D02*
X9043991Y-22283984D01*
X9043991Y-22283984D02*
X8977325Y-22360174D01*
X8977325Y-22360174D02*
X9005896Y-22360174D01*
X9005896Y-22360174D02*
X9024944Y-22369698D01*
X9024944Y-22369698D02*
X9034468Y-22379222D01*
X9034468Y-22379222D02*
X9043991Y-22398269D01*
X9043991Y-22398269D02*
X9043991Y-22445888D01*
X9043991Y-22445888D02*
X9034468Y-22464936D01*
X9034468Y-22464936D02*
X9024944Y-22474460D01*
X9024944Y-22474460D02*
X9005896Y-22483984D01*
X9005896Y-22483984D02*
X8948753Y-22483984D01*
X8948753Y-22483984D02*
X8929706Y-22474460D01*
X8929706Y-22474460D02*
X8920182Y-22464936D01*
X9215420Y-22350650D02*
X9215420Y-22483984D01*
X9167801Y-22274460D02*
X9120182Y-22417317D01*
X9120182Y-22417317D02*
X9243991Y-22417317D01*
X9472563Y-22483984D02*
X9472563Y-22283984D01*
X9558277Y-22483984D02*
X9558277Y-22379222D01*
X9558277Y-22379222D02*
X9548753Y-22360174D01*
X9548753Y-22360174D02*
X9529706Y-22350650D01*
X9529706Y-22350650D02*
X9501134Y-22350650D01*
X9501134Y-22350650D02*
X9482087Y-22360174D01*
X9482087Y-22360174D02*
X9472563Y-22369698D01*
X9682087Y-22483984D02*
X9663039Y-22474460D01*
X9663039Y-22474460D02*
X9653515Y-22464936D01*
X9653515Y-22464936D02*
X9643992Y-22445888D01*
X9643992Y-22445888D02*
X9643992Y-22388746D01*
X9643992Y-22388746D02*
X9653515Y-22369698D01*
X9653515Y-22369698D02*
X9663039Y-22360174D01*
X9663039Y-22360174D02*
X9682087Y-22350650D01*
X9682087Y-22350650D02*
X9710658Y-22350650D01*
X9710658Y-22350650D02*
X9729706Y-22360174D01*
X9729706Y-22360174D02*
X9739230Y-22369698D01*
X9739230Y-22369698D02*
X9748753Y-22388746D01*
X9748753Y-22388746D02*
X9748753Y-22445888D01*
X9748753Y-22445888D02*
X9739230Y-22464936D01*
X9739230Y-22464936D02*
X9729706Y-22474460D01*
X9729706Y-22474460D02*
X9710658Y-22483984D01*
X9710658Y-22483984D02*
X9682087Y-22483984D01*
X9863039Y-22483984D02*
X9843992Y-22474460D01*
X9843992Y-22474460D02*
X9834468Y-22455412D01*
X9834468Y-22455412D02*
X9834468Y-22283984D01*
X10015420Y-22474460D02*
X9996373Y-22483984D01*
X9996373Y-22483984D02*
X9958277Y-22483984D01*
X9958277Y-22483984D02*
X9939230Y-22474460D01*
X9939230Y-22474460D02*
X9929706Y-22455412D01*
X9929706Y-22455412D02*
X9929706Y-22379222D01*
X9929706Y-22379222D02*
X9939230Y-22360174D01*
X9939230Y-22360174D02*
X9958277Y-22350650D01*
X9958277Y-22350650D02*
X9996373Y-22350650D01*
X9996373Y-22350650D02*
X10015420Y-22360174D01*
X10015420Y-22360174D02*
X10024944Y-22379222D01*
X10024944Y-22379222D02*
X10024944Y-22398269D01*
X10024944Y-22398269D02*
X9929706Y-22417317D01*
X10101134Y-22474460D02*
X10120182Y-22483984D01*
X10120182Y-22483984D02*
X10158277Y-22483984D01*
X10158277Y-22483984D02*
X10177325Y-22474460D01*
X10177325Y-22474460D02*
X10186849Y-22455412D01*
X10186849Y-22455412D02*
X10186849Y-22445888D01*
X10186849Y-22445888D02*
X10177325Y-22426841D01*
X10177325Y-22426841D02*
X10158277Y-22417317D01*
X10158277Y-22417317D02*
X10129706Y-22417317D01*
X10129706Y-22417317D02*
X10110658Y-22407793D01*
X10110658Y-22407793D02*
X10101134Y-22388746D01*
X10101134Y-22388746D02*
X10101134Y-22379222D01*
X10101134Y-22379222D02*
X10110658Y-22360174D01*
X10110658Y-22360174D02*
X10129706Y-22350650D01*
X10129706Y-22350650D02*
X10158277Y-22350650D01*
X10158277Y-22350650D02*
X10177325Y-22360174D01*
X10253515Y-22560174D02*
X10263039Y-22550650D01*
X10263039Y-22550650D02*
X10282087Y-22522079D01*
X10282087Y-22522079D02*
X10291611Y-22503031D01*
X10291611Y-22503031D02*
X10301134Y-22474460D01*
X10301134Y-22474460D02*
X10310658Y-22426841D01*
X10310658Y-22426841D02*
X10310658Y-22388746D01*
X10310658Y-22388746D02*
X10301134Y-22341127D01*
X10301134Y-22341127D02*
X10291611Y-22312555D01*
X10291611Y-22312555D02*
X10282087Y-22293508D01*
X10282087Y-22293508D02*
X10263039Y-22264936D01*
X10263039Y-22264936D02*
X10253515Y-22255412D01*
D12*
X5097500Y-22656500D02*
G75*
G02*
X4997500Y-22656500I-50000J0D01*
G01*
X4997500Y-22656500D02*
G75*
G02*
X5097500Y-22656500I50000J0D01*
G01*
D11*
X5463039Y-22747984D02*
X5348753Y-22747984D01*
X5405896Y-22747984D02*
X5405896Y-22547984D01*
X5405896Y-22547984D02*
X5386848Y-22576555D01*
X5386848Y-22576555D02*
X5367801Y-22595603D01*
X5367801Y-22595603D02*
X5348753Y-22605127D01*
X5548753Y-22728936D02*
X5558277Y-22738460D01*
X5558277Y-22738460D02*
X5548753Y-22747984D01*
X5548753Y-22747984D02*
X5539229Y-22738460D01*
X5539229Y-22738460D02*
X5548753Y-22728936D01*
X5548753Y-22728936D02*
X5548753Y-22747984D01*
X5682086Y-22547984D02*
X5701134Y-22547984D01*
X5701134Y-22547984D02*
X5720182Y-22557508D01*
X5720182Y-22557508D02*
X5729705Y-22567031D01*
X5729705Y-22567031D02*
X5739229Y-22586079D01*
X5739229Y-22586079D02*
X5748753Y-22624174D01*
X5748753Y-22624174D02*
X5748753Y-22671793D01*
X5748753Y-22671793D02*
X5739229Y-22709888D01*
X5739229Y-22709888D02*
X5729705Y-22728936D01*
X5729705Y-22728936D02*
X5720182Y-22738460D01*
X5720182Y-22738460D02*
X5701134Y-22747984D01*
X5701134Y-22747984D02*
X5682086Y-22747984D01*
X5682086Y-22747984D02*
X5663039Y-22738460D01*
X5663039Y-22738460D02*
X5653515Y-22728936D01*
X5653515Y-22728936D02*
X5643991Y-22709888D01*
X5643991Y-22709888D02*
X5634467Y-22671793D01*
X5634467Y-22671793D02*
X5634467Y-22624174D01*
X5634467Y-22624174D02*
X5643991Y-22586079D01*
X5643991Y-22586079D02*
X5653515Y-22567031D01*
X5653515Y-22567031D02*
X5663039Y-22557508D01*
X5663039Y-22557508D02*
X5682086Y-22547984D01*
X5872562Y-22547984D02*
X5891610Y-22547984D01*
X5891610Y-22547984D02*
X5910658Y-22557508D01*
X5910658Y-22557508D02*
X5920182Y-22567031D01*
X5920182Y-22567031D02*
X5929705Y-22586079D01*
X5929705Y-22586079D02*
X5939229Y-22624174D01*
X5939229Y-22624174D02*
X5939229Y-22671793D01*
X5939229Y-22671793D02*
X5929705Y-22709888D01*
X5929705Y-22709888D02*
X5920182Y-22728936D01*
X5920182Y-22728936D02*
X5910658Y-22738460D01*
X5910658Y-22738460D02*
X5891610Y-22747984D01*
X5891610Y-22747984D02*
X5872562Y-22747984D01*
X5872562Y-22747984D02*
X5853515Y-22738460D01*
X5853515Y-22738460D02*
X5843991Y-22728936D01*
X5843991Y-22728936D02*
X5834467Y-22709888D01*
X5834467Y-22709888D02*
X5824943Y-22671793D01*
X5824943Y-22671793D02*
X5824943Y-22624174D01*
X5824943Y-22624174D02*
X5834467Y-22586079D01*
X5834467Y-22586079D02*
X5843991Y-22567031D01*
X5843991Y-22567031D02*
X5853515Y-22557508D01*
X5853515Y-22557508D02*
X5872562Y-22547984D01*
X6063039Y-22547984D02*
X6082086Y-22547984D01*
X6082086Y-22547984D02*
X6101134Y-22557508D01*
X6101134Y-22557508D02*
X6110658Y-22567031D01*
X6110658Y-22567031D02*
X6120182Y-22586079D01*
X6120182Y-22586079D02*
X6129705Y-22624174D01*
X6129705Y-22624174D02*
X6129705Y-22671793D01*
X6129705Y-22671793D02*
X6120182Y-22709888D01*
X6120182Y-22709888D02*
X6110658Y-22728936D01*
X6110658Y-22728936D02*
X6101134Y-22738460D01*
X6101134Y-22738460D02*
X6082086Y-22747984D01*
X6082086Y-22747984D02*
X6063039Y-22747984D01*
X6063039Y-22747984D02*
X6043991Y-22738460D01*
X6043991Y-22738460D02*
X6034467Y-22728936D01*
X6034467Y-22728936D02*
X6024943Y-22709888D01*
X6024943Y-22709888D02*
X6015420Y-22671793D01*
X6015420Y-22671793D02*
X6015420Y-22624174D01*
X6015420Y-22624174D02*
X6024943Y-22586079D01*
X6024943Y-22586079D02*
X6034467Y-22567031D01*
X6034467Y-22567031D02*
X6043991Y-22557508D01*
X6043991Y-22557508D02*
X6063039Y-22547984D01*
X6215420Y-22747984D02*
X6215420Y-22614650D01*
X6215420Y-22633698D02*
X6224943Y-22624174D01*
X6224943Y-22624174D02*
X6243991Y-22614650D01*
X6243991Y-22614650D02*
X6272563Y-22614650D01*
X6272563Y-22614650D02*
X6291610Y-22624174D01*
X6291610Y-22624174D02*
X6301134Y-22643222D01*
X6301134Y-22643222D02*
X6301134Y-22747984D01*
X6301134Y-22643222D02*
X6310658Y-22624174D01*
X6310658Y-22624174D02*
X6329705Y-22614650D01*
X6329705Y-22614650D02*
X6358277Y-22614650D01*
X6358277Y-22614650D02*
X6377324Y-22624174D01*
X6377324Y-22624174D02*
X6386848Y-22643222D01*
X6386848Y-22643222D02*
X6386848Y-22747984D01*
X6482086Y-22747984D02*
X6482086Y-22614650D01*
X6482086Y-22633698D02*
X6491610Y-22624174D01*
X6491610Y-22624174D02*
X6510658Y-22614650D01*
X6510658Y-22614650D02*
X6539229Y-22614650D01*
X6539229Y-22614650D02*
X6558277Y-22624174D01*
X6558277Y-22624174D02*
X6567801Y-22643222D01*
X6567801Y-22643222D02*
X6567801Y-22747984D01*
X6567801Y-22643222D02*
X6577324Y-22624174D01*
X6577324Y-22624174D02*
X6596372Y-22614650D01*
X6596372Y-22614650D02*
X6624943Y-22614650D01*
X6624943Y-22614650D02*
X6643991Y-22624174D01*
X6643991Y-22624174D02*
X6653515Y-22643222D01*
X6653515Y-22643222D02*
X6653515Y-22747984D01*
X7043991Y-22538460D02*
X6872563Y-22795603D01*
X7301134Y-22547984D02*
X7320182Y-22547984D01*
X7320182Y-22547984D02*
X7339229Y-22557508D01*
X7339229Y-22557508D02*
X7348753Y-22567031D01*
X7348753Y-22567031D02*
X7358277Y-22586079D01*
X7358277Y-22586079D02*
X7367801Y-22624174D01*
X7367801Y-22624174D02*
X7367801Y-22671793D01*
X7367801Y-22671793D02*
X7358277Y-22709888D01*
X7358277Y-22709888D02*
X7348753Y-22728936D01*
X7348753Y-22728936D02*
X7339229Y-22738460D01*
X7339229Y-22738460D02*
X7320182Y-22747984D01*
X7320182Y-22747984D02*
X7301134Y-22747984D01*
X7301134Y-22747984D02*
X7282086Y-22738460D01*
X7282086Y-22738460D02*
X7272563Y-22728936D01*
X7272563Y-22728936D02*
X7263039Y-22709888D01*
X7263039Y-22709888D02*
X7253515Y-22671793D01*
X7253515Y-22671793D02*
X7253515Y-22624174D01*
X7253515Y-22624174D02*
X7263039Y-22586079D01*
X7263039Y-22586079D02*
X7272563Y-22567031D01*
X7272563Y-22567031D02*
X7282086Y-22557508D01*
X7282086Y-22557508D02*
X7301134Y-22547984D01*
X7453515Y-22728936D02*
X7463039Y-22738460D01*
X7463039Y-22738460D02*
X7453515Y-22747984D01*
X7453515Y-22747984D02*
X7443991Y-22738460D01*
X7443991Y-22738460D02*
X7453515Y-22728936D01*
X7453515Y-22728936D02*
X7453515Y-22747984D01*
X7586848Y-22547984D02*
X7605896Y-22547984D01*
X7605896Y-22547984D02*
X7624944Y-22557508D01*
X7624944Y-22557508D02*
X7634467Y-22567031D01*
X7634467Y-22567031D02*
X7643991Y-22586079D01*
X7643991Y-22586079D02*
X7653515Y-22624174D01*
X7653515Y-22624174D02*
X7653515Y-22671793D01*
X7653515Y-22671793D02*
X7643991Y-22709888D01*
X7643991Y-22709888D02*
X7634467Y-22728936D01*
X7634467Y-22728936D02*
X7624944Y-22738460D01*
X7624944Y-22738460D02*
X7605896Y-22747984D01*
X7605896Y-22747984D02*
X7586848Y-22747984D01*
X7586848Y-22747984D02*
X7567801Y-22738460D01*
X7567801Y-22738460D02*
X7558277Y-22728936D01*
X7558277Y-22728936D02*
X7548753Y-22709888D01*
X7548753Y-22709888D02*
X7539229Y-22671793D01*
X7539229Y-22671793D02*
X7539229Y-22624174D01*
X7539229Y-22624174D02*
X7548753Y-22586079D01*
X7548753Y-22586079D02*
X7558277Y-22567031D01*
X7558277Y-22567031D02*
X7567801Y-22557508D01*
X7567801Y-22557508D02*
X7586848Y-22547984D01*
X7720182Y-22547984D02*
X7843991Y-22547984D01*
X7843991Y-22547984D02*
X7777325Y-22624174D01*
X7777325Y-22624174D02*
X7805896Y-22624174D01*
X7805896Y-22624174D02*
X7824944Y-22633698D01*
X7824944Y-22633698D02*
X7834467Y-22643222D01*
X7834467Y-22643222D02*
X7843991Y-22662269D01*
X7843991Y-22662269D02*
X7843991Y-22709888D01*
X7843991Y-22709888D02*
X7834467Y-22728936D01*
X7834467Y-22728936D02*
X7824944Y-22738460D01*
X7824944Y-22738460D02*
X7805896Y-22747984D01*
X7805896Y-22747984D02*
X7748753Y-22747984D01*
X7748753Y-22747984D02*
X7729706Y-22738460D01*
X7729706Y-22738460D02*
X7720182Y-22728936D01*
X7939229Y-22747984D02*
X7977325Y-22747984D01*
X7977325Y-22747984D02*
X7996372Y-22738460D01*
X7996372Y-22738460D02*
X8005896Y-22728936D01*
X8005896Y-22728936D02*
X8024944Y-22700365D01*
X8024944Y-22700365D02*
X8034467Y-22662269D01*
X8034467Y-22662269D02*
X8034467Y-22586079D01*
X8034467Y-22586079D02*
X8024944Y-22567031D01*
X8024944Y-22567031D02*
X8015420Y-22557508D01*
X8015420Y-22557508D02*
X7996372Y-22547984D01*
X7996372Y-22547984D02*
X7958277Y-22547984D01*
X7958277Y-22547984D02*
X7939229Y-22557508D01*
X7939229Y-22557508D02*
X7929706Y-22567031D01*
X7929706Y-22567031D02*
X7920182Y-22586079D01*
X7920182Y-22586079D02*
X7920182Y-22633698D01*
X7920182Y-22633698D02*
X7929706Y-22652746D01*
X7929706Y-22652746D02*
X7939229Y-22662269D01*
X7939229Y-22662269D02*
X7958277Y-22671793D01*
X7958277Y-22671793D02*
X7996372Y-22671793D01*
X7996372Y-22671793D02*
X8015420Y-22662269D01*
X8015420Y-22662269D02*
X8024944Y-22652746D01*
X8024944Y-22652746D02*
X8034467Y-22633698D01*
X8205896Y-22614650D02*
X8205896Y-22747984D01*
X8158277Y-22538460D02*
X8110658Y-22681317D01*
X8110658Y-22681317D02*
X8234467Y-22681317D01*
X8301134Y-22547984D02*
X8301134Y-22586079D01*
X8377325Y-22547984D02*
X8377325Y-22586079D01*
X8672563Y-22824174D02*
X8663039Y-22814650D01*
X8663039Y-22814650D02*
X8643991Y-22786079D01*
X8643991Y-22786079D02*
X8634468Y-22767031D01*
X8634468Y-22767031D02*
X8624944Y-22738460D01*
X8624944Y-22738460D02*
X8615420Y-22690841D01*
X8615420Y-22690841D02*
X8615420Y-22652746D01*
X8615420Y-22652746D02*
X8624944Y-22605127D01*
X8624944Y-22605127D02*
X8634468Y-22576555D01*
X8634468Y-22576555D02*
X8643991Y-22557508D01*
X8643991Y-22557508D02*
X8663039Y-22528936D01*
X8663039Y-22528936D02*
X8672563Y-22519412D01*
X8843991Y-22547984D02*
X8748753Y-22547984D01*
X8748753Y-22547984D02*
X8739230Y-22643222D01*
X8739230Y-22643222D02*
X8748753Y-22633698D01*
X8748753Y-22633698D02*
X8767801Y-22624174D01*
X8767801Y-22624174D02*
X8815420Y-22624174D01*
X8815420Y-22624174D02*
X8834468Y-22633698D01*
X8834468Y-22633698D02*
X8843991Y-22643222D01*
X8843991Y-22643222D02*
X8853515Y-22662269D01*
X8853515Y-22662269D02*
X8853515Y-22709888D01*
X8853515Y-22709888D02*
X8843991Y-22728936D01*
X8843991Y-22728936D02*
X8834468Y-22738460D01*
X8834468Y-22738460D02*
X8815420Y-22747984D01*
X8815420Y-22747984D02*
X8767801Y-22747984D01*
X8767801Y-22747984D02*
X8748753Y-22738460D01*
X8748753Y-22738460D02*
X8739230Y-22728936D01*
X8977325Y-22547984D02*
X8996372Y-22547984D01*
X8996372Y-22547984D02*
X9015420Y-22557508D01*
X9015420Y-22557508D02*
X9024944Y-22567031D01*
X9024944Y-22567031D02*
X9034468Y-22586079D01*
X9034468Y-22586079D02*
X9043991Y-22624174D01*
X9043991Y-22624174D02*
X9043991Y-22671793D01*
X9043991Y-22671793D02*
X9034468Y-22709888D01*
X9034468Y-22709888D02*
X9024944Y-22728936D01*
X9024944Y-22728936D02*
X9015420Y-22738460D01*
X9015420Y-22738460D02*
X8996372Y-22747984D01*
X8996372Y-22747984D02*
X8977325Y-22747984D01*
X8977325Y-22747984D02*
X8958277Y-22738460D01*
X8958277Y-22738460D02*
X8948753Y-22728936D01*
X8948753Y-22728936D02*
X8939230Y-22709888D01*
X8939230Y-22709888D02*
X8929706Y-22671793D01*
X8929706Y-22671793D02*
X8929706Y-22624174D01*
X8929706Y-22624174D02*
X8939230Y-22586079D01*
X8939230Y-22586079D02*
X8948753Y-22567031D01*
X8948753Y-22567031D02*
X8958277Y-22557508D01*
X8958277Y-22557508D02*
X8977325Y-22547984D01*
X9282087Y-22747984D02*
X9282087Y-22547984D01*
X9367801Y-22747984D02*
X9367801Y-22643222D01*
X9367801Y-22643222D02*
X9358277Y-22624174D01*
X9358277Y-22624174D02*
X9339230Y-22614650D01*
X9339230Y-22614650D02*
X9310658Y-22614650D01*
X9310658Y-22614650D02*
X9291611Y-22624174D01*
X9291611Y-22624174D02*
X9282087Y-22633698D01*
X9491611Y-22747984D02*
X9472563Y-22738460D01*
X9472563Y-22738460D02*
X9463039Y-22728936D01*
X9463039Y-22728936D02*
X9453515Y-22709888D01*
X9453515Y-22709888D02*
X9453515Y-22652746D01*
X9453515Y-22652746D02*
X9463039Y-22633698D01*
X9463039Y-22633698D02*
X9472563Y-22624174D01*
X9472563Y-22624174D02*
X9491611Y-22614650D01*
X9491611Y-22614650D02*
X9520182Y-22614650D01*
X9520182Y-22614650D02*
X9539230Y-22624174D01*
X9539230Y-22624174D02*
X9548753Y-22633698D01*
X9548753Y-22633698D02*
X9558277Y-22652746D01*
X9558277Y-22652746D02*
X9558277Y-22709888D01*
X9558277Y-22709888D02*
X9548753Y-22728936D01*
X9548753Y-22728936D02*
X9539230Y-22738460D01*
X9539230Y-22738460D02*
X9520182Y-22747984D01*
X9520182Y-22747984D02*
X9491611Y-22747984D01*
X9672563Y-22747984D02*
X9653515Y-22738460D01*
X9653515Y-22738460D02*
X9643992Y-22719412D01*
X9643992Y-22719412D02*
X9643992Y-22547984D01*
X9824944Y-22738460D02*
X9805896Y-22747984D01*
X9805896Y-22747984D02*
X9767801Y-22747984D01*
X9767801Y-22747984D02*
X9748753Y-22738460D01*
X9748753Y-22738460D02*
X9739230Y-22719412D01*
X9739230Y-22719412D02*
X9739230Y-22643222D01*
X9739230Y-22643222D02*
X9748753Y-22624174D01*
X9748753Y-22624174D02*
X9767801Y-22614650D01*
X9767801Y-22614650D02*
X9805896Y-22614650D01*
X9805896Y-22614650D02*
X9824944Y-22624174D01*
X9824944Y-22624174D02*
X9834468Y-22643222D01*
X9834468Y-22643222D02*
X9834468Y-22662269D01*
X9834468Y-22662269D02*
X9739230Y-22681317D01*
X9910658Y-22738460D02*
X9929706Y-22747984D01*
X9929706Y-22747984D02*
X9967801Y-22747984D01*
X9967801Y-22747984D02*
X9986849Y-22738460D01*
X9986849Y-22738460D02*
X9996373Y-22719412D01*
X9996373Y-22719412D02*
X9996373Y-22709888D01*
X9996373Y-22709888D02*
X9986849Y-22690841D01*
X9986849Y-22690841D02*
X9967801Y-22681317D01*
X9967801Y-22681317D02*
X9939230Y-22681317D01*
X9939230Y-22681317D02*
X9920182Y-22671793D01*
X9920182Y-22671793D02*
X9910658Y-22652746D01*
X9910658Y-22652746D02*
X9910658Y-22643222D01*
X9910658Y-22643222D02*
X9920182Y-22624174D01*
X9920182Y-22624174D02*
X9939230Y-22614650D01*
X9939230Y-22614650D02*
X9967801Y-22614650D01*
X9967801Y-22614650D02*
X9986849Y-22624174D01*
X10234468Y-22671793D02*
X10386849Y-22671793D01*
X10310658Y-22747984D02*
X10310658Y-22595603D01*
X10615420Y-22547984D02*
X10739230Y-22547984D01*
X10739230Y-22547984D02*
X10672563Y-22624174D01*
X10672563Y-22624174D02*
X10701135Y-22624174D01*
X10701135Y-22624174D02*
X10720182Y-22633698D01*
X10720182Y-22633698D02*
X10729706Y-22643222D01*
X10729706Y-22643222D02*
X10739230Y-22662269D01*
X10739230Y-22662269D02*
X10739230Y-22709888D01*
X10739230Y-22709888D02*
X10729706Y-22728936D01*
X10729706Y-22728936D02*
X10720182Y-22738460D01*
X10720182Y-22738460D02*
X10701135Y-22747984D01*
X10701135Y-22747984D02*
X10643992Y-22747984D01*
X10643992Y-22747984D02*
X10624944Y-22738460D01*
X10624944Y-22738460D02*
X10615420Y-22728936D01*
X10910658Y-22547984D02*
X10872563Y-22547984D01*
X10872563Y-22547984D02*
X10853515Y-22557508D01*
X10853515Y-22557508D02*
X10843992Y-22567031D01*
X10843992Y-22567031D02*
X10824944Y-22595603D01*
X10824944Y-22595603D02*
X10815420Y-22633698D01*
X10815420Y-22633698D02*
X10815420Y-22709888D01*
X10815420Y-22709888D02*
X10824944Y-22728936D01*
X10824944Y-22728936D02*
X10834468Y-22738460D01*
X10834468Y-22738460D02*
X10853515Y-22747984D01*
X10853515Y-22747984D02*
X10891611Y-22747984D01*
X10891611Y-22747984D02*
X10910658Y-22738460D01*
X10910658Y-22738460D02*
X10920182Y-22728936D01*
X10920182Y-22728936D02*
X10929706Y-22709888D01*
X10929706Y-22709888D02*
X10929706Y-22662269D01*
X10929706Y-22662269D02*
X10920182Y-22643222D01*
X10920182Y-22643222D02*
X10910658Y-22633698D01*
X10910658Y-22633698D02*
X10891611Y-22624174D01*
X10891611Y-22624174D02*
X10853515Y-22624174D01*
X10853515Y-22624174D02*
X10834468Y-22633698D01*
X10834468Y-22633698D02*
X10824944Y-22643222D01*
X10824944Y-22643222D02*
X10815420Y-22662269D01*
X11158277Y-22738460D02*
X11177325Y-22747984D01*
X11177325Y-22747984D02*
X11215420Y-22747984D01*
X11215420Y-22747984D02*
X11234468Y-22738460D01*
X11234468Y-22738460D02*
X11243992Y-22719412D01*
X11243992Y-22719412D02*
X11243992Y-22709888D01*
X11243992Y-22709888D02*
X11234468Y-22690841D01*
X11234468Y-22690841D02*
X11215420Y-22681317D01*
X11215420Y-22681317D02*
X11186849Y-22681317D01*
X11186849Y-22681317D02*
X11167801Y-22671793D01*
X11167801Y-22671793D02*
X11158277Y-22652746D01*
X11158277Y-22652746D02*
X11158277Y-22643222D01*
X11158277Y-22643222D02*
X11167801Y-22624174D01*
X11167801Y-22624174D02*
X11186849Y-22614650D01*
X11186849Y-22614650D02*
X11215420Y-22614650D01*
X11215420Y-22614650D02*
X11234468Y-22624174D01*
X11358277Y-22747984D02*
X11339230Y-22738460D01*
X11339230Y-22738460D02*
X11329706Y-22719412D01*
X11329706Y-22719412D02*
X11329706Y-22547984D01*
X11463039Y-22747984D02*
X11443992Y-22738460D01*
X11443992Y-22738460D02*
X11434468Y-22728936D01*
X11434468Y-22728936D02*
X11424944Y-22709888D01*
X11424944Y-22709888D02*
X11424944Y-22652746D01*
X11424944Y-22652746D02*
X11434468Y-22633698D01*
X11434468Y-22633698D02*
X11443992Y-22624174D01*
X11443992Y-22624174D02*
X11463039Y-22614650D01*
X11463039Y-22614650D02*
X11491611Y-22614650D01*
X11491611Y-22614650D02*
X11510658Y-22624174D01*
X11510658Y-22624174D02*
X11520182Y-22633698D01*
X11520182Y-22633698D02*
X11529706Y-22652746D01*
X11529706Y-22652746D02*
X11529706Y-22709888D01*
X11529706Y-22709888D02*
X11520182Y-22728936D01*
X11520182Y-22728936D02*
X11510658Y-22738460D01*
X11510658Y-22738460D02*
X11491611Y-22747984D01*
X11491611Y-22747984D02*
X11463039Y-22747984D01*
X11586849Y-22614650D02*
X11663039Y-22614650D01*
X11615420Y-22547984D02*
X11615420Y-22719412D01*
X11615420Y-22719412D02*
X11624944Y-22738460D01*
X11624944Y-22738460D02*
X11643992Y-22747984D01*
X11643992Y-22747984D02*
X11663039Y-22747984D01*
X11720182Y-22738460D02*
X11739230Y-22747984D01*
X11739230Y-22747984D02*
X11777325Y-22747984D01*
X11777325Y-22747984D02*
X11796373Y-22738460D01*
X11796373Y-22738460D02*
X11805896Y-22719412D01*
X11805896Y-22719412D02*
X11805896Y-22709888D01*
X11805896Y-22709888D02*
X11796373Y-22690841D01*
X11796373Y-22690841D02*
X11777325Y-22681317D01*
X11777325Y-22681317D02*
X11748754Y-22681317D01*
X11748754Y-22681317D02*
X11729706Y-22671793D01*
X11729706Y-22671793D02*
X11720182Y-22652746D01*
X11720182Y-22652746D02*
X11720182Y-22643222D01*
X11720182Y-22643222D02*
X11729706Y-22624174D01*
X11729706Y-22624174D02*
X11748754Y-22614650D01*
X11748754Y-22614650D02*
X11777325Y-22614650D01*
X11777325Y-22614650D02*
X11796373Y-22624174D01*
X11872563Y-22824174D02*
X11882087Y-22814650D01*
X11882087Y-22814650D02*
X11901135Y-22786079D01*
X11901135Y-22786079D02*
X11910658Y-22767031D01*
X11910658Y-22767031D02*
X11920182Y-22738460D01*
X11920182Y-22738460D02*
X11929706Y-22690841D01*
X11929706Y-22690841D02*
X11929706Y-22652746D01*
X11929706Y-22652746D02*
X11920182Y-22605127D01*
X11920182Y-22605127D02*
X11910658Y-22576555D01*
X11910658Y-22576555D02*
X11901135Y-22557508D01*
X11901135Y-22557508D02*
X11882087Y-22528936D01*
X11882087Y-22528936D02*
X11872563Y-22519412D01*
D13*
X5042500Y-22865500D02*
X5042500Y-22975500D01*
X4987500Y-22920500D02*
X5097500Y-22920500D01*
D11*
X5463039Y-23011984D02*
X5348753Y-23011984D01*
X5405896Y-23011984D02*
X5405896Y-22811984D01*
X5405896Y-22811984D02*
X5386848Y-22840555D01*
X5386848Y-22840555D02*
X5367801Y-22859603D01*
X5367801Y-22859603D02*
X5348753Y-22869127D01*
X5548753Y-22992936D02*
X5558277Y-23002460D01*
X5558277Y-23002460D02*
X5548753Y-23011984D01*
X5548753Y-23011984D02*
X5539229Y-23002460D01*
X5539229Y-23002460D02*
X5548753Y-22992936D01*
X5548753Y-22992936D02*
X5548753Y-23011984D01*
X5748753Y-23011984D02*
X5634467Y-23011984D01*
X5691610Y-23011984D02*
X5691610Y-22811984D01*
X5691610Y-22811984D02*
X5672562Y-22840555D01*
X5672562Y-22840555D02*
X5653515Y-22859603D01*
X5653515Y-22859603D02*
X5634467Y-22869127D01*
X5872562Y-22811984D02*
X5891610Y-22811984D01*
X5891610Y-22811984D02*
X5910658Y-22821508D01*
X5910658Y-22821508D02*
X5920182Y-22831031D01*
X5920182Y-22831031D02*
X5929705Y-22850079D01*
X5929705Y-22850079D02*
X5939229Y-22888174D01*
X5939229Y-22888174D02*
X5939229Y-22935793D01*
X5939229Y-22935793D02*
X5929705Y-22973888D01*
X5929705Y-22973888D02*
X5920182Y-22992936D01*
X5920182Y-22992936D02*
X5910658Y-23002460D01*
X5910658Y-23002460D02*
X5891610Y-23011984D01*
X5891610Y-23011984D02*
X5872562Y-23011984D01*
X5872562Y-23011984D02*
X5853515Y-23002460D01*
X5853515Y-23002460D02*
X5843991Y-22992936D01*
X5843991Y-22992936D02*
X5834467Y-22973888D01*
X5834467Y-22973888D02*
X5824943Y-22935793D01*
X5824943Y-22935793D02*
X5824943Y-22888174D01*
X5824943Y-22888174D02*
X5834467Y-22850079D01*
X5834467Y-22850079D02*
X5843991Y-22831031D01*
X5843991Y-22831031D02*
X5853515Y-22821508D01*
X5853515Y-22821508D02*
X5872562Y-22811984D01*
X6063039Y-22811984D02*
X6082086Y-22811984D01*
X6082086Y-22811984D02*
X6101134Y-22821508D01*
X6101134Y-22821508D02*
X6110658Y-22831031D01*
X6110658Y-22831031D02*
X6120182Y-22850079D01*
X6120182Y-22850079D02*
X6129705Y-22888174D01*
X6129705Y-22888174D02*
X6129705Y-22935793D01*
X6129705Y-22935793D02*
X6120182Y-22973888D01*
X6120182Y-22973888D02*
X6110658Y-22992936D01*
X6110658Y-22992936D02*
X6101134Y-23002460D01*
X6101134Y-23002460D02*
X6082086Y-23011984D01*
X6082086Y-23011984D02*
X6063039Y-23011984D01*
X6063039Y-23011984D02*
X6043991Y-23002460D01*
X6043991Y-23002460D02*
X6034467Y-22992936D01*
X6034467Y-22992936D02*
X6024943Y-22973888D01*
X6024943Y-22973888D02*
X6015420Y-22935793D01*
X6015420Y-22935793D02*
X6015420Y-22888174D01*
X6015420Y-22888174D02*
X6024943Y-22850079D01*
X6024943Y-22850079D02*
X6034467Y-22831031D01*
X6034467Y-22831031D02*
X6043991Y-22821508D01*
X6043991Y-22821508D02*
X6063039Y-22811984D01*
X6215420Y-23011984D02*
X6215420Y-22878650D01*
X6215420Y-22897698D02*
X6224943Y-22888174D01*
X6224943Y-22888174D02*
X6243991Y-22878650D01*
X6243991Y-22878650D02*
X6272563Y-22878650D01*
X6272563Y-22878650D02*
X6291610Y-22888174D01*
X6291610Y-22888174D02*
X6301134Y-22907222D01*
X6301134Y-22907222D02*
X6301134Y-23011984D01*
X6301134Y-22907222D02*
X6310658Y-22888174D01*
X6310658Y-22888174D02*
X6329705Y-22878650D01*
X6329705Y-22878650D02*
X6358277Y-22878650D01*
X6358277Y-22878650D02*
X6377324Y-22888174D01*
X6377324Y-22888174D02*
X6386848Y-22907222D01*
X6386848Y-22907222D02*
X6386848Y-23011984D01*
X6482086Y-23011984D02*
X6482086Y-22878650D01*
X6482086Y-22897698D02*
X6491610Y-22888174D01*
X6491610Y-22888174D02*
X6510658Y-22878650D01*
X6510658Y-22878650D02*
X6539229Y-22878650D01*
X6539229Y-22878650D02*
X6558277Y-22888174D01*
X6558277Y-22888174D02*
X6567801Y-22907222D01*
X6567801Y-22907222D02*
X6567801Y-23011984D01*
X6567801Y-22907222D02*
X6577324Y-22888174D01*
X6577324Y-22888174D02*
X6596372Y-22878650D01*
X6596372Y-22878650D02*
X6624943Y-22878650D01*
X6624943Y-22878650D02*
X6643991Y-22888174D01*
X6643991Y-22888174D02*
X6653515Y-22907222D01*
X6653515Y-22907222D02*
X6653515Y-23011984D01*
X7043991Y-22802460D02*
X6872563Y-23059603D01*
X7301134Y-22811984D02*
X7320182Y-22811984D01*
X7320182Y-22811984D02*
X7339229Y-22821508D01*
X7339229Y-22821508D02*
X7348753Y-22831031D01*
X7348753Y-22831031D02*
X7358277Y-22850079D01*
X7358277Y-22850079D02*
X7367801Y-22888174D01*
X7367801Y-22888174D02*
X7367801Y-22935793D01*
X7367801Y-22935793D02*
X7358277Y-22973888D01*
X7358277Y-22973888D02*
X7348753Y-22992936D01*
X7348753Y-22992936D02*
X7339229Y-23002460D01*
X7339229Y-23002460D02*
X7320182Y-23011984D01*
X7320182Y-23011984D02*
X7301134Y-23011984D01*
X7301134Y-23011984D02*
X7282086Y-23002460D01*
X7282086Y-23002460D02*
X7272563Y-22992936D01*
X7272563Y-22992936D02*
X7263039Y-22973888D01*
X7263039Y-22973888D02*
X7253515Y-22935793D01*
X7253515Y-22935793D02*
X7253515Y-22888174D01*
X7253515Y-22888174D02*
X7263039Y-22850079D01*
X7263039Y-22850079D02*
X7272563Y-22831031D01*
X7272563Y-22831031D02*
X7282086Y-22821508D01*
X7282086Y-22821508D02*
X7301134Y-22811984D01*
X7453515Y-22992936D02*
X7463039Y-23002460D01*
X7463039Y-23002460D02*
X7453515Y-23011984D01*
X7453515Y-23011984D02*
X7443991Y-23002460D01*
X7443991Y-23002460D02*
X7453515Y-22992936D01*
X7453515Y-22992936D02*
X7453515Y-23011984D01*
X7586848Y-22811984D02*
X7605896Y-22811984D01*
X7605896Y-22811984D02*
X7624944Y-22821508D01*
X7624944Y-22821508D02*
X7634467Y-22831031D01*
X7634467Y-22831031D02*
X7643991Y-22850079D01*
X7643991Y-22850079D02*
X7653515Y-22888174D01*
X7653515Y-22888174D02*
X7653515Y-22935793D01*
X7653515Y-22935793D02*
X7643991Y-22973888D01*
X7643991Y-22973888D02*
X7634467Y-22992936D01*
X7634467Y-22992936D02*
X7624944Y-23002460D01*
X7624944Y-23002460D02*
X7605896Y-23011984D01*
X7605896Y-23011984D02*
X7586848Y-23011984D01*
X7586848Y-23011984D02*
X7567801Y-23002460D01*
X7567801Y-23002460D02*
X7558277Y-22992936D01*
X7558277Y-22992936D02*
X7548753Y-22973888D01*
X7548753Y-22973888D02*
X7539229Y-22935793D01*
X7539229Y-22935793D02*
X7539229Y-22888174D01*
X7539229Y-22888174D02*
X7548753Y-22850079D01*
X7548753Y-22850079D02*
X7558277Y-22831031D01*
X7558277Y-22831031D02*
X7567801Y-22821508D01*
X7567801Y-22821508D02*
X7586848Y-22811984D01*
X7824944Y-22878650D02*
X7824944Y-23011984D01*
X7777325Y-22802460D02*
X7729706Y-22945317D01*
X7729706Y-22945317D02*
X7853515Y-22945317D01*
X7910658Y-22811984D02*
X8034467Y-22811984D01*
X8034467Y-22811984D02*
X7967801Y-22888174D01*
X7967801Y-22888174D02*
X7996372Y-22888174D01*
X7996372Y-22888174D02*
X8015420Y-22897698D01*
X8015420Y-22897698D02*
X8024944Y-22907222D01*
X8024944Y-22907222D02*
X8034467Y-22926269D01*
X8034467Y-22926269D02*
X8034467Y-22973888D01*
X8034467Y-22973888D02*
X8024944Y-22992936D01*
X8024944Y-22992936D02*
X8015420Y-23002460D01*
X8015420Y-23002460D02*
X7996372Y-23011984D01*
X7996372Y-23011984D02*
X7939229Y-23011984D01*
X7939229Y-23011984D02*
X7920182Y-23002460D01*
X7920182Y-23002460D02*
X7910658Y-22992936D01*
X8101134Y-22811984D02*
X8224944Y-22811984D01*
X8224944Y-22811984D02*
X8158277Y-22888174D01*
X8158277Y-22888174D02*
X8186848Y-22888174D01*
X8186848Y-22888174D02*
X8205896Y-22897698D01*
X8205896Y-22897698D02*
X8215420Y-22907222D01*
X8215420Y-22907222D02*
X8224944Y-22926269D01*
X8224944Y-22926269D02*
X8224944Y-22973888D01*
X8224944Y-22973888D02*
X8215420Y-22992936D01*
X8215420Y-22992936D02*
X8205896Y-23002460D01*
X8205896Y-23002460D02*
X8186848Y-23011984D01*
X8186848Y-23011984D02*
X8129706Y-23011984D01*
X8129706Y-23011984D02*
X8110658Y-23002460D01*
X8110658Y-23002460D02*
X8101134Y-22992936D01*
X8301134Y-22811984D02*
X8301134Y-22850079D01*
X8377325Y-22811984D02*
X8377325Y-22850079D01*
X8672563Y-23088174D02*
X8663039Y-23078650D01*
X8663039Y-23078650D02*
X8643991Y-23050079D01*
X8643991Y-23050079D02*
X8634468Y-23031031D01*
X8634468Y-23031031D02*
X8624944Y-23002460D01*
X8624944Y-23002460D02*
X8615420Y-22954841D01*
X8615420Y-22954841D02*
X8615420Y-22916746D01*
X8615420Y-22916746D02*
X8624944Y-22869127D01*
X8624944Y-22869127D02*
X8634468Y-22840555D01*
X8634468Y-22840555D02*
X8643991Y-22821508D01*
X8643991Y-22821508D02*
X8663039Y-22792936D01*
X8663039Y-22792936D02*
X8672563Y-22783412D01*
X8834468Y-22878650D02*
X8834468Y-23011984D01*
X8786849Y-22802460D02*
X8739230Y-22945317D01*
X8739230Y-22945317D02*
X8863039Y-22945317D01*
X9091611Y-23011984D02*
X9091611Y-22811984D01*
X9177325Y-23011984D02*
X9177325Y-22907222D01*
X9177325Y-22907222D02*
X9167801Y-22888174D01*
X9167801Y-22888174D02*
X9148753Y-22878650D01*
X9148753Y-22878650D02*
X9120182Y-22878650D01*
X9120182Y-22878650D02*
X9101134Y-22888174D01*
X9101134Y-22888174D02*
X9091611Y-22897698D01*
X9301134Y-23011984D02*
X9282087Y-23002460D01*
X9282087Y-23002460D02*
X9272563Y-22992936D01*
X9272563Y-22992936D02*
X9263039Y-22973888D01*
X9263039Y-22973888D02*
X9263039Y-22916746D01*
X9263039Y-22916746D02*
X9272563Y-22897698D01*
X9272563Y-22897698D02*
X9282087Y-22888174D01*
X9282087Y-22888174D02*
X9301134Y-22878650D01*
X9301134Y-22878650D02*
X9329706Y-22878650D01*
X9329706Y-22878650D02*
X9348753Y-22888174D01*
X9348753Y-22888174D02*
X9358277Y-22897698D01*
X9358277Y-22897698D02*
X9367801Y-22916746D01*
X9367801Y-22916746D02*
X9367801Y-22973888D01*
X9367801Y-22973888D02*
X9358277Y-22992936D01*
X9358277Y-22992936D02*
X9348753Y-23002460D01*
X9348753Y-23002460D02*
X9329706Y-23011984D01*
X9329706Y-23011984D02*
X9301134Y-23011984D01*
X9482087Y-23011984D02*
X9463039Y-23002460D01*
X9463039Y-23002460D02*
X9453515Y-22983412D01*
X9453515Y-22983412D02*
X9453515Y-22811984D01*
X9634468Y-23002460D02*
X9615420Y-23011984D01*
X9615420Y-23011984D02*
X9577325Y-23011984D01*
X9577325Y-23011984D02*
X9558277Y-23002460D01*
X9558277Y-23002460D02*
X9548753Y-22983412D01*
X9548753Y-22983412D02*
X9548753Y-22907222D01*
X9548753Y-22907222D02*
X9558277Y-22888174D01*
X9558277Y-22888174D02*
X9577325Y-22878650D01*
X9577325Y-22878650D02*
X9615420Y-22878650D01*
X9615420Y-22878650D02*
X9634468Y-22888174D01*
X9634468Y-22888174D02*
X9643992Y-22907222D01*
X9643992Y-22907222D02*
X9643992Y-22926269D01*
X9643992Y-22926269D02*
X9548753Y-22945317D01*
X9720182Y-23002460D02*
X9739230Y-23011984D01*
X9739230Y-23011984D02*
X9777325Y-23011984D01*
X9777325Y-23011984D02*
X9796373Y-23002460D01*
X9796373Y-23002460D02*
X9805896Y-22983412D01*
X9805896Y-22983412D02*
X9805896Y-22973888D01*
X9805896Y-22973888D02*
X9796373Y-22954841D01*
X9796373Y-22954841D02*
X9777325Y-22945317D01*
X9777325Y-22945317D02*
X9748753Y-22945317D01*
X9748753Y-22945317D02*
X9729706Y-22935793D01*
X9729706Y-22935793D02*
X9720182Y-22916746D01*
X9720182Y-22916746D02*
X9720182Y-22907222D01*
X9720182Y-22907222D02*
X9729706Y-22888174D01*
X9729706Y-22888174D02*
X9748753Y-22878650D01*
X9748753Y-22878650D02*
X9777325Y-22878650D01*
X9777325Y-22878650D02*
X9796373Y-22888174D01*
X9872563Y-23088174D02*
X9882087Y-23078650D01*
X9882087Y-23078650D02*
X9901134Y-23050079D01*
X9901134Y-23050079D02*
X9910658Y-23031031D01*
X9910658Y-23031031D02*
X9920182Y-23002460D01*
X9920182Y-23002460D02*
X9929706Y-22954841D01*
X9929706Y-22954841D02*
X9929706Y-22916746D01*
X9929706Y-22916746D02*
X9920182Y-22869127D01*
X9920182Y-22869127D02*
X9910658Y-22840555D01*
X9910658Y-22840555D02*
X9901134Y-22821508D01*
X9901134Y-22821508D02*
X9882087Y-22792936D01*
X9882087Y-22792936D02*
X9872563Y-22783412D01*
M02*
