M48
; DRILL file {KiCad 9.0.4} date 2025-10-04T20:19:20+0200
; FORMAT={-:-/ absolute / metric / decimal}
; #@! TF.CreationDate,2025-10-04T20:19:20+02:00
; #@! TF.GenerationSoftware,Kicad,Pcbnew,9.0.4
; #@! TF.FileFunction,Plated,1,2,PTH
FMAT,2
METRIC
; #@! TA.AperFunction,Plated,PTH,ComponentDrill
T1C0.800
; #@! TA.AperFunction,Plated,PTH,ComponentDrill
T2C1.000
; #@! TA.AperFunction,Plated,PTH,ComponentDrill
T3C1.100
%
G90
G05
T1
X54.0Y-81.455
X54.0Y-83.995
X54.2Y-63.7
X54.2Y-66.24
X54.2Y-68.78
X54.2Y-70.95
X54.2Y-73.49
X54.2Y-76.03
X54.255Y-119.25
X54.45Y-128.45
X54.45Y-130.99
X54.45Y-133.53
X54.45Y-135.7
X54.45Y-138.24
X54.45Y-140.78
X55.0Y-122.005
X55.0Y-124.545
X56.005Y-87.0
X56.795Y-48.0
X56.795Y-119.25
X57.25Y-53.755
X57.25Y-56.295
X58.0Y-64.755
X58.0Y-67.295
X58.0Y-73.455
X58.0Y-75.995
X58.0Y-102.505
X58.0Y-105.045
X58.25Y-122.005
X58.25Y-124.545
X58.25Y-130.705
X58.25Y-133.245
X58.545Y-87.0
X58.795Y-48.0
X58.92Y-60.75
X58.92Y-82.5
X58.92Y-112.5
X58.92Y-138.75
X61.25Y-64.755
X61.25Y-67.295
X61.25Y-73.455
X61.25Y-75.995
X61.25Y-102.505
X61.25Y-105.045
X61.46Y-60.75
X61.46Y-82.5
X61.46Y-112.5
X61.46Y-138.75
X61.5Y-122.005
X61.5Y-124.545
X61.5Y-130.705
X61.5Y-133.245
X62.705Y-119.25
X64.0Y-60.75
X64.0Y-82.5
X64.0Y-112.5
X64.0Y-138.75
X64.455Y-87.0
X64.5Y-64.755
X64.5Y-67.295
X64.5Y-73.455
X64.5Y-75.995
X64.5Y-102.505
X64.5Y-105.045
X64.75Y-122.005
X64.75Y-124.545
X64.75Y-130.705
X64.75Y-133.245
X65.245Y-119.25
X66.995Y-87.0
X67.005Y-54.0
X67.75Y-64.755
X67.75Y-67.295
X67.75Y-73.455
X67.75Y-75.995
X67.75Y-102.505
X67.75Y-105.045
X68.0Y-59.705
X68.0Y-62.245
X68.0Y-117.205
X68.0Y-119.745
X68.0Y-122.005
X68.0Y-124.545
X68.0Y-130.705
X68.0Y-133.245
X68.0Y-135.505
X68.0Y-138.045
X69.0Y-81.455
X69.0Y-83.995
X69.545Y-54.0
X71.19Y-60.0
X71.19Y-62.54
X71.19Y-65.08
X71.19Y-67.62
X71.19Y-70.16
X71.19Y-72.7
X71.19Y-75.24
X71.19Y-90.0
X71.19Y-92.54
X71.19Y-95.08
X71.19Y-97.62
X71.19Y-100.16
X71.19Y-102.7
X71.19Y-105.24
X71.19Y-120.0
X71.19Y-122.54
X71.19Y-125.08
X71.19Y-127.62
X71.19Y-130.16
X71.19Y-132.7
X71.19Y-135.24
X72.5Y-56.5
X72.5Y-78.75
X72.5Y-86.5
X72.5Y-108.75
X72.5Y-116.5
X72.5Y-138.75
X77.5Y-56.5
X77.5Y-78.75
X77.5Y-86.5
X77.5Y-108.75
X77.5Y-116.5
X77.5Y-138.75
X78.81Y-60.0
X78.81Y-62.54
X78.81Y-65.08
X78.81Y-67.62
X78.81Y-70.16
X78.81Y-72.7
X78.81Y-75.24
X78.81Y-90.0
X78.81Y-92.54
X78.81Y-95.08
X78.81Y-97.62
X78.81Y-100.16
X78.81Y-102.7
X78.81Y-105.24
X78.81Y-120.0
X78.81Y-122.54
X78.81Y-125.08
X78.81Y-127.62
X78.81Y-130.16
X78.81Y-132.7
X78.81Y-135.24
X80.5Y-55.25
X81.0Y-81.455
X81.0Y-83.995
X81.505Y-143.75
X81.505Y-147.0
X81.75Y-109.755
X81.75Y-112.295
X82.0Y-59.705
X82.0Y-62.245
X82.0Y-121.755
X82.0Y-124.295
X82.0Y-129.005
X82.0Y-131.545
X82.0Y-137.005
X82.0Y-139.545
X82.25Y-64.755
X82.25Y-67.295
X82.25Y-73.455
X82.25Y-75.995
X82.5Y-102.705
X82.5Y-105.245
X83.04Y-55.25
X83.705Y-117.0
X84.045Y-143.75
X84.045Y-147.0
X84.705Y-87.0
X85.25Y-121.755
X85.25Y-124.295
X85.25Y-129.005
X85.25Y-131.545
X85.5Y-64.755
X85.5Y-67.295
X85.5Y-73.455
X85.5Y-75.995
X86.02Y-60.75
X86.02Y-82.5
X86.02Y-112.5
X86.02Y-138.75
X86.245Y-117.0
X87.245Y-87.0
X88.5Y-121.755
X88.5Y-124.295
X88.5Y-129.005
X88.5Y-131.545
X88.505Y-117.0
X88.56Y-60.75
X88.56Y-82.5
X88.56Y-112.5
X88.56Y-138.75
X88.75Y-64.755
X88.75Y-67.295
X88.75Y-73.455
X88.75Y-75.995
X89.46Y-90.25
X89.505Y-87.0
X91.045Y-117.0
X91.1Y-60.75
X91.1Y-82.5
X91.1Y-112.5
X91.1Y-138.75
X91.295Y-48.0
X91.705Y-54.5
X91.75Y-121.755
X91.75Y-124.295
X91.75Y-129.005
X91.75Y-131.545
X92.0Y-64.755
X92.0Y-67.295
X92.0Y-73.455
X92.0Y-75.995
X92.0Y-90.25
X92.045Y-87.0
X93.295Y-48.0
X94.245Y-54.5
X95.25Y-109.255
X95.25Y-111.795
X95.8Y-58.97
X95.8Y-61.51
X95.8Y-64.05
X95.8Y-66.22
X95.8Y-68.76
X95.8Y-71.3
X95.8Y-115.72
X95.8Y-118.26
X95.8Y-120.8
X95.8Y-122.97
X95.8Y-125.51
X95.8Y-128.05
X97.0Y-53.205
X97.0Y-55.745
T2
X53.0Y-48.0
X53.0Y-50.54
X53.0Y-53.08
X53.0Y-55.62
X53.0Y-58.16
X53.0Y-60.7
X53.0Y-103.0
X53.0Y-105.54
X53.0Y-108.08
X53.0Y-110.62
X53.0Y-113.16
X53.0Y-115.7
X56.86Y-145.748
X56.86Y-148.287
X59.4Y-145.748
X59.4Y-148.287
X61.94Y-145.748
X61.94Y-148.287
X64.48Y-145.748
X64.48Y-148.287
X67.02Y-145.748
X67.02Y-148.287
X69.56Y-145.748
X69.56Y-148.287
X69.92Y-46.212
X69.92Y-48.752
X72.1Y-145.748
X72.1Y-148.287
X72.46Y-46.212
X72.46Y-48.752
X74.64Y-145.748
X74.64Y-148.287
X75.0Y-46.212
X75.0Y-48.752
X77.54Y-46.212
X77.54Y-48.752
X80.08Y-46.212
X80.08Y-48.752
X97.0Y-77.0
X97.0Y-79.54
X97.0Y-82.08
X97.0Y-84.62
X97.0Y-87.16
X97.0Y-89.7
X97.0Y-132.0
X97.0Y-134.54
X97.0Y-137.08
X97.0Y-139.62
X97.0Y-142.16
X97.0Y-144.7
T3
X62.5Y-44.42
X62.5Y-54.58
X87.5Y-44.42
X87.5Y-54.58
T2
X54.434Y-154.123G85X53.373Y-155.184
G05
X54.434Y-170.623G85X53.373Y-171.684
G05
X54.434Y-187.123G85X53.373Y-188.184
G05
X54.434Y-203.623G85X53.373Y-204.684
G05
X60.25Y-152.75G85X61.75Y-152.75
G05
X60.25Y-169.25G85X61.75Y-169.25
G05
X60.25Y-185.75G85X61.75Y-185.75
G05
X60.25Y-202.25G85X61.75Y-202.25
G05
X65.0Y-158.0G85X65.0Y-159.5
G05
X65.0Y-174.5G85X65.0Y-176.0
G05
X65.0Y-191.0G85X65.0Y-192.5
G05
X65.0Y-207.5G85X65.0Y-209.0
G05
X70.934Y-154.123G85X69.873Y-155.184
G05
X70.934Y-170.623G85X69.873Y-171.684
G05
X70.934Y-187.123G85X69.873Y-188.184
G05
X70.934Y-203.623G85X69.873Y-204.684
G05
X76.75Y-152.75G85X78.25Y-152.75
G05
X76.75Y-169.25G85X78.25Y-169.25
G05
X76.75Y-185.75G85X78.25Y-185.75
G05
X76.75Y-202.25G85X78.25Y-202.25
G05
X81.5Y-158.0G85X81.5Y-159.5
G05
X81.5Y-174.5G85X81.5Y-176.0
G05
X81.5Y-191.0G85X81.5Y-192.5
G05
X81.5Y-207.5G85X81.5Y-209.0
G05
X85.0Y-157.5G85X85.0Y-156.0
G05
X85.0Y-174.0G85X85.0Y-172.5
G05
X85.0Y-190.5G85X85.0Y-189.0
G05
X85.0Y-207.0G85X85.0Y-205.5
G05
X86.373Y-163.316G85X87.434Y-164.377
G05
X86.373Y-179.816G85X87.434Y-180.877
G05
X86.373Y-196.316G85X87.434Y-197.377
G05
X86.373Y-212.816G85X87.434Y-213.877
G05
X90.25Y-152.75G85X91.75Y-152.75
G05
X90.25Y-169.25G85X91.75Y-169.25
G05
X90.25Y-185.75G85X91.75Y-185.75
G05
X90.25Y-202.25G85X91.75Y-202.25
G05
M30
