%TF.GenerationSoftware,KiCad,Pcbnew,9.0.4*%
%TF.CreationDate,2025-10-04T20:19:14+02:00*%
%TF.ProjectId,DMH_VCA_Bank_PCB_1,444d485f-5643-4415-9f42-616e6b5f5043,1*%
%TF.SameCoordinates,Original*%
%TF.FileFunction,Soldermask,Bot*%
%TF.FilePolarity,Negative*%
%FSLAX46Y46*%
G04 Gerber Fmt 4.6, Leading zero omitted, Abs format (unit mm)*
G04 Created by KiCad (PCBNEW 9.0.4) date 2025-10-04 20:19:14*
%MOMM*%
%LPD*%
G01*
G04 APERTURE LIST*
G04 Aperture macros list*
%AMRoundRect*
0 Rectangle with rounded corners*
0 $1 Rounding radius*
0 $2 $3 $4 $5 $6 $7 $8 $9 X,Y pos of 4 corners*
0 Add a 4 corners polygon primitive as box body*
4,1,4,$2,$3,$4,$5,$6,$7,$8,$9,$2,$3,0*
0 Add four circle primitives for the rounded corners*
1,1,$1+$1,$2,$3*
1,1,$1+$1,$4,$5*
1,1,$1+$1,$6,$7*
1,1,$1+$1,$8,$9*
0 Add four rect primitives between the rounded corners*
20,1,$1+$1,$2,$3,$4,$5,0*
20,1,$1+$1,$4,$5,$6,$7,0*
20,1,$1+$1,$6,$7,$8,$9,0*
20,1,$1+$1,$8,$9,$2,$3,0*%
%AMHorizOval*
0 Thick line with rounded ends*
0 $1 width*
0 $2 $3 position (X,Y) of the first rounded end (center of the circle)*
0 $4 $5 position (X,Y) of the second rounded end (center of the circle)*
0 Add line between two ends*
20,1,$1,$2,$3,$4,$5,0*
0 Add two circle primitives to create the rounded ends*
1,1,$1,$2,$3*
1,1,$1,$4,$5*%
G04 Aperture macros list end*
%ADD10R,1.700000X1.700000*%
%ADD11O,1.700000X1.700000*%
%ADD12HorizOval,1.712000X-0.533159X-0.533159X0.533159X0.533159X0*%
%ADD13O,1.712000X3.220000*%
%ADD14O,3.220000X1.712000*%
%ADD15HorizOval,1.712000X-0.533159X0.533159X0.533159X-0.533159X0*%
%ADD16C,1.600000*%
%ADD17O,1.600000X1.600000*%
%ADD18C,1.440000*%
%ADD19R,1.500000X1.500000*%
%ADD20C,1.500000*%
%ADD21RoundRect,0.250000X-0.600000X0.600000X-0.600000X-0.600000X0.600000X-0.600000X0.600000X0.600000X0*%
%ADD22C,1.700000*%
%ADD23R,2.200000X2.200000*%
%ADD24O,2.200000X2.200000*%
%ADD25R,1.600000X1.600000*%
%ADD26RoundRect,0.250000X0.600000X-0.600000X0.600000X0.600000X-0.600000X0.600000X-0.600000X-0.600000X0*%
%ADD27RoundRect,0.250000X0.550000X0.550000X-0.550000X0.550000X-0.550000X-0.550000X0.550000X-0.550000X0*%
G04 APERTURE END LIST*
D10*
%TO.C,J50*%
X53000000Y-48000000D03*
D11*
X53000000Y-50540000D03*
X53000000Y-53080000D03*
X53000000Y-55620000D03*
X53000000Y-58160000D03*
X53000000Y-60700000D03*
%TD*%
D12*
%TO.C,J1*%
X53903810Y-154653810D03*
D13*
X65000000Y-158750000D03*
D14*
X61000000Y-152750000D03*
%TD*%
D15*
%TO.C,J9*%
X86903810Y-196846190D03*
D14*
X91000000Y-185750000D03*
D13*
X85000000Y-189750000D03*
%TD*%
D15*
%TO.C,J12*%
X86903810Y-213346190D03*
D14*
X91000000Y-202250000D03*
D13*
X85000000Y-206250000D03*
%TD*%
D10*
%TO.C,J60*%
X97000000Y-77000000D03*
D11*
X97000000Y-79540000D03*
X97000000Y-82080000D03*
X97000000Y-84620000D03*
X97000000Y-87160000D03*
X97000000Y-89700000D03*
%TD*%
D10*
%TO.C,J80*%
X97000000Y-132000000D03*
D11*
X97000000Y-134540000D03*
X97000000Y-137080000D03*
X97000000Y-139620000D03*
X97000000Y-142160000D03*
X97000000Y-144700000D03*
%TD*%
D15*
%TO.C,J3*%
X86903810Y-163846190D03*
D14*
X91000000Y-152750000D03*
D13*
X85000000Y-156750000D03*
%TD*%
D12*
%TO.C,J11*%
X70403810Y-204153810D03*
D13*
X81500000Y-208250000D03*
D14*
X77500000Y-202250000D03*
%TD*%
D12*
%TO.C,J7*%
X53903810Y-187653810D03*
D13*
X65000000Y-191750000D03*
D14*
X61000000Y-185750000D03*
%TD*%
D12*
%TO.C,J4*%
X53903810Y-171153810D03*
D13*
X65000000Y-175250000D03*
D14*
X61000000Y-169250000D03*
%TD*%
D10*
%TO.C,J70*%
X53000000Y-103000000D03*
D11*
X53000000Y-105540000D03*
X53000000Y-108080000D03*
X53000000Y-110620000D03*
X53000000Y-113160000D03*
X53000000Y-115700000D03*
%TD*%
D12*
%TO.C,J5*%
X70403810Y-171153810D03*
D13*
X81500000Y-175250000D03*
D14*
X77500000Y-169250000D03*
%TD*%
D12*
%TO.C,J8*%
X70403810Y-187653810D03*
D13*
X81500000Y-191750000D03*
D14*
X77500000Y-185750000D03*
%TD*%
D12*
%TO.C,J10*%
X53903810Y-204153810D03*
D13*
X65000000Y-208250000D03*
D14*
X61000000Y-202250000D03*
%TD*%
D12*
%TO.C,J2*%
X70403810Y-154653810D03*
D13*
X81500000Y-158750000D03*
D14*
X77500000Y-152750000D03*
%TD*%
D15*
%TO.C,J6*%
X86903810Y-180346190D03*
D14*
X91000000Y-169250000D03*
D13*
X85000000Y-173250000D03*
%TD*%
D16*
%TO.C,R35*%
X58250000Y-124545000D03*
D17*
X58250000Y-122005000D03*
%TD*%
D18*
%TO.C,RV16*%
X91100000Y-138750000D03*
X88560000Y-138750000D03*
X86020000Y-138750000D03*
%TD*%
D16*
%TO.C,R19*%
X88750000Y-67295000D03*
D17*
X88750000Y-64755000D03*
%TD*%
D16*
%TO.C,R40*%
X56795000Y-119250000D03*
D17*
X54255000Y-119250000D03*
%TD*%
D16*
%TO.C,R67*%
X82000000Y-124295000D03*
D17*
X82000000Y-121755000D03*
%TD*%
D16*
%TO.C,R32*%
X81750000Y-112295000D03*
D17*
X81750000Y-109755000D03*
%TD*%
D16*
%TO.C,R38*%
X64750000Y-130705000D03*
D17*
X64750000Y-133245000D03*
%TD*%
D16*
%TO.C,R48*%
X91045000Y-117000000D03*
D17*
X88505000Y-117000000D03*
%TD*%
D16*
%TO.C,R14*%
X64455000Y-87000000D03*
D17*
X66995000Y-87000000D03*
%TD*%
D16*
%TO.C,R30*%
X92000000Y-90250000D03*
D17*
X89460000Y-90250000D03*
%TD*%
D18*
%TO.C,RV12*%
X91100000Y-112500000D03*
X88560000Y-112500000D03*
X86020000Y-112500000D03*
%TD*%
D16*
%TO.C,R13*%
X92045000Y-87000000D03*
D17*
X89505000Y-87000000D03*
%TD*%
D16*
%TO.C,R11*%
X67750000Y-73455000D03*
D17*
X67750000Y-75995000D03*
%TD*%
D19*
%TO.C,Q5*%
X54450000Y-128450000D03*
D20*
X54450000Y-130990000D03*
X54450000Y-133530000D03*
%TD*%
D16*
%TO.C,R42*%
X62705000Y-119250000D03*
D17*
X65245000Y-119250000D03*
%TD*%
D16*
%TO.C,R59*%
X85250000Y-124295000D03*
D17*
X85250000Y-121755000D03*
%TD*%
D16*
%TO.C,R61*%
X95250000Y-111795000D03*
D17*
X95250000Y-109255000D03*
%TD*%
D16*
%TO.C,R8*%
X58000000Y-73455000D03*
D17*
X58000000Y-75995000D03*
%TD*%
D16*
%TO.C,R63*%
X54000000Y-81455000D03*
D17*
X54000000Y-83995000D03*
%TD*%
D16*
%TO.C,R50*%
X88500000Y-131545000D03*
D17*
X88500000Y-129005000D03*
%TD*%
D16*
%TO.C,R29*%
X82500000Y-102705000D03*
D17*
X82500000Y-105245000D03*
%TD*%
D16*
%TO.C,R7*%
X67750000Y-67295000D03*
D17*
X67750000Y-64755000D03*
%TD*%
D16*
%TO.C,R18*%
X69545000Y-54000000D03*
D17*
X67005000Y-54000000D03*
%TD*%
D19*
%TO.C,Q3*%
X95800000Y-64050000D03*
D20*
X95800000Y-61510000D03*
X95800000Y-58970000D03*
%TD*%
D16*
%TO.C,R33*%
X58250000Y-130705000D03*
D17*
X58250000Y-133245000D03*
%TD*%
D16*
%TO.C,R43*%
X85250000Y-131545000D03*
D17*
X85250000Y-129005000D03*
%TD*%
D16*
%TO.C,R34*%
X61500000Y-130705000D03*
D17*
X61500000Y-133245000D03*
%TD*%
D19*
%TO.C,Q7*%
X95800000Y-120800000D03*
D20*
X95800000Y-118260000D03*
X95800000Y-115720000D03*
%TD*%
D16*
%TO.C,R46*%
X82000000Y-131545000D03*
D17*
X82000000Y-129005000D03*
%TD*%
D16*
%TO.C,R6*%
X64500000Y-67295000D03*
D17*
X64500000Y-64755000D03*
%TD*%
D16*
%TO.C,R1*%
X57250000Y-56295000D03*
D17*
X57250000Y-53755000D03*
%TD*%
D21*
%TO.C,J200*%
X56860000Y-145747500D03*
D22*
X59400000Y-145747500D03*
X61940000Y-145747500D03*
X64480000Y-145747500D03*
X67020000Y-145747500D03*
X69560000Y-145747500D03*
X72100000Y-145747500D03*
X74640000Y-145747500D03*
X56860000Y-148287500D03*
X59400000Y-148287500D03*
X61940000Y-148287500D03*
X64480000Y-148287500D03*
X67020000Y-148287500D03*
X69560000Y-148287500D03*
X72100000Y-148287500D03*
X74640000Y-148287500D03*
%TD*%
D19*
%TO.C,Q2*%
X54200000Y-70950000D03*
D20*
X54200000Y-73490000D03*
X54200000Y-76030000D03*
%TD*%
D16*
%TO.C,R2*%
X58000000Y-67295000D03*
D17*
X58000000Y-64755000D03*
%TD*%
D18*
%TO.C,RV10*%
X64000000Y-82500000D03*
X61460000Y-82500000D03*
X58920000Y-82500000D03*
%TD*%
D16*
%TO.C,R58*%
X83705000Y-117000000D03*
D17*
X86245000Y-117000000D03*
%TD*%
D16*
%TO.C,R47*%
X67750000Y-105045000D03*
D17*
X67750000Y-102505000D03*
%TD*%
D16*
%TO.C,R5*%
X82000000Y-59705000D03*
D17*
X82000000Y-62245000D03*
%TD*%
D16*
%TO.C,C4*%
X77500000Y-78750000D03*
X72500000Y-78750000D03*
%TD*%
%TO.C,R12*%
X69000000Y-81455000D03*
D17*
X69000000Y-83995000D03*
%TD*%
D16*
%TO.C,R60*%
X82000000Y-139545000D03*
D17*
X82000000Y-137005000D03*
%TD*%
D16*
%TO.C,C8*%
X77500000Y-138750000D03*
X72500000Y-138750000D03*
%TD*%
%TO.C,R21*%
X88750000Y-73455000D03*
D17*
X88750000Y-75995000D03*
%TD*%
D23*
%TO.C,D2*%
X87500000Y-44420000D03*
D24*
X87500000Y-54580000D03*
%TD*%
D25*
%TO.C,C2*%
X91294888Y-48000000D03*
D16*
X93294888Y-48000000D03*
%TD*%
D18*
%TO.C,RV15*%
X64000000Y-112500000D03*
X61460000Y-112500000D03*
X58920000Y-112500000D03*
%TD*%
%TO.C,RV3*%
X64000000Y-138750000D03*
X61460000Y-138750000D03*
X58920000Y-138750000D03*
%TD*%
D16*
%TO.C,R31*%
X58000000Y-105045000D03*
D17*
X58000000Y-102505000D03*
%TD*%
D18*
%TO.C,RV1*%
X64000000Y-60750000D03*
X61460000Y-60750000D03*
X58920000Y-60750000D03*
%TD*%
D16*
%TO.C,R66*%
X68000000Y-138045000D03*
D17*
X68000000Y-135505000D03*
%TD*%
D18*
%TO.C,RV2*%
X91100000Y-60750000D03*
X88560000Y-60750000D03*
X86020000Y-60750000D03*
%TD*%
D16*
%TO.C,R45*%
X68000000Y-117205000D03*
D17*
X68000000Y-119745000D03*
%TD*%
D16*
%TO.C,C3*%
X77500000Y-56500000D03*
X72500000Y-56500000D03*
%TD*%
%TO.C,R15*%
X58545000Y-87000000D03*
D17*
X56005000Y-87000000D03*
%TD*%
D16*
%TO.C,R28*%
X61250000Y-105045000D03*
D17*
X61250000Y-102505000D03*
%TD*%
D16*
%TO.C,R26*%
X91705000Y-54500000D03*
D17*
X94245000Y-54500000D03*
%TD*%
D18*
%TO.C,RV11*%
X91100000Y-82500000D03*
X88560000Y-82500000D03*
X86020000Y-82500000D03*
%TD*%
D16*
%TO.C,R68*%
X84045000Y-147000000D03*
D17*
X81505000Y-147000000D03*
%TD*%
D23*
%TO.C,D1*%
X62500000Y-54580000D03*
D24*
X62500000Y-44420000D03*
%TD*%
D25*
%TO.C,C1*%
X56794888Y-48000000D03*
D16*
X58794888Y-48000000D03*
%TD*%
%TO.C,R62*%
X68000000Y-59705000D03*
D17*
X68000000Y-62245000D03*
%TD*%
D26*
%TO.C,J100*%
X80080000Y-48752500D03*
D22*
X80080000Y-46212500D03*
X77540000Y-48752500D03*
X77540000Y-46212500D03*
X75000000Y-48752500D03*
X75000000Y-46212500D03*
X72460000Y-48752500D03*
X72460000Y-46212500D03*
X69920000Y-48752500D03*
X69920000Y-46212500D03*
%TD*%
D19*
%TO.C,Q8*%
X95800000Y-128050000D03*
D20*
X95800000Y-125510000D03*
X95800000Y-122970000D03*
%TD*%
D16*
%TO.C,R57*%
X84045000Y-143750000D03*
D17*
X81505000Y-143750000D03*
%TD*%
D19*
%TO.C,Q4*%
X95800000Y-71300000D03*
D20*
X95800000Y-68760000D03*
X95800000Y-66220000D03*
%TD*%
D16*
%TO.C,R51*%
X91750000Y-124295000D03*
D17*
X91750000Y-121755000D03*
%TD*%
D16*
%TO.C,R16*%
X85500000Y-67295000D03*
D17*
X85500000Y-64755000D03*
%TD*%
D16*
%TO.C,C7*%
X77500000Y-116500000D03*
X72500000Y-116500000D03*
%TD*%
%TO.C,C5*%
X77500000Y-86500000D03*
X72500000Y-86500000D03*
%TD*%
D27*
%TO.C,U1*%
X78810000Y-60000000D03*
D16*
X78810000Y-62540000D03*
X78810000Y-65080000D03*
X78810000Y-67620000D03*
X78810000Y-70160000D03*
X78810000Y-72700000D03*
X78810000Y-75240000D03*
X71190000Y-75240000D03*
X71190000Y-72700000D03*
X71190000Y-70160000D03*
X71190000Y-67620000D03*
X71190000Y-65080000D03*
X71190000Y-62540000D03*
X71190000Y-60000000D03*
%TD*%
%TO.C,R22*%
X85500000Y-73455000D03*
D17*
X85500000Y-75995000D03*
%TD*%
D27*
%TO.C,U2*%
X78810000Y-90000000D03*
D16*
X78810000Y-92540000D03*
X78810000Y-95080000D03*
X78810000Y-97620000D03*
X78810000Y-100160000D03*
X78810000Y-102700000D03*
X78810000Y-105240000D03*
X71190000Y-105240000D03*
X71190000Y-102700000D03*
X71190000Y-100160000D03*
X71190000Y-97620000D03*
X71190000Y-95080000D03*
X71190000Y-92540000D03*
X71190000Y-90000000D03*
%TD*%
%TO.C,C6*%
X77500000Y-108750000D03*
X72500000Y-108750000D03*
%TD*%
%TO.C,R9*%
X61250000Y-73455000D03*
D17*
X61250000Y-75995000D03*
%TD*%
D19*
%TO.C,Q6*%
X54450000Y-135700000D03*
D20*
X54450000Y-138240000D03*
X54450000Y-140780000D03*
%TD*%
D16*
%TO.C,R24*%
X92000000Y-73455000D03*
D17*
X92000000Y-75995000D03*
%TD*%
D19*
%TO.C,Q1*%
X54200000Y-63700000D03*
D20*
X54200000Y-66240000D03*
X54200000Y-68780000D03*
%TD*%
D16*
%TO.C,R44*%
X68000000Y-124545000D03*
D17*
X68000000Y-122005000D03*
%TD*%
D16*
%TO.C,R20*%
X82250000Y-73455000D03*
D17*
X82250000Y-75995000D03*
%TD*%
D16*
%TO.C,R41*%
X68000000Y-130705000D03*
D17*
X68000000Y-133245000D03*
%TD*%
D16*
%TO.C,R52*%
X91750000Y-131545000D03*
D17*
X91750000Y-129005000D03*
%TD*%
D16*
%TO.C,R3*%
X80500000Y-55250000D03*
D17*
X83040000Y-55250000D03*
%TD*%
D16*
%TO.C,R27*%
X81000000Y-81455000D03*
D17*
X81000000Y-83995000D03*
%TD*%
D16*
%TO.C,R36*%
X61500000Y-124545000D03*
D17*
X61500000Y-122005000D03*
%TD*%
D16*
%TO.C,R64*%
X84705000Y-87000000D03*
D17*
X87245000Y-87000000D03*
%TD*%
D16*
%TO.C,R39*%
X64750000Y-124545000D03*
D17*
X64750000Y-122005000D03*
%TD*%
D16*
%TO.C,R10*%
X64500000Y-73455000D03*
D17*
X64500000Y-75995000D03*
%TD*%
D16*
%TO.C,R65*%
X64500000Y-105045000D03*
D17*
X64500000Y-102505000D03*
%TD*%
D16*
%TO.C,R23*%
X92000000Y-67295000D03*
D17*
X92000000Y-64755000D03*
%TD*%
D16*
%TO.C,R4*%
X61250000Y-67295000D03*
D17*
X61250000Y-64755000D03*
%TD*%
D27*
%TO.C,U3*%
X78810000Y-120000000D03*
D16*
X78810000Y-122540000D03*
X78810000Y-125080000D03*
X78810000Y-127620000D03*
X78810000Y-130160000D03*
X78810000Y-132700000D03*
X78810000Y-135240000D03*
X71190000Y-135240000D03*
X71190000Y-132700000D03*
X71190000Y-130160000D03*
X71190000Y-127620000D03*
X71190000Y-125080000D03*
X71190000Y-122540000D03*
X71190000Y-120000000D03*
%TD*%
%TO.C,R17*%
X82250000Y-67295000D03*
D17*
X82250000Y-64755000D03*
%TD*%
D16*
%TO.C,R37*%
X55000000Y-124545000D03*
D17*
X55000000Y-122005000D03*
%TD*%
D16*
%TO.C,R49*%
X88500000Y-124295000D03*
D17*
X88500000Y-121755000D03*
%TD*%
D16*
%TO.C,R25*%
X97000000Y-53205000D03*
D17*
X97000000Y-55745000D03*
%TD*%
M02*
