%TF.GenerationSoftware,KiCad,Pcbnew,9.0.4*%
%TF.CreationDate,2025-10-04T20:18:54+02:00*%
%TF.ProjectId,DMH_VCA_Bank_PANEL,444d485f-5643-4415-9f42-616e6b5f5041,rev?*%
%TF.SameCoordinates,Original*%
%TF.FileFunction,Drillmap*%
%TF.FilePolarity,Positive*%
%FSLAX45Y45*%
G04 Gerber Fmt 4.5, Leading zero omitted, Abs format (unit mm)*
G04 Created by KiCad (PCBNEW 9.0.4) date 2025-10-04 20:18:54*
%MOMM*%
%LPD*%
G01*
G04 APERTURE LIST*
%ADD10C,0.050000*%
%ADD11C,0.200000*%
G04 APERTURE END LIST*
D10*
X5000000Y-3000000D02*
X10000000Y-3000000D01*
X10000000Y-23000000D01*
X5000000Y-23000000D01*
X5000000Y-3000000D01*
X6340000Y-19225000D02*
G75*
G02*
X5360000Y-19225000I-490000J0D01*
G01*
X5360000Y-19225000D02*
G75*
G02*
X6340000Y-19225000I490000J0D01*
G01*
X9640000Y-19225000D02*
G75*
G02*
X8660000Y-19225000I-490000J0D01*
G01*
X8660000Y-19225000D02*
G75*
G02*
X9640000Y-19225000I490000J0D01*
G01*
X7990000Y-20875000D02*
G75*
G02*
X7010000Y-20875000I-490000J0D01*
G01*
X7010000Y-20875000D02*
G75*
G02*
X7990000Y-20875000I490000J0D01*
G01*
X6600000Y-5450000D02*
G75*
G02*
X5900000Y-5450000I-350000J0D01*
G01*
X5900000Y-5450000D02*
G75*
G02*
X6600000Y-5450000I350000J0D01*
G01*
X7990000Y-19225000D02*
G75*
G02*
X7010000Y-19225000I-490000J0D01*
G01*
X7010000Y-19225000D02*
G75*
G02*
X7990000Y-19225000I490000J0D01*
G01*
X7990000Y-15925000D02*
G75*
G02*
X7010000Y-15925000I-490000J0D01*
G01*
X7010000Y-15925000D02*
G75*
G02*
X7990000Y-15925000I490000J0D01*
G01*
X6600000Y-13700000D02*
G75*
G02*
X5900000Y-13700000I-350000J0D01*
G01*
X5900000Y-13700000D02*
G75*
G02*
X6600000Y-13700000I350000J0D01*
G01*
X9640000Y-15925000D02*
G75*
G02*
X8660000Y-15925000I-490000J0D01*
G01*
X8660000Y-15925000D02*
G75*
G02*
X9640000Y-15925000I490000J0D01*
G01*
X7990000Y-17575000D02*
G75*
G02*
X7010000Y-17575000I-490000J0D01*
G01*
X7010000Y-17575000D02*
G75*
G02*
X7990000Y-17575000I490000J0D01*
G01*
X6340000Y-20875000D02*
G75*
G02*
X5360000Y-20875000I-490000J0D01*
G01*
X5360000Y-20875000D02*
G75*
G02*
X6340000Y-20875000I490000J0D01*
G01*
X9640000Y-20875000D02*
G75*
G02*
X8660000Y-20875000I-490000J0D01*
G01*
X8660000Y-20875000D02*
G75*
G02*
X9640000Y-20875000I490000J0D01*
G01*
X6340000Y-17575000D02*
G75*
G02*
X5360000Y-17575000I-490000J0D01*
G01*
X5360000Y-17575000D02*
G75*
G02*
X6340000Y-17575000I490000J0D01*
G01*
X6600000Y-8200000D02*
G75*
G02*
X5900000Y-8200000I-350000J0D01*
G01*
X5900000Y-8200000D02*
G75*
G02*
X6600000Y-8200000I350000J0D01*
G01*
X6600000Y-10950000D02*
G75*
G02*
X5900000Y-10950000I-350000J0D01*
G01*
X5900000Y-10950000D02*
G75*
G02*
X6600000Y-10950000I350000J0D01*
G01*
X6340000Y-15925000D02*
G75*
G02*
X5360000Y-15925000I-490000J0D01*
G01*
X5360000Y-15925000D02*
G75*
G02*
X6340000Y-15925000I490000J0D01*
G01*
X9200000Y-13700000D02*
G75*
G02*
X8300000Y-13700000I-450000J0D01*
G01*
X8300000Y-13700000D02*
G75*
G02*
X9200000Y-13700000I450000J0D01*
G01*
X9200000Y-5450000D02*
G75*
G02*
X8300000Y-5450000I-450000J0D01*
G01*
X8300000Y-5450000D02*
G75*
G02*
X9200000Y-5450000I450000J0D01*
G01*
X9200000Y-8200000D02*
G75*
G02*
X8300000Y-8200000I-450000J0D01*
G01*
X8300000Y-8200000D02*
G75*
G02*
X9200000Y-8200000I450000J0D01*
G01*
X9200000Y-10950000D02*
G75*
G02*
X8300000Y-10950000I-450000J0D01*
G01*
X8300000Y-10950000D02*
G75*
G02*
X9200000Y-10950000I450000J0D01*
G01*
X9640000Y-17575000D02*
G75*
G02*
X8660000Y-17575000I-490000J0D01*
G01*
X8660000Y-17575000D02*
G75*
G02*
X9640000Y-17575000I490000J0D01*
G01*
D11*
X5258277Y-23313984D02*
X5258277Y-23113984D01*
X5258277Y-23113984D02*
X5305896Y-23113984D01*
X5305896Y-23113984D02*
X5334467Y-23123508D01*
X5334467Y-23123508D02*
X5353515Y-23142555D01*
X5353515Y-23142555D02*
X5363039Y-23161603D01*
X5363039Y-23161603D02*
X5372563Y-23199698D01*
X5372563Y-23199698D02*
X5372563Y-23228269D01*
X5372563Y-23228269D02*
X5363039Y-23266365D01*
X5363039Y-23266365D02*
X5353515Y-23285412D01*
X5353515Y-23285412D02*
X5334467Y-23304460D01*
X5334467Y-23304460D02*
X5305896Y-23313984D01*
X5305896Y-23313984D02*
X5258277Y-23313984D01*
X5458277Y-23313984D02*
X5458277Y-23180650D01*
X5458277Y-23218746D02*
X5467801Y-23199698D01*
X5467801Y-23199698D02*
X5477324Y-23190174D01*
X5477324Y-23190174D02*
X5496372Y-23180650D01*
X5496372Y-23180650D02*
X5515420Y-23180650D01*
X5582086Y-23313984D02*
X5582086Y-23180650D01*
X5582086Y-23113984D02*
X5572563Y-23123508D01*
X5572563Y-23123508D02*
X5582086Y-23133031D01*
X5582086Y-23133031D02*
X5591610Y-23123508D01*
X5591610Y-23123508D02*
X5582086Y-23113984D01*
X5582086Y-23113984D02*
X5582086Y-23133031D01*
X5705896Y-23313984D02*
X5686848Y-23304460D01*
X5686848Y-23304460D02*
X5677324Y-23285412D01*
X5677324Y-23285412D02*
X5677324Y-23113984D01*
X5810658Y-23313984D02*
X5791610Y-23304460D01*
X5791610Y-23304460D02*
X5782086Y-23285412D01*
X5782086Y-23285412D02*
X5782086Y-23113984D01*
X6039229Y-23313984D02*
X6039229Y-23113984D01*
X6039229Y-23113984D02*
X6105896Y-23256841D01*
X6105896Y-23256841D02*
X6172562Y-23113984D01*
X6172562Y-23113984D02*
X6172562Y-23313984D01*
X6353515Y-23313984D02*
X6353515Y-23209222D01*
X6353515Y-23209222D02*
X6343991Y-23190174D01*
X6343991Y-23190174D02*
X6324943Y-23180650D01*
X6324943Y-23180650D02*
X6286848Y-23180650D01*
X6286848Y-23180650D02*
X6267801Y-23190174D01*
X6353515Y-23304460D02*
X6334467Y-23313984D01*
X6334467Y-23313984D02*
X6286848Y-23313984D01*
X6286848Y-23313984D02*
X6267801Y-23304460D01*
X6267801Y-23304460D02*
X6258277Y-23285412D01*
X6258277Y-23285412D02*
X6258277Y-23266365D01*
X6258277Y-23266365D02*
X6267801Y-23247317D01*
X6267801Y-23247317D02*
X6286848Y-23237793D01*
X6286848Y-23237793D02*
X6334467Y-23237793D01*
X6334467Y-23237793D02*
X6353515Y-23228269D01*
X6448753Y-23180650D02*
X6448753Y-23380650D01*
X6448753Y-23190174D02*
X6467801Y-23180650D01*
X6467801Y-23180650D02*
X6505896Y-23180650D01*
X6505896Y-23180650D02*
X6524943Y-23190174D01*
X6524943Y-23190174D02*
X6534467Y-23199698D01*
X6534467Y-23199698D02*
X6543991Y-23218746D01*
X6543991Y-23218746D02*
X6543991Y-23275888D01*
X6543991Y-23275888D02*
X6534467Y-23294936D01*
X6534467Y-23294936D02*
X6524943Y-23304460D01*
X6524943Y-23304460D02*
X6505896Y-23313984D01*
X6505896Y-23313984D02*
X6467801Y-23313984D01*
X6467801Y-23313984D02*
X6448753Y-23304460D01*
X6629705Y-23294936D02*
X6639229Y-23304460D01*
X6639229Y-23304460D02*
X6629705Y-23313984D01*
X6629705Y-23313984D02*
X6620182Y-23304460D01*
X6620182Y-23304460D02*
X6629705Y-23294936D01*
X6629705Y-23294936D02*
X6629705Y-23313984D01*
X6629705Y-23190174D02*
X6639229Y-23199698D01*
X6639229Y-23199698D02*
X6629705Y-23209222D01*
X6629705Y-23209222D02*
X6620182Y-23199698D01*
X6620182Y-23199698D02*
X6629705Y-23190174D01*
X6629705Y-23190174D02*
X6629705Y-23209222D01*
M02*
