%TF.GenerationSoftware,KiCad,Pcbnew,9.0.4*%
%TF.CreationDate,2025-10-04T20:18:46+02:00*%
%TF.ProjectId,DMH_VCA_Bank_PANEL,444d485f-5643-4415-9f42-616e6b5f5041,rev?*%
%TF.SameCoordinates,Original*%
%TF.FileFunction,Profile,NP*%
%FSLAX46Y46*%
G04 Gerber Fmt 4.6, Leading zero omitted, Abs format (unit mm)*
G04 Created by KiCad (PCBNEW 9.0.4) date 2025-10-04 20:18:46*
%MOMM*%
%LPD*%
G01*
G04 APERTURE LIST*
%TA.AperFunction,Profile*%
%ADD10C,0.050000*%
%TD*%
G04 APERTURE END LIST*
D10*
X50000000Y-30000000D02*
X100000000Y-30000000D01*
X100000000Y-230000000D01*
X50000000Y-230000000D01*
X50000000Y-30000000D01*
%TO.C,H14*%
X63400000Y-192250000D02*
G75*
G02*
X53600000Y-192250000I-4900000J0D01*
G01*
X53600000Y-192250000D02*
G75*
G02*
X63400000Y-192250000I4900000J0D01*
G01*
%TO.C,H23*%
X96400000Y-192250000D02*
G75*
G02*
X86600000Y-192250000I-4900000J0D01*
G01*
X86600000Y-192250000D02*
G75*
G02*
X96400000Y-192250000I4900000J0D01*
G01*
%TO.C,H22*%
X79900000Y-208750000D02*
G75*
G02*
X70100000Y-208750000I-4900000J0D01*
G01*
X70100000Y-208750000D02*
G75*
G02*
X79900000Y-208750000I4900000J0D01*
G01*
%TO.C,H5*%
X66000000Y-54500000D02*
G75*
G02*
X59000000Y-54500000I-3500000J0D01*
G01*
X59000000Y-54500000D02*
G75*
G02*
X66000000Y-54500000I3500000J0D01*
G01*
%TO.C,H18*%
X79900000Y-192250000D02*
G75*
G02*
X70100000Y-192250000I-4900000J0D01*
G01*
X70100000Y-192250000D02*
G75*
G02*
X79900000Y-192250000I4900000J0D01*
G01*
%TO.C,H9*%
X79900000Y-159250000D02*
G75*
G02*
X70100000Y-159250000I-4900000J0D01*
G01*
X70100000Y-159250000D02*
G75*
G02*
X79900000Y-159250000I4900000J0D01*
G01*
%TO.C,H19*%
X66000000Y-137000000D02*
G75*
G02*
X59000000Y-137000000I-3500000J0D01*
G01*
X59000000Y-137000000D02*
G75*
G02*
X66000000Y-137000000I3500000J0D01*
G01*
%TO.C,H11*%
X96400000Y-159250000D02*
G75*
G02*
X86600000Y-159250000I-4900000J0D01*
G01*
X86600000Y-159250000D02*
G75*
G02*
X96400000Y-159250000I4900000J0D01*
G01*
%TO.C,H17*%
X79900000Y-175750000D02*
G75*
G02*
X70100000Y-175750000I-4900000J0D01*
G01*
X70100000Y-175750000D02*
G75*
G02*
X79900000Y-175750000I4900000J0D01*
G01*
%TO.C,H21*%
X63400000Y-208750000D02*
G75*
G02*
X53600000Y-208750000I-4900000J0D01*
G01*
X53600000Y-208750000D02*
G75*
G02*
X63400000Y-208750000I4900000J0D01*
G01*
%TO.C,H24*%
X96400000Y-208750000D02*
G75*
G02*
X86600000Y-208750000I-4900000J0D01*
G01*
X86600000Y-208750000D02*
G75*
G02*
X96400000Y-208750000I4900000J0D01*
G01*
%TO.C,H15*%
X63400000Y-175750000D02*
G75*
G02*
X53600000Y-175750000I-4900000J0D01*
G01*
X53600000Y-175750000D02*
G75*
G02*
X63400000Y-175750000I4900000J0D01*
G01*
%TO.C,H12*%
X66000000Y-82000000D02*
G75*
G02*
X59000000Y-82000000I-3500000J0D01*
G01*
X59000000Y-82000000D02*
G75*
G02*
X66000000Y-82000000I3500000J0D01*
G01*
%TO.C,H7*%
X66000000Y-109500000D02*
G75*
G02*
X59000000Y-109500000I-3500000J0D01*
G01*
X59000000Y-109500000D02*
G75*
G02*
X66000000Y-109500000I3500000J0D01*
G01*
%TO.C,H8*%
X63400000Y-159250000D02*
G75*
G02*
X53600000Y-159250000I-4900000J0D01*
G01*
X53600000Y-159250000D02*
G75*
G02*
X63400000Y-159250000I4900000J0D01*
G01*
%TO.C,H20*%
X92000000Y-137000000D02*
G75*
G02*
X83000000Y-137000000I-4500000J0D01*
G01*
X83000000Y-137000000D02*
G75*
G02*
X92000000Y-137000000I4500000J0D01*
G01*
%TO.C,H6*%
X92000000Y-54500000D02*
G75*
G02*
X83000000Y-54500000I-4500000J0D01*
G01*
X83000000Y-54500000D02*
G75*
G02*
X92000000Y-54500000I4500000J0D01*
G01*
%TO.C,H13*%
X92000000Y-82000000D02*
G75*
G02*
X83000000Y-82000000I-4500000J0D01*
G01*
X83000000Y-82000000D02*
G75*
G02*
X92000000Y-82000000I4500000J0D01*
G01*
%TO.C,H10*%
X92000000Y-109500000D02*
G75*
G02*
X83000000Y-109500000I-4500000J0D01*
G01*
X83000000Y-109500000D02*
G75*
G02*
X92000000Y-109500000I4500000J0D01*
G01*
%TO.C,H16*%
X96400000Y-175750000D02*
G75*
G02*
X86600000Y-175750000I-4900000J0D01*
G01*
X86600000Y-175750000D02*
G75*
G02*
X96400000Y-175750000I4900000J0D01*
G01*
%TD*%
M02*
