%TF.GenerationSoftware,KiCad,Pcbnew,9.0.4*%
%TF.CreationDate,2025-10-04T20:18:46+02:00*%
%TF.ProjectId,DMH_VCA_Bank_PANEL,444d485f-5643-4415-9f42-616e6b5f5041,rev?*%
%TF.SameCoordinates,Original*%
%TF.FileFunction,Legend,Bot*%
%TF.FilePolarity,Positive*%
%FSLAX46Y46*%
G04 Gerber Fmt 4.6, Leading zero omitted, Abs format (unit mm)*
G04 Created by KiCad (PCBNEW 9.0.4) date 2025-10-04 20:18:46*
%MOMM*%
%LPD*%
G01*
G04 APERTURE LIST*
%ADD10C,0.100000*%
%ADD11C,0.300000*%
%ADD12C,0.500000*%
%ADD13C,12.000000*%
%ADD14C,4.000000*%
%ADD15O,2.500000X1.500000*%
%ADD16R,5.000000X10.000000*%
G04 APERTURE END LIST*
D10*
X70000000Y-225450000D02*
X80000000Y-225450000D01*
X80000000Y-227450000D01*
X70000000Y-227450000D01*
X70000000Y-225450000D01*
G36*
X70000000Y-225450000D02*
G01*
X80000000Y-225450000D01*
X80000000Y-227450000D01*
X70000000Y-227450000D01*
X70000000Y-225450000D01*
G37*
D11*
X87714284Y-223628328D02*
X87714284Y-222128328D01*
X87714284Y-222128328D02*
X87214284Y-223199757D01*
X87214284Y-223199757D02*
X86714284Y-222128328D01*
X86714284Y-222128328D02*
X86714284Y-223628328D01*
X85999998Y-223628328D02*
X85999998Y-222128328D01*
X85857141Y-223056900D02*
X85428569Y-223628328D01*
X85428569Y-222628328D02*
X85999998Y-223199757D01*
X83999997Y-223628328D02*
X84857140Y-223628328D01*
X84428569Y-223628328D02*
X84428569Y-222128328D01*
X84428569Y-222128328D02*
X84571426Y-222342614D01*
X84571426Y-222342614D02*
X84714283Y-222485471D01*
X84714283Y-222485471D02*
X84857140Y-222556900D01*
X83357141Y-223485471D02*
X83285712Y-223556900D01*
X83285712Y-223556900D02*
X83357141Y-223628328D01*
X83357141Y-223628328D02*
X83428569Y-223556900D01*
X83428569Y-223556900D02*
X83357141Y-223485471D01*
X83357141Y-223485471D02*
X83357141Y-223628328D01*
X82357140Y-222128328D02*
X82214283Y-222128328D01*
X82214283Y-222128328D02*
X82071426Y-222199757D01*
X82071426Y-222199757D02*
X81999998Y-222271185D01*
X81999998Y-222271185D02*
X81928569Y-222414042D01*
X81928569Y-222414042D02*
X81857140Y-222699757D01*
X81857140Y-222699757D02*
X81857140Y-223056900D01*
X81857140Y-223056900D02*
X81928569Y-223342614D01*
X81928569Y-223342614D02*
X81999998Y-223485471D01*
X81999998Y-223485471D02*
X82071426Y-223556900D01*
X82071426Y-223556900D02*
X82214283Y-223628328D01*
X82214283Y-223628328D02*
X82357140Y-223628328D01*
X82357140Y-223628328D02*
X82499998Y-223556900D01*
X82499998Y-223556900D02*
X82571426Y-223485471D01*
X82571426Y-223485471D02*
X82642855Y-223342614D01*
X82642855Y-223342614D02*
X82714283Y-223056900D01*
X82714283Y-223056900D02*
X82714283Y-222699757D01*
X82714283Y-222699757D02*
X82642855Y-222414042D01*
X82642855Y-222414042D02*
X82571426Y-222271185D01*
X82571426Y-222271185D02*
X82499998Y-222199757D01*
X82499998Y-222199757D02*
X82357140Y-222128328D01*
X80071427Y-223056900D02*
X78928570Y-223056900D01*
X76785712Y-222128328D02*
X76499998Y-222128328D01*
X76499998Y-222128328D02*
X76357141Y-222199757D01*
X76357141Y-222199757D02*
X76214284Y-222342614D01*
X76214284Y-222342614D02*
X76142855Y-222628328D01*
X76142855Y-222628328D02*
X76142855Y-223128328D01*
X76142855Y-223128328D02*
X76214284Y-223414042D01*
X76214284Y-223414042D02*
X76357141Y-223556900D01*
X76357141Y-223556900D02*
X76499998Y-223628328D01*
X76499998Y-223628328D02*
X76785712Y-223628328D01*
X76785712Y-223628328D02*
X76928570Y-223556900D01*
X76928570Y-223556900D02*
X77071427Y-223414042D01*
X77071427Y-223414042D02*
X77142855Y-223128328D01*
X77142855Y-223128328D02*
X77142855Y-222628328D01*
X77142855Y-222628328D02*
X77071427Y-222342614D01*
X77071427Y-222342614D02*
X76928570Y-222199757D01*
X76928570Y-222199757D02*
X76785712Y-222128328D01*
X74857141Y-223556900D02*
X74999998Y-223628328D01*
X74999998Y-223628328D02*
X75285712Y-223628328D01*
X75285712Y-223628328D02*
X75428569Y-223556900D01*
X75428569Y-223556900D02*
X75499998Y-223485471D01*
X75499998Y-223485471D02*
X75571426Y-223342614D01*
X75571426Y-223342614D02*
X75571426Y-222914042D01*
X75571426Y-222914042D02*
X75499998Y-222771185D01*
X75499998Y-222771185D02*
X75428569Y-222699757D01*
X75428569Y-222699757D02*
X75285712Y-222628328D01*
X75285712Y-222628328D02*
X74999998Y-222628328D01*
X74999998Y-222628328D02*
X74857141Y-222699757D01*
X74428569Y-222628328D02*
X73857141Y-222628328D01*
X74214284Y-222128328D02*
X74214284Y-223414042D01*
X74214284Y-223414042D02*
X74142855Y-223556900D01*
X74142855Y-223556900D02*
X73999998Y-223628328D01*
X73999998Y-223628328D02*
X73857141Y-223628328D01*
X73142855Y-223628328D02*
X73285712Y-223556900D01*
X73285712Y-223556900D02*
X73357141Y-223485471D01*
X73357141Y-223485471D02*
X73428569Y-223342614D01*
X73428569Y-223342614D02*
X73428569Y-222914042D01*
X73428569Y-222914042D02*
X73357141Y-222771185D01*
X73357141Y-222771185D02*
X73285712Y-222699757D01*
X73285712Y-222699757D02*
X73142855Y-222628328D01*
X73142855Y-222628328D02*
X72928569Y-222628328D01*
X72928569Y-222628328D02*
X72785712Y-222699757D01*
X72785712Y-222699757D02*
X72714284Y-222771185D01*
X72714284Y-222771185D02*
X72642855Y-222914042D01*
X72642855Y-222914042D02*
X72642855Y-223342614D01*
X72642855Y-223342614D02*
X72714284Y-223485471D01*
X72714284Y-223485471D02*
X72785712Y-223556900D01*
X72785712Y-223556900D02*
X72928569Y-223628328D01*
X72928569Y-223628328D02*
X73142855Y-223628328D01*
X71999998Y-223628328D02*
X71999998Y-222128328D01*
X71999998Y-222699757D02*
X71857141Y-222628328D01*
X71857141Y-222628328D02*
X71571426Y-222628328D01*
X71571426Y-222628328D02*
X71428569Y-222699757D01*
X71428569Y-222699757D02*
X71357141Y-222771185D01*
X71357141Y-222771185D02*
X71285712Y-222914042D01*
X71285712Y-222914042D02*
X71285712Y-223342614D01*
X71285712Y-223342614D02*
X71357141Y-223485471D01*
X71357141Y-223485471D02*
X71428569Y-223556900D01*
X71428569Y-223556900D02*
X71571426Y-223628328D01*
X71571426Y-223628328D02*
X71857141Y-223628328D01*
X71857141Y-223628328D02*
X71999998Y-223556900D01*
X70071426Y-223556900D02*
X70214283Y-223628328D01*
X70214283Y-223628328D02*
X70499998Y-223628328D01*
X70499998Y-223628328D02*
X70642855Y-223556900D01*
X70642855Y-223556900D02*
X70714283Y-223414042D01*
X70714283Y-223414042D02*
X70714283Y-222842614D01*
X70714283Y-222842614D02*
X70642855Y-222699757D01*
X70642855Y-222699757D02*
X70499998Y-222628328D01*
X70499998Y-222628328D02*
X70214283Y-222628328D01*
X70214283Y-222628328D02*
X70071426Y-222699757D01*
X70071426Y-222699757D02*
X69999998Y-222842614D01*
X69999998Y-222842614D02*
X69999998Y-222985471D01*
X69999998Y-222985471D02*
X70714283Y-223128328D01*
X69357141Y-223628328D02*
X69357141Y-222628328D01*
X69357141Y-222914042D02*
X69285712Y-222771185D01*
X69285712Y-222771185D02*
X69214284Y-222699757D01*
X69214284Y-222699757D02*
X69071426Y-222628328D01*
X69071426Y-222628328D02*
X68928569Y-222628328D01*
X67357141Y-222271185D02*
X67285713Y-222199757D01*
X67285713Y-222199757D02*
X67142856Y-222128328D01*
X67142856Y-222128328D02*
X66785713Y-222128328D01*
X66785713Y-222128328D02*
X66642856Y-222199757D01*
X66642856Y-222199757D02*
X66571427Y-222271185D01*
X66571427Y-222271185D02*
X66499998Y-222414042D01*
X66499998Y-222414042D02*
X66499998Y-222556900D01*
X66499998Y-222556900D02*
X66571427Y-222771185D01*
X66571427Y-222771185D02*
X67428570Y-223628328D01*
X67428570Y-223628328D02*
X66499998Y-223628328D01*
X65571427Y-222128328D02*
X65428570Y-222128328D01*
X65428570Y-222128328D02*
X65285713Y-222199757D01*
X65285713Y-222199757D02*
X65214285Y-222271185D01*
X65214285Y-222271185D02*
X65142856Y-222414042D01*
X65142856Y-222414042D02*
X65071427Y-222699757D01*
X65071427Y-222699757D02*
X65071427Y-223056900D01*
X65071427Y-223056900D02*
X65142856Y-223342614D01*
X65142856Y-223342614D02*
X65214285Y-223485471D01*
X65214285Y-223485471D02*
X65285713Y-223556900D01*
X65285713Y-223556900D02*
X65428570Y-223628328D01*
X65428570Y-223628328D02*
X65571427Y-223628328D01*
X65571427Y-223628328D02*
X65714285Y-223556900D01*
X65714285Y-223556900D02*
X65785713Y-223485471D01*
X65785713Y-223485471D02*
X65857142Y-223342614D01*
X65857142Y-223342614D02*
X65928570Y-223056900D01*
X65928570Y-223056900D02*
X65928570Y-222699757D01*
X65928570Y-222699757D02*
X65857142Y-222414042D01*
X65857142Y-222414042D02*
X65785713Y-222271185D01*
X65785713Y-222271185D02*
X65714285Y-222199757D01*
X65714285Y-222199757D02*
X65571427Y-222128328D01*
X64499999Y-222271185D02*
X64428571Y-222199757D01*
X64428571Y-222199757D02*
X64285714Y-222128328D01*
X64285714Y-222128328D02*
X63928571Y-222128328D01*
X63928571Y-222128328D02*
X63785714Y-222199757D01*
X63785714Y-222199757D02*
X63714285Y-222271185D01*
X63714285Y-222271185D02*
X63642856Y-222414042D01*
X63642856Y-222414042D02*
X63642856Y-222556900D01*
X63642856Y-222556900D02*
X63714285Y-222771185D01*
X63714285Y-222771185D02*
X64571428Y-223628328D01*
X64571428Y-223628328D02*
X63642856Y-223628328D01*
X62285714Y-222128328D02*
X63000000Y-222128328D01*
X63000000Y-222128328D02*
X63071428Y-222842614D01*
X63071428Y-222842614D02*
X63000000Y-222771185D01*
X63000000Y-222771185D02*
X62857143Y-222699757D01*
X62857143Y-222699757D02*
X62500000Y-222699757D01*
X62500000Y-222699757D02*
X62357143Y-222771185D01*
X62357143Y-222771185D02*
X62285714Y-222842614D01*
X62285714Y-222842614D02*
X62214285Y-222985471D01*
X62214285Y-222985471D02*
X62214285Y-223342614D01*
X62214285Y-223342614D02*
X62285714Y-223485471D01*
X62285714Y-223485471D02*
X62357143Y-223556900D01*
X62357143Y-223556900D02*
X62500000Y-223628328D01*
X62500000Y-223628328D02*
X62857143Y-223628328D01*
X62857143Y-223628328D02*
X63000000Y-223556900D01*
X63000000Y-223556900D02*
X63071428Y-223485471D01*
X96142856Y-130999757D02*
X96285714Y-130928328D01*
X96285714Y-130928328D02*
X96499999Y-130928328D01*
X96499999Y-130928328D02*
X96714285Y-130999757D01*
X96714285Y-130999757D02*
X96857142Y-131142614D01*
X96857142Y-131142614D02*
X96928571Y-131285471D01*
X96928571Y-131285471D02*
X96999999Y-131571185D01*
X96999999Y-131571185D02*
X96999999Y-131785471D01*
X96999999Y-131785471D02*
X96928571Y-132071185D01*
X96928571Y-132071185D02*
X96857142Y-132214042D01*
X96857142Y-132214042D02*
X96714285Y-132356900D01*
X96714285Y-132356900D02*
X96499999Y-132428328D01*
X96499999Y-132428328D02*
X96357142Y-132428328D01*
X96357142Y-132428328D02*
X96142856Y-132356900D01*
X96142856Y-132356900D02*
X96071428Y-132285471D01*
X96071428Y-132285471D02*
X96071428Y-131785471D01*
X96071428Y-131785471D02*
X96357142Y-131785471D01*
X95428571Y-132428328D02*
X95428571Y-130928328D01*
X95428571Y-130928328D02*
X94571428Y-132428328D01*
X94571428Y-132428328D02*
X94571428Y-130928328D01*
X93857142Y-132428328D02*
X93857142Y-130928328D01*
X93857142Y-130928328D02*
X93499999Y-130928328D01*
X93499999Y-130928328D02*
X93285713Y-130999757D01*
X93285713Y-130999757D02*
X93142856Y-131142614D01*
X93142856Y-131142614D02*
X93071427Y-131285471D01*
X93071427Y-131285471D02*
X92999999Y-131571185D01*
X92999999Y-131571185D02*
X92999999Y-131785471D01*
X92999999Y-131785471D02*
X93071427Y-132071185D01*
X93071427Y-132071185D02*
X93142856Y-132214042D01*
X93142856Y-132214042D02*
X93285713Y-132356900D01*
X93285713Y-132356900D02*
X93499999Y-132428328D01*
X93499999Y-132428328D02*
X93857142Y-132428328D01*
%LPC*%
D12*
%TO.C,H14*%
X52800000Y-192250000D03*
X54460000Y-188220000D03*
X54470000Y-196290000D03*
X58500000Y-186550000D03*
D13*
X58500000Y-192250000D03*
D12*
X58500000Y-197950000D03*
X62530000Y-196290000D03*
X62540000Y-188220000D03*
X64200000Y-192250000D03*
%TD*%
D14*
%TO.C,H3*%
X53500000Y-226500000D03*
%TD*%
D12*
%TO.C,H23*%
X85800000Y-192250000D03*
X87460000Y-188220000D03*
X87470000Y-196290000D03*
X91500000Y-186550000D03*
D13*
X91500000Y-192250000D03*
D12*
X91500000Y-197950000D03*
X95530000Y-196290000D03*
X95540000Y-188220000D03*
X97200000Y-192250000D03*
%TD*%
%TO.C,H22*%
X69300000Y-208750000D03*
X70960000Y-204720000D03*
X70970000Y-212790000D03*
X75000000Y-203050000D03*
D13*
X75000000Y-208750000D03*
D12*
X75000000Y-214450000D03*
X79030000Y-212790000D03*
X79040000Y-204720000D03*
X80700000Y-208750000D03*
%TD*%
D13*
%TO.C,H5*%
X62500000Y-54500000D03*
D15*
X62500000Y-60500000D03*
%TD*%
D12*
%TO.C,H18*%
X69300000Y-192250000D03*
X70960000Y-188220000D03*
X70970000Y-196290000D03*
X75000000Y-186550000D03*
D13*
X75000000Y-192250000D03*
D12*
X75000000Y-197950000D03*
X79030000Y-196290000D03*
X79040000Y-188220000D03*
X80700000Y-192250000D03*
%TD*%
%TO.C,H9*%
X69300000Y-159250000D03*
X70960000Y-155220000D03*
X70970000Y-163290000D03*
X75000000Y-153550000D03*
D13*
X75000000Y-159250000D03*
D12*
X75000000Y-164950000D03*
X79030000Y-163290000D03*
X79040000Y-155220000D03*
X80700000Y-159250000D03*
%TD*%
D13*
%TO.C,H19*%
X62500000Y-137000000D03*
D15*
X62500000Y-143000000D03*
%TD*%
D12*
%TO.C,H11*%
X85800000Y-159250000D03*
X87460000Y-155220000D03*
X87470000Y-163290000D03*
X91500000Y-153550000D03*
D13*
X91500000Y-159250000D03*
D12*
X91500000Y-164950000D03*
X95530000Y-163290000D03*
X95540000Y-155220000D03*
X97200000Y-159250000D03*
%TD*%
%TO.C,H17*%
X69300000Y-175750000D03*
X70960000Y-171720000D03*
X70970000Y-179790000D03*
X75000000Y-170050000D03*
D13*
X75000000Y-175750000D03*
D12*
X75000000Y-181450000D03*
X79030000Y-179790000D03*
X79040000Y-171720000D03*
X80700000Y-175750000D03*
%TD*%
%TO.C,H21*%
X52800000Y-208750000D03*
X54460000Y-204720000D03*
X54470000Y-212790000D03*
X58500000Y-203050000D03*
D13*
X58500000Y-208750000D03*
D12*
X58500000Y-214450000D03*
X62530000Y-212790000D03*
X62540000Y-204720000D03*
X64200000Y-208750000D03*
%TD*%
%TO.C,H24*%
X85800000Y-208750000D03*
X87460000Y-204720000D03*
X87470000Y-212790000D03*
X91500000Y-203050000D03*
D13*
X91500000Y-208750000D03*
D12*
X91500000Y-214450000D03*
X95530000Y-212790000D03*
X95540000Y-204720000D03*
X97200000Y-208750000D03*
%TD*%
%TO.C,H15*%
X52800000Y-175750000D03*
X54460000Y-171720000D03*
X54470000Y-179790000D03*
X58500000Y-170050000D03*
D13*
X58500000Y-175750000D03*
D12*
X58500000Y-181450000D03*
X62530000Y-179790000D03*
X62540000Y-171720000D03*
X64200000Y-175750000D03*
%TD*%
D13*
%TO.C,H12*%
X62500000Y-82000000D03*
D15*
X62500000Y-88000000D03*
%TD*%
D13*
%TO.C,H7*%
X62500000Y-109500000D03*
D15*
X62500000Y-115500000D03*
%TD*%
D14*
%TO.C,H2*%
X96500000Y-33500000D03*
%TD*%
%TO.C,H4*%
X96500000Y-226500000D03*
%TD*%
D12*
%TO.C,H8*%
X52800000Y-159250000D03*
X54460000Y-155220000D03*
X54470000Y-163290000D03*
X58500000Y-153550000D03*
D13*
X58500000Y-159250000D03*
D12*
X58500000Y-164950000D03*
X62530000Y-163290000D03*
X62540000Y-155220000D03*
X64200000Y-159250000D03*
%TD*%
D13*
%TO.C,H20*%
X87500000Y-137000000D03*
%TD*%
%TO.C,H6*%
X87500000Y-54500000D03*
%TD*%
%TO.C,H13*%
X87500000Y-82000000D03*
%TD*%
D14*
%TO.C,H1*%
X53500000Y-33500000D03*
%TD*%
D13*
%TO.C,H10*%
X87500000Y-109500000D03*
%TD*%
D12*
%TO.C,H16*%
X85800000Y-175750000D03*
X87460000Y-171720000D03*
X87470000Y-179790000D03*
X91500000Y-170050000D03*
D13*
X91500000Y-175750000D03*
D12*
X91500000Y-181450000D03*
X95530000Y-179790000D03*
X95540000Y-171720000D03*
X97200000Y-175750000D03*
%TD*%
D16*
%TO.C,J0*%
X95000000Y-125000000D03*
%TD*%
%LPD*%
M02*
