%TF.GenerationSoftware,KiCad,Pcbnew,9.0.4*%
%TF.CreationDate,2025-10-04T20:18:46+02:00*%
%TF.ProjectId,DMH_VCA_Bank_PANEL,444d485f-5643-4415-9f42-616e6b5f5041,rev?*%
%TF.SameCoordinates,Original*%
%TF.FileFunction,Copper,L1,Top*%
%TF.FilePolarity,Positive*%
%FSLAX46Y46*%
G04 Gerber Fmt 4.6, Leading zero omitted, Abs format (unit mm)*
G04 Created by KiCad (PCBNEW 9.0.4) date 2025-10-04 20:18:46*
%MOMM*%
%LPD*%
G01*
G04 APERTURE LIST*
%TA.AperFunction,ComponentPad*%
%ADD10C,0.500000*%
%TD*%
%TA.AperFunction,ConnectorPad*%
%ADD11C,12.000000*%
%TD*%
%TA.AperFunction,ComponentPad*%
%ADD12C,4.000000*%
%TD*%
%TA.AperFunction,ComponentPad*%
%ADD13O,2.500000X1.500000*%
%TD*%
G04 APERTURE END LIST*
D10*
%TO.P,H14,1,1*%
%TO.N,GND*%
X52800000Y-192250000D03*
X54460000Y-188220000D03*
X54470000Y-196290000D03*
X58500000Y-186550000D03*
D11*
X58500000Y-192250000D03*
D10*
X58500000Y-197950000D03*
X62530000Y-196290000D03*
X62540000Y-188220000D03*
X64200000Y-192250000D03*
%TD*%
D12*
%TO.P,H3,1,1*%
%TO.N,GND*%
X53500000Y-226500000D03*
%TD*%
D10*
%TO.P,H23,1,1*%
%TO.N,GND*%
X85800000Y-192250000D03*
X87460000Y-188220000D03*
X87470000Y-196290000D03*
X91500000Y-186550000D03*
D11*
X91500000Y-192250000D03*
D10*
X91500000Y-197950000D03*
X95530000Y-196290000D03*
X95540000Y-188220000D03*
X97200000Y-192250000D03*
%TD*%
%TO.P,H22,1,1*%
%TO.N,GND*%
X69300000Y-208750000D03*
X70960000Y-204720000D03*
X70970000Y-212790000D03*
X75000000Y-203050000D03*
D11*
X75000000Y-208750000D03*
D10*
X75000000Y-214450000D03*
X79030000Y-212790000D03*
X79040000Y-204720000D03*
X80700000Y-208750000D03*
%TD*%
D11*
%TO.P,H5,1,1*%
%TO.N,GND*%
X62500000Y-54500000D03*
D13*
X62500000Y-60500000D03*
%TD*%
D10*
%TO.P,H18,1,1*%
%TO.N,GND*%
X69300000Y-192250000D03*
X70960000Y-188220000D03*
X70970000Y-196290000D03*
X75000000Y-186550000D03*
D11*
X75000000Y-192250000D03*
D10*
X75000000Y-197950000D03*
X79030000Y-196290000D03*
X79040000Y-188220000D03*
X80700000Y-192250000D03*
%TD*%
%TO.P,H9,1,1*%
%TO.N,GND*%
X69300000Y-159250000D03*
X70960000Y-155220000D03*
X70970000Y-163290000D03*
X75000000Y-153550000D03*
D11*
X75000000Y-159250000D03*
D10*
X75000000Y-164950000D03*
X79030000Y-163290000D03*
X79040000Y-155220000D03*
X80700000Y-159250000D03*
%TD*%
D11*
%TO.P,H19,1,1*%
%TO.N,GND*%
X62500000Y-137000000D03*
D13*
X62500000Y-143000000D03*
%TD*%
D10*
%TO.P,H11,1,1*%
%TO.N,GND*%
X85800000Y-159250000D03*
X87460000Y-155220000D03*
X87470000Y-163290000D03*
X91500000Y-153550000D03*
D11*
X91500000Y-159250000D03*
D10*
X91500000Y-164950000D03*
X95530000Y-163290000D03*
X95540000Y-155220000D03*
X97200000Y-159250000D03*
%TD*%
%TO.P,H17,1,1*%
%TO.N,GND*%
X69300000Y-175750000D03*
X70960000Y-171720000D03*
X70970000Y-179790000D03*
X75000000Y-170050000D03*
D11*
X75000000Y-175750000D03*
D10*
X75000000Y-181450000D03*
X79030000Y-179790000D03*
X79040000Y-171720000D03*
X80700000Y-175750000D03*
%TD*%
%TO.P,H21,1,1*%
%TO.N,GND*%
X52800000Y-208750000D03*
X54460000Y-204720000D03*
X54470000Y-212790000D03*
X58500000Y-203050000D03*
D11*
X58500000Y-208750000D03*
D10*
X58500000Y-214450000D03*
X62530000Y-212790000D03*
X62540000Y-204720000D03*
X64200000Y-208750000D03*
%TD*%
%TO.P,H24,1,1*%
%TO.N,GND*%
X85800000Y-208750000D03*
X87460000Y-204720000D03*
X87470000Y-212790000D03*
X91500000Y-203050000D03*
D11*
X91500000Y-208750000D03*
D10*
X91500000Y-214450000D03*
X95530000Y-212790000D03*
X95540000Y-204720000D03*
X97200000Y-208750000D03*
%TD*%
%TO.P,H15,1,1*%
%TO.N,GND*%
X52800000Y-175750000D03*
X54460000Y-171720000D03*
X54470000Y-179790000D03*
X58500000Y-170050000D03*
D11*
X58500000Y-175750000D03*
D10*
X58500000Y-181450000D03*
X62530000Y-179790000D03*
X62540000Y-171720000D03*
X64200000Y-175750000D03*
%TD*%
D11*
%TO.P,H12,1,1*%
%TO.N,GND*%
X62500000Y-82000000D03*
D13*
X62500000Y-88000000D03*
%TD*%
D11*
%TO.P,H7,1,1*%
%TO.N,GND*%
X62500000Y-109500000D03*
D13*
X62500000Y-115500000D03*
%TD*%
D12*
%TO.P,H2,1,1*%
%TO.N,GND*%
X96500000Y-33500000D03*
%TD*%
%TO.P,H4,1,1*%
%TO.N,GND*%
X96500000Y-226500000D03*
%TD*%
D10*
%TO.P,H8,1,1*%
%TO.N,GND*%
X52800000Y-159250000D03*
X54460000Y-155220000D03*
X54470000Y-163290000D03*
X58500000Y-153550000D03*
D11*
X58500000Y-159250000D03*
D10*
X58500000Y-164950000D03*
X62530000Y-163290000D03*
X62540000Y-155220000D03*
X64200000Y-159250000D03*
%TD*%
D11*
%TO.P,H20,1,1*%
%TO.N,GND*%
X87500000Y-137000000D03*
%TD*%
%TO.P,H6,1,1*%
%TO.N,GND*%
X87500000Y-54500000D03*
%TD*%
%TO.P,H13,1,1*%
%TO.N,GND*%
X87500000Y-82000000D03*
%TD*%
D12*
%TO.P,H1,1,1*%
%TO.N,GND*%
X53500000Y-33500000D03*
%TD*%
D11*
%TO.P,H10,1,1*%
%TO.N,GND*%
X87500000Y-109500000D03*
%TD*%
D10*
%TO.P,H16,1,1*%
%TO.N,GND*%
X85800000Y-175750000D03*
X87460000Y-171720000D03*
X87470000Y-179790000D03*
X91500000Y-170050000D03*
D11*
X91500000Y-175750000D03*
D10*
X91500000Y-181450000D03*
X95530000Y-179790000D03*
X95540000Y-171720000D03*
X97200000Y-175750000D03*
%TD*%
%TA.AperFunction,Conductor*%
%TO.N,GND*%
G36*
X99442539Y-30520185D02*
G01*
X99488294Y-30572989D01*
X99499500Y-30624500D01*
X99499500Y-229375500D01*
X99479815Y-229442539D01*
X99427011Y-229488294D01*
X99375500Y-229499500D01*
X50624500Y-229499500D01*
X50557461Y-229479815D01*
X50511706Y-229427011D01*
X50500500Y-229375500D01*
X50500500Y-208537814D01*
X53099500Y-208537814D01*
X53099500Y-208558097D01*
X53099500Y-208962186D01*
X53132796Y-209385250D01*
X53199182Y-209804398D01*
X53298250Y-210217045D01*
X53298254Y-210217056D01*
X53429385Y-210620641D01*
X53496000Y-210781463D01*
X53591789Y-211012716D01*
X53784450Y-211390835D01*
X53784457Y-211390848D01*
X53784460Y-211390853D01*
X53807375Y-211428246D01*
X54006184Y-211752672D01*
X54006192Y-211752683D01*
X54006198Y-211752692D01*
X54255617Y-212095989D01*
X54255627Y-212096003D01*
X54378919Y-212240358D01*
X54531231Y-212418692D01*
X54831308Y-212718769D01*
X54831314Y-212718774D01*
X55153996Y-212994372D01*
X55154010Y-212994382D01*
X55361749Y-213145313D01*
X55497328Y-213243816D01*
X55625685Y-213322473D01*
X55859146Y-213465539D01*
X55859151Y-213465542D01*
X55859156Y-213465544D01*
X55859165Y-213465550D01*
X56237284Y-213658211D01*
X56629353Y-213820612D01*
X56629358Y-213820614D01*
X56731979Y-213853957D01*
X57032955Y-213951750D01*
X57445602Y-214050818D01*
X57864750Y-214117204D01*
X58287814Y-214150500D01*
X58287822Y-214150500D01*
X58712178Y-214150500D01*
X58712186Y-214150500D01*
X59135250Y-214117204D01*
X59554398Y-214050818D01*
X59967045Y-213951750D01*
X60370647Y-213820612D01*
X60762716Y-213658211D01*
X61140835Y-213465550D01*
X61502672Y-213243816D01*
X61845997Y-212994377D01*
X62168692Y-212718769D01*
X62468769Y-212418692D01*
X62744377Y-212095997D01*
X62993816Y-211752672D01*
X63215550Y-211390835D01*
X63408211Y-211012716D01*
X63570612Y-210620647D01*
X63701750Y-210217045D01*
X63800818Y-209804398D01*
X63867204Y-209385250D01*
X63900500Y-208962186D01*
X63900500Y-208537814D01*
X69599500Y-208537814D01*
X69599500Y-208558097D01*
X69599500Y-208962186D01*
X69632796Y-209385250D01*
X69699182Y-209804398D01*
X69798250Y-210217045D01*
X69798254Y-210217056D01*
X69929385Y-210620641D01*
X69996000Y-210781463D01*
X70091789Y-211012716D01*
X70284450Y-211390835D01*
X70284457Y-211390848D01*
X70284460Y-211390853D01*
X70307375Y-211428246D01*
X70506184Y-211752672D01*
X70506192Y-211752683D01*
X70506198Y-211752692D01*
X70755617Y-212095989D01*
X70755627Y-212096003D01*
X70878919Y-212240358D01*
X71031231Y-212418692D01*
X71331308Y-212718769D01*
X71331314Y-212718774D01*
X71653996Y-212994372D01*
X71654010Y-212994382D01*
X71861749Y-213145313D01*
X71997328Y-213243816D01*
X72125685Y-213322473D01*
X72359146Y-213465539D01*
X72359151Y-213465542D01*
X72359156Y-213465544D01*
X72359165Y-213465550D01*
X72737284Y-213658211D01*
X73129353Y-213820612D01*
X73129358Y-213820614D01*
X73231979Y-213853957D01*
X73532955Y-213951750D01*
X73945602Y-214050818D01*
X74364750Y-214117204D01*
X74787814Y-214150500D01*
X74787822Y-214150500D01*
X75212178Y-214150500D01*
X75212186Y-214150500D01*
X75635250Y-214117204D01*
X76054398Y-214050818D01*
X76467045Y-213951750D01*
X76870647Y-213820612D01*
X77262716Y-213658211D01*
X77640835Y-213465550D01*
X78002672Y-213243816D01*
X78345997Y-212994377D01*
X78668692Y-212718769D01*
X78968769Y-212418692D01*
X79244377Y-212095997D01*
X79493816Y-211752672D01*
X79715550Y-211390835D01*
X79908211Y-211012716D01*
X80070612Y-210620647D01*
X80201750Y-210217045D01*
X80300818Y-209804398D01*
X80367204Y-209385250D01*
X80400500Y-208962186D01*
X80400500Y-208537814D01*
X86099500Y-208537814D01*
X86099500Y-208558097D01*
X86099500Y-208962186D01*
X86132796Y-209385250D01*
X86199182Y-209804398D01*
X86298250Y-210217045D01*
X86298254Y-210217056D01*
X86429385Y-210620641D01*
X86496000Y-210781463D01*
X86591789Y-211012716D01*
X86784450Y-211390835D01*
X86784457Y-211390848D01*
X86784460Y-211390853D01*
X86807375Y-211428246D01*
X87006184Y-211752672D01*
X87006192Y-211752683D01*
X87006198Y-211752692D01*
X87255617Y-212095989D01*
X87255627Y-212096003D01*
X87378919Y-212240358D01*
X87531231Y-212418692D01*
X87831308Y-212718769D01*
X87831314Y-212718774D01*
X88153996Y-212994372D01*
X88154010Y-212994382D01*
X88361749Y-213145313D01*
X88497328Y-213243816D01*
X88625685Y-213322473D01*
X88859146Y-213465539D01*
X88859151Y-213465542D01*
X88859156Y-213465544D01*
X88859165Y-213465550D01*
X89237284Y-213658211D01*
X89629353Y-213820612D01*
X89629358Y-213820614D01*
X89731979Y-213853957D01*
X90032955Y-213951750D01*
X90445602Y-214050818D01*
X90864750Y-214117204D01*
X91287814Y-214150500D01*
X91287822Y-214150500D01*
X91712178Y-214150500D01*
X91712186Y-214150500D01*
X92135250Y-214117204D01*
X92554398Y-214050818D01*
X92967045Y-213951750D01*
X93370647Y-213820612D01*
X93762716Y-213658211D01*
X94140835Y-213465550D01*
X94502672Y-213243816D01*
X94845997Y-212994377D01*
X95168692Y-212718769D01*
X95468769Y-212418692D01*
X95744377Y-212095997D01*
X95993816Y-211752672D01*
X96215550Y-211390835D01*
X96408211Y-211012716D01*
X96570612Y-210620647D01*
X96701750Y-210217045D01*
X96800818Y-209804398D01*
X96867204Y-209385250D01*
X96900500Y-208962186D01*
X96900500Y-208537814D01*
X96867204Y-208114750D01*
X96800818Y-207695602D01*
X96701750Y-207282955D01*
X96570612Y-206879353D01*
X96408211Y-206487284D01*
X96215550Y-206109165D01*
X96215544Y-206109156D01*
X96215542Y-206109151D01*
X96215539Y-206109146D01*
X95993823Y-205747340D01*
X95993816Y-205747328D01*
X95744377Y-205404003D01*
X95744372Y-205403996D01*
X95468774Y-205081314D01*
X95468769Y-205081308D01*
X95168692Y-204781231D01*
X95168685Y-204781225D01*
X94846003Y-204505627D01*
X94845989Y-204505617D01*
X94502692Y-204256198D01*
X94502683Y-204256192D01*
X94502672Y-204256184D01*
X94502659Y-204256176D01*
X94140853Y-204034460D01*
X94140848Y-204034457D01*
X94140838Y-204034452D01*
X94140835Y-204034450D01*
X93762716Y-203841789D01*
X93762702Y-203841783D01*
X93370641Y-203679385D01*
X93083478Y-203586081D01*
X92967045Y-203548250D01*
X92554398Y-203449182D01*
X92135250Y-203382796D01*
X91712191Y-203349500D01*
X91712186Y-203349500D01*
X91287814Y-203349500D01*
X91287808Y-203349500D01*
X90864749Y-203382796D01*
X90864748Y-203382796D01*
X90445607Y-203449181D01*
X90445604Y-203449181D01*
X90445602Y-203449182D01*
X90297817Y-203484661D01*
X90032966Y-203548247D01*
X90032960Y-203548248D01*
X90032955Y-203548250D01*
X90032943Y-203548254D01*
X89629358Y-203679385D01*
X89237297Y-203841783D01*
X89237284Y-203841789D01*
X88859151Y-204034457D01*
X88859146Y-204034460D01*
X88497340Y-204256176D01*
X88497307Y-204256198D01*
X88154010Y-204505617D01*
X88153996Y-204505627D01*
X87831314Y-204781225D01*
X87831300Y-204781238D01*
X87531238Y-205081300D01*
X87531225Y-205081314D01*
X87255627Y-205403996D01*
X87255617Y-205404010D01*
X87006198Y-205747307D01*
X87006176Y-205747340D01*
X86784460Y-206109146D01*
X86784457Y-206109151D01*
X86591789Y-206487284D01*
X86591783Y-206487297D01*
X86429385Y-206879358D01*
X86298254Y-207282943D01*
X86298247Y-207282966D01*
X86199181Y-207695607D01*
X86183000Y-207797774D01*
X86132796Y-208114750D01*
X86099500Y-208537814D01*
X80400500Y-208537814D01*
X80367204Y-208114750D01*
X80300818Y-207695602D01*
X80201750Y-207282955D01*
X80070612Y-206879353D01*
X79908211Y-206487284D01*
X79715550Y-206109165D01*
X79715544Y-206109156D01*
X79715542Y-206109151D01*
X79715539Y-206109146D01*
X79493823Y-205747340D01*
X79493816Y-205747328D01*
X79244377Y-205404003D01*
X79244372Y-205403996D01*
X78968774Y-205081314D01*
X78968769Y-205081308D01*
X78668692Y-204781231D01*
X78668685Y-204781225D01*
X78346003Y-204505627D01*
X78345989Y-204505617D01*
X78002692Y-204256198D01*
X78002683Y-204256192D01*
X78002672Y-204256184D01*
X78002659Y-204256176D01*
X77640853Y-204034460D01*
X77640848Y-204034457D01*
X77640838Y-204034452D01*
X77640835Y-204034450D01*
X77262716Y-203841789D01*
X77262702Y-203841783D01*
X76870641Y-203679385D01*
X76583478Y-203586081D01*
X76467045Y-203548250D01*
X76054398Y-203449182D01*
X75635250Y-203382796D01*
X75212191Y-203349500D01*
X75212186Y-203349500D01*
X74787814Y-203349500D01*
X74787808Y-203349500D01*
X74364749Y-203382796D01*
X74364748Y-203382796D01*
X73945607Y-203449181D01*
X73945604Y-203449181D01*
X73945602Y-203449182D01*
X73797817Y-203484661D01*
X73532966Y-203548247D01*
X73532960Y-203548248D01*
X73532955Y-203548250D01*
X73532943Y-203548254D01*
X73129358Y-203679385D01*
X72737297Y-203841783D01*
X72737284Y-203841789D01*
X72359151Y-204034457D01*
X72359146Y-204034460D01*
X71997340Y-204256176D01*
X71997307Y-204256198D01*
X71654010Y-204505617D01*
X71653996Y-204505627D01*
X71331314Y-204781225D01*
X71331300Y-204781238D01*
X71031238Y-205081300D01*
X71031225Y-205081314D01*
X70755627Y-205403996D01*
X70755617Y-205404010D01*
X70506198Y-205747307D01*
X70506176Y-205747340D01*
X70284460Y-206109146D01*
X70284457Y-206109151D01*
X70091789Y-206487284D01*
X70091783Y-206487297D01*
X69929385Y-206879358D01*
X69798254Y-207282943D01*
X69798247Y-207282966D01*
X69699181Y-207695607D01*
X69683000Y-207797774D01*
X69632796Y-208114750D01*
X69599500Y-208537814D01*
X63900500Y-208537814D01*
X63867204Y-208114750D01*
X63800818Y-207695602D01*
X63701750Y-207282955D01*
X63570612Y-206879353D01*
X63408211Y-206487284D01*
X63215550Y-206109165D01*
X63215544Y-206109156D01*
X63215542Y-206109151D01*
X63215539Y-206109146D01*
X62993823Y-205747340D01*
X62993816Y-205747328D01*
X62744377Y-205404003D01*
X62744372Y-205403996D01*
X62468774Y-205081314D01*
X62468769Y-205081308D01*
X62168692Y-204781231D01*
X62168685Y-204781225D01*
X61846003Y-204505627D01*
X61845989Y-204505617D01*
X61502692Y-204256198D01*
X61502683Y-204256192D01*
X61502672Y-204256184D01*
X61502659Y-204256176D01*
X61140853Y-204034460D01*
X61140848Y-204034457D01*
X61140838Y-204034452D01*
X61140835Y-204034450D01*
X60762716Y-203841789D01*
X60762702Y-203841783D01*
X60370641Y-203679385D01*
X60083478Y-203586081D01*
X59967045Y-203548250D01*
X59554398Y-203449182D01*
X59135250Y-203382796D01*
X58712191Y-203349500D01*
X58712186Y-203349500D01*
X58287814Y-203349500D01*
X58287808Y-203349500D01*
X57864749Y-203382796D01*
X57864748Y-203382796D01*
X57445607Y-203449181D01*
X57445604Y-203449181D01*
X57445602Y-203449182D01*
X57297817Y-203484661D01*
X57032966Y-203548247D01*
X57032960Y-203548248D01*
X57032955Y-203548250D01*
X57032943Y-203548254D01*
X56629358Y-203679385D01*
X56237297Y-203841783D01*
X56237284Y-203841789D01*
X55859151Y-204034457D01*
X55859146Y-204034460D01*
X55497340Y-204256176D01*
X55497307Y-204256198D01*
X55154010Y-204505617D01*
X55153996Y-204505627D01*
X54831314Y-204781225D01*
X54831300Y-204781238D01*
X54531238Y-205081300D01*
X54531225Y-205081314D01*
X54255627Y-205403996D01*
X54255617Y-205404010D01*
X54006198Y-205747307D01*
X54006176Y-205747340D01*
X53784460Y-206109146D01*
X53784457Y-206109151D01*
X53591789Y-206487284D01*
X53591783Y-206487297D01*
X53429385Y-206879358D01*
X53298254Y-207282943D01*
X53298247Y-207282966D01*
X53199181Y-207695607D01*
X53183000Y-207797774D01*
X53132796Y-208114750D01*
X53099500Y-208537814D01*
X50500500Y-208537814D01*
X50500500Y-192037814D01*
X53099500Y-192037814D01*
X53099500Y-192058097D01*
X53099500Y-192462186D01*
X53132796Y-192885250D01*
X53199182Y-193304398D01*
X53298250Y-193717045D01*
X53298254Y-193717056D01*
X53429385Y-194120641D01*
X53496000Y-194281463D01*
X53591789Y-194512716D01*
X53784450Y-194890835D01*
X53784457Y-194890848D01*
X53784460Y-194890853D01*
X53807375Y-194928246D01*
X54006184Y-195252672D01*
X54006192Y-195252683D01*
X54006198Y-195252692D01*
X54255617Y-195595989D01*
X54255627Y-195596003D01*
X54378919Y-195740358D01*
X54531231Y-195918692D01*
X54831308Y-196218769D01*
X54831314Y-196218774D01*
X55153996Y-196494372D01*
X55154010Y-196494382D01*
X55361749Y-196645313D01*
X55497328Y-196743816D01*
X55625685Y-196822473D01*
X55859146Y-196965539D01*
X55859151Y-196965542D01*
X55859156Y-196965544D01*
X55859165Y-196965550D01*
X56237284Y-197158211D01*
X56629353Y-197320612D01*
X56629358Y-197320614D01*
X56731979Y-197353957D01*
X57032955Y-197451750D01*
X57445602Y-197550818D01*
X57864750Y-197617204D01*
X58287814Y-197650500D01*
X58287822Y-197650500D01*
X58712178Y-197650500D01*
X58712186Y-197650500D01*
X59135250Y-197617204D01*
X59554398Y-197550818D01*
X59967045Y-197451750D01*
X60370647Y-197320612D01*
X60762716Y-197158211D01*
X61140835Y-196965550D01*
X61502672Y-196743816D01*
X61845997Y-196494377D01*
X62168692Y-196218769D01*
X62468769Y-195918692D01*
X62744377Y-195595997D01*
X62993816Y-195252672D01*
X63215550Y-194890835D01*
X63408211Y-194512716D01*
X63570612Y-194120647D01*
X63701750Y-193717045D01*
X63800818Y-193304398D01*
X63867204Y-192885250D01*
X63900500Y-192462186D01*
X63900500Y-192037814D01*
X69599500Y-192037814D01*
X69599500Y-192058097D01*
X69599500Y-192462186D01*
X69632796Y-192885250D01*
X69699182Y-193304398D01*
X69798250Y-193717045D01*
X69798254Y-193717056D01*
X69929385Y-194120641D01*
X69996000Y-194281463D01*
X70091789Y-194512716D01*
X70284450Y-194890835D01*
X70284457Y-194890848D01*
X70284460Y-194890853D01*
X70307375Y-194928246D01*
X70506184Y-195252672D01*
X70506192Y-195252683D01*
X70506198Y-195252692D01*
X70755617Y-195595989D01*
X70755627Y-195596003D01*
X70878919Y-195740358D01*
X71031231Y-195918692D01*
X71331308Y-196218769D01*
X71331314Y-196218774D01*
X71653996Y-196494372D01*
X71654010Y-196494382D01*
X71861749Y-196645313D01*
X71997328Y-196743816D01*
X72125685Y-196822473D01*
X72359146Y-196965539D01*
X72359151Y-196965542D01*
X72359156Y-196965544D01*
X72359165Y-196965550D01*
X72737284Y-197158211D01*
X73129353Y-197320612D01*
X73129358Y-197320614D01*
X73231979Y-197353957D01*
X73532955Y-197451750D01*
X73945602Y-197550818D01*
X74364750Y-197617204D01*
X74787814Y-197650500D01*
X74787822Y-197650500D01*
X75212178Y-197650500D01*
X75212186Y-197650500D01*
X75635250Y-197617204D01*
X76054398Y-197550818D01*
X76467045Y-197451750D01*
X76870647Y-197320612D01*
X77262716Y-197158211D01*
X77640835Y-196965550D01*
X78002672Y-196743816D01*
X78345997Y-196494377D01*
X78668692Y-196218769D01*
X78968769Y-195918692D01*
X79244377Y-195595997D01*
X79493816Y-195252672D01*
X79715550Y-194890835D01*
X79908211Y-194512716D01*
X80070612Y-194120647D01*
X80201750Y-193717045D01*
X80300818Y-193304398D01*
X80367204Y-192885250D01*
X80400500Y-192462186D01*
X80400500Y-192037814D01*
X86099500Y-192037814D01*
X86099500Y-192058097D01*
X86099500Y-192462186D01*
X86132796Y-192885250D01*
X86199182Y-193304398D01*
X86298250Y-193717045D01*
X86298254Y-193717056D01*
X86429385Y-194120641D01*
X86496000Y-194281463D01*
X86591789Y-194512716D01*
X86784450Y-194890835D01*
X86784457Y-194890848D01*
X86784460Y-194890853D01*
X86807375Y-194928246D01*
X87006184Y-195252672D01*
X87006192Y-195252683D01*
X87006198Y-195252692D01*
X87255617Y-195595989D01*
X87255627Y-195596003D01*
X87378919Y-195740358D01*
X87531231Y-195918692D01*
X87831308Y-196218769D01*
X87831314Y-196218774D01*
X88153996Y-196494372D01*
X88154010Y-196494382D01*
X88361749Y-196645313D01*
X88497328Y-196743816D01*
X88625685Y-196822473D01*
X88859146Y-196965539D01*
X88859151Y-196965542D01*
X88859156Y-196965544D01*
X88859165Y-196965550D01*
X89237284Y-197158211D01*
X89629353Y-197320612D01*
X89629358Y-197320614D01*
X89731979Y-197353957D01*
X90032955Y-197451750D01*
X90445602Y-197550818D01*
X90864750Y-197617204D01*
X91287814Y-197650500D01*
X91287822Y-197650500D01*
X91712178Y-197650500D01*
X91712186Y-197650500D01*
X92135250Y-197617204D01*
X92554398Y-197550818D01*
X92967045Y-197451750D01*
X93370647Y-197320612D01*
X93762716Y-197158211D01*
X94140835Y-196965550D01*
X94502672Y-196743816D01*
X94845997Y-196494377D01*
X95168692Y-196218769D01*
X95468769Y-195918692D01*
X95744377Y-195595997D01*
X95993816Y-195252672D01*
X96215550Y-194890835D01*
X96408211Y-194512716D01*
X96570612Y-194120647D01*
X96701750Y-193717045D01*
X96800818Y-193304398D01*
X96867204Y-192885250D01*
X96900500Y-192462186D01*
X96900500Y-192037814D01*
X96867204Y-191614750D01*
X96800818Y-191195602D01*
X96701750Y-190782955D01*
X96570612Y-190379353D01*
X96408211Y-189987284D01*
X96215550Y-189609165D01*
X96215544Y-189609156D01*
X96215542Y-189609151D01*
X96215539Y-189609146D01*
X95993823Y-189247340D01*
X95993816Y-189247328D01*
X95744377Y-188904003D01*
X95744372Y-188903996D01*
X95468774Y-188581314D01*
X95468769Y-188581308D01*
X95168692Y-188281231D01*
X95168685Y-188281225D01*
X94846003Y-188005627D01*
X94845989Y-188005617D01*
X94502692Y-187756198D01*
X94502683Y-187756192D01*
X94502672Y-187756184D01*
X94502659Y-187756176D01*
X94140853Y-187534460D01*
X94140848Y-187534457D01*
X94140838Y-187534452D01*
X94140835Y-187534450D01*
X93762716Y-187341789D01*
X93762702Y-187341783D01*
X93370641Y-187179385D01*
X93083478Y-187086081D01*
X92967045Y-187048250D01*
X92554398Y-186949182D01*
X92135250Y-186882796D01*
X91712191Y-186849500D01*
X91712186Y-186849500D01*
X91287814Y-186849500D01*
X91287808Y-186849500D01*
X90864749Y-186882796D01*
X90864748Y-186882796D01*
X90445607Y-186949181D01*
X90445604Y-186949181D01*
X90445602Y-186949182D01*
X90297817Y-186984661D01*
X90032966Y-187048247D01*
X90032960Y-187048248D01*
X90032955Y-187048250D01*
X90032943Y-187048254D01*
X89629358Y-187179385D01*
X89237297Y-187341783D01*
X89237284Y-187341789D01*
X88859151Y-187534457D01*
X88859146Y-187534460D01*
X88497340Y-187756176D01*
X88497307Y-187756198D01*
X88154010Y-188005617D01*
X88153996Y-188005627D01*
X87831314Y-188281225D01*
X87831300Y-188281238D01*
X87531238Y-188581300D01*
X87531225Y-188581314D01*
X87255627Y-188903996D01*
X87255617Y-188904010D01*
X87006198Y-189247307D01*
X87006176Y-189247340D01*
X86784460Y-189609146D01*
X86784457Y-189609151D01*
X86591789Y-189987284D01*
X86591783Y-189987297D01*
X86429385Y-190379358D01*
X86298254Y-190782943D01*
X86298247Y-190782966D01*
X86199181Y-191195607D01*
X86183000Y-191297774D01*
X86132796Y-191614750D01*
X86099500Y-192037814D01*
X80400500Y-192037814D01*
X80367204Y-191614750D01*
X80300818Y-191195602D01*
X80201750Y-190782955D01*
X80070612Y-190379353D01*
X79908211Y-189987284D01*
X79715550Y-189609165D01*
X79715544Y-189609156D01*
X79715542Y-189609151D01*
X79715539Y-189609146D01*
X79493823Y-189247340D01*
X79493816Y-189247328D01*
X79244377Y-188904003D01*
X79244372Y-188903996D01*
X78968774Y-188581314D01*
X78968769Y-188581308D01*
X78668692Y-188281231D01*
X78668685Y-188281225D01*
X78346003Y-188005627D01*
X78345989Y-188005617D01*
X78002692Y-187756198D01*
X78002683Y-187756192D01*
X78002672Y-187756184D01*
X78002659Y-187756176D01*
X77640853Y-187534460D01*
X77640848Y-187534457D01*
X77640838Y-187534452D01*
X77640835Y-187534450D01*
X77262716Y-187341789D01*
X77262702Y-187341783D01*
X76870641Y-187179385D01*
X76583478Y-187086081D01*
X76467045Y-187048250D01*
X76054398Y-186949182D01*
X75635250Y-186882796D01*
X75212191Y-186849500D01*
X75212186Y-186849500D01*
X74787814Y-186849500D01*
X74787808Y-186849500D01*
X74364749Y-186882796D01*
X74364748Y-186882796D01*
X73945607Y-186949181D01*
X73945604Y-186949181D01*
X73945602Y-186949182D01*
X73797817Y-186984661D01*
X73532966Y-187048247D01*
X73532960Y-187048248D01*
X73532955Y-187048250D01*
X73532943Y-187048254D01*
X73129358Y-187179385D01*
X72737297Y-187341783D01*
X72737284Y-187341789D01*
X72359151Y-187534457D01*
X72359146Y-187534460D01*
X71997340Y-187756176D01*
X71997307Y-187756198D01*
X71654010Y-188005617D01*
X71653996Y-188005627D01*
X71331314Y-188281225D01*
X71331300Y-188281238D01*
X71031238Y-188581300D01*
X71031225Y-188581314D01*
X70755627Y-188903996D01*
X70755617Y-188904010D01*
X70506198Y-189247307D01*
X70506176Y-189247340D01*
X70284460Y-189609146D01*
X70284457Y-189609151D01*
X70091789Y-189987284D01*
X70091783Y-189987297D01*
X69929385Y-190379358D01*
X69798254Y-190782943D01*
X69798247Y-190782966D01*
X69699181Y-191195607D01*
X69683000Y-191297774D01*
X69632796Y-191614750D01*
X69599500Y-192037814D01*
X63900500Y-192037814D01*
X63867204Y-191614750D01*
X63800818Y-191195602D01*
X63701750Y-190782955D01*
X63570612Y-190379353D01*
X63408211Y-189987284D01*
X63215550Y-189609165D01*
X63215544Y-189609156D01*
X63215542Y-189609151D01*
X63215539Y-189609146D01*
X62993823Y-189247340D01*
X62993816Y-189247328D01*
X62744377Y-188904003D01*
X62744372Y-188903996D01*
X62468774Y-188581314D01*
X62468769Y-188581308D01*
X62168692Y-188281231D01*
X62168685Y-188281225D01*
X61846003Y-188005627D01*
X61845989Y-188005617D01*
X61502692Y-187756198D01*
X61502683Y-187756192D01*
X61502672Y-187756184D01*
X61502659Y-187756176D01*
X61140853Y-187534460D01*
X61140848Y-187534457D01*
X61140838Y-187534452D01*
X61140835Y-187534450D01*
X60762716Y-187341789D01*
X60762702Y-187341783D01*
X60370641Y-187179385D01*
X60083478Y-187086081D01*
X59967045Y-187048250D01*
X59554398Y-186949182D01*
X59135250Y-186882796D01*
X58712191Y-186849500D01*
X58712186Y-186849500D01*
X58287814Y-186849500D01*
X58287808Y-186849500D01*
X57864749Y-186882796D01*
X57864748Y-186882796D01*
X57445607Y-186949181D01*
X57445604Y-186949181D01*
X57445602Y-186949182D01*
X57297817Y-186984661D01*
X57032966Y-187048247D01*
X57032960Y-187048248D01*
X57032955Y-187048250D01*
X57032943Y-187048254D01*
X56629358Y-187179385D01*
X56237297Y-187341783D01*
X56237284Y-187341789D01*
X55859151Y-187534457D01*
X55859146Y-187534460D01*
X55497340Y-187756176D01*
X55497307Y-187756198D01*
X55154010Y-188005617D01*
X55153996Y-188005627D01*
X54831314Y-188281225D01*
X54831300Y-188281238D01*
X54531238Y-188581300D01*
X54531225Y-188581314D01*
X54255627Y-188903996D01*
X54255617Y-188904010D01*
X54006198Y-189247307D01*
X54006176Y-189247340D01*
X53784460Y-189609146D01*
X53784457Y-189609151D01*
X53591789Y-189987284D01*
X53591783Y-189987297D01*
X53429385Y-190379358D01*
X53298254Y-190782943D01*
X53298247Y-190782966D01*
X53199181Y-191195607D01*
X53183000Y-191297774D01*
X53132796Y-191614750D01*
X53099500Y-192037814D01*
X50500500Y-192037814D01*
X50500500Y-175537814D01*
X53099500Y-175537814D01*
X53099500Y-175558097D01*
X53099500Y-175962186D01*
X53132796Y-176385250D01*
X53199182Y-176804398D01*
X53298250Y-177217045D01*
X53298254Y-177217056D01*
X53429385Y-177620641D01*
X53496000Y-177781463D01*
X53591789Y-178012716D01*
X53784450Y-178390835D01*
X53784457Y-178390848D01*
X53784460Y-178390853D01*
X53807375Y-178428246D01*
X54006184Y-178752672D01*
X54006192Y-178752683D01*
X54006198Y-178752692D01*
X54255617Y-179095989D01*
X54255627Y-179096003D01*
X54378919Y-179240358D01*
X54531231Y-179418692D01*
X54831308Y-179718769D01*
X54831314Y-179718774D01*
X55153996Y-179994372D01*
X55154010Y-179994382D01*
X55361749Y-180145313D01*
X55497328Y-180243816D01*
X55625685Y-180322473D01*
X55859146Y-180465539D01*
X55859151Y-180465542D01*
X55859156Y-180465544D01*
X55859165Y-180465550D01*
X56237284Y-180658211D01*
X56629353Y-180820612D01*
X56629358Y-180820614D01*
X56731979Y-180853957D01*
X57032955Y-180951750D01*
X57445602Y-181050818D01*
X57864750Y-181117204D01*
X58287814Y-181150500D01*
X58287822Y-181150500D01*
X58712178Y-181150500D01*
X58712186Y-181150500D01*
X59135250Y-181117204D01*
X59554398Y-181050818D01*
X59967045Y-180951750D01*
X60370647Y-180820612D01*
X60762716Y-180658211D01*
X61140835Y-180465550D01*
X61502672Y-180243816D01*
X61845997Y-179994377D01*
X62168692Y-179718769D01*
X62468769Y-179418692D01*
X62744377Y-179095997D01*
X62993816Y-178752672D01*
X63215550Y-178390835D01*
X63408211Y-178012716D01*
X63570612Y-177620647D01*
X63701750Y-177217045D01*
X63800818Y-176804398D01*
X63867204Y-176385250D01*
X63900500Y-175962186D01*
X63900500Y-175537814D01*
X69599500Y-175537814D01*
X69599500Y-175558097D01*
X69599500Y-175962186D01*
X69632796Y-176385250D01*
X69699182Y-176804398D01*
X69798250Y-177217045D01*
X69798254Y-177217056D01*
X69929385Y-177620641D01*
X69996000Y-177781463D01*
X70091789Y-178012716D01*
X70284450Y-178390835D01*
X70284457Y-178390848D01*
X70284460Y-178390853D01*
X70307375Y-178428246D01*
X70506184Y-178752672D01*
X70506192Y-178752683D01*
X70506198Y-178752692D01*
X70755617Y-179095989D01*
X70755627Y-179096003D01*
X70878919Y-179240358D01*
X71031231Y-179418692D01*
X71331308Y-179718769D01*
X71331314Y-179718774D01*
X71653996Y-179994372D01*
X71654010Y-179994382D01*
X71861749Y-180145313D01*
X71997328Y-180243816D01*
X72125685Y-180322473D01*
X72359146Y-180465539D01*
X72359151Y-180465542D01*
X72359156Y-180465544D01*
X72359165Y-180465550D01*
X72737284Y-180658211D01*
X73129353Y-180820612D01*
X73129358Y-180820614D01*
X73231979Y-180853957D01*
X73532955Y-180951750D01*
X73945602Y-181050818D01*
X74364750Y-181117204D01*
X74787814Y-181150500D01*
X74787822Y-181150500D01*
X75212178Y-181150500D01*
X75212186Y-181150500D01*
X75635250Y-181117204D01*
X76054398Y-181050818D01*
X76467045Y-180951750D01*
X76870647Y-180820612D01*
X77262716Y-180658211D01*
X77640835Y-180465550D01*
X78002672Y-180243816D01*
X78345997Y-179994377D01*
X78668692Y-179718769D01*
X78968769Y-179418692D01*
X79244377Y-179095997D01*
X79493816Y-178752672D01*
X79715550Y-178390835D01*
X79908211Y-178012716D01*
X80070612Y-177620647D01*
X80201750Y-177217045D01*
X80300818Y-176804398D01*
X80367204Y-176385250D01*
X80400500Y-175962186D01*
X80400500Y-175537814D01*
X86099500Y-175537814D01*
X86099500Y-175558097D01*
X86099500Y-175962186D01*
X86132796Y-176385250D01*
X86199182Y-176804398D01*
X86298250Y-177217045D01*
X86298254Y-177217056D01*
X86429385Y-177620641D01*
X86496000Y-177781463D01*
X86591789Y-178012716D01*
X86784450Y-178390835D01*
X86784457Y-178390848D01*
X86784460Y-178390853D01*
X86807375Y-178428246D01*
X87006184Y-178752672D01*
X87006192Y-178752683D01*
X87006198Y-178752692D01*
X87255617Y-179095989D01*
X87255627Y-179096003D01*
X87378919Y-179240358D01*
X87531231Y-179418692D01*
X87831308Y-179718769D01*
X87831314Y-179718774D01*
X88153996Y-179994372D01*
X88154010Y-179994382D01*
X88361749Y-180145313D01*
X88497328Y-180243816D01*
X88625685Y-180322473D01*
X88859146Y-180465539D01*
X88859151Y-180465542D01*
X88859156Y-180465544D01*
X88859165Y-180465550D01*
X89237284Y-180658211D01*
X89629353Y-180820612D01*
X89629358Y-180820614D01*
X89731979Y-180853957D01*
X90032955Y-180951750D01*
X90445602Y-181050818D01*
X90864750Y-181117204D01*
X91287814Y-181150500D01*
X91287822Y-181150500D01*
X91712178Y-181150500D01*
X91712186Y-181150500D01*
X92135250Y-181117204D01*
X92554398Y-181050818D01*
X92967045Y-180951750D01*
X93370647Y-180820612D01*
X93762716Y-180658211D01*
X94140835Y-180465550D01*
X94502672Y-180243816D01*
X94845997Y-179994377D01*
X95168692Y-179718769D01*
X95468769Y-179418692D01*
X95744377Y-179095997D01*
X95993816Y-178752672D01*
X96215550Y-178390835D01*
X96408211Y-178012716D01*
X96570612Y-177620647D01*
X96701750Y-177217045D01*
X96800818Y-176804398D01*
X96867204Y-176385250D01*
X96900500Y-175962186D01*
X96900500Y-175537814D01*
X96867204Y-175114750D01*
X96800818Y-174695602D01*
X96701750Y-174282955D01*
X96570612Y-173879353D01*
X96408211Y-173487284D01*
X96215550Y-173109165D01*
X96215544Y-173109156D01*
X96215542Y-173109151D01*
X96215539Y-173109146D01*
X95993823Y-172747340D01*
X95993816Y-172747328D01*
X95744377Y-172404003D01*
X95744372Y-172403996D01*
X95468774Y-172081314D01*
X95468769Y-172081308D01*
X95168692Y-171781231D01*
X95168685Y-171781225D01*
X94846003Y-171505627D01*
X94845989Y-171505617D01*
X94502692Y-171256198D01*
X94502683Y-171256192D01*
X94502672Y-171256184D01*
X94502659Y-171256176D01*
X94140853Y-171034460D01*
X94140848Y-171034457D01*
X94140838Y-171034452D01*
X94140835Y-171034450D01*
X93762716Y-170841789D01*
X93762702Y-170841783D01*
X93370641Y-170679385D01*
X93083478Y-170586081D01*
X92967045Y-170548250D01*
X92554398Y-170449182D01*
X92135250Y-170382796D01*
X91712191Y-170349500D01*
X91712186Y-170349500D01*
X91287814Y-170349500D01*
X91287808Y-170349500D01*
X90864749Y-170382796D01*
X90864748Y-170382796D01*
X90445607Y-170449181D01*
X90445604Y-170449181D01*
X90445602Y-170449182D01*
X90297817Y-170484661D01*
X90032966Y-170548247D01*
X90032960Y-170548248D01*
X90032955Y-170548250D01*
X90032943Y-170548254D01*
X89629358Y-170679385D01*
X89237297Y-170841783D01*
X89237284Y-170841789D01*
X88859151Y-171034457D01*
X88859146Y-171034460D01*
X88497340Y-171256176D01*
X88497307Y-171256198D01*
X88154010Y-171505617D01*
X88153996Y-171505627D01*
X87831314Y-171781225D01*
X87831300Y-171781238D01*
X87531238Y-172081300D01*
X87531225Y-172081314D01*
X87255627Y-172403996D01*
X87255617Y-172404010D01*
X87006198Y-172747307D01*
X87006176Y-172747340D01*
X86784460Y-173109146D01*
X86784457Y-173109151D01*
X86591789Y-173487284D01*
X86591783Y-173487297D01*
X86429385Y-173879358D01*
X86298254Y-174282943D01*
X86298247Y-174282966D01*
X86199181Y-174695607D01*
X86183000Y-174797774D01*
X86132796Y-175114750D01*
X86099500Y-175537814D01*
X80400500Y-175537814D01*
X80367204Y-175114750D01*
X80300818Y-174695602D01*
X80201750Y-174282955D01*
X80070612Y-173879353D01*
X79908211Y-173487284D01*
X79715550Y-173109165D01*
X79715544Y-173109156D01*
X79715542Y-173109151D01*
X79715539Y-173109146D01*
X79493823Y-172747340D01*
X79493816Y-172747328D01*
X79244377Y-172404003D01*
X79244372Y-172403996D01*
X78968774Y-172081314D01*
X78968769Y-172081308D01*
X78668692Y-171781231D01*
X78668685Y-171781225D01*
X78346003Y-171505627D01*
X78345989Y-171505617D01*
X78002692Y-171256198D01*
X78002683Y-171256192D01*
X78002672Y-171256184D01*
X78002659Y-171256176D01*
X77640853Y-171034460D01*
X77640848Y-171034457D01*
X77640838Y-171034452D01*
X77640835Y-171034450D01*
X77262716Y-170841789D01*
X77262702Y-170841783D01*
X76870641Y-170679385D01*
X76583478Y-170586081D01*
X76467045Y-170548250D01*
X76054398Y-170449182D01*
X75635250Y-170382796D01*
X75212191Y-170349500D01*
X75212186Y-170349500D01*
X74787814Y-170349500D01*
X74787808Y-170349500D01*
X74364749Y-170382796D01*
X74364748Y-170382796D01*
X73945607Y-170449181D01*
X73945604Y-170449181D01*
X73945602Y-170449182D01*
X73797817Y-170484661D01*
X73532966Y-170548247D01*
X73532960Y-170548248D01*
X73532955Y-170548250D01*
X73532943Y-170548254D01*
X73129358Y-170679385D01*
X72737297Y-170841783D01*
X72737284Y-170841789D01*
X72359151Y-171034457D01*
X72359146Y-171034460D01*
X71997340Y-171256176D01*
X71997307Y-171256198D01*
X71654010Y-171505617D01*
X71653996Y-171505627D01*
X71331314Y-171781225D01*
X71331300Y-171781238D01*
X71031238Y-172081300D01*
X71031225Y-172081314D01*
X70755627Y-172403996D01*
X70755617Y-172404010D01*
X70506198Y-172747307D01*
X70506176Y-172747340D01*
X70284460Y-173109146D01*
X70284457Y-173109151D01*
X70091789Y-173487284D01*
X70091783Y-173487297D01*
X69929385Y-173879358D01*
X69798254Y-174282943D01*
X69798247Y-174282966D01*
X69699181Y-174695607D01*
X69683000Y-174797774D01*
X69632796Y-175114750D01*
X69599500Y-175537814D01*
X63900500Y-175537814D01*
X63867204Y-175114750D01*
X63800818Y-174695602D01*
X63701750Y-174282955D01*
X63570612Y-173879353D01*
X63408211Y-173487284D01*
X63215550Y-173109165D01*
X63215544Y-173109156D01*
X63215542Y-173109151D01*
X63215539Y-173109146D01*
X62993823Y-172747340D01*
X62993816Y-172747328D01*
X62744377Y-172404003D01*
X62744372Y-172403996D01*
X62468774Y-172081314D01*
X62468769Y-172081308D01*
X62168692Y-171781231D01*
X62168685Y-171781225D01*
X61846003Y-171505627D01*
X61845989Y-171505617D01*
X61502692Y-171256198D01*
X61502683Y-171256192D01*
X61502672Y-171256184D01*
X61502659Y-171256176D01*
X61140853Y-171034460D01*
X61140848Y-171034457D01*
X61140838Y-171034452D01*
X61140835Y-171034450D01*
X60762716Y-170841789D01*
X60762702Y-170841783D01*
X60370641Y-170679385D01*
X60083478Y-170586081D01*
X59967045Y-170548250D01*
X59554398Y-170449182D01*
X59135250Y-170382796D01*
X58712191Y-170349500D01*
X58712186Y-170349500D01*
X58287814Y-170349500D01*
X58287808Y-170349500D01*
X57864749Y-170382796D01*
X57864748Y-170382796D01*
X57445607Y-170449181D01*
X57445604Y-170449181D01*
X57445602Y-170449182D01*
X57297817Y-170484661D01*
X57032966Y-170548247D01*
X57032960Y-170548248D01*
X57032955Y-170548250D01*
X57032943Y-170548254D01*
X56629358Y-170679385D01*
X56237297Y-170841783D01*
X56237284Y-170841789D01*
X55859151Y-171034457D01*
X55859146Y-171034460D01*
X55497340Y-171256176D01*
X55497307Y-171256198D01*
X55154010Y-171505617D01*
X55153996Y-171505627D01*
X54831314Y-171781225D01*
X54831300Y-171781238D01*
X54531238Y-172081300D01*
X54531225Y-172081314D01*
X54255627Y-172403996D01*
X54255617Y-172404010D01*
X54006198Y-172747307D01*
X54006176Y-172747340D01*
X53784460Y-173109146D01*
X53784457Y-173109151D01*
X53591789Y-173487284D01*
X53591783Y-173487297D01*
X53429385Y-173879358D01*
X53298254Y-174282943D01*
X53298247Y-174282966D01*
X53199181Y-174695607D01*
X53183000Y-174797774D01*
X53132796Y-175114750D01*
X53099500Y-175537814D01*
X50500500Y-175537814D01*
X50500500Y-159037814D01*
X53099500Y-159037814D01*
X53099500Y-159058097D01*
X53099500Y-159462186D01*
X53132796Y-159885250D01*
X53199182Y-160304398D01*
X53298250Y-160717045D01*
X53298254Y-160717056D01*
X53429385Y-161120641D01*
X53496000Y-161281463D01*
X53591789Y-161512716D01*
X53784450Y-161890835D01*
X53784457Y-161890848D01*
X53784460Y-161890853D01*
X53807375Y-161928246D01*
X54006184Y-162252672D01*
X54006192Y-162252683D01*
X54006198Y-162252692D01*
X54255617Y-162595989D01*
X54255627Y-162596003D01*
X54378919Y-162740358D01*
X54531231Y-162918692D01*
X54831308Y-163218769D01*
X54831314Y-163218774D01*
X55153996Y-163494372D01*
X55154010Y-163494382D01*
X55361749Y-163645313D01*
X55497328Y-163743816D01*
X55625685Y-163822473D01*
X55859146Y-163965539D01*
X55859151Y-163965542D01*
X55859156Y-163965544D01*
X55859165Y-163965550D01*
X56237284Y-164158211D01*
X56629353Y-164320612D01*
X56629358Y-164320614D01*
X56731979Y-164353957D01*
X57032955Y-164451750D01*
X57445602Y-164550818D01*
X57864750Y-164617204D01*
X58287814Y-164650500D01*
X58287822Y-164650500D01*
X58712178Y-164650500D01*
X58712186Y-164650500D01*
X59135250Y-164617204D01*
X59554398Y-164550818D01*
X59967045Y-164451750D01*
X60370647Y-164320612D01*
X60762716Y-164158211D01*
X61140835Y-163965550D01*
X61502672Y-163743816D01*
X61845997Y-163494377D01*
X62168692Y-163218769D01*
X62468769Y-162918692D01*
X62744377Y-162595997D01*
X62993816Y-162252672D01*
X63215550Y-161890835D01*
X63408211Y-161512716D01*
X63570612Y-161120647D01*
X63701750Y-160717045D01*
X63800818Y-160304398D01*
X63867204Y-159885250D01*
X63900500Y-159462186D01*
X63900500Y-159037814D01*
X69599500Y-159037814D01*
X69599500Y-159058097D01*
X69599500Y-159462186D01*
X69632796Y-159885250D01*
X69699182Y-160304398D01*
X69798250Y-160717045D01*
X69798254Y-160717056D01*
X69929385Y-161120641D01*
X69996000Y-161281463D01*
X70091789Y-161512716D01*
X70284450Y-161890835D01*
X70284457Y-161890848D01*
X70284460Y-161890853D01*
X70307375Y-161928246D01*
X70506184Y-162252672D01*
X70506192Y-162252683D01*
X70506198Y-162252692D01*
X70755617Y-162595989D01*
X70755627Y-162596003D01*
X70878919Y-162740358D01*
X71031231Y-162918692D01*
X71331308Y-163218769D01*
X71331314Y-163218774D01*
X71653996Y-163494372D01*
X71654010Y-163494382D01*
X71861749Y-163645313D01*
X71997328Y-163743816D01*
X72125685Y-163822473D01*
X72359146Y-163965539D01*
X72359151Y-163965542D01*
X72359156Y-163965544D01*
X72359165Y-163965550D01*
X72737284Y-164158211D01*
X73129353Y-164320612D01*
X73129358Y-164320614D01*
X73231979Y-164353957D01*
X73532955Y-164451750D01*
X73945602Y-164550818D01*
X74364750Y-164617204D01*
X74787814Y-164650500D01*
X74787822Y-164650500D01*
X75212178Y-164650500D01*
X75212186Y-164650500D01*
X75635250Y-164617204D01*
X76054398Y-164550818D01*
X76467045Y-164451750D01*
X76870647Y-164320612D01*
X77262716Y-164158211D01*
X77640835Y-163965550D01*
X78002672Y-163743816D01*
X78345997Y-163494377D01*
X78668692Y-163218769D01*
X78968769Y-162918692D01*
X79244377Y-162595997D01*
X79493816Y-162252672D01*
X79715550Y-161890835D01*
X79908211Y-161512716D01*
X80070612Y-161120647D01*
X80201750Y-160717045D01*
X80300818Y-160304398D01*
X80367204Y-159885250D01*
X80400500Y-159462186D01*
X80400500Y-159037814D01*
X86099500Y-159037814D01*
X86099500Y-159058097D01*
X86099500Y-159462186D01*
X86132796Y-159885250D01*
X86199182Y-160304398D01*
X86298250Y-160717045D01*
X86298254Y-160717056D01*
X86429385Y-161120641D01*
X86496000Y-161281463D01*
X86591789Y-161512716D01*
X86784450Y-161890835D01*
X86784457Y-161890848D01*
X86784460Y-161890853D01*
X86807375Y-161928246D01*
X87006184Y-162252672D01*
X87006192Y-162252683D01*
X87006198Y-162252692D01*
X87255617Y-162595989D01*
X87255627Y-162596003D01*
X87378919Y-162740358D01*
X87531231Y-162918692D01*
X87831308Y-163218769D01*
X87831314Y-163218774D01*
X88153996Y-163494372D01*
X88154010Y-163494382D01*
X88361749Y-163645313D01*
X88497328Y-163743816D01*
X88625685Y-163822473D01*
X88859146Y-163965539D01*
X88859151Y-163965542D01*
X88859156Y-163965544D01*
X88859165Y-163965550D01*
X89237284Y-164158211D01*
X89629353Y-164320612D01*
X89629358Y-164320614D01*
X89731979Y-164353957D01*
X90032955Y-164451750D01*
X90445602Y-164550818D01*
X90864750Y-164617204D01*
X91287814Y-164650500D01*
X91287822Y-164650500D01*
X91712178Y-164650500D01*
X91712186Y-164650500D01*
X92135250Y-164617204D01*
X92554398Y-164550818D01*
X92967045Y-164451750D01*
X93370647Y-164320612D01*
X93762716Y-164158211D01*
X94140835Y-163965550D01*
X94502672Y-163743816D01*
X94845997Y-163494377D01*
X95168692Y-163218769D01*
X95468769Y-162918692D01*
X95744377Y-162595997D01*
X95993816Y-162252672D01*
X96215550Y-161890835D01*
X96408211Y-161512716D01*
X96570612Y-161120647D01*
X96701750Y-160717045D01*
X96800818Y-160304398D01*
X96867204Y-159885250D01*
X96900500Y-159462186D01*
X96900500Y-159037814D01*
X96867204Y-158614750D01*
X96800818Y-158195602D01*
X96701750Y-157782955D01*
X96570612Y-157379353D01*
X96408211Y-156987284D01*
X96215550Y-156609165D01*
X96215544Y-156609156D01*
X96215542Y-156609151D01*
X96215539Y-156609146D01*
X95993823Y-156247340D01*
X95993816Y-156247328D01*
X95744377Y-155904003D01*
X95744372Y-155903996D01*
X95468774Y-155581314D01*
X95468769Y-155581308D01*
X95168692Y-155281231D01*
X95168685Y-155281225D01*
X94846003Y-155005627D01*
X94845989Y-155005617D01*
X94502692Y-154756198D01*
X94502683Y-154756192D01*
X94502672Y-154756184D01*
X94502659Y-154756176D01*
X94140853Y-154534460D01*
X94140848Y-154534457D01*
X94140838Y-154534452D01*
X94140835Y-154534450D01*
X93762716Y-154341789D01*
X93762702Y-154341783D01*
X93370641Y-154179385D01*
X93083478Y-154086081D01*
X92967045Y-154048250D01*
X92554398Y-153949182D01*
X92135250Y-153882796D01*
X91712191Y-153849500D01*
X91712186Y-153849500D01*
X91287814Y-153849500D01*
X91287808Y-153849500D01*
X90864749Y-153882796D01*
X90864748Y-153882796D01*
X90445607Y-153949181D01*
X90445604Y-153949181D01*
X90445602Y-153949182D01*
X90297817Y-153984661D01*
X90032966Y-154048247D01*
X90032960Y-154048248D01*
X90032955Y-154048250D01*
X90032943Y-154048254D01*
X89629358Y-154179385D01*
X89237297Y-154341783D01*
X89237284Y-154341789D01*
X88859151Y-154534457D01*
X88859146Y-154534460D01*
X88497340Y-154756176D01*
X88497307Y-154756198D01*
X88154010Y-155005617D01*
X88153996Y-155005627D01*
X87831314Y-155281225D01*
X87831300Y-155281238D01*
X87531238Y-155581300D01*
X87531225Y-155581314D01*
X87255627Y-155903996D01*
X87255617Y-155904010D01*
X87006198Y-156247307D01*
X87006176Y-156247340D01*
X86784460Y-156609146D01*
X86784457Y-156609151D01*
X86591789Y-156987284D01*
X86591783Y-156987297D01*
X86429385Y-157379358D01*
X86298254Y-157782943D01*
X86298247Y-157782966D01*
X86199181Y-158195607D01*
X86183000Y-158297774D01*
X86132796Y-158614750D01*
X86099500Y-159037814D01*
X80400500Y-159037814D01*
X80367204Y-158614750D01*
X80300818Y-158195602D01*
X80201750Y-157782955D01*
X80070612Y-157379353D01*
X79908211Y-156987284D01*
X79715550Y-156609165D01*
X79715544Y-156609156D01*
X79715542Y-156609151D01*
X79715539Y-156609146D01*
X79493823Y-156247340D01*
X79493816Y-156247328D01*
X79244377Y-155904003D01*
X79244372Y-155903996D01*
X78968774Y-155581314D01*
X78968769Y-155581308D01*
X78668692Y-155281231D01*
X78668685Y-155281225D01*
X78346003Y-155005627D01*
X78345989Y-155005617D01*
X78002692Y-154756198D01*
X78002683Y-154756192D01*
X78002672Y-154756184D01*
X78002659Y-154756176D01*
X77640853Y-154534460D01*
X77640848Y-154534457D01*
X77640838Y-154534452D01*
X77640835Y-154534450D01*
X77262716Y-154341789D01*
X77262702Y-154341783D01*
X76870641Y-154179385D01*
X76583478Y-154086081D01*
X76467045Y-154048250D01*
X76054398Y-153949182D01*
X75635250Y-153882796D01*
X75212191Y-153849500D01*
X75212186Y-153849500D01*
X74787814Y-153849500D01*
X74787808Y-153849500D01*
X74364749Y-153882796D01*
X74364748Y-153882796D01*
X73945607Y-153949181D01*
X73945604Y-153949181D01*
X73945602Y-153949182D01*
X73797817Y-153984661D01*
X73532966Y-154048247D01*
X73532960Y-154048248D01*
X73532955Y-154048250D01*
X73532943Y-154048254D01*
X73129358Y-154179385D01*
X72737297Y-154341783D01*
X72737284Y-154341789D01*
X72359151Y-154534457D01*
X72359146Y-154534460D01*
X71997340Y-154756176D01*
X71997307Y-154756198D01*
X71654010Y-155005617D01*
X71653996Y-155005627D01*
X71331314Y-155281225D01*
X71331300Y-155281238D01*
X71031238Y-155581300D01*
X71031225Y-155581314D01*
X70755627Y-155903996D01*
X70755617Y-155904010D01*
X70506198Y-156247307D01*
X70506176Y-156247340D01*
X70284460Y-156609146D01*
X70284457Y-156609151D01*
X70091789Y-156987284D01*
X70091783Y-156987297D01*
X69929385Y-157379358D01*
X69798254Y-157782943D01*
X69798247Y-157782966D01*
X69699181Y-158195607D01*
X69683000Y-158297774D01*
X69632796Y-158614750D01*
X69599500Y-159037814D01*
X63900500Y-159037814D01*
X63867204Y-158614750D01*
X63800818Y-158195602D01*
X63701750Y-157782955D01*
X63570612Y-157379353D01*
X63408211Y-156987284D01*
X63215550Y-156609165D01*
X63215544Y-156609156D01*
X63215542Y-156609151D01*
X63215539Y-156609146D01*
X62993823Y-156247340D01*
X62993816Y-156247328D01*
X62744377Y-155904003D01*
X62744372Y-155903996D01*
X62468774Y-155581314D01*
X62468769Y-155581308D01*
X62168692Y-155281231D01*
X62168685Y-155281225D01*
X61846003Y-155005627D01*
X61845989Y-155005617D01*
X61502692Y-154756198D01*
X61502683Y-154756192D01*
X61502672Y-154756184D01*
X61502659Y-154756176D01*
X61140853Y-154534460D01*
X61140848Y-154534457D01*
X61140838Y-154534452D01*
X61140835Y-154534450D01*
X60762716Y-154341789D01*
X60762702Y-154341783D01*
X60370641Y-154179385D01*
X60083478Y-154086081D01*
X59967045Y-154048250D01*
X59554398Y-153949182D01*
X59135250Y-153882796D01*
X58712191Y-153849500D01*
X58712186Y-153849500D01*
X58287814Y-153849500D01*
X58287808Y-153849500D01*
X57864749Y-153882796D01*
X57864748Y-153882796D01*
X57445607Y-153949181D01*
X57445604Y-153949181D01*
X57445602Y-153949182D01*
X57297817Y-153984661D01*
X57032966Y-154048247D01*
X57032960Y-154048248D01*
X57032955Y-154048250D01*
X57032943Y-154048254D01*
X56629358Y-154179385D01*
X56237297Y-154341783D01*
X56237284Y-154341789D01*
X55859151Y-154534457D01*
X55859146Y-154534460D01*
X55497340Y-154756176D01*
X55497307Y-154756198D01*
X55154010Y-155005617D01*
X55153996Y-155005627D01*
X54831314Y-155281225D01*
X54831300Y-155281238D01*
X54531238Y-155581300D01*
X54531225Y-155581314D01*
X54255627Y-155903996D01*
X54255617Y-155904010D01*
X54006198Y-156247307D01*
X54006176Y-156247340D01*
X53784460Y-156609146D01*
X53784457Y-156609151D01*
X53591789Y-156987284D01*
X53591783Y-156987297D01*
X53429385Y-157379358D01*
X53298254Y-157782943D01*
X53298247Y-157782966D01*
X53199181Y-158195607D01*
X53183000Y-158297774D01*
X53132796Y-158614750D01*
X53099500Y-159037814D01*
X50500500Y-159037814D01*
X50500500Y-136803471D01*
X58499500Y-136803471D01*
X58499500Y-137196528D01*
X58538026Y-137587702D01*
X58614704Y-137973194D01*
X58614707Y-137973205D01*
X58728810Y-138349354D01*
X58879230Y-138712499D01*
X58879232Y-138712504D01*
X59064511Y-139059137D01*
X59064522Y-139059155D01*
X59282887Y-139385960D01*
X59282897Y-139385974D01*
X59532254Y-139689817D01*
X59810182Y-139967745D01*
X59810187Y-139967749D01*
X59810188Y-139967750D01*
X60114031Y-140217107D01*
X60440851Y-140435482D01*
X60440860Y-140435487D01*
X60440862Y-140435488D01*
X60787495Y-140620767D01*
X60787497Y-140620767D01*
X60787503Y-140620771D01*
X61150647Y-140771190D01*
X61526785Y-140885290D01*
X61526791Y-140885291D01*
X61526794Y-140885292D01*
X61526805Y-140885295D01*
X61883329Y-140956211D01*
X61912297Y-140961973D01*
X62303468Y-141000500D01*
X62303471Y-141000500D01*
X62696529Y-141000500D01*
X62696532Y-141000500D01*
X63087703Y-140961973D01*
X63162748Y-140947045D01*
X63473194Y-140885295D01*
X63473205Y-140885292D01*
X63473205Y-140885291D01*
X63473215Y-140885290D01*
X63849353Y-140771190D01*
X64212497Y-140620771D01*
X64559149Y-140435482D01*
X64885969Y-140217107D01*
X65189812Y-139967750D01*
X65467750Y-139689812D01*
X65717107Y-139385969D01*
X65935482Y-139059149D01*
X66120771Y-138712497D01*
X66271190Y-138349353D01*
X66385290Y-137973215D01*
X66385292Y-137973205D01*
X66385295Y-137973194D01*
X66461973Y-137587702D01*
X66500500Y-137196528D01*
X66500500Y-136803467D01*
X66499284Y-136791118D01*
X66498353Y-136781669D01*
X82499500Y-136781669D01*
X82499500Y-137218330D01*
X82537557Y-137653320D01*
X82537557Y-137653324D01*
X82613379Y-138083327D01*
X82613383Y-138083344D01*
X82726392Y-138505105D01*
X82875740Y-138915434D01*
X82875746Y-138915449D01*
X83060272Y-139311164D01*
X83060280Y-139311180D01*
X83213739Y-139576978D01*
X83278603Y-139689326D01*
X83278607Y-139689332D01*
X83278614Y-139689343D01*
X83529057Y-140047013D01*
X83671784Y-140217107D01*
X83809732Y-140381507D01*
X84118493Y-140690268D01*
X84208395Y-140765705D01*
X84452986Y-140970942D01*
X84810656Y-141221385D01*
X84810663Y-141221389D01*
X84810674Y-141221397D01*
X85188826Y-141439723D01*
X85188835Y-141439727D01*
X85584550Y-141624253D01*
X85584555Y-141624255D01*
X85584568Y-141624261D01*
X85994888Y-141773605D01*
X85994889Y-141773605D01*
X85994894Y-141773607D01*
X86127398Y-141809110D01*
X86416663Y-141886619D01*
X86846682Y-141962443D01*
X87281671Y-142000499D01*
X87281672Y-142000500D01*
X87281673Y-142000500D01*
X87718328Y-142000500D01*
X87718328Y-142000499D01*
X88153318Y-141962443D01*
X88583337Y-141886619D01*
X89005112Y-141773605D01*
X89415432Y-141624261D01*
X89811174Y-141439723D01*
X90189326Y-141221397D01*
X90547012Y-140970943D01*
X90881507Y-140690268D01*
X91190268Y-140381507D01*
X91470943Y-140047012D01*
X91721397Y-139689326D01*
X91939723Y-139311174D01*
X92124261Y-138915432D01*
X92273605Y-138505112D01*
X92386619Y-138083337D01*
X92462443Y-137653318D01*
X92500500Y-137218327D01*
X92500500Y-136781673D01*
X92462443Y-136346682D01*
X92386619Y-135916663D01*
X92273605Y-135494888D01*
X92124261Y-135084568D01*
X92057244Y-134940851D01*
X91939727Y-134688835D01*
X91939719Y-134688819D01*
X91926013Y-134665080D01*
X91721397Y-134310674D01*
X91721389Y-134310663D01*
X91721385Y-134310656D01*
X91470942Y-133952986D01*
X91190265Y-133618490D01*
X90881509Y-133309734D01*
X90547013Y-133029057D01*
X90189343Y-132778614D01*
X90189332Y-132778607D01*
X90189326Y-132778603D01*
X90076978Y-132713739D01*
X89811180Y-132560280D01*
X89811164Y-132560272D01*
X89415449Y-132375746D01*
X89415434Y-132375740D01*
X89415432Y-132375739D01*
X89261301Y-132319640D01*
X89005105Y-132226392D01*
X88583344Y-132113383D01*
X88583347Y-132113383D01*
X88583337Y-132113381D01*
X88583331Y-132113379D01*
X88583327Y-132113379D01*
X88153322Y-132037557D01*
X87718330Y-131999500D01*
X87718327Y-131999500D01*
X87281673Y-131999500D01*
X87281669Y-131999500D01*
X86846679Y-132037557D01*
X86846675Y-132037557D01*
X86416672Y-132113379D01*
X86416655Y-132113383D01*
X85994894Y-132226392D01*
X85584565Y-132375740D01*
X85584550Y-132375746D01*
X85188835Y-132560272D01*
X85188819Y-132560280D01*
X84810682Y-132778598D01*
X84810656Y-132778614D01*
X84452986Y-133029057D01*
X84118490Y-133309734D01*
X83809734Y-133618490D01*
X83529057Y-133952986D01*
X83278614Y-134310656D01*
X83278598Y-134310682D01*
X83060280Y-134688819D01*
X83060272Y-134688835D01*
X82875746Y-135084550D01*
X82875740Y-135084565D01*
X82726392Y-135494894D01*
X82613383Y-135916655D01*
X82613379Y-135916672D01*
X82537557Y-136346675D01*
X82537557Y-136346679D01*
X82499500Y-136781669D01*
X66498353Y-136781669D01*
X66461973Y-136412297D01*
X66385295Y-136026805D01*
X66385292Y-136026794D01*
X66385291Y-136026791D01*
X66385290Y-136026785D01*
X66271190Y-135650647D01*
X66120771Y-135287503D01*
X66108355Y-135264275D01*
X65935488Y-134940862D01*
X65935487Y-134940860D01*
X65935482Y-134940851D01*
X65717107Y-134614031D01*
X65467750Y-134310188D01*
X65467749Y-134310187D01*
X65467745Y-134310182D01*
X65189817Y-134032254D01*
X64885974Y-133782897D01*
X64885973Y-133782896D01*
X64885969Y-133782893D01*
X64559149Y-133564518D01*
X64559144Y-133564515D01*
X64559137Y-133564511D01*
X64212504Y-133379232D01*
X64212499Y-133379230D01*
X63849354Y-133228810D01*
X63473205Y-133114707D01*
X63473194Y-133114704D01*
X63087702Y-133038026D01*
X62793089Y-133009010D01*
X62696532Y-132999500D01*
X62303468Y-132999500D01*
X62214251Y-133008287D01*
X61912297Y-133038026D01*
X61526805Y-133114704D01*
X61526794Y-133114707D01*
X61150645Y-133228810D01*
X60787500Y-133379230D01*
X60787495Y-133379232D01*
X60440862Y-133564511D01*
X60440844Y-133564522D01*
X60114039Y-133782887D01*
X60114025Y-133782897D01*
X59810182Y-134032254D01*
X59532254Y-134310182D01*
X59282897Y-134614025D01*
X59282887Y-134614039D01*
X59064522Y-134940844D01*
X59064511Y-134940862D01*
X58879232Y-135287495D01*
X58879230Y-135287500D01*
X58728810Y-135650645D01*
X58614707Y-136026794D01*
X58614704Y-136026805D01*
X58538026Y-136412297D01*
X58508287Y-136714251D01*
X58500717Y-136791118D01*
X58499500Y-136803471D01*
X50500500Y-136803471D01*
X50500500Y-109303471D01*
X58499500Y-109303471D01*
X58499500Y-109696528D01*
X58538026Y-110087702D01*
X58614704Y-110473194D01*
X58614707Y-110473205D01*
X58728810Y-110849354D01*
X58879230Y-111212499D01*
X58879232Y-111212504D01*
X59064511Y-111559137D01*
X59064522Y-111559155D01*
X59282887Y-111885960D01*
X59282897Y-111885974D01*
X59532254Y-112189817D01*
X59810182Y-112467745D01*
X59810187Y-112467749D01*
X59810188Y-112467750D01*
X60114031Y-112717107D01*
X60440851Y-112935482D01*
X60440860Y-112935487D01*
X60440862Y-112935488D01*
X60787495Y-113120767D01*
X60787497Y-113120767D01*
X60787503Y-113120771D01*
X61150647Y-113271190D01*
X61526785Y-113385290D01*
X61526791Y-113385291D01*
X61526794Y-113385292D01*
X61526805Y-113385295D01*
X61883329Y-113456211D01*
X61912297Y-113461973D01*
X62303468Y-113500500D01*
X62303471Y-113500500D01*
X62696529Y-113500500D01*
X62696532Y-113500500D01*
X63087703Y-113461973D01*
X63162748Y-113447045D01*
X63473194Y-113385295D01*
X63473205Y-113385292D01*
X63473205Y-113385291D01*
X63473215Y-113385290D01*
X63849353Y-113271190D01*
X64212497Y-113120771D01*
X64559149Y-112935482D01*
X64885969Y-112717107D01*
X65189812Y-112467750D01*
X65467750Y-112189812D01*
X65717107Y-111885969D01*
X65935482Y-111559149D01*
X66120771Y-111212497D01*
X66271190Y-110849353D01*
X66385290Y-110473215D01*
X66385292Y-110473205D01*
X66385295Y-110473194D01*
X66461973Y-110087702D01*
X66500500Y-109696528D01*
X66500500Y-109303467D01*
X66499284Y-109291118D01*
X66498353Y-109281669D01*
X82499500Y-109281669D01*
X82499500Y-109718330D01*
X82537557Y-110153320D01*
X82537557Y-110153324D01*
X82613379Y-110583327D01*
X82613383Y-110583344D01*
X82726392Y-111005105D01*
X82875740Y-111415434D01*
X82875746Y-111415449D01*
X83060272Y-111811164D01*
X83060280Y-111811180D01*
X83213739Y-112076978D01*
X83278603Y-112189326D01*
X83278607Y-112189332D01*
X83278614Y-112189343D01*
X83529057Y-112547013D01*
X83671784Y-112717107D01*
X83809732Y-112881507D01*
X84118493Y-113190268D01*
X84208395Y-113265705D01*
X84452986Y-113470942D01*
X84810656Y-113721385D01*
X84810663Y-113721389D01*
X84810674Y-113721397D01*
X85188826Y-113939723D01*
X85188835Y-113939727D01*
X85584550Y-114124253D01*
X85584555Y-114124255D01*
X85584568Y-114124261D01*
X85994888Y-114273605D01*
X85994889Y-114273605D01*
X85994894Y-114273607D01*
X86127398Y-114309110D01*
X86416663Y-114386619D01*
X86846682Y-114462443D01*
X87281671Y-114500499D01*
X87281672Y-114500500D01*
X87281673Y-114500500D01*
X87718328Y-114500500D01*
X87718328Y-114500499D01*
X88153318Y-114462443D01*
X88583337Y-114386619D01*
X89005112Y-114273605D01*
X89415432Y-114124261D01*
X89811174Y-113939723D01*
X90189326Y-113721397D01*
X90547012Y-113470943D01*
X90881507Y-113190268D01*
X91190268Y-112881507D01*
X91470943Y-112547012D01*
X91721397Y-112189326D01*
X91939723Y-111811174D01*
X92124261Y-111415432D01*
X92273605Y-111005112D01*
X92386619Y-110583337D01*
X92462443Y-110153318D01*
X92500500Y-109718327D01*
X92500500Y-109281673D01*
X92462443Y-108846682D01*
X92386619Y-108416663D01*
X92273605Y-107994888D01*
X92124261Y-107584568D01*
X92057244Y-107440851D01*
X91939727Y-107188835D01*
X91939719Y-107188819D01*
X91926013Y-107165080D01*
X91721397Y-106810674D01*
X91721389Y-106810663D01*
X91721385Y-106810656D01*
X91470942Y-106452986D01*
X91190265Y-106118490D01*
X90881509Y-105809734D01*
X90547013Y-105529057D01*
X90189343Y-105278614D01*
X90189332Y-105278607D01*
X90189326Y-105278603D01*
X90076978Y-105213739D01*
X89811180Y-105060280D01*
X89811164Y-105060272D01*
X89415449Y-104875746D01*
X89415434Y-104875740D01*
X89415432Y-104875739D01*
X89261301Y-104819640D01*
X89005105Y-104726392D01*
X88583344Y-104613383D01*
X88583347Y-104613383D01*
X88583337Y-104613381D01*
X88583331Y-104613379D01*
X88583327Y-104613379D01*
X88153322Y-104537557D01*
X87718330Y-104499500D01*
X87718327Y-104499500D01*
X87281673Y-104499500D01*
X87281669Y-104499500D01*
X86846679Y-104537557D01*
X86846675Y-104537557D01*
X86416672Y-104613379D01*
X86416655Y-104613383D01*
X85994894Y-104726392D01*
X85584565Y-104875740D01*
X85584550Y-104875746D01*
X85188835Y-105060272D01*
X85188819Y-105060280D01*
X84810682Y-105278598D01*
X84810656Y-105278614D01*
X84452986Y-105529057D01*
X84118490Y-105809734D01*
X83809734Y-106118490D01*
X83529057Y-106452986D01*
X83278614Y-106810656D01*
X83278598Y-106810682D01*
X83060280Y-107188819D01*
X83060272Y-107188835D01*
X82875746Y-107584550D01*
X82875740Y-107584565D01*
X82726392Y-107994894D01*
X82613383Y-108416655D01*
X82613379Y-108416672D01*
X82537557Y-108846675D01*
X82537557Y-108846679D01*
X82499500Y-109281669D01*
X66498353Y-109281669D01*
X66461973Y-108912297D01*
X66385295Y-108526805D01*
X66385292Y-108526794D01*
X66385291Y-108526791D01*
X66385290Y-108526785D01*
X66271190Y-108150647D01*
X66120771Y-107787503D01*
X66108355Y-107764275D01*
X65935488Y-107440862D01*
X65935487Y-107440860D01*
X65935482Y-107440851D01*
X65717107Y-107114031D01*
X65467750Y-106810188D01*
X65467749Y-106810187D01*
X65467745Y-106810182D01*
X65189817Y-106532254D01*
X64885974Y-106282897D01*
X64885973Y-106282896D01*
X64885969Y-106282893D01*
X64559149Y-106064518D01*
X64559144Y-106064515D01*
X64559137Y-106064511D01*
X64212504Y-105879232D01*
X64212499Y-105879230D01*
X63849354Y-105728810D01*
X63473205Y-105614707D01*
X63473194Y-105614704D01*
X63087702Y-105538026D01*
X62793089Y-105509010D01*
X62696532Y-105499500D01*
X62303468Y-105499500D01*
X62214251Y-105508287D01*
X61912297Y-105538026D01*
X61526805Y-105614704D01*
X61526794Y-105614707D01*
X61150645Y-105728810D01*
X60787500Y-105879230D01*
X60787495Y-105879232D01*
X60440862Y-106064511D01*
X60440844Y-106064522D01*
X60114039Y-106282887D01*
X60114025Y-106282897D01*
X59810182Y-106532254D01*
X59532254Y-106810182D01*
X59282897Y-107114025D01*
X59282887Y-107114039D01*
X59064522Y-107440844D01*
X59064511Y-107440862D01*
X58879232Y-107787495D01*
X58879230Y-107787500D01*
X58728810Y-108150645D01*
X58614707Y-108526794D01*
X58614704Y-108526805D01*
X58538026Y-108912297D01*
X58508287Y-109214251D01*
X58500717Y-109291118D01*
X58499500Y-109303471D01*
X50500500Y-109303471D01*
X50500500Y-81803471D01*
X58499500Y-81803471D01*
X58499500Y-82196528D01*
X58538026Y-82587702D01*
X58614704Y-82973194D01*
X58614707Y-82973205D01*
X58728810Y-83349354D01*
X58879230Y-83712499D01*
X58879232Y-83712504D01*
X59064511Y-84059137D01*
X59064522Y-84059155D01*
X59282887Y-84385960D01*
X59282897Y-84385974D01*
X59532254Y-84689817D01*
X59810182Y-84967745D01*
X59810187Y-84967749D01*
X59810188Y-84967750D01*
X60114031Y-85217107D01*
X60440851Y-85435482D01*
X60440860Y-85435487D01*
X60440862Y-85435488D01*
X60787495Y-85620767D01*
X60787497Y-85620767D01*
X60787503Y-85620771D01*
X61150647Y-85771190D01*
X61526785Y-85885290D01*
X61526791Y-85885291D01*
X61526794Y-85885292D01*
X61526805Y-85885295D01*
X61883329Y-85956211D01*
X61912297Y-85961973D01*
X62303468Y-86000500D01*
X62303471Y-86000500D01*
X62696529Y-86000500D01*
X62696532Y-86000500D01*
X63087703Y-85961973D01*
X63162748Y-85947045D01*
X63473194Y-85885295D01*
X63473205Y-85885292D01*
X63473205Y-85885291D01*
X63473215Y-85885290D01*
X63849353Y-85771190D01*
X64212497Y-85620771D01*
X64559149Y-85435482D01*
X64885969Y-85217107D01*
X65189812Y-84967750D01*
X65467750Y-84689812D01*
X65717107Y-84385969D01*
X65935482Y-84059149D01*
X66120771Y-83712497D01*
X66271190Y-83349353D01*
X66385290Y-82973215D01*
X66385292Y-82973205D01*
X66385295Y-82973194D01*
X66461973Y-82587702D01*
X66500500Y-82196528D01*
X66500500Y-81803467D01*
X66499284Y-81791118D01*
X66498353Y-81781669D01*
X82499500Y-81781669D01*
X82499500Y-82218330D01*
X82537557Y-82653320D01*
X82537557Y-82653324D01*
X82613379Y-83083327D01*
X82613383Y-83083344D01*
X82726392Y-83505105D01*
X82875740Y-83915434D01*
X82875746Y-83915449D01*
X83060272Y-84311164D01*
X83060280Y-84311180D01*
X83213739Y-84576978D01*
X83278603Y-84689326D01*
X83278607Y-84689332D01*
X83278614Y-84689343D01*
X83529057Y-85047013D01*
X83671784Y-85217107D01*
X83809732Y-85381507D01*
X84118493Y-85690268D01*
X84208395Y-85765705D01*
X84452986Y-85970942D01*
X84810656Y-86221385D01*
X84810663Y-86221389D01*
X84810674Y-86221397D01*
X85188826Y-86439723D01*
X85188835Y-86439727D01*
X85584550Y-86624253D01*
X85584555Y-86624255D01*
X85584568Y-86624261D01*
X85994888Y-86773605D01*
X85994889Y-86773605D01*
X85994894Y-86773607D01*
X86127398Y-86809110D01*
X86416663Y-86886619D01*
X86846682Y-86962443D01*
X87281671Y-87000499D01*
X87281672Y-87000500D01*
X87281673Y-87000500D01*
X87718328Y-87000500D01*
X87718328Y-87000499D01*
X88153318Y-86962443D01*
X88583337Y-86886619D01*
X89005112Y-86773605D01*
X89415432Y-86624261D01*
X89811174Y-86439723D01*
X90189326Y-86221397D01*
X90547012Y-85970943D01*
X90881507Y-85690268D01*
X91190268Y-85381507D01*
X91470943Y-85047012D01*
X91721397Y-84689326D01*
X91939723Y-84311174D01*
X92124261Y-83915432D01*
X92273605Y-83505112D01*
X92386619Y-83083337D01*
X92462443Y-82653318D01*
X92500500Y-82218327D01*
X92500500Y-81781673D01*
X92462443Y-81346682D01*
X92386619Y-80916663D01*
X92273605Y-80494888D01*
X92124261Y-80084568D01*
X92057244Y-79940851D01*
X91939727Y-79688835D01*
X91939719Y-79688819D01*
X91926013Y-79665080D01*
X91721397Y-79310674D01*
X91721389Y-79310663D01*
X91721385Y-79310656D01*
X91470942Y-78952986D01*
X91190265Y-78618490D01*
X90881509Y-78309734D01*
X90547013Y-78029057D01*
X90189343Y-77778614D01*
X90189332Y-77778607D01*
X90189326Y-77778603D01*
X90076978Y-77713739D01*
X89811180Y-77560280D01*
X89811164Y-77560272D01*
X89415449Y-77375746D01*
X89415434Y-77375740D01*
X89415432Y-77375739D01*
X89261301Y-77319640D01*
X89005105Y-77226392D01*
X88583344Y-77113383D01*
X88583347Y-77113383D01*
X88583337Y-77113381D01*
X88583331Y-77113379D01*
X88583327Y-77113379D01*
X88153322Y-77037557D01*
X87718330Y-76999500D01*
X87718327Y-76999500D01*
X87281673Y-76999500D01*
X87281669Y-76999500D01*
X86846679Y-77037557D01*
X86846675Y-77037557D01*
X86416672Y-77113379D01*
X86416655Y-77113383D01*
X85994894Y-77226392D01*
X85584565Y-77375740D01*
X85584550Y-77375746D01*
X85188835Y-77560272D01*
X85188819Y-77560280D01*
X84810682Y-77778598D01*
X84810656Y-77778614D01*
X84452986Y-78029057D01*
X84118490Y-78309734D01*
X83809734Y-78618490D01*
X83529057Y-78952986D01*
X83278614Y-79310656D01*
X83278598Y-79310682D01*
X83060280Y-79688819D01*
X83060272Y-79688835D01*
X82875746Y-80084550D01*
X82875740Y-80084565D01*
X82726392Y-80494894D01*
X82613383Y-80916655D01*
X82613379Y-80916672D01*
X82537557Y-81346675D01*
X82537557Y-81346679D01*
X82499500Y-81781669D01*
X66498353Y-81781669D01*
X66461973Y-81412297D01*
X66385295Y-81026805D01*
X66385292Y-81026794D01*
X66385291Y-81026791D01*
X66385290Y-81026785D01*
X66271190Y-80650647D01*
X66120771Y-80287503D01*
X66108355Y-80264275D01*
X65935488Y-79940862D01*
X65935487Y-79940860D01*
X65935482Y-79940851D01*
X65717107Y-79614031D01*
X65467750Y-79310188D01*
X65467749Y-79310187D01*
X65467745Y-79310182D01*
X65189817Y-79032254D01*
X64885974Y-78782897D01*
X64885973Y-78782896D01*
X64885969Y-78782893D01*
X64559149Y-78564518D01*
X64559144Y-78564515D01*
X64559137Y-78564511D01*
X64212504Y-78379232D01*
X64212499Y-78379230D01*
X63849354Y-78228810D01*
X63473205Y-78114707D01*
X63473194Y-78114704D01*
X63087702Y-78038026D01*
X62793089Y-78009010D01*
X62696532Y-77999500D01*
X62303468Y-77999500D01*
X62214251Y-78008287D01*
X61912297Y-78038026D01*
X61526805Y-78114704D01*
X61526794Y-78114707D01*
X61150645Y-78228810D01*
X60787500Y-78379230D01*
X60787495Y-78379232D01*
X60440862Y-78564511D01*
X60440844Y-78564522D01*
X60114039Y-78782887D01*
X60114025Y-78782897D01*
X59810182Y-79032254D01*
X59532254Y-79310182D01*
X59282897Y-79614025D01*
X59282887Y-79614039D01*
X59064522Y-79940844D01*
X59064511Y-79940862D01*
X58879232Y-80287495D01*
X58879230Y-80287500D01*
X58728810Y-80650645D01*
X58614707Y-81026794D01*
X58614704Y-81026805D01*
X58538026Y-81412297D01*
X58508287Y-81714251D01*
X58500717Y-81791118D01*
X58499500Y-81803471D01*
X50500500Y-81803471D01*
X50500500Y-54303471D01*
X58499500Y-54303471D01*
X58499500Y-54696528D01*
X58538026Y-55087702D01*
X58614704Y-55473194D01*
X58614707Y-55473205D01*
X58728810Y-55849354D01*
X58879230Y-56212499D01*
X58879232Y-56212504D01*
X59064511Y-56559137D01*
X59064522Y-56559155D01*
X59282887Y-56885960D01*
X59282897Y-56885974D01*
X59532254Y-57189817D01*
X59810182Y-57467745D01*
X59810187Y-57467749D01*
X59810188Y-57467750D01*
X60114031Y-57717107D01*
X60440851Y-57935482D01*
X60440860Y-57935487D01*
X60440862Y-57935488D01*
X60787495Y-58120767D01*
X60787497Y-58120767D01*
X60787503Y-58120771D01*
X61150647Y-58271190D01*
X61526785Y-58385290D01*
X61526791Y-58385291D01*
X61526794Y-58385292D01*
X61526805Y-58385295D01*
X61883329Y-58456211D01*
X61912297Y-58461973D01*
X62303468Y-58500500D01*
X62303471Y-58500500D01*
X62696529Y-58500500D01*
X62696532Y-58500500D01*
X63087703Y-58461973D01*
X63162748Y-58447045D01*
X63473194Y-58385295D01*
X63473205Y-58385292D01*
X63473205Y-58385291D01*
X63473215Y-58385290D01*
X63849353Y-58271190D01*
X64212497Y-58120771D01*
X64559149Y-57935482D01*
X64885969Y-57717107D01*
X65189812Y-57467750D01*
X65467750Y-57189812D01*
X65717107Y-56885969D01*
X65935482Y-56559149D01*
X66120771Y-56212497D01*
X66271190Y-55849353D01*
X66385290Y-55473215D01*
X66385292Y-55473205D01*
X66385295Y-55473194D01*
X66461973Y-55087702D01*
X66500500Y-54696528D01*
X66500500Y-54303467D01*
X66499284Y-54291118D01*
X66498353Y-54281669D01*
X82499500Y-54281669D01*
X82499500Y-54718330D01*
X82537557Y-55153320D01*
X82537557Y-55153324D01*
X82613379Y-55583327D01*
X82613383Y-55583344D01*
X82726392Y-56005105D01*
X82875740Y-56415434D01*
X82875746Y-56415449D01*
X83060272Y-56811164D01*
X83060280Y-56811180D01*
X83213739Y-57076978D01*
X83278603Y-57189326D01*
X83278607Y-57189332D01*
X83278614Y-57189343D01*
X83529057Y-57547013D01*
X83671784Y-57717107D01*
X83809732Y-57881507D01*
X84118493Y-58190268D01*
X84208395Y-58265705D01*
X84452986Y-58470942D01*
X84810656Y-58721385D01*
X84810663Y-58721389D01*
X84810674Y-58721397D01*
X85188826Y-58939723D01*
X85188835Y-58939727D01*
X85584550Y-59124253D01*
X85584555Y-59124255D01*
X85584568Y-59124261D01*
X85994888Y-59273605D01*
X85994889Y-59273605D01*
X85994894Y-59273607D01*
X86127398Y-59309110D01*
X86416663Y-59386619D01*
X86846682Y-59462443D01*
X87281671Y-59500499D01*
X87281672Y-59500500D01*
X87281673Y-59500500D01*
X87718328Y-59500500D01*
X87718328Y-59500499D01*
X88153318Y-59462443D01*
X88583337Y-59386619D01*
X89005112Y-59273605D01*
X89415432Y-59124261D01*
X89811174Y-58939723D01*
X90189326Y-58721397D01*
X90547012Y-58470943D01*
X90881507Y-58190268D01*
X91190268Y-57881507D01*
X91470943Y-57547012D01*
X91721397Y-57189326D01*
X91939723Y-56811174D01*
X92124261Y-56415432D01*
X92273605Y-56005112D01*
X92386619Y-55583337D01*
X92462443Y-55153318D01*
X92500500Y-54718327D01*
X92500500Y-54281673D01*
X92462443Y-53846682D01*
X92386619Y-53416663D01*
X92273605Y-52994888D01*
X92124261Y-52584568D01*
X92057244Y-52440851D01*
X91939727Y-52188835D01*
X91939719Y-52188819D01*
X91926013Y-52165080D01*
X91721397Y-51810674D01*
X91721389Y-51810663D01*
X91721385Y-51810656D01*
X91470942Y-51452986D01*
X91190265Y-51118490D01*
X90881509Y-50809734D01*
X90547013Y-50529057D01*
X90189343Y-50278614D01*
X90189332Y-50278607D01*
X90189326Y-50278603D01*
X90076978Y-50213739D01*
X89811180Y-50060280D01*
X89811164Y-50060272D01*
X89415449Y-49875746D01*
X89415434Y-49875740D01*
X89415432Y-49875739D01*
X89261301Y-49819640D01*
X89005105Y-49726392D01*
X88583344Y-49613383D01*
X88583347Y-49613383D01*
X88583337Y-49613381D01*
X88583331Y-49613379D01*
X88583327Y-49613379D01*
X88153322Y-49537557D01*
X87718330Y-49499500D01*
X87718327Y-49499500D01*
X87281673Y-49499500D01*
X87281669Y-49499500D01*
X86846679Y-49537557D01*
X86846675Y-49537557D01*
X86416672Y-49613379D01*
X86416655Y-49613383D01*
X85994894Y-49726392D01*
X85584565Y-49875740D01*
X85584550Y-49875746D01*
X85188835Y-50060272D01*
X85188819Y-50060280D01*
X84810682Y-50278598D01*
X84810656Y-50278614D01*
X84452986Y-50529057D01*
X84118490Y-50809734D01*
X83809734Y-51118490D01*
X83529057Y-51452986D01*
X83278614Y-51810656D01*
X83278598Y-51810682D01*
X83060280Y-52188819D01*
X83060272Y-52188835D01*
X82875746Y-52584550D01*
X82875740Y-52584565D01*
X82726392Y-52994894D01*
X82613383Y-53416655D01*
X82613379Y-53416672D01*
X82537557Y-53846675D01*
X82537557Y-53846679D01*
X82499500Y-54281669D01*
X66498353Y-54281669D01*
X66461973Y-53912297D01*
X66385295Y-53526805D01*
X66385292Y-53526794D01*
X66385291Y-53526791D01*
X66385290Y-53526785D01*
X66271190Y-53150647D01*
X66120771Y-52787503D01*
X66108355Y-52764275D01*
X65935488Y-52440862D01*
X65935487Y-52440860D01*
X65935482Y-52440851D01*
X65717107Y-52114031D01*
X65467750Y-51810188D01*
X65467749Y-51810187D01*
X65467745Y-51810182D01*
X65189817Y-51532254D01*
X64885974Y-51282897D01*
X64885973Y-51282896D01*
X64885969Y-51282893D01*
X64559149Y-51064518D01*
X64559144Y-51064515D01*
X64559137Y-51064511D01*
X64212504Y-50879232D01*
X64212499Y-50879230D01*
X63849354Y-50728810D01*
X63473205Y-50614707D01*
X63473194Y-50614704D01*
X63087702Y-50538026D01*
X62793089Y-50509010D01*
X62696532Y-50499500D01*
X62303468Y-50499500D01*
X62214251Y-50508287D01*
X61912297Y-50538026D01*
X61526805Y-50614704D01*
X61526794Y-50614707D01*
X61150645Y-50728810D01*
X60787500Y-50879230D01*
X60787495Y-50879232D01*
X60440862Y-51064511D01*
X60440844Y-51064522D01*
X60114039Y-51282887D01*
X60114025Y-51282897D01*
X59810182Y-51532254D01*
X59532254Y-51810182D01*
X59282897Y-52114025D01*
X59282887Y-52114039D01*
X59064522Y-52440844D01*
X59064511Y-52440862D01*
X58879232Y-52787495D01*
X58879230Y-52787500D01*
X58728810Y-53150645D01*
X58614707Y-53526794D01*
X58614704Y-53526805D01*
X58538026Y-53912297D01*
X58508287Y-54214251D01*
X58500717Y-54291118D01*
X58499500Y-54303471D01*
X50500500Y-54303471D01*
X50500500Y-30624500D01*
X50520185Y-30557461D01*
X50572989Y-30511706D01*
X50624500Y-30500500D01*
X99375500Y-30500500D01*
X99442539Y-30520185D01*
G37*
%TD.AperFunction*%
%TD*%
M02*
