%TF.GenerationSoftware,KiCad,Pcbnew,9.0.4*%
%TF.CreationDate,2025-10-04T20:18:46+02:00*%
%TF.ProjectId,DMH_VCA_Bank_PANEL,444d485f-5643-4415-9f42-616e6b5f5041,rev?*%
%TF.SameCoordinates,Original*%
%TF.FileFunction,Soldermask,Bot*%
%TF.FilePolarity,Negative*%
%FSLAX46Y46*%
G04 Gerber Fmt 4.6, Leading zero omitted, Abs format (unit mm)*
G04 Created by KiCad (PCBNEW 9.0.4) date 2025-10-04 20:18:46*
%MOMM*%
%LPD*%
G01*
G04 APERTURE LIST*
%ADD10C,0.500000*%
%ADD11C,12.000000*%
%ADD12C,4.000000*%
%ADD13O,2.500000X1.500000*%
%ADD14R,5.000000X10.000000*%
G04 APERTURE END LIST*
D10*
%TO.C,H14*%
X52800000Y-192250000D03*
X54460000Y-188220000D03*
X54470000Y-196290000D03*
X58500000Y-186550000D03*
D11*
X58500000Y-192250000D03*
D10*
X58500000Y-197950000D03*
X62530000Y-196290000D03*
X62540000Y-188220000D03*
X64200000Y-192250000D03*
%TD*%
D12*
%TO.C,H3*%
X53500000Y-226500000D03*
%TD*%
D10*
%TO.C,H23*%
X85800000Y-192250000D03*
X87460000Y-188220000D03*
X87470000Y-196290000D03*
X91500000Y-186550000D03*
D11*
X91500000Y-192250000D03*
D10*
X91500000Y-197950000D03*
X95530000Y-196290000D03*
X95540000Y-188220000D03*
X97200000Y-192250000D03*
%TD*%
%TO.C,H22*%
X69300000Y-208750000D03*
X70960000Y-204720000D03*
X70970000Y-212790000D03*
X75000000Y-203050000D03*
D11*
X75000000Y-208750000D03*
D10*
X75000000Y-214450000D03*
X79030000Y-212790000D03*
X79040000Y-204720000D03*
X80700000Y-208750000D03*
%TD*%
D11*
%TO.C,H5*%
X62500000Y-54500000D03*
D13*
X62500000Y-60500000D03*
%TD*%
D10*
%TO.C,H18*%
X69300000Y-192250000D03*
X70960000Y-188220000D03*
X70970000Y-196290000D03*
X75000000Y-186550000D03*
D11*
X75000000Y-192250000D03*
D10*
X75000000Y-197950000D03*
X79030000Y-196290000D03*
X79040000Y-188220000D03*
X80700000Y-192250000D03*
%TD*%
%TO.C,H9*%
X69300000Y-159250000D03*
X70960000Y-155220000D03*
X70970000Y-163290000D03*
X75000000Y-153550000D03*
D11*
X75000000Y-159250000D03*
D10*
X75000000Y-164950000D03*
X79030000Y-163290000D03*
X79040000Y-155220000D03*
X80700000Y-159250000D03*
%TD*%
D11*
%TO.C,H19*%
X62500000Y-137000000D03*
D13*
X62500000Y-143000000D03*
%TD*%
D10*
%TO.C,H11*%
X85800000Y-159250000D03*
X87460000Y-155220000D03*
X87470000Y-163290000D03*
X91500000Y-153550000D03*
D11*
X91500000Y-159250000D03*
D10*
X91500000Y-164950000D03*
X95530000Y-163290000D03*
X95540000Y-155220000D03*
X97200000Y-159250000D03*
%TD*%
%TO.C,H17*%
X69300000Y-175750000D03*
X70960000Y-171720000D03*
X70970000Y-179790000D03*
X75000000Y-170050000D03*
D11*
X75000000Y-175750000D03*
D10*
X75000000Y-181450000D03*
X79030000Y-179790000D03*
X79040000Y-171720000D03*
X80700000Y-175750000D03*
%TD*%
%TO.C,H21*%
X52800000Y-208750000D03*
X54460000Y-204720000D03*
X54470000Y-212790000D03*
X58500000Y-203050000D03*
D11*
X58500000Y-208750000D03*
D10*
X58500000Y-214450000D03*
X62530000Y-212790000D03*
X62540000Y-204720000D03*
X64200000Y-208750000D03*
%TD*%
%TO.C,H24*%
X85800000Y-208750000D03*
X87460000Y-204720000D03*
X87470000Y-212790000D03*
X91500000Y-203050000D03*
D11*
X91500000Y-208750000D03*
D10*
X91500000Y-214450000D03*
X95530000Y-212790000D03*
X95540000Y-204720000D03*
X97200000Y-208750000D03*
%TD*%
%TO.C,H15*%
X52800000Y-175750000D03*
X54460000Y-171720000D03*
X54470000Y-179790000D03*
X58500000Y-170050000D03*
D11*
X58500000Y-175750000D03*
D10*
X58500000Y-181450000D03*
X62530000Y-179790000D03*
X62540000Y-171720000D03*
X64200000Y-175750000D03*
%TD*%
D11*
%TO.C,H12*%
X62500000Y-82000000D03*
D13*
X62500000Y-88000000D03*
%TD*%
D11*
%TO.C,H7*%
X62500000Y-109500000D03*
D13*
X62500000Y-115500000D03*
%TD*%
D12*
%TO.C,H2*%
X96500000Y-33500000D03*
%TD*%
%TO.C,H4*%
X96500000Y-226500000D03*
%TD*%
D10*
%TO.C,H8*%
X52800000Y-159250000D03*
X54460000Y-155220000D03*
X54470000Y-163290000D03*
X58500000Y-153550000D03*
D11*
X58500000Y-159250000D03*
D10*
X58500000Y-164950000D03*
X62530000Y-163290000D03*
X62540000Y-155220000D03*
X64200000Y-159250000D03*
%TD*%
D11*
%TO.C,H20*%
X87500000Y-137000000D03*
%TD*%
%TO.C,H6*%
X87500000Y-54500000D03*
%TD*%
%TO.C,H13*%
X87500000Y-82000000D03*
%TD*%
D12*
%TO.C,H1*%
X53500000Y-33500000D03*
%TD*%
D11*
%TO.C,H10*%
X87500000Y-109500000D03*
%TD*%
D10*
%TO.C,H16*%
X85800000Y-175750000D03*
X87460000Y-171720000D03*
X87470000Y-179790000D03*
X91500000Y-170050000D03*
D11*
X91500000Y-175750000D03*
D10*
X91500000Y-181450000D03*
X95530000Y-179790000D03*
X95540000Y-171720000D03*
X97200000Y-175750000D03*
%TD*%
D14*
%TO.C,J0*%
X95000000Y-125000000D03*
%TD*%
M02*
