%TF.GenerationSoftware,KiCad,Pcbnew,9.0.4*%
%TF.CreationDate,2025-10-04T20:18:46+02:00*%
%TF.ProjectId,DMH_VCA_Bank_PANEL,444d485f-5643-4415-9f42-616e6b5f5041,rev?*%
%TF.SameCoordinates,Original*%
%TF.FileFunction,Legend,Top*%
%TF.FilePolarity,Positive*%
%FSLAX46Y46*%
G04 Gerber Fmt 4.6, Leading zero omitted, Abs format (unit mm)*
G04 Created by KiCad (PCBNEW 9.0.4) date 2025-10-04 20:18:46*
%MOMM*%
%LPD*%
G01*
G04 APERTURE LIST*
%ADD10C,0.800000*%
%ADD11C,0.875000*%
%ADD12C,0.150000*%
%ADD13C,0.000000*%
%ADD14C,0.500000*%
%ADD15C,0.500000*%
%ADD16C,12.000000*%
%ADD17C,4.000000*%
%ADD18O,2.500000X1.500000*%
G04 APERTURE END LIST*
D10*
G36*
X63648570Y-38839016D02*
G01*
X63794353Y-39122984D01*
X63959816Y-39373672D01*
X64132303Y-39577694D01*
X64322862Y-39753342D01*
X64524506Y-39896302D01*
X64743865Y-40013279D01*
X65240116Y-40170779D01*
X65843824Y-40226315D01*
X66178355Y-40210627D01*
X66486496Y-40163337D01*
X66748894Y-40091171D01*
X66990389Y-39991411D01*
X67203469Y-39869327D01*
X67398710Y-39721286D01*
X67739744Y-39344695D01*
X68027355Y-38839016D01*
X70737963Y-32840411D01*
X70861061Y-32504333D01*
X68497767Y-32504333D01*
X68408374Y-32773000D01*
X66168179Y-37999309D01*
X66098945Y-38119832D01*
X66018246Y-38193425D01*
X65854571Y-38234270D01*
X65745722Y-38217896D01*
X65647979Y-38165801D01*
X65530217Y-37999309D01*
X63267551Y-32773000D01*
X63189393Y-32504333D01*
X60792394Y-32504333D01*
X60915492Y-32840411D01*
X63648570Y-38839016D01*
G37*
G36*
X78515632Y-38076489D02*
G01*
X74551082Y-38076489D01*
X74238813Y-38061173D01*
X73957777Y-38016485D01*
X73713366Y-37946842D01*
X73495257Y-37853056D01*
X73131745Y-37599887D01*
X73027983Y-37495191D01*
X72880884Y-37314063D01*
X72758326Y-37113620D01*
X72663090Y-36897664D01*
X72596965Y-36668114D01*
X72557572Y-36298401D01*
X72617675Y-35839522D01*
X72795679Y-35407933D01*
X72926223Y-35212281D01*
X73080994Y-35036515D01*
X73117376Y-35001472D01*
X73310208Y-34845054D01*
X73530034Y-34714905D01*
X73749126Y-34625009D01*
X73997570Y-34559525D01*
X74551082Y-34509567D01*
X78515632Y-34509567D01*
X78515632Y-32504333D01*
X74551082Y-32504333D01*
X74135563Y-32519731D01*
X73745022Y-32564991D01*
X73382202Y-32637849D01*
X73042396Y-32737247D01*
X72723728Y-32862337D01*
X72426768Y-33011420D01*
X71884644Y-33384657D01*
X71751082Y-33501332D01*
X71288930Y-34014118D01*
X71094042Y-34300285D01*
X70925293Y-34604164D01*
X70785750Y-34920325D01*
X70674919Y-35250473D01*
X70595627Y-35586247D01*
X70546945Y-35932325D01*
X70530356Y-36287655D01*
X70591078Y-36977622D01*
X70770515Y-37635040D01*
X71063227Y-38244697D01*
X71460538Y-38788711D01*
X71504885Y-38838039D01*
X71747993Y-39081385D01*
X72014068Y-39301548D01*
X72292157Y-39490111D01*
X72592333Y-39654543D01*
X72907450Y-39790681D01*
X73244434Y-39901294D01*
X73600788Y-39984615D01*
X73979415Y-40040409D01*
X74551082Y-40070000D01*
X78515632Y-40070000D01*
X78515632Y-38076489D01*
G37*
G36*
X84740360Y-32372322D02*
G01*
X85233641Y-32531552D01*
X85453141Y-32650281D01*
X85655152Y-32795272D01*
X85846684Y-32973631D01*
X86020183Y-33180534D01*
X86186653Y-33434270D01*
X86333357Y-33721151D01*
X89065946Y-39734410D01*
X89189044Y-40070000D01*
X86904397Y-40070000D01*
X86815520Y-39814911D01*
X86814515Y-39812568D01*
X86411515Y-38894214D01*
X81931612Y-38894214D01*
X81539847Y-39801332D01*
X81539029Y-39803513D01*
X81461200Y-40070000D01*
X79120377Y-40070000D01*
X79243475Y-39734410D01*
X80374620Y-37225059D01*
X82670691Y-37225059D01*
X85672436Y-37225059D01*
X84507397Y-34507124D01*
X84383319Y-34339506D01*
X84278173Y-34287542D01*
X84160572Y-34271186D01*
X84142955Y-34271514D01*
X83964403Y-34326253D01*
X83888062Y-34398134D01*
X83824494Y-34507124D01*
X82670691Y-37225059D01*
X80374620Y-37225059D01*
X81954083Y-33721151D01*
X82252465Y-33197366D01*
X82595413Y-32821092D01*
X82791321Y-32673241D01*
X83005212Y-32551142D01*
X83246803Y-32451603D01*
X83509383Y-32379497D01*
X83816208Y-32332413D01*
X84149337Y-32316755D01*
X84740360Y-32372322D01*
G37*
D11*
G36*
X68790131Y-223893568D02*
G01*
X68965818Y-223905313D01*
X69130926Y-223929624D01*
X69286797Y-223966196D01*
X69432595Y-224014298D01*
X69572019Y-224074980D01*
X69701542Y-224146500D01*
X69827061Y-224232387D01*
X69942494Y-224328709D01*
X70064152Y-224453742D01*
X70241250Y-224696849D01*
X70370975Y-224965618D01*
X70449984Y-225251559D01*
X70476562Y-225547725D01*
X70476508Y-225561527D01*
X70468272Y-225717379D01*
X70446468Y-225868689D01*
X70410991Y-226017389D01*
X70362774Y-226160071D01*
X70301668Y-226297700D01*
X70228876Y-226427799D01*
X70144735Y-226550146D01*
X70050205Y-226663518D01*
X69891035Y-226815963D01*
X69653264Y-226979464D01*
X69522056Y-227045113D01*
X69381519Y-227100070D01*
X69231306Y-227143855D01*
X69071408Y-227175872D01*
X68899582Y-227195753D01*
X68717494Y-227202501D01*
X68212705Y-227202501D01*
X67962601Y-227189555D01*
X67796952Y-227165145D01*
X67641047Y-227128692D01*
X67493617Y-227080298D01*
X67355753Y-227020738D01*
X67224426Y-226948799D01*
X67102762Y-226866303D01*
X66986354Y-226769982D01*
X66879994Y-226663518D01*
X66860593Y-226641937D01*
X66686769Y-226403931D01*
X66558708Y-226137206D01*
X66480204Y-225849585D01*
X66454052Y-225552426D01*
X67340545Y-225552426D01*
X67357779Y-225714176D01*
X67386709Y-225814604D01*
X67428375Y-225909085D01*
X67481994Y-225996778D01*
X67546350Y-226076022D01*
X67591746Y-226121826D01*
X67750782Y-226232588D01*
X67846205Y-226273619D01*
X67953134Y-226304088D01*
X68076088Y-226323639D01*
X68212705Y-226330340D01*
X68717494Y-226330340D01*
X68798207Y-226328080D01*
X68922794Y-226314520D01*
X69034979Y-226289369D01*
X69136461Y-226252921D01*
X69226627Y-226206164D01*
X69310836Y-226146018D01*
X69383850Y-226076022D01*
X69485993Y-225937830D01*
X69563469Y-225751199D01*
X69589655Y-225552426D01*
X69589508Y-225537276D01*
X69580310Y-225432109D01*
X69557447Y-225330683D01*
X69521220Y-225232955D01*
X69472765Y-225141642D01*
X69344527Y-224985020D01*
X69334732Y-224976058D01*
X69176334Y-224865872D01*
X69084082Y-224825831D01*
X68979770Y-224795924D01*
X68856963Y-224776495D01*
X68717494Y-224769811D01*
X68212705Y-224769811D01*
X67970544Y-224791668D01*
X67861850Y-224820317D01*
X67765997Y-224859647D01*
X67669823Y-224916587D01*
X67585459Y-224985020D01*
X67569542Y-225000351D01*
X67501830Y-225077249D01*
X67444717Y-225162847D01*
X67366840Y-225351667D01*
X67340545Y-225552426D01*
X66454052Y-225552426D01*
X66453638Y-225547725D01*
X66460895Y-225392268D01*
X66482194Y-225240859D01*
X66516884Y-225093958D01*
X66565373Y-224949518D01*
X66626423Y-224811198D01*
X66700250Y-224678250D01*
X66785514Y-224553052D01*
X66987705Y-224328709D01*
X67046139Y-224277663D01*
X67283318Y-224114372D01*
X67413238Y-224049148D01*
X67552655Y-223994421D01*
X67701320Y-223950934D01*
X67860054Y-223919059D01*
X68030916Y-223899258D01*
X68212705Y-223892521D01*
X68717494Y-223892521D01*
X68790131Y-223893568D01*
G37*
G36*
X73134932Y-224769811D02*
G01*
X73176442Y-224776100D01*
X73203269Y-224792764D01*
X73222981Y-224848030D01*
X73217558Y-224885991D01*
X73193702Y-224931164D01*
X71684465Y-227065511D01*
X71610948Y-227202501D01*
X72728237Y-227202501D01*
X72796838Y-227075342D01*
X74163957Y-225068368D01*
X74251474Y-224928017D01*
X74308376Y-224810696D01*
X74338367Y-224719137D01*
X74352382Y-224636736D01*
X74355016Y-224578539D01*
X74328715Y-224387559D01*
X74251948Y-224214802D01*
X74183405Y-224122904D01*
X74116102Y-224055576D01*
X74037997Y-223998493D01*
X73954476Y-223955232D01*
X73860282Y-223922640D01*
X73756231Y-223901726D01*
X73640640Y-223892799D01*
X73615144Y-223892521D01*
X70601584Y-223892521D01*
X70601584Y-224769811D01*
X73134932Y-224769811D01*
G37*
G36*
X77260426Y-223828064D02*
G01*
X77433292Y-223888441D01*
X77572244Y-223987196D01*
X77671381Y-224117778D01*
X77709049Y-224202448D01*
X77737683Y-224302834D01*
X77756681Y-224426199D01*
X77763303Y-224570631D01*
X77763303Y-227202501D01*
X76871694Y-227202501D01*
X76871694Y-226737462D01*
X74563813Y-226737462D01*
X74372442Y-226722776D01*
X74277632Y-226700163D01*
X74197777Y-226668128D01*
X74126710Y-226624079D01*
X74068855Y-226570980D01*
X74050541Y-226549055D01*
X74006210Y-226479508D01*
X73974330Y-226401676D01*
X73953309Y-226308392D01*
X73946398Y-226208310D01*
X73946562Y-226194495D01*
X73972401Y-226046061D01*
X74003305Y-225975504D01*
X74046012Y-225909540D01*
X75303686Y-225909540D01*
X75312332Y-225940532D01*
X75330394Y-225957118D01*
X75357541Y-225963395D01*
X76871694Y-225963395D01*
X76871694Y-224938430D01*
X76865386Y-224897322D01*
X76848999Y-224866992D01*
X76798177Y-224840336D01*
X76760724Y-224845866D01*
X76719745Y-224869829D01*
X75337880Y-225855471D01*
X75335241Y-225857104D01*
X75311050Y-225879776D01*
X75303686Y-225909540D01*
X74046012Y-225909540D01*
X74049194Y-225904625D01*
X74067847Y-225880839D01*
X74144632Y-225801888D01*
X74269745Y-225703521D01*
X76626566Y-223977365D01*
X76697675Y-223928482D01*
X76879206Y-223841011D01*
X76980870Y-223817695D01*
X77087117Y-223810456D01*
X77260426Y-223828064D01*
G37*
G36*
X78153756Y-225834741D02*
G01*
X79486680Y-225834741D01*
X79486680Y-225271394D01*
X78153756Y-225271394D01*
X78153756Y-225834741D01*
G37*
G36*
X82981082Y-223828064D02*
G01*
X83153948Y-223888441D01*
X83292900Y-223987196D01*
X83392037Y-224117778D01*
X83429705Y-224202448D01*
X83458339Y-224302834D01*
X83477337Y-224426199D01*
X83483959Y-224570631D01*
X83483959Y-227202501D01*
X82592350Y-227202501D01*
X82592350Y-226737462D01*
X80284469Y-226737462D01*
X80093098Y-226722776D01*
X79998288Y-226700163D01*
X79918433Y-226668128D01*
X79847366Y-226624079D01*
X79789511Y-226570980D01*
X79771197Y-226549055D01*
X79726866Y-226479508D01*
X79694986Y-226401676D01*
X79673965Y-226308392D01*
X79667054Y-226208310D01*
X79667218Y-226194495D01*
X79693057Y-226046061D01*
X79723961Y-225975504D01*
X79766668Y-225909540D01*
X81024342Y-225909540D01*
X81032988Y-225940532D01*
X81051050Y-225957118D01*
X81078197Y-225963395D01*
X82592350Y-225963395D01*
X82592350Y-224938430D01*
X82586042Y-224897322D01*
X82569655Y-224866992D01*
X82518833Y-224840336D01*
X82481380Y-224845866D01*
X82440401Y-224869829D01*
X81058536Y-225855471D01*
X81055897Y-225857104D01*
X81031706Y-225879776D01*
X81024342Y-225909540D01*
X79766668Y-225909540D01*
X79769850Y-225904625D01*
X79788503Y-225880839D01*
X79865288Y-225801888D01*
X79990401Y-225703521D01*
X82347222Y-223977365D01*
X82418331Y-223928482D01*
X82599862Y-223841011D01*
X82701526Y-223817695D01*
X82807773Y-223810456D01*
X82981082Y-223828064D01*
G37*
D12*
G36*
X55271231Y-199438583D02*
G01*
X55271231Y-201330000D01*
X55780844Y-201330000D01*
X55780844Y-199438583D01*
X55271231Y-199438583D01*
G37*
G36*
X58412805Y-199438583D02*
G01*
X57917236Y-199438583D01*
X57917236Y-200661385D01*
X57913573Y-200685490D01*
X57903557Y-200701795D01*
X57878035Y-200711699D01*
X57853168Y-200707852D01*
X57830408Y-200689351D01*
X56906437Y-199584152D01*
X56853139Y-199524903D01*
X56799096Y-199477972D01*
X56750460Y-199446457D01*
X56699135Y-199422763D01*
X56585836Y-199396323D01*
X56497697Y-199391688D01*
X56420650Y-199395687D01*
X56348916Y-199408050D01*
X56290805Y-199426278D01*
X56237930Y-199451778D01*
X56194955Y-199481497D01*
X56157108Y-199517778D01*
X56126276Y-199558554D01*
X56100757Y-199605736D01*
X56067087Y-199719745D01*
X56058060Y-199834989D01*
X56058060Y-201330000D01*
X56556437Y-201330000D01*
X56556437Y-200045282D01*
X56560069Y-200023526D01*
X56569860Y-200007092D01*
X56602719Y-199992056D01*
X56604065Y-199992037D01*
X56622769Y-199995945D01*
X56639869Y-200007669D01*
X56648883Y-200017316D01*
X57687648Y-201220701D01*
X57728641Y-201262155D01*
X57773675Y-201296419D01*
X57874541Y-201343814D01*
X57997967Y-201366861D01*
X58057187Y-201369078D01*
X58114272Y-201365120D01*
X58169378Y-201353044D01*
X58218178Y-201334140D01*
X58263457Y-201307626D01*
X58301821Y-201275753D01*
X58335648Y-201236818D01*
X58363127Y-201192745D01*
X58385181Y-201141839D01*
X58401020Y-201084740D01*
X58410381Y-201020646D01*
X58412805Y-200963513D01*
X58412805Y-199438583D01*
G37*
G36*
X61773465Y-200831622D02*
G01*
X60782327Y-200831622D01*
X60704260Y-200827793D01*
X60634001Y-200816621D01*
X60572898Y-200799210D01*
X60518371Y-200775764D01*
X60427493Y-200712471D01*
X60401552Y-200686297D01*
X60364778Y-200641015D01*
X60334138Y-200590905D01*
X60310329Y-200536916D01*
X60293798Y-200479528D01*
X60283950Y-200387100D01*
X60298975Y-200272380D01*
X60343476Y-200164483D01*
X60376112Y-200115570D01*
X60414805Y-200071628D01*
X60423901Y-200062868D01*
X60472109Y-200023763D01*
X60527065Y-199991226D01*
X60581838Y-199968752D01*
X60643949Y-199952381D01*
X60782327Y-199939891D01*
X61773465Y-199939891D01*
X61773465Y-199438583D01*
X60782327Y-199438583D01*
X60678447Y-199442432D01*
X60580812Y-199453747D01*
X60490107Y-199471962D01*
X60405156Y-199496811D01*
X60325489Y-199528084D01*
X60251249Y-199565355D01*
X60115718Y-199658664D01*
X60082327Y-199687833D01*
X59966789Y-199816029D01*
X59918067Y-199887571D01*
X59875880Y-199963541D01*
X59840994Y-200042581D01*
X59813286Y-200125118D01*
X59793463Y-200209061D01*
X59781293Y-200295581D01*
X59777146Y-200384413D01*
X59792326Y-200556905D01*
X59837185Y-200721260D01*
X59910363Y-200873674D01*
X60009691Y-201009677D01*
X60020778Y-201022009D01*
X60081555Y-201082846D01*
X60148074Y-201137887D01*
X60217596Y-201185027D01*
X60292640Y-201226135D01*
X60371419Y-201260170D01*
X60455665Y-201287823D01*
X60544754Y-201308653D01*
X60639410Y-201322602D01*
X60782327Y-201330000D01*
X61773465Y-201330000D01*
X61773465Y-200831622D01*
G37*
G36*
X87719716Y-199439181D02*
G01*
X87820109Y-199445892D01*
X87914456Y-199459784D01*
X88003525Y-199480683D01*
X88086838Y-199508169D01*
X88166510Y-199542845D01*
X88240523Y-199583713D01*
X88312248Y-199632792D01*
X88378210Y-199687833D01*
X88447728Y-199759281D01*
X88548927Y-199898198D01*
X88623056Y-200051781D01*
X88668204Y-200215176D01*
X88683391Y-200384413D01*
X88683360Y-200392301D01*
X88678654Y-200481359D01*
X88666194Y-200567822D01*
X88645922Y-200652793D01*
X88618370Y-200734326D01*
X88583452Y-200812971D01*
X88541857Y-200887313D01*
X88493776Y-200957226D01*
X88439759Y-201022009D01*
X88348819Y-201109144D01*
X88212989Y-201202550D01*
X88138010Y-201240063D01*
X88057695Y-201271466D01*
X87971845Y-201296487D01*
X87880459Y-201314783D01*
X87782264Y-201326144D01*
X87678210Y-201330000D01*
X87280582Y-201330000D01*
X87137666Y-201322602D01*
X87043009Y-201308653D01*
X86953920Y-201287823D01*
X86869674Y-201260170D01*
X86790895Y-201226135D01*
X86715851Y-201185027D01*
X86646329Y-201137887D01*
X86579810Y-201082846D01*
X86519033Y-201022009D01*
X86507946Y-201009677D01*
X86408619Y-200873674D01*
X86335441Y-200721260D01*
X86290581Y-200556905D01*
X86275637Y-200387100D01*
X86782205Y-200387100D01*
X86792053Y-200479528D01*
X86808584Y-200536916D01*
X86832393Y-200590905D01*
X86863033Y-200641015D01*
X86899808Y-200686297D01*
X86925748Y-200712471D01*
X87016626Y-200775764D01*
X87071153Y-200799210D01*
X87132256Y-200816621D01*
X87202515Y-200827793D01*
X87280582Y-200831622D01*
X87678210Y-200831622D01*
X87724331Y-200830330D01*
X87795524Y-200822582D01*
X87859629Y-200808210D01*
X87917619Y-200787383D01*
X87969143Y-200760665D01*
X88017262Y-200726295D01*
X88058984Y-200686297D01*
X88117352Y-200607330D01*
X88161624Y-200500684D01*
X88176587Y-200387100D01*
X88176508Y-200378682D01*
X88171281Y-200318558D01*
X88158241Y-200260570D01*
X88137556Y-200204675D01*
X88109882Y-200152450D01*
X88036636Y-200062868D01*
X88031038Y-200057747D01*
X87940504Y-199994790D01*
X87887755Y-199971905D01*
X87828113Y-199954813D01*
X87757915Y-199943710D01*
X87678210Y-199939891D01*
X87280582Y-199939891D01*
X87142204Y-199952381D01*
X87080093Y-199968752D01*
X87025320Y-199991226D01*
X86970364Y-200023763D01*
X86922156Y-200062868D01*
X86913060Y-200071628D01*
X86874368Y-200115570D01*
X86841732Y-200164483D01*
X86797231Y-200272380D01*
X86782205Y-200387100D01*
X86275637Y-200387100D01*
X86275401Y-200384413D01*
X86279548Y-200295581D01*
X86291719Y-200209061D01*
X86311541Y-200125118D01*
X86339249Y-200042581D01*
X86374135Y-199963541D01*
X86416322Y-199887571D01*
X86465044Y-199816029D01*
X86580582Y-199687833D01*
X86613973Y-199658664D01*
X86749504Y-199565355D01*
X86823744Y-199528084D01*
X86903411Y-199496811D01*
X86988362Y-199471962D01*
X87079067Y-199453747D01*
X87176703Y-199442432D01*
X87280582Y-199438583D01*
X87678210Y-199438583D01*
X87719716Y-199439181D01*
G37*
G36*
X90426674Y-201330000D02*
G01*
X90541371Y-201326056D01*
X90644044Y-201314083D01*
X90724944Y-201296682D01*
X90797021Y-201272716D01*
X90855187Y-201245062D01*
X90906438Y-201211734D01*
X90948869Y-201174741D01*
X90985399Y-201132440D01*
X91041370Y-201031636D01*
X91076899Y-200901795D01*
X91090282Y-200725376D01*
X91090282Y-199438583D01*
X90580670Y-199438583D01*
X90580670Y-200669445D01*
X90576753Y-200717883D01*
X90564966Y-200758305D01*
X90548329Y-200786991D01*
X90525696Y-200809866D01*
X90464138Y-200838151D01*
X90393091Y-200845666D01*
X89606263Y-200845666D01*
X89554616Y-200841758D01*
X89511989Y-200830034D01*
X89482310Y-200813681D01*
X89458940Y-200791536D01*
X89431045Y-200732498D01*
X89424302Y-200669445D01*
X89424302Y-199438583D01*
X88914689Y-199438583D01*
X88914689Y-200725376D01*
X88918655Y-200826061D01*
X88930788Y-200916921D01*
X88948426Y-200988680D01*
X88972850Y-201053176D01*
X89001318Y-201105901D01*
X89035835Y-201152775D01*
X89074861Y-201192396D01*
X89119797Y-201226808D01*
X89229589Y-201280936D01*
X89374509Y-201316238D01*
X89578297Y-201330000D01*
X90426674Y-201330000D01*
G37*
G36*
X91274563Y-199438583D02*
G01*
X91274563Y-199939891D01*
X92106210Y-199939891D01*
X92106210Y-201330000D01*
X92615701Y-201330000D01*
X92615701Y-199939891D01*
X93444539Y-199939891D01*
X93444539Y-199438583D01*
X91274563Y-199438583D01*
G37*
G36*
X96724476Y-200831622D02*
G01*
X95733339Y-200831622D01*
X95655272Y-200827793D01*
X95585013Y-200816621D01*
X95523910Y-200799210D01*
X95469383Y-200775764D01*
X95378505Y-200712471D01*
X95352564Y-200686297D01*
X95315789Y-200641015D01*
X95285150Y-200590905D01*
X95261341Y-200536916D01*
X95244810Y-200479528D01*
X95234961Y-200387100D01*
X95249987Y-200272380D01*
X95294488Y-200164483D01*
X95327124Y-200115570D01*
X95365817Y-200071628D01*
X95374912Y-200062868D01*
X95423120Y-200023763D01*
X95478077Y-199991226D01*
X95532850Y-199968752D01*
X95594961Y-199952381D01*
X95733339Y-199939891D01*
X96724476Y-199939891D01*
X96724476Y-199438583D01*
X95733339Y-199438583D01*
X95629459Y-199442432D01*
X95531824Y-199453747D01*
X95441119Y-199471962D01*
X95356167Y-199496811D01*
X95276500Y-199528084D01*
X95202260Y-199565355D01*
X95066729Y-199658664D01*
X95033339Y-199687833D01*
X94917801Y-199816029D01*
X94869079Y-199887571D01*
X94826891Y-199963541D01*
X94792006Y-200042581D01*
X94764298Y-200125118D01*
X94744475Y-200209061D01*
X94732305Y-200295581D01*
X94728157Y-200384413D01*
X94743338Y-200556905D01*
X94788197Y-200721260D01*
X94861375Y-200873674D01*
X94960703Y-201009677D01*
X94971790Y-201022009D01*
X95032566Y-201082846D01*
X95099085Y-201137887D01*
X95168607Y-201185027D01*
X95243652Y-201226135D01*
X95322431Y-201260170D01*
X95406677Y-201287823D01*
X95495765Y-201308653D01*
X95590422Y-201322602D01*
X95733339Y-201330000D01*
X96724476Y-201330000D01*
X96724476Y-200831622D01*
G37*
G36*
X72923570Y-217331622D02*
G01*
X71932432Y-217331622D01*
X71854365Y-217327793D01*
X71784106Y-217316621D01*
X71723003Y-217299210D01*
X71668476Y-217275764D01*
X71577598Y-217212471D01*
X71551658Y-217186297D01*
X71514883Y-217141015D01*
X71484243Y-217090905D01*
X71460434Y-217036916D01*
X71443903Y-216979528D01*
X71434055Y-216887100D01*
X71449081Y-216772380D01*
X71493582Y-216664483D01*
X71526218Y-216615570D01*
X71564910Y-216571628D01*
X71574006Y-216562868D01*
X71622214Y-216523763D01*
X71677170Y-216491226D01*
X71731943Y-216468752D01*
X71794054Y-216452381D01*
X71932432Y-216439891D01*
X72923570Y-216439891D01*
X72923570Y-215938583D01*
X71932432Y-215938583D01*
X71828553Y-215942432D01*
X71730917Y-215953747D01*
X71640212Y-215971962D01*
X71555261Y-215996811D01*
X71475594Y-216028084D01*
X71401354Y-216065355D01*
X71265823Y-216158664D01*
X71232432Y-216187833D01*
X71116894Y-216316029D01*
X71068172Y-216387571D01*
X71025985Y-216463541D01*
X70991099Y-216542581D01*
X70963391Y-216625118D01*
X70943569Y-216709061D01*
X70931398Y-216795581D01*
X70927251Y-216884413D01*
X70942431Y-217056905D01*
X70987291Y-217221260D01*
X71060469Y-217373674D01*
X71159796Y-217509677D01*
X71170883Y-217522009D01*
X71231660Y-217582846D01*
X71298179Y-217637887D01*
X71367701Y-217685027D01*
X71442745Y-217726135D01*
X71521524Y-217760170D01*
X71605770Y-217787823D01*
X71694859Y-217808653D01*
X71789516Y-217822602D01*
X71932432Y-217830000D01*
X72923570Y-217830000D01*
X72923570Y-217331622D01*
G37*
G36*
X73788800Y-217522254D02*
G01*
X73825246Y-217593246D01*
X73866612Y-217655918D01*
X73909733Y-217706923D01*
X73957373Y-217750835D01*
X74007784Y-217786575D01*
X74062624Y-217815819D01*
X74186687Y-217855194D01*
X74337614Y-217869078D01*
X74421246Y-217865156D01*
X74498282Y-217853334D01*
X74563881Y-217835292D01*
X74624255Y-217810352D01*
X74677525Y-217779831D01*
X74726335Y-217742821D01*
X74811594Y-217648673D01*
X74883497Y-217522254D01*
X75561148Y-216022602D01*
X75591923Y-215938583D01*
X75001099Y-215938583D01*
X74978751Y-216005750D01*
X74418702Y-217312327D01*
X74401394Y-217342458D01*
X74381219Y-217360856D01*
X74340300Y-217371067D01*
X74313088Y-217366974D01*
X74288652Y-217353950D01*
X74259212Y-217312327D01*
X73693545Y-216005750D01*
X73674006Y-215938583D01*
X73074756Y-215938583D01*
X73105531Y-216022602D01*
X73788800Y-217522254D01*
G37*
G36*
X78104027Y-215939190D02*
G01*
X78204410Y-215945925D01*
X78298753Y-215959840D01*
X78387810Y-215980757D01*
X78471111Y-216008261D01*
X78550741Y-216042940D01*
X78624709Y-216083805D01*
X78696337Y-216132844D01*
X78762195Y-216187833D01*
X78831714Y-216259281D01*
X78932913Y-216398198D01*
X79007041Y-216551781D01*
X79052189Y-216715176D01*
X79067376Y-216884413D01*
X79067345Y-216892385D01*
X79062634Y-216981474D01*
X79050172Y-217067964D01*
X79029906Y-217152932D01*
X79002363Y-217234461D01*
X78967468Y-217313077D01*
X78925896Y-217387391D01*
X78877850Y-217457262D01*
X78823866Y-217522009D01*
X78732883Y-217609145D01*
X78597017Y-217702561D01*
X78522039Y-217740070D01*
X78441727Y-217771471D01*
X78355880Y-217796489D01*
X78264494Y-217814783D01*
X78166280Y-217826144D01*
X78062195Y-217830000D01*
X77040283Y-217830000D01*
X77032723Y-217829883D01*
X76970749Y-217816125D01*
X76948822Y-217800885D01*
X76932571Y-217779969D01*
X76920955Y-217748709D01*
X76917062Y-217709710D01*
X76917062Y-216478970D01*
X77423866Y-216478970D01*
X77423866Y-217292543D01*
X77427301Y-217314148D01*
X77439207Y-217327484D01*
X77460259Y-217331622D01*
X78062195Y-217331622D01*
X78108393Y-217330328D01*
X78179609Y-217322577D01*
X78243729Y-217308204D01*
X78301723Y-217287379D01*
X78353246Y-217260665D01*
X78401369Y-217226295D01*
X78443092Y-217186297D01*
X78501327Y-217107512D01*
X78545602Y-217000833D01*
X78560573Y-216887100D01*
X78560487Y-216878344D01*
X78555225Y-216818228D01*
X78542161Y-216760251D01*
X78521481Y-216704435D01*
X78493819Y-216652283D01*
X78420621Y-216562868D01*
X78414997Y-216557723D01*
X78324493Y-216494776D01*
X78271772Y-216471900D01*
X78212153Y-216454813D01*
X78141942Y-216443710D01*
X78062195Y-216439891D01*
X77460259Y-216439891D01*
X77440346Y-216443470D01*
X77427880Y-216456038D01*
X77423866Y-216478970D01*
X76917062Y-216478970D01*
X76917062Y-216056186D01*
X76930190Y-215992338D01*
X76945749Y-215970423D01*
X76967227Y-215954214D01*
X76999796Y-215942491D01*
X77040283Y-215938583D01*
X78062195Y-215938583D01*
X78104027Y-215939190D01*
G37*
G36*
X55257330Y-66739181D02*
G01*
X55357723Y-66745892D01*
X55452070Y-66759784D01*
X55541139Y-66780683D01*
X55624452Y-66808169D01*
X55704124Y-66842845D01*
X55778137Y-66883713D01*
X55849862Y-66932792D01*
X55915824Y-66987833D01*
X55985342Y-67059281D01*
X56086541Y-67198198D01*
X56160670Y-67351781D01*
X56205818Y-67515176D01*
X56221005Y-67684413D01*
X56220974Y-67692301D01*
X56216268Y-67781359D01*
X56203808Y-67867822D01*
X56183536Y-67952793D01*
X56155984Y-68034326D01*
X56121066Y-68112971D01*
X56079471Y-68187313D01*
X56031390Y-68257226D01*
X55977373Y-68322009D01*
X55886433Y-68409144D01*
X55750603Y-68502550D01*
X55675624Y-68540063D01*
X55595309Y-68571466D01*
X55509459Y-68596487D01*
X55418073Y-68614783D01*
X55319878Y-68626144D01*
X55215824Y-68630000D01*
X54818196Y-68630000D01*
X54675280Y-68622602D01*
X54580623Y-68608653D01*
X54491534Y-68587823D01*
X54407288Y-68560170D01*
X54328509Y-68526135D01*
X54253465Y-68485027D01*
X54183943Y-68437887D01*
X54117424Y-68382846D01*
X54056647Y-68322009D01*
X54045560Y-68309677D01*
X53946233Y-68173674D01*
X53873055Y-68021260D01*
X53828195Y-67856905D01*
X53813251Y-67687100D01*
X54319819Y-67687100D01*
X54329667Y-67779528D01*
X54346198Y-67836916D01*
X54370007Y-67890905D01*
X54400647Y-67941015D01*
X54437422Y-67986297D01*
X54463362Y-68012471D01*
X54554240Y-68075764D01*
X54608767Y-68099210D01*
X54669870Y-68116621D01*
X54740129Y-68127793D01*
X54818196Y-68131622D01*
X55215824Y-68131622D01*
X55261945Y-68130330D01*
X55333138Y-68122582D01*
X55397243Y-68108210D01*
X55455233Y-68087383D01*
X55506757Y-68060665D01*
X55554876Y-68026295D01*
X55596598Y-67986297D01*
X55654966Y-67907330D01*
X55699238Y-67800684D01*
X55714201Y-67687100D01*
X55714122Y-67678682D01*
X55708895Y-67618558D01*
X55695855Y-67560570D01*
X55675170Y-67504675D01*
X55647496Y-67452450D01*
X55574250Y-67362868D01*
X55568652Y-67357747D01*
X55478118Y-67294790D01*
X55425369Y-67271905D01*
X55365727Y-67254813D01*
X55295529Y-67243710D01*
X55215824Y-67239891D01*
X54818196Y-67239891D01*
X54679818Y-67252381D01*
X54617707Y-67268752D01*
X54562934Y-67291226D01*
X54507978Y-67323763D01*
X54459770Y-67362868D01*
X54450674Y-67371628D01*
X54411982Y-67415570D01*
X54379346Y-67464483D01*
X54334845Y-67572380D01*
X54319819Y-67687100D01*
X53813251Y-67687100D01*
X53813015Y-67684413D01*
X53817162Y-67595581D01*
X53829333Y-67509061D01*
X53849155Y-67425118D01*
X53876863Y-67342581D01*
X53911749Y-67263541D01*
X53953936Y-67187571D01*
X54002658Y-67116029D01*
X54118196Y-66987833D01*
X54151587Y-66958664D01*
X54287118Y-66865355D01*
X54361358Y-66828084D01*
X54441025Y-66796811D01*
X54525976Y-66771962D01*
X54616681Y-66753747D01*
X54714317Y-66742432D01*
X54818196Y-66738583D01*
X55215824Y-66738583D01*
X55257330Y-66739181D01*
G37*
G36*
X56802303Y-66738583D02*
G01*
X56732874Y-66742505D01*
X56671273Y-66754325D01*
X56622828Y-66771655D01*
X56580677Y-66795428D01*
X56546969Y-66823541D01*
X56518789Y-66857389D01*
X56479126Y-66942285D01*
X56461306Y-67057647D01*
X56460729Y-67085896D01*
X56460729Y-68630000D01*
X56967533Y-68630000D01*
X56967533Y-67998387D01*
X58443127Y-67998387D01*
X58443127Y-67527976D01*
X56967533Y-67527976D01*
X56967533Y-67323789D01*
X56971476Y-67289951D01*
X56983441Y-67264801D01*
X57020563Y-67242457D01*
X57045935Y-67239891D01*
X58451553Y-67239891D01*
X58451553Y-66738583D01*
X56802303Y-66738583D01*
G37*
G36*
X59014166Y-66738583D02*
G01*
X58944737Y-66742505D01*
X58883137Y-66754325D01*
X58834692Y-66771655D01*
X58792541Y-66795428D01*
X58758832Y-66823541D01*
X58730652Y-66857389D01*
X58690989Y-66942285D01*
X58673169Y-67057647D01*
X58672593Y-67085896D01*
X58672593Y-68630000D01*
X59179397Y-68630000D01*
X59179397Y-67998387D01*
X60654990Y-67998387D01*
X60654990Y-67527976D01*
X59179397Y-67527976D01*
X59179397Y-67323789D01*
X59183339Y-67289951D01*
X59195304Y-67264801D01*
X59232426Y-67242457D01*
X59257799Y-67239891D01*
X60663416Y-67239891D01*
X60663416Y-66738583D01*
X59014166Y-66738583D01*
G37*
G36*
X62866853Y-66738583D02*
G01*
X61478088Y-66738583D01*
X61379043Y-66742407D01*
X61291604Y-66753546D01*
X61217870Y-66770569D01*
X61152793Y-66793379D01*
X61045371Y-66854188D01*
X60982397Y-66909431D01*
X60938206Y-66960451D01*
X60900243Y-67016229D01*
X60869223Y-67075740D01*
X60845339Y-67138821D01*
X60829369Y-67203381D01*
X60821153Y-67270299D01*
X60820098Y-67304616D01*
X60823951Y-67372586D01*
X60835291Y-67437920D01*
X60879750Y-67560632D01*
X60951951Y-67669918D01*
X60979711Y-67700533D01*
X61028419Y-67744731D01*
X61084469Y-67783348D01*
X61141997Y-67812712D01*
X61207346Y-67836636D01*
X61279713Y-67854342D01*
X61361282Y-67865988D01*
X61478088Y-67871381D01*
X62248064Y-67871381D01*
X62305574Y-67875293D01*
X62346850Y-67887041D01*
X62382397Y-67912903D01*
X62414279Y-67965446D01*
X62421598Y-68012676D01*
X62417793Y-68045618D01*
X62406790Y-68075289D01*
X62390824Y-68098527D01*
X62368198Y-68119276D01*
X62337429Y-68134224D01*
X62248064Y-68145666D01*
X60870412Y-68145666D01*
X60870412Y-68630000D01*
X62337579Y-68630000D01*
X62422118Y-68626162D01*
X62499462Y-68614927D01*
X62568412Y-68597208D01*
X62631142Y-68573219D01*
X62739395Y-68507858D01*
X62816417Y-68434117D01*
X62892205Y-68322234D01*
X62919931Y-68260487D01*
X62940235Y-68195741D01*
X62952252Y-68131242D01*
X62956368Y-68065310D01*
X62941287Y-67939721D01*
X62896126Y-67817838D01*
X62822177Y-67706404D01*
X62794069Y-67675376D01*
X62744568Y-67630374D01*
X62688536Y-67591170D01*
X62630699Y-67560803D01*
X62566342Y-67536435D01*
X62497265Y-67519031D01*
X62421176Y-67508236D01*
X62337579Y-67504528D01*
X61506054Y-67504528D01*
X61449416Y-67500450D01*
X61412217Y-67487531D01*
X61396877Y-67476441D01*
X61375299Y-67454054D01*
X61359347Y-67426072D01*
X61349250Y-67375080D01*
X61353075Y-67340683D01*
X61364219Y-67309888D01*
X61388451Y-67276406D01*
X61412545Y-67258352D01*
X61445791Y-67245961D01*
X61506054Y-67239891D01*
X62866853Y-67239891D01*
X62866853Y-66738583D01*
G37*
G36*
X63425681Y-66738583D02*
G01*
X63362923Y-66742496D01*
X63308494Y-66754258D01*
X63267323Y-66771213D01*
X63232659Y-66794346D01*
X63206125Y-66821599D01*
X63185288Y-66854297D01*
X63160481Y-66937702D01*
X63156891Y-66993450D01*
X63156891Y-68366828D01*
X63160794Y-68426739D01*
X63172482Y-68478855D01*
X63189512Y-68518903D01*
X63212727Y-68552761D01*
X63273664Y-68600051D01*
X63359267Y-68625709D01*
X63422872Y-68630000D01*
X65147715Y-68630000D01*
X65147715Y-68145666D01*
X63708514Y-68145666D01*
X63686536Y-68141758D01*
X63672077Y-68130034D01*
X63663695Y-68095840D01*
X63663695Y-67868572D01*
X65139288Y-67868572D01*
X65139288Y-67504528D01*
X63663695Y-67504528D01*
X63663695Y-67287763D01*
X63667679Y-67263440D01*
X63679934Y-67247456D01*
X63708514Y-67239891D01*
X65147715Y-67239891D01*
X65147715Y-66738583D01*
X63425681Y-66738583D01*
G37*
G36*
X65301221Y-66738583D02*
G01*
X65301221Y-67239891D01*
X66132868Y-67239891D01*
X66132868Y-68630000D01*
X66642359Y-68630000D01*
X66642359Y-67239891D01*
X67471197Y-67239891D01*
X67471197Y-66738583D01*
X65301221Y-66738583D01*
G37*
G36*
X70114992Y-66705580D02*
G01*
X70238313Y-66745388D01*
X70293188Y-66775070D01*
X70343690Y-66811318D01*
X70391574Y-66855907D01*
X70434948Y-66907633D01*
X70476566Y-66971067D01*
X70513242Y-67042787D01*
X71196389Y-68546102D01*
X71227164Y-68630000D01*
X70656002Y-68630000D01*
X70633782Y-68566227D01*
X70633531Y-68565642D01*
X70532781Y-68336053D01*
X69412806Y-68336053D01*
X69314864Y-68562833D01*
X69314660Y-68563378D01*
X69295203Y-68630000D01*
X68709997Y-68630000D01*
X68740771Y-68546102D01*
X69023557Y-67918764D01*
X69597575Y-67918764D01*
X70348011Y-67918764D01*
X70056752Y-67239281D01*
X70025732Y-67197376D01*
X69999446Y-67184385D01*
X69970046Y-67180296D01*
X69965641Y-67180378D01*
X69921003Y-67194063D01*
X69901918Y-67212033D01*
X69886026Y-67239281D01*
X69597575Y-67918764D01*
X69023557Y-67918764D01*
X69418423Y-67042787D01*
X69493019Y-66911841D01*
X69578756Y-66817773D01*
X69627733Y-66780810D01*
X69681206Y-66750285D01*
X69741603Y-66725400D01*
X69807248Y-66707374D01*
X69883954Y-66695603D01*
X69967237Y-66691688D01*
X70114992Y-66705580D01*
G37*
G36*
X73024198Y-200831622D02*
G01*
X72033060Y-200831622D01*
X71954993Y-200827793D01*
X71884734Y-200816621D01*
X71823631Y-200799210D01*
X71769104Y-200775764D01*
X71678226Y-200712471D01*
X71652286Y-200686297D01*
X71615511Y-200641015D01*
X71584871Y-200590905D01*
X71561062Y-200536916D01*
X71544531Y-200479528D01*
X71534683Y-200387100D01*
X71549709Y-200272380D01*
X71594210Y-200164483D01*
X71626846Y-200115570D01*
X71665538Y-200071628D01*
X71674634Y-200062868D01*
X71722842Y-200023763D01*
X71777798Y-199991226D01*
X71832571Y-199968752D01*
X71894682Y-199952381D01*
X72033060Y-199939891D01*
X73024198Y-199939891D01*
X73024198Y-199438583D01*
X72033060Y-199438583D01*
X71929181Y-199442432D01*
X71831545Y-199453747D01*
X71740840Y-199471962D01*
X71655889Y-199496811D01*
X71576222Y-199528084D01*
X71501982Y-199565355D01*
X71366451Y-199658664D01*
X71333060Y-199687833D01*
X71217522Y-199816029D01*
X71168800Y-199887571D01*
X71126613Y-199963541D01*
X71091727Y-200042581D01*
X71064019Y-200125118D01*
X71044197Y-200209061D01*
X71032026Y-200295581D01*
X71027879Y-200384413D01*
X71043059Y-200556905D01*
X71087919Y-200721260D01*
X71161097Y-200873674D01*
X71260424Y-201009677D01*
X71271511Y-201022009D01*
X71332288Y-201082846D01*
X71398807Y-201137887D01*
X71468329Y-201185027D01*
X71543373Y-201226135D01*
X71622152Y-201260170D01*
X71706398Y-201287823D01*
X71795487Y-201308653D01*
X71890144Y-201322602D01*
X72033060Y-201330000D01*
X73024198Y-201330000D01*
X73024198Y-200831622D01*
G37*
G36*
X73889428Y-201022254D02*
G01*
X73925874Y-201093246D01*
X73967240Y-201155918D01*
X74010361Y-201206923D01*
X74058001Y-201250835D01*
X74108412Y-201286575D01*
X74163252Y-201315819D01*
X74287315Y-201355194D01*
X74438242Y-201369078D01*
X74521874Y-201365156D01*
X74598910Y-201353334D01*
X74664509Y-201335292D01*
X74724883Y-201310352D01*
X74778153Y-201279831D01*
X74826963Y-201242821D01*
X74912222Y-201148673D01*
X74984125Y-201022254D01*
X75661776Y-199522602D01*
X75692551Y-199438583D01*
X75101727Y-199438583D01*
X75079379Y-199505750D01*
X74519330Y-200812327D01*
X74502022Y-200842458D01*
X74481847Y-200860856D01*
X74440928Y-200871067D01*
X74413716Y-200866974D01*
X74389280Y-200853950D01*
X74359840Y-200812327D01*
X73794173Y-199505750D01*
X73774634Y-199438583D01*
X73175384Y-199438583D01*
X73206159Y-199522602D01*
X73889428Y-201022254D01*
G37*
G36*
X78972000Y-200831622D02*
G01*
X77980862Y-200831622D01*
X77902795Y-200827793D01*
X77832536Y-200816621D01*
X77771433Y-200799210D01*
X77716906Y-200775764D01*
X77626028Y-200712471D01*
X77600088Y-200686297D01*
X77563313Y-200641015D01*
X77532673Y-200590905D01*
X77508864Y-200536916D01*
X77492333Y-200479528D01*
X77482485Y-200387100D01*
X77497511Y-200272380D01*
X77542011Y-200164483D01*
X77574648Y-200115570D01*
X77613340Y-200071628D01*
X77622436Y-200062868D01*
X77670644Y-200023763D01*
X77725600Y-199991226D01*
X77780373Y-199968752D01*
X77842484Y-199952381D01*
X77980862Y-199939891D01*
X78972000Y-199939891D01*
X78972000Y-199438583D01*
X77980862Y-199438583D01*
X77876982Y-199442432D01*
X77779347Y-199453747D01*
X77688642Y-199471962D01*
X77603691Y-199496811D01*
X77524024Y-199528084D01*
X77449784Y-199565355D01*
X77314253Y-199658664D01*
X77280862Y-199687833D01*
X77165324Y-199816029D01*
X77116602Y-199887571D01*
X77074415Y-199963541D01*
X77039529Y-200042581D01*
X77011821Y-200125118D01*
X76991998Y-200209061D01*
X76979828Y-200295581D01*
X76975681Y-200384413D01*
X76990861Y-200556905D01*
X77035720Y-200721260D01*
X77108898Y-200873674D01*
X77208226Y-201009677D01*
X77219313Y-201022009D01*
X77280090Y-201082846D01*
X77346609Y-201137887D01*
X77416131Y-201185027D01*
X77491175Y-201226135D01*
X77569954Y-201260170D01*
X77654200Y-201287823D01*
X77743289Y-201308653D01*
X77837945Y-201322602D01*
X77980862Y-201330000D01*
X78972000Y-201330000D01*
X78972000Y-200831622D01*
G37*
G36*
X72806333Y-167831622D02*
G01*
X71815195Y-167831622D01*
X71737128Y-167827793D01*
X71666869Y-167816621D01*
X71605766Y-167799210D01*
X71551239Y-167775764D01*
X71460361Y-167712471D01*
X71434421Y-167686297D01*
X71397646Y-167641015D01*
X71367006Y-167590905D01*
X71343197Y-167536916D01*
X71326666Y-167479528D01*
X71316818Y-167387100D01*
X71331844Y-167272380D01*
X71376345Y-167164483D01*
X71408981Y-167115570D01*
X71447673Y-167071628D01*
X71456769Y-167062868D01*
X71504977Y-167023763D01*
X71559933Y-166991226D01*
X71614706Y-166968752D01*
X71676817Y-166952381D01*
X71815195Y-166939891D01*
X72806333Y-166939891D01*
X72806333Y-166438583D01*
X71815195Y-166438583D01*
X71711316Y-166442432D01*
X71613680Y-166453747D01*
X71522975Y-166471962D01*
X71438024Y-166496811D01*
X71358357Y-166528084D01*
X71284117Y-166565355D01*
X71148586Y-166658664D01*
X71115195Y-166687833D01*
X70999657Y-166816029D01*
X70950935Y-166887571D01*
X70908748Y-166963541D01*
X70873862Y-167042581D01*
X70846154Y-167125118D01*
X70826332Y-167209061D01*
X70814161Y-167295581D01*
X70810014Y-167384413D01*
X70825194Y-167556905D01*
X70870054Y-167721260D01*
X70943232Y-167873674D01*
X71042559Y-168009677D01*
X71053646Y-168022009D01*
X71114423Y-168082846D01*
X71180942Y-168137887D01*
X71250464Y-168185027D01*
X71325508Y-168226135D01*
X71404287Y-168260170D01*
X71488533Y-168287823D01*
X71577622Y-168308653D01*
X71672279Y-168322602D01*
X71815195Y-168330000D01*
X72806333Y-168330000D01*
X72806333Y-167831622D01*
G37*
G36*
X73671563Y-168022254D02*
G01*
X73708009Y-168093246D01*
X73749375Y-168155918D01*
X73792496Y-168206923D01*
X73840136Y-168250835D01*
X73890547Y-168286575D01*
X73945387Y-168315819D01*
X74069450Y-168355194D01*
X74220377Y-168369078D01*
X74304009Y-168365156D01*
X74381045Y-168353334D01*
X74446644Y-168335292D01*
X74507018Y-168310352D01*
X74560288Y-168279831D01*
X74609098Y-168242821D01*
X74694357Y-168148673D01*
X74766260Y-168022254D01*
X75443911Y-166522602D01*
X75474686Y-166438583D01*
X74883862Y-166438583D01*
X74861514Y-166505750D01*
X74301465Y-167812327D01*
X74284157Y-167842458D01*
X74263982Y-167860856D01*
X74223063Y-167871067D01*
X74195851Y-167866974D01*
X74171415Y-167853950D01*
X74141975Y-167812327D01*
X73576308Y-166505750D01*
X73556769Y-166438583D01*
X72957519Y-166438583D01*
X72988294Y-166522602D01*
X73671563Y-168022254D01*
G37*
G36*
X78117993Y-166405580D02*
G01*
X78241313Y-166445388D01*
X78296188Y-166475070D01*
X78346691Y-166511318D01*
X78394574Y-166555907D01*
X78437949Y-166607633D01*
X78479566Y-166671067D01*
X78516242Y-166742787D01*
X79199389Y-168246102D01*
X79230164Y-168330000D01*
X78659002Y-168330000D01*
X78636783Y-168266227D01*
X78636532Y-168265642D01*
X78535782Y-168036053D01*
X77415806Y-168036053D01*
X77317865Y-168262833D01*
X77317660Y-168263378D01*
X77298203Y-168330000D01*
X76712997Y-168330000D01*
X76743772Y-168246102D01*
X77026558Y-167618764D01*
X77600576Y-167618764D01*
X78351012Y-167618764D01*
X78059752Y-166939281D01*
X78028733Y-166897376D01*
X78002446Y-166884385D01*
X77973046Y-166880296D01*
X77968642Y-166880378D01*
X77924004Y-166894063D01*
X77904918Y-166912033D01*
X77889026Y-166939281D01*
X77600576Y-167618764D01*
X77026558Y-167618764D01*
X77421424Y-166742787D01*
X77496019Y-166611841D01*
X77581756Y-166517773D01*
X77630733Y-166480810D01*
X77684206Y-166450285D01*
X77744604Y-166425400D01*
X77810249Y-166407374D01*
X77886955Y-166395603D01*
X77970237Y-166391688D01*
X78117993Y-166405580D01*
G37*
G36*
X55374566Y-149239181D02*
G01*
X55474959Y-149245892D01*
X55569306Y-149259784D01*
X55658375Y-149280683D01*
X55741688Y-149308169D01*
X55821360Y-149342845D01*
X55895373Y-149383713D01*
X55967098Y-149432792D01*
X56033060Y-149487833D01*
X56102578Y-149559281D01*
X56203777Y-149698198D01*
X56277906Y-149851781D01*
X56323054Y-150015176D01*
X56338241Y-150184413D01*
X56338210Y-150192301D01*
X56333504Y-150281359D01*
X56321044Y-150367822D01*
X56300772Y-150452793D01*
X56273220Y-150534326D01*
X56238302Y-150612971D01*
X56196707Y-150687313D01*
X56148626Y-150757226D01*
X56094609Y-150822009D01*
X56003669Y-150909144D01*
X55867839Y-151002550D01*
X55792860Y-151040063D01*
X55712545Y-151071466D01*
X55626695Y-151096487D01*
X55535309Y-151114783D01*
X55437114Y-151126144D01*
X55333060Y-151130000D01*
X54935432Y-151130000D01*
X54792516Y-151122602D01*
X54697859Y-151108653D01*
X54608770Y-151087823D01*
X54524524Y-151060170D01*
X54445745Y-151026135D01*
X54370701Y-150985027D01*
X54301179Y-150937887D01*
X54234660Y-150882846D01*
X54173883Y-150822009D01*
X54162796Y-150809677D01*
X54063469Y-150673674D01*
X53990291Y-150521260D01*
X53945431Y-150356905D01*
X53930487Y-150187100D01*
X54437055Y-150187100D01*
X54446903Y-150279528D01*
X54463434Y-150336916D01*
X54487243Y-150390905D01*
X54517883Y-150441015D01*
X54554658Y-150486297D01*
X54580598Y-150512471D01*
X54671476Y-150575764D01*
X54726003Y-150599210D01*
X54787106Y-150616621D01*
X54857365Y-150627793D01*
X54935432Y-150631622D01*
X55333060Y-150631622D01*
X55379181Y-150630330D01*
X55450374Y-150622582D01*
X55514479Y-150608210D01*
X55572469Y-150587383D01*
X55623993Y-150560665D01*
X55672112Y-150526295D01*
X55713834Y-150486297D01*
X55772202Y-150407330D01*
X55816474Y-150300684D01*
X55831437Y-150187100D01*
X55831358Y-150178682D01*
X55826131Y-150118558D01*
X55813091Y-150060570D01*
X55792406Y-150004675D01*
X55764732Y-149952450D01*
X55691486Y-149862868D01*
X55685888Y-149857747D01*
X55595354Y-149794790D01*
X55542605Y-149771905D01*
X55482963Y-149754813D01*
X55412765Y-149743710D01*
X55333060Y-149739891D01*
X54935432Y-149739891D01*
X54797054Y-149752381D01*
X54734943Y-149768752D01*
X54680170Y-149791226D01*
X54625214Y-149823763D01*
X54577006Y-149862868D01*
X54567910Y-149871628D01*
X54529218Y-149915570D01*
X54496582Y-149964483D01*
X54452081Y-150072380D01*
X54437055Y-150187100D01*
X53930487Y-150187100D01*
X53930251Y-150184413D01*
X53934398Y-150095581D01*
X53946569Y-150009061D01*
X53966391Y-149925118D01*
X53994099Y-149842581D01*
X54028985Y-149763541D01*
X54071172Y-149687571D01*
X54119894Y-149616029D01*
X54235432Y-149487833D01*
X54268823Y-149458664D01*
X54404354Y-149365355D01*
X54478594Y-149328084D01*
X54558261Y-149296811D01*
X54643212Y-149271962D01*
X54733917Y-149253747D01*
X54831553Y-149242432D01*
X54935432Y-149238583D01*
X55333060Y-149238583D01*
X55374566Y-149239181D01*
G37*
G36*
X56919539Y-149238583D02*
G01*
X56850110Y-149242505D01*
X56788509Y-149254325D01*
X56740064Y-149271655D01*
X56697913Y-149295428D01*
X56664205Y-149323541D01*
X56636025Y-149357389D01*
X56596362Y-149442285D01*
X56578542Y-149557647D01*
X56577965Y-149585896D01*
X56577965Y-151130000D01*
X57084769Y-151130000D01*
X57084769Y-150498387D01*
X58560363Y-150498387D01*
X58560363Y-150027976D01*
X57084769Y-150027976D01*
X57084769Y-149823789D01*
X57088712Y-149789951D01*
X57100677Y-149764801D01*
X57137799Y-149742457D01*
X57163171Y-149739891D01*
X58568789Y-149739891D01*
X58568789Y-149238583D01*
X56919539Y-149238583D01*
G37*
G36*
X59131402Y-149238583D02*
G01*
X59061973Y-149242505D01*
X59000373Y-149254325D01*
X58951928Y-149271655D01*
X58909777Y-149295428D01*
X58876068Y-149323541D01*
X58847888Y-149357389D01*
X58808225Y-149442285D01*
X58790405Y-149557647D01*
X58789829Y-149585896D01*
X58789829Y-151130000D01*
X59296633Y-151130000D01*
X59296633Y-150498387D01*
X60772226Y-150498387D01*
X60772226Y-150027976D01*
X59296633Y-150027976D01*
X59296633Y-149823789D01*
X59300575Y-149789951D01*
X59312540Y-149764801D01*
X59349662Y-149742457D01*
X59375035Y-149739891D01*
X60780652Y-149739891D01*
X60780652Y-149238583D01*
X59131402Y-149238583D01*
G37*
G36*
X62984089Y-149238583D02*
G01*
X61595324Y-149238583D01*
X61496279Y-149242407D01*
X61408840Y-149253546D01*
X61335106Y-149270569D01*
X61270029Y-149293379D01*
X61162607Y-149354188D01*
X61099633Y-149409431D01*
X61055442Y-149460451D01*
X61017479Y-149516229D01*
X60986459Y-149575740D01*
X60962575Y-149638821D01*
X60946605Y-149703381D01*
X60938389Y-149770299D01*
X60937334Y-149804616D01*
X60941187Y-149872586D01*
X60952527Y-149937920D01*
X60996986Y-150060632D01*
X61069187Y-150169918D01*
X61096947Y-150200533D01*
X61145655Y-150244731D01*
X61201705Y-150283348D01*
X61259233Y-150312712D01*
X61324582Y-150336636D01*
X61396949Y-150354342D01*
X61478518Y-150365988D01*
X61595324Y-150371381D01*
X62365300Y-150371381D01*
X62422810Y-150375293D01*
X62464086Y-150387041D01*
X62499633Y-150412903D01*
X62531515Y-150465446D01*
X62538834Y-150512676D01*
X62535029Y-150545618D01*
X62524026Y-150575289D01*
X62508060Y-150598527D01*
X62485434Y-150619276D01*
X62454665Y-150634224D01*
X62365300Y-150645666D01*
X60987648Y-150645666D01*
X60987648Y-151130000D01*
X62454815Y-151130000D01*
X62539354Y-151126162D01*
X62616698Y-151114927D01*
X62685648Y-151097208D01*
X62748378Y-151073219D01*
X62856631Y-151007858D01*
X62933653Y-150934117D01*
X63009441Y-150822234D01*
X63037167Y-150760487D01*
X63057471Y-150695741D01*
X63069488Y-150631242D01*
X63073604Y-150565310D01*
X63058523Y-150439721D01*
X63013362Y-150317838D01*
X62939413Y-150206404D01*
X62911305Y-150175376D01*
X62861804Y-150130374D01*
X62805772Y-150091170D01*
X62747935Y-150060803D01*
X62683578Y-150036435D01*
X62614501Y-150019031D01*
X62538412Y-150008236D01*
X62454815Y-150004528D01*
X61623290Y-150004528D01*
X61566652Y-150000450D01*
X61529453Y-149987531D01*
X61514113Y-149976441D01*
X61492535Y-149954054D01*
X61476583Y-149926072D01*
X61466486Y-149875080D01*
X61470311Y-149840683D01*
X61481455Y-149809888D01*
X61505687Y-149776406D01*
X61529781Y-149758352D01*
X61563027Y-149745961D01*
X61623290Y-149739891D01*
X62984089Y-149739891D01*
X62984089Y-149238583D01*
G37*
G36*
X63542917Y-149238583D02*
G01*
X63480159Y-149242496D01*
X63425730Y-149254258D01*
X63384559Y-149271213D01*
X63349895Y-149294346D01*
X63323361Y-149321599D01*
X63302524Y-149354297D01*
X63277717Y-149437702D01*
X63274127Y-149493450D01*
X63274127Y-150866828D01*
X63278030Y-150926739D01*
X63289718Y-150978855D01*
X63306748Y-151018903D01*
X63329963Y-151052761D01*
X63390900Y-151100051D01*
X63476503Y-151125709D01*
X63540108Y-151130000D01*
X65264951Y-151130000D01*
X65264951Y-150645666D01*
X63825750Y-150645666D01*
X63803772Y-150641758D01*
X63789313Y-150630034D01*
X63780931Y-150595840D01*
X63780931Y-150368572D01*
X65256524Y-150368572D01*
X65256524Y-150004528D01*
X63780931Y-150004528D01*
X63780931Y-149787763D01*
X63784915Y-149763440D01*
X63797170Y-149747456D01*
X63825750Y-149739891D01*
X65264951Y-149739891D01*
X65264951Y-149238583D01*
X63542917Y-149238583D01*
G37*
G36*
X65418457Y-149238583D02*
G01*
X65418457Y-149739891D01*
X66250104Y-149739891D01*
X66250104Y-151130000D01*
X66759595Y-151130000D01*
X66759595Y-149739891D01*
X67588433Y-149739891D01*
X67588433Y-149238583D01*
X65418457Y-149238583D01*
G37*
G36*
X70101025Y-149239190D02*
G01*
X70201409Y-149245925D01*
X70295752Y-149259840D01*
X70384809Y-149280757D01*
X70468109Y-149308261D01*
X70547740Y-149342940D01*
X70621708Y-149383805D01*
X70693336Y-149432844D01*
X70759194Y-149487833D01*
X70828712Y-149559281D01*
X70929911Y-149698198D01*
X71004040Y-149851781D01*
X71049188Y-150015176D01*
X71064375Y-150184413D01*
X71064343Y-150192385D01*
X71059632Y-150281474D01*
X71047171Y-150367964D01*
X71026905Y-150452932D01*
X70999362Y-150534461D01*
X70964466Y-150613077D01*
X70922895Y-150687391D01*
X70874849Y-150757262D01*
X70820865Y-150822009D01*
X70729881Y-150909145D01*
X70594015Y-151002561D01*
X70519038Y-151040070D01*
X70438726Y-151071471D01*
X70352879Y-151096489D01*
X70261492Y-151114783D01*
X70163279Y-151126144D01*
X70059194Y-151130000D01*
X69037282Y-151130000D01*
X69029722Y-151129883D01*
X68967748Y-151116125D01*
X68945821Y-151100885D01*
X68929570Y-151079969D01*
X68917954Y-151048709D01*
X68914061Y-151009710D01*
X68914061Y-149778970D01*
X69420865Y-149778970D01*
X69420865Y-150592543D01*
X69424299Y-150614148D01*
X69436206Y-150627484D01*
X69457257Y-150631622D01*
X70059194Y-150631622D01*
X70105392Y-150630328D01*
X70176608Y-150622577D01*
X70240727Y-150608204D01*
X70298722Y-150587379D01*
X70350245Y-150560665D01*
X70398368Y-150526295D01*
X70440090Y-150486297D01*
X70498325Y-150407512D01*
X70542601Y-150300833D01*
X70557571Y-150187100D01*
X70557485Y-150178344D01*
X70552224Y-150118228D01*
X70539159Y-150060251D01*
X70518479Y-150004435D01*
X70490817Y-149952283D01*
X70417620Y-149862868D01*
X70411996Y-149857723D01*
X70321491Y-149794776D01*
X70268771Y-149771900D01*
X70209151Y-149754813D01*
X70138941Y-149743710D01*
X70059194Y-149739891D01*
X69457257Y-149739891D01*
X69437345Y-149743470D01*
X69424879Y-149756038D01*
X69420865Y-149778970D01*
X68914061Y-149778970D01*
X68914061Y-149356186D01*
X68927189Y-149292338D01*
X68942748Y-149270423D01*
X68964226Y-149254214D01*
X68996795Y-149242491D01*
X69037282Y-149238583D01*
X70059194Y-149238583D01*
X70101025Y-149239190D01*
G37*
G36*
X87501852Y-166439181D02*
G01*
X87602245Y-166445892D01*
X87696592Y-166459784D01*
X87785661Y-166480683D01*
X87868974Y-166508169D01*
X87948646Y-166542845D01*
X88022659Y-166583713D01*
X88094384Y-166632792D01*
X88160346Y-166687833D01*
X88229864Y-166759281D01*
X88331063Y-166898198D01*
X88405192Y-167051781D01*
X88450340Y-167215176D01*
X88465527Y-167384413D01*
X88465496Y-167392301D01*
X88460790Y-167481359D01*
X88448330Y-167567822D01*
X88428058Y-167652793D01*
X88400506Y-167734326D01*
X88365588Y-167812971D01*
X88323993Y-167887313D01*
X88275912Y-167957226D01*
X88221895Y-168022009D01*
X88130955Y-168109144D01*
X87995125Y-168202550D01*
X87920146Y-168240063D01*
X87839831Y-168271466D01*
X87753981Y-168296487D01*
X87662595Y-168314783D01*
X87564400Y-168326144D01*
X87460346Y-168330000D01*
X87062718Y-168330000D01*
X86919802Y-168322602D01*
X86825145Y-168308653D01*
X86736056Y-168287823D01*
X86651810Y-168260170D01*
X86573031Y-168226135D01*
X86497987Y-168185027D01*
X86428465Y-168137887D01*
X86361946Y-168082846D01*
X86301169Y-168022009D01*
X86290082Y-168009677D01*
X86190755Y-167873674D01*
X86117577Y-167721260D01*
X86072717Y-167556905D01*
X86057773Y-167387100D01*
X86564341Y-167387100D01*
X86574189Y-167479528D01*
X86590720Y-167536916D01*
X86614529Y-167590905D01*
X86645169Y-167641015D01*
X86681944Y-167686297D01*
X86707884Y-167712471D01*
X86798762Y-167775764D01*
X86853289Y-167799210D01*
X86914392Y-167816621D01*
X86984651Y-167827793D01*
X87062718Y-167831622D01*
X87460346Y-167831622D01*
X87506467Y-167830330D01*
X87577660Y-167822582D01*
X87641765Y-167808210D01*
X87699755Y-167787383D01*
X87751279Y-167760665D01*
X87799398Y-167726295D01*
X87841120Y-167686297D01*
X87899488Y-167607330D01*
X87943760Y-167500684D01*
X87958723Y-167387100D01*
X87958644Y-167378682D01*
X87953417Y-167318558D01*
X87940377Y-167260570D01*
X87919692Y-167204675D01*
X87892018Y-167152450D01*
X87818772Y-167062868D01*
X87813174Y-167057747D01*
X87722640Y-166994790D01*
X87669891Y-166971905D01*
X87610249Y-166954813D01*
X87540051Y-166943710D01*
X87460346Y-166939891D01*
X87062718Y-166939891D01*
X86924340Y-166952381D01*
X86862229Y-166968752D01*
X86807456Y-166991226D01*
X86752500Y-167023763D01*
X86704292Y-167062868D01*
X86695196Y-167071628D01*
X86656504Y-167115570D01*
X86623868Y-167164483D01*
X86579367Y-167272380D01*
X86564341Y-167387100D01*
X86057773Y-167387100D01*
X86057537Y-167384413D01*
X86061684Y-167295581D01*
X86073855Y-167209061D01*
X86093677Y-167125118D01*
X86121385Y-167042581D01*
X86156271Y-166963541D01*
X86198458Y-166887571D01*
X86247180Y-166816029D01*
X86362718Y-166687833D01*
X86396109Y-166658664D01*
X86531640Y-166565355D01*
X86605880Y-166528084D01*
X86685547Y-166496811D01*
X86770498Y-166471962D01*
X86861203Y-166453747D01*
X86958839Y-166442432D01*
X87062718Y-166438583D01*
X87460346Y-166438583D01*
X87501852Y-166439181D01*
G37*
G36*
X90208810Y-168330000D02*
G01*
X90323507Y-168326056D01*
X90426180Y-168314083D01*
X90507080Y-168296682D01*
X90579157Y-168272716D01*
X90637323Y-168245062D01*
X90688574Y-168211734D01*
X90731005Y-168174741D01*
X90767535Y-168132440D01*
X90823506Y-168031636D01*
X90859035Y-167901795D01*
X90872418Y-167725376D01*
X90872418Y-166438583D01*
X90362806Y-166438583D01*
X90362806Y-167669445D01*
X90358889Y-167717883D01*
X90347102Y-167758305D01*
X90330465Y-167786991D01*
X90307832Y-167809866D01*
X90246274Y-167838151D01*
X90175227Y-167845666D01*
X89388399Y-167845666D01*
X89336752Y-167841758D01*
X89294125Y-167830034D01*
X89264446Y-167813681D01*
X89241076Y-167791536D01*
X89213181Y-167732498D01*
X89206438Y-167669445D01*
X89206438Y-166438583D01*
X88696825Y-166438583D01*
X88696825Y-167725376D01*
X88700791Y-167826061D01*
X88712924Y-167916921D01*
X88730562Y-167988680D01*
X88754986Y-168053176D01*
X88783454Y-168105901D01*
X88817971Y-168152775D01*
X88856997Y-168192396D01*
X88901933Y-168226808D01*
X89011725Y-168280936D01*
X89156645Y-168316238D01*
X89360433Y-168330000D01*
X90208810Y-168330000D01*
G37*
G36*
X91056699Y-166438583D02*
G01*
X91056699Y-166939891D01*
X91888346Y-166939891D01*
X91888346Y-168330000D01*
X92397837Y-168330000D01*
X92397837Y-166939891D01*
X93226675Y-166939891D01*
X93226675Y-166438583D01*
X91056699Y-166438583D01*
G37*
G36*
X95870471Y-166405580D02*
G01*
X95993791Y-166445388D01*
X96048666Y-166475070D01*
X96099168Y-166511318D01*
X96147052Y-166555907D01*
X96190426Y-166607633D01*
X96232044Y-166671067D01*
X96268720Y-166742787D01*
X96951867Y-168246102D01*
X96982642Y-168330000D01*
X96411480Y-168330000D01*
X96389260Y-168266227D01*
X96389009Y-168265642D01*
X96288259Y-168036053D01*
X95168284Y-168036053D01*
X95070342Y-168262833D01*
X95070138Y-168263378D01*
X95050681Y-168330000D01*
X94465475Y-168330000D01*
X94496249Y-168246102D01*
X94779035Y-167618764D01*
X95353053Y-167618764D01*
X96103489Y-167618764D01*
X95812230Y-166939281D01*
X95781210Y-166897376D01*
X95754924Y-166884385D01*
X95725524Y-166880296D01*
X95721119Y-166880378D01*
X95676481Y-166894063D01*
X95657396Y-166912033D01*
X95641504Y-166939281D01*
X95353053Y-167618764D01*
X94779035Y-167618764D01*
X95173901Y-166742787D01*
X95248497Y-166611841D01*
X95334234Y-166517773D01*
X95383211Y-166480810D01*
X95436684Y-166450285D01*
X95497081Y-166425400D01*
X95562726Y-166407374D01*
X95639433Y-166395603D01*
X95722715Y-166391688D01*
X95870471Y-166405580D01*
G37*
G36*
X72968510Y-184331622D02*
G01*
X71977372Y-184331622D01*
X71899305Y-184327793D01*
X71829046Y-184316621D01*
X71767943Y-184299210D01*
X71713416Y-184275764D01*
X71622538Y-184212471D01*
X71596598Y-184186297D01*
X71559823Y-184141015D01*
X71529183Y-184090905D01*
X71505374Y-184036916D01*
X71488843Y-183979528D01*
X71478995Y-183887100D01*
X71494021Y-183772380D01*
X71538522Y-183664483D01*
X71571158Y-183615570D01*
X71609850Y-183571628D01*
X71618946Y-183562868D01*
X71667154Y-183523763D01*
X71722110Y-183491226D01*
X71776883Y-183468752D01*
X71838994Y-183452381D01*
X71977372Y-183439891D01*
X72968510Y-183439891D01*
X72968510Y-182938583D01*
X71977372Y-182938583D01*
X71873493Y-182942432D01*
X71775857Y-182953747D01*
X71685152Y-182971962D01*
X71600201Y-182996811D01*
X71520534Y-183028084D01*
X71446294Y-183065355D01*
X71310763Y-183158664D01*
X71277372Y-183187833D01*
X71161834Y-183316029D01*
X71113112Y-183387571D01*
X71070925Y-183463541D01*
X71036039Y-183542581D01*
X71008331Y-183625118D01*
X70988509Y-183709061D01*
X70976338Y-183795581D01*
X70972191Y-183884413D01*
X70987371Y-184056905D01*
X71032231Y-184221260D01*
X71105409Y-184373674D01*
X71204736Y-184509677D01*
X71215823Y-184522009D01*
X71276600Y-184582846D01*
X71343119Y-184637887D01*
X71412641Y-184685027D01*
X71487685Y-184726135D01*
X71566464Y-184760170D01*
X71650710Y-184787823D01*
X71739799Y-184808653D01*
X71834456Y-184822602D01*
X71977372Y-184830000D01*
X72968510Y-184830000D01*
X72968510Y-184331622D01*
G37*
G36*
X73833740Y-184522254D02*
G01*
X73870186Y-184593246D01*
X73911552Y-184655918D01*
X73954673Y-184706923D01*
X74002313Y-184750835D01*
X74052724Y-184786575D01*
X74107564Y-184815819D01*
X74231627Y-184855194D01*
X74382554Y-184869078D01*
X74466186Y-184865156D01*
X74543222Y-184853334D01*
X74608821Y-184835292D01*
X74669195Y-184810352D01*
X74722465Y-184779831D01*
X74771275Y-184742821D01*
X74856534Y-184648673D01*
X74928437Y-184522254D01*
X75606088Y-183022602D01*
X75636863Y-182938583D01*
X75046039Y-182938583D01*
X75023691Y-183005750D01*
X74463642Y-184312327D01*
X74446334Y-184342458D01*
X74426159Y-184360856D01*
X74385240Y-184371067D01*
X74358028Y-184366974D01*
X74333592Y-184353950D01*
X74304152Y-184312327D01*
X73738485Y-183005750D01*
X73718946Y-182938583D01*
X73119696Y-182938583D01*
X73150471Y-183022602D01*
X73833740Y-184522254D01*
G37*
G36*
X78554054Y-182945495D02*
G01*
X78693040Y-182978131D01*
X78810200Y-183035582D01*
X78861610Y-183073675D01*
X78908007Y-183117857D01*
X78924978Y-183136825D01*
X78993246Y-183239789D01*
X79035856Y-183359036D01*
X79046949Y-183424872D01*
X79050767Y-183495334D01*
X79041500Y-183596407D01*
X79004945Y-183709996D01*
X78943770Y-183804383D01*
X78860380Y-183877575D01*
X78903881Y-183904736D01*
X78942337Y-183937906D01*
X78979318Y-183981233D01*
X79010008Y-184030297D01*
X79035974Y-184088356D01*
X79054675Y-184150821D01*
X79066399Y-184219044D01*
X79070307Y-184289490D01*
X79057130Y-184407606D01*
X79038460Y-184471427D01*
X79012437Y-184531798D01*
X78978824Y-184589463D01*
X78938782Y-184642421D01*
X78869517Y-184709630D01*
X78764770Y-184773727D01*
X78703094Y-184797414D01*
X78634710Y-184814957D01*
X78556932Y-184826165D01*
X78471179Y-184830000D01*
X77090841Y-184830000D01*
X77081885Y-184829846D01*
X77018878Y-184815919D01*
X76996772Y-184800735D01*
X76980443Y-184779969D01*
X76968719Y-184748709D01*
X76964811Y-184709710D01*
X76964811Y-184328813D01*
X77471615Y-184328813D01*
X77476983Y-184355135D01*
X77489638Y-184366908D01*
X77510816Y-184370823D01*
X78350767Y-184370823D01*
X78357913Y-184370755D01*
X78404125Y-184366413D01*
X78441709Y-184355880D01*
X78474367Y-184338059D01*
X78499145Y-184314769D01*
X78523301Y-184276510D01*
X78538346Y-184208279D01*
X78532910Y-184169557D01*
X78518316Y-184134875D01*
X78496336Y-184104476D01*
X78494716Y-184102729D01*
X78442394Y-184066080D01*
X78402383Y-184055041D01*
X78350767Y-184051231D01*
X77471615Y-184051231D01*
X77471615Y-184328813D01*
X76964811Y-184328813D01*
X76964811Y-183456378D01*
X77471615Y-183456378D01*
X77471615Y-183712344D01*
X78353576Y-183712344D01*
X78359522Y-183712290D01*
X78402171Y-183708091D01*
X78437210Y-183697622D01*
X78468879Y-183678994D01*
X78493527Y-183653970D01*
X78513353Y-183621503D01*
X78527111Y-183562135D01*
X78524331Y-183535718D01*
X78512474Y-183500862D01*
X78493527Y-183470300D01*
X78489497Y-183465666D01*
X78437131Y-183428996D01*
X78399678Y-183418364D01*
X78353576Y-183414612D01*
X77510816Y-183414612D01*
X77489129Y-183418763D01*
X77475758Y-183432675D01*
X77471615Y-183456378D01*
X76964811Y-183456378D01*
X76964811Y-183056186D01*
X76964857Y-183051750D01*
X76978197Y-182992023D01*
X76993928Y-182970302D01*
X77015697Y-182954214D01*
X77049081Y-182942491D01*
X77090841Y-182938583D01*
X78443213Y-182938583D01*
X78554054Y-182945495D01*
G37*
G36*
X55170603Y-215938583D02*
G01*
X55170603Y-217830000D01*
X55680216Y-217830000D01*
X55680216Y-215938583D01*
X55170603Y-215938583D01*
G37*
G36*
X58312177Y-215938583D02*
G01*
X57816608Y-215938583D01*
X57816608Y-217161385D01*
X57812945Y-217185490D01*
X57802929Y-217201795D01*
X57777407Y-217211699D01*
X57752540Y-217207852D01*
X57729780Y-217189351D01*
X56805809Y-216084152D01*
X56752511Y-216024903D01*
X56698468Y-215977972D01*
X56649832Y-215946457D01*
X56598507Y-215922763D01*
X56485208Y-215896323D01*
X56397069Y-215891688D01*
X56320022Y-215895687D01*
X56248288Y-215908050D01*
X56190177Y-215926278D01*
X56137302Y-215951778D01*
X56094327Y-215981497D01*
X56056480Y-216017778D01*
X56025648Y-216058554D01*
X56000129Y-216105736D01*
X55966459Y-216219745D01*
X55957432Y-216334989D01*
X55957432Y-217830000D01*
X56455809Y-217830000D01*
X56455809Y-216545282D01*
X56459441Y-216523526D01*
X56469232Y-216507092D01*
X56502091Y-216492056D01*
X56503437Y-216492037D01*
X56522141Y-216495945D01*
X56539241Y-216507669D01*
X56548255Y-216517316D01*
X57587020Y-217720701D01*
X57628013Y-217762155D01*
X57673047Y-217796419D01*
X57773913Y-217843814D01*
X57897339Y-217866861D01*
X57956559Y-217869078D01*
X58013644Y-217865120D01*
X58068750Y-217853044D01*
X58117550Y-217834140D01*
X58162829Y-217807626D01*
X58201193Y-217775753D01*
X58235020Y-217736818D01*
X58262499Y-217692745D01*
X58284553Y-217641839D01*
X58300392Y-217584740D01*
X58309753Y-217520646D01*
X58312177Y-217463513D01*
X58312177Y-215938583D01*
G37*
G36*
X60905492Y-215939190D02*
G01*
X61005875Y-215945925D01*
X61100218Y-215959840D01*
X61189275Y-215980757D01*
X61272576Y-216008261D01*
X61352206Y-216042940D01*
X61426174Y-216083805D01*
X61497802Y-216132844D01*
X61563660Y-216187833D01*
X61633179Y-216259281D01*
X61734378Y-216398198D01*
X61808506Y-216551781D01*
X61853654Y-216715176D01*
X61868841Y-216884413D01*
X61868810Y-216892385D01*
X61864099Y-216981474D01*
X61851637Y-217067964D01*
X61831371Y-217152932D01*
X61803828Y-217234461D01*
X61768932Y-217313077D01*
X61727361Y-217387391D01*
X61679315Y-217457262D01*
X61625331Y-217522009D01*
X61534348Y-217609145D01*
X61398482Y-217702561D01*
X61323504Y-217740070D01*
X61243192Y-217771471D01*
X61157345Y-217796489D01*
X61065958Y-217814783D01*
X60967745Y-217826144D01*
X60863660Y-217830000D01*
X59841748Y-217830000D01*
X59834188Y-217829883D01*
X59772214Y-217816125D01*
X59750287Y-217800885D01*
X59734036Y-217779969D01*
X59722420Y-217748709D01*
X59718527Y-217709710D01*
X59718527Y-216478970D01*
X60225331Y-216478970D01*
X60225331Y-217292543D01*
X60228765Y-217314148D01*
X60240672Y-217327484D01*
X60261723Y-217331622D01*
X60863660Y-217331622D01*
X60909858Y-217330328D01*
X60981074Y-217322577D01*
X61045193Y-217308204D01*
X61103188Y-217287379D01*
X61154711Y-217260665D01*
X61202834Y-217226295D01*
X61244557Y-217186297D01*
X61302792Y-217107512D01*
X61347067Y-217000833D01*
X61362037Y-216887100D01*
X61361952Y-216878344D01*
X61356690Y-216818228D01*
X61343626Y-216760251D01*
X61322946Y-216704435D01*
X61295284Y-216652283D01*
X61222086Y-216562868D01*
X61216462Y-216557723D01*
X61125958Y-216494776D01*
X61073237Y-216471900D01*
X61013618Y-216454813D01*
X60943407Y-216443710D01*
X60863660Y-216439891D01*
X60261723Y-216439891D01*
X60241811Y-216443470D01*
X60229345Y-216456038D01*
X60225331Y-216478970D01*
X59718527Y-216478970D01*
X59718527Y-216056186D01*
X59731655Y-215992338D01*
X59747214Y-215970423D01*
X59768692Y-215954214D01*
X59801261Y-215942491D01*
X59841748Y-215938583D01*
X60863660Y-215938583D01*
X60905492Y-215939190D01*
G37*
G36*
X87619088Y-215939181D02*
G01*
X87719481Y-215945892D01*
X87813828Y-215959784D01*
X87902897Y-215980683D01*
X87986210Y-216008169D01*
X88065882Y-216042845D01*
X88139895Y-216083713D01*
X88211620Y-216132792D01*
X88277582Y-216187833D01*
X88347100Y-216259281D01*
X88448299Y-216398198D01*
X88522428Y-216551781D01*
X88567576Y-216715176D01*
X88582763Y-216884413D01*
X88582732Y-216892301D01*
X88578026Y-216981359D01*
X88565566Y-217067822D01*
X88545294Y-217152793D01*
X88517742Y-217234326D01*
X88482824Y-217312971D01*
X88441229Y-217387313D01*
X88393148Y-217457226D01*
X88339131Y-217522009D01*
X88248191Y-217609144D01*
X88112361Y-217702550D01*
X88037382Y-217740063D01*
X87957067Y-217771466D01*
X87871217Y-217796487D01*
X87779831Y-217814783D01*
X87681636Y-217826144D01*
X87577582Y-217830000D01*
X87179954Y-217830000D01*
X87037038Y-217822602D01*
X86942381Y-217808653D01*
X86853292Y-217787823D01*
X86769046Y-217760170D01*
X86690267Y-217726135D01*
X86615223Y-217685027D01*
X86545701Y-217637887D01*
X86479182Y-217582846D01*
X86418405Y-217522009D01*
X86407318Y-217509677D01*
X86307991Y-217373674D01*
X86234813Y-217221260D01*
X86189953Y-217056905D01*
X86175009Y-216887100D01*
X86681577Y-216887100D01*
X86691425Y-216979528D01*
X86707956Y-217036916D01*
X86731765Y-217090905D01*
X86762405Y-217141015D01*
X86799180Y-217186297D01*
X86825120Y-217212471D01*
X86915998Y-217275764D01*
X86970525Y-217299210D01*
X87031628Y-217316621D01*
X87101887Y-217327793D01*
X87179954Y-217331622D01*
X87577582Y-217331622D01*
X87623703Y-217330330D01*
X87694896Y-217322582D01*
X87759001Y-217308210D01*
X87816991Y-217287383D01*
X87868515Y-217260665D01*
X87916634Y-217226295D01*
X87958356Y-217186297D01*
X88016724Y-217107330D01*
X88060996Y-217000684D01*
X88075959Y-216887100D01*
X88075880Y-216878682D01*
X88070653Y-216818558D01*
X88057613Y-216760570D01*
X88036928Y-216704675D01*
X88009254Y-216652450D01*
X87936008Y-216562868D01*
X87930410Y-216557747D01*
X87839876Y-216494790D01*
X87787127Y-216471905D01*
X87727485Y-216454813D01*
X87657287Y-216443710D01*
X87577582Y-216439891D01*
X87179954Y-216439891D01*
X87041576Y-216452381D01*
X86979465Y-216468752D01*
X86924692Y-216491226D01*
X86869736Y-216523763D01*
X86821528Y-216562868D01*
X86812432Y-216571628D01*
X86773740Y-216615570D01*
X86741104Y-216664483D01*
X86696603Y-216772380D01*
X86681577Y-216887100D01*
X86175009Y-216887100D01*
X86174773Y-216884413D01*
X86178920Y-216795581D01*
X86191091Y-216709061D01*
X86210913Y-216625118D01*
X86238621Y-216542581D01*
X86273507Y-216463541D01*
X86315694Y-216387571D01*
X86364416Y-216316029D01*
X86479954Y-216187833D01*
X86513345Y-216158664D01*
X86648876Y-216065355D01*
X86723116Y-216028084D01*
X86802783Y-215996811D01*
X86887734Y-215971962D01*
X86978439Y-215953747D01*
X87076075Y-215942432D01*
X87179954Y-215938583D01*
X87577582Y-215938583D01*
X87619088Y-215939181D01*
G37*
G36*
X90326046Y-217830000D02*
G01*
X90440743Y-217826056D01*
X90543416Y-217814083D01*
X90624316Y-217796682D01*
X90696393Y-217772716D01*
X90754559Y-217745062D01*
X90805810Y-217711734D01*
X90848241Y-217674741D01*
X90884771Y-217632440D01*
X90940742Y-217531636D01*
X90976271Y-217401795D01*
X90989654Y-217225376D01*
X90989654Y-215938583D01*
X90480042Y-215938583D01*
X90480042Y-217169445D01*
X90476125Y-217217883D01*
X90464338Y-217258305D01*
X90447701Y-217286991D01*
X90425068Y-217309866D01*
X90363510Y-217338151D01*
X90292463Y-217345666D01*
X89505635Y-217345666D01*
X89453988Y-217341758D01*
X89411361Y-217330034D01*
X89381682Y-217313681D01*
X89358312Y-217291536D01*
X89330417Y-217232498D01*
X89323674Y-217169445D01*
X89323674Y-215938583D01*
X88814061Y-215938583D01*
X88814061Y-217225376D01*
X88818027Y-217326061D01*
X88830160Y-217416921D01*
X88847798Y-217488680D01*
X88872222Y-217553176D01*
X88900690Y-217605901D01*
X88935207Y-217652775D01*
X88974233Y-217692396D01*
X89019169Y-217726808D01*
X89128961Y-217780936D01*
X89273881Y-217816238D01*
X89477669Y-217830000D01*
X90326046Y-217830000D01*
G37*
G36*
X91173935Y-215938583D02*
G01*
X91173935Y-216439891D01*
X92005582Y-216439891D01*
X92005582Y-217830000D01*
X92515073Y-217830000D01*
X92515073Y-216439891D01*
X93343911Y-216439891D01*
X93343911Y-215938583D01*
X91173935Y-215938583D01*
G37*
G36*
X95856503Y-215939190D02*
G01*
X95956887Y-215945925D01*
X96051230Y-215959840D01*
X96140287Y-215980757D01*
X96223588Y-216008261D01*
X96303218Y-216042940D01*
X96377186Y-216083805D01*
X96448814Y-216132844D01*
X96514672Y-216187833D01*
X96584190Y-216259281D01*
X96685389Y-216398198D01*
X96759518Y-216551781D01*
X96804666Y-216715176D01*
X96819853Y-216884413D01*
X96819822Y-216892385D01*
X96815110Y-216981474D01*
X96802649Y-217067964D01*
X96782383Y-217152932D01*
X96754840Y-217234461D01*
X96719944Y-217313077D01*
X96678373Y-217387391D01*
X96630327Y-217457262D01*
X96576343Y-217522009D01*
X96485359Y-217609145D01*
X96349493Y-217702561D01*
X96274516Y-217740070D01*
X96194204Y-217771471D01*
X96108357Y-217796489D01*
X96016970Y-217814783D01*
X95918757Y-217826144D01*
X95814672Y-217830000D01*
X94792760Y-217830000D01*
X94785200Y-217829883D01*
X94723226Y-217816125D01*
X94701299Y-217800885D01*
X94685048Y-217779969D01*
X94673432Y-217748709D01*
X94669539Y-217709710D01*
X94669539Y-216478970D01*
X95176343Y-216478970D01*
X95176343Y-217292543D01*
X95179777Y-217314148D01*
X95191684Y-217327484D01*
X95212735Y-217331622D01*
X95814672Y-217331622D01*
X95860870Y-217330328D01*
X95932086Y-217322577D01*
X95996205Y-217308204D01*
X96054200Y-217287379D01*
X96105723Y-217260665D01*
X96153846Y-217226295D01*
X96195568Y-217186297D01*
X96253803Y-217107512D01*
X96298079Y-217000833D01*
X96313049Y-216887100D01*
X96312963Y-216878344D01*
X96307702Y-216818228D01*
X96294637Y-216760251D01*
X96273957Y-216704435D01*
X96246295Y-216652283D01*
X96173098Y-216562868D01*
X96167474Y-216557723D01*
X96076969Y-216494776D01*
X96024249Y-216471900D01*
X95964629Y-216454813D01*
X95894419Y-216443710D01*
X95814672Y-216439891D01*
X95212735Y-216439891D01*
X95192823Y-216443470D01*
X95180357Y-216456038D01*
X95176343Y-216478970D01*
X94669539Y-216478970D01*
X94669539Y-216056186D01*
X94682667Y-215992338D01*
X94698226Y-215970423D01*
X94719704Y-215954214D01*
X94752273Y-215942491D01*
X94792760Y-215938583D01*
X95814672Y-215938583D01*
X95856503Y-215939190D01*
G37*
G36*
X55215544Y-182938583D02*
G01*
X55215544Y-184830000D01*
X55725157Y-184830000D01*
X55725157Y-182938583D01*
X55215544Y-182938583D01*
G37*
G36*
X58357118Y-182938583D02*
G01*
X57861549Y-182938583D01*
X57861549Y-184161385D01*
X57857886Y-184185490D01*
X57847870Y-184201795D01*
X57822348Y-184211699D01*
X57797481Y-184207852D01*
X57774721Y-184189351D01*
X56850750Y-183084152D01*
X56797452Y-183024903D01*
X56743409Y-182977972D01*
X56694773Y-182946457D01*
X56643448Y-182922763D01*
X56530149Y-182896323D01*
X56442010Y-182891688D01*
X56364963Y-182895687D01*
X56293229Y-182908050D01*
X56235118Y-182926278D01*
X56182243Y-182951778D01*
X56139268Y-182981497D01*
X56101421Y-183017778D01*
X56070589Y-183058554D01*
X56045070Y-183105736D01*
X56011400Y-183219745D01*
X56002373Y-183334989D01*
X56002373Y-184830000D01*
X56500750Y-184830000D01*
X56500750Y-183545282D01*
X56504382Y-183523526D01*
X56514173Y-183507092D01*
X56547032Y-183492056D01*
X56548378Y-183492037D01*
X56567082Y-183495945D01*
X56584182Y-183507669D01*
X56593196Y-183517316D01*
X57631961Y-184720701D01*
X57672954Y-184762155D01*
X57717988Y-184796419D01*
X57818854Y-184843814D01*
X57942280Y-184866861D01*
X58001500Y-184869078D01*
X58058585Y-184865120D01*
X58113691Y-184853044D01*
X58162491Y-184834140D01*
X58207770Y-184807626D01*
X58246134Y-184775753D01*
X58279961Y-184736818D01*
X58307440Y-184692745D01*
X58329494Y-184641839D01*
X58345333Y-184584740D01*
X58354694Y-184520646D01*
X58357118Y-184463513D01*
X58357118Y-182938583D01*
G37*
G36*
X61355520Y-182945495D02*
G01*
X61494506Y-182978131D01*
X61611666Y-183035582D01*
X61663076Y-183073675D01*
X61709473Y-183117857D01*
X61726444Y-183136825D01*
X61794712Y-183239789D01*
X61837322Y-183359036D01*
X61848415Y-183424872D01*
X61852233Y-183495334D01*
X61842966Y-183596407D01*
X61806411Y-183709996D01*
X61745236Y-183804383D01*
X61661846Y-183877575D01*
X61705347Y-183904736D01*
X61743802Y-183937906D01*
X61780784Y-183981233D01*
X61811474Y-184030297D01*
X61837440Y-184088356D01*
X61856141Y-184150821D01*
X61867865Y-184219044D01*
X61871773Y-184289490D01*
X61858596Y-184407606D01*
X61839926Y-184471427D01*
X61813903Y-184531798D01*
X61780290Y-184589463D01*
X61740248Y-184642421D01*
X61670983Y-184709630D01*
X61566236Y-184773727D01*
X61504560Y-184797414D01*
X61436176Y-184814957D01*
X61358398Y-184826165D01*
X61272645Y-184830000D01*
X59892306Y-184830000D01*
X59883351Y-184829846D01*
X59820344Y-184815919D01*
X59798237Y-184800735D01*
X59781909Y-184779969D01*
X59770185Y-184748709D01*
X59766277Y-184709710D01*
X59766277Y-184328813D01*
X60273081Y-184328813D01*
X60278449Y-184355135D01*
X60291104Y-184366908D01*
X60312282Y-184370823D01*
X61152233Y-184370823D01*
X61159378Y-184370755D01*
X61205590Y-184366413D01*
X61243175Y-184355880D01*
X61275833Y-184338059D01*
X61300611Y-184314769D01*
X61324767Y-184276510D01*
X61339812Y-184208279D01*
X61334376Y-184169557D01*
X61319782Y-184134875D01*
X61297802Y-184104476D01*
X61296182Y-184102729D01*
X61243860Y-184066080D01*
X61203849Y-184055041D01*
X61152233Y-184051231D01*
X60273081Y-184051231D01*
X60273081Y-184328813D01*
X59766277Y-184328813D01*
X59766277Y-183456378D01*
X60273081Y-183456378D01*
X60273081Y-183712344D01*
X61155042Y-183712344D01*
X61160988Y-183712290D01*
X61203637Y-183708091D01*
X61238675Y-183697622D01*
X61270345Y-183678994D01*
X61294993Y-183653970D01*
X61314818Y-183621503D01*
X61328577Y-183562135D01*
X61325797Y-183535718D01*
X61313940Y-183500862D01*
X61294993Y-183470300D01*
X61290963Y-183465666D01*
X61238597Y-183428996D01*
X61201144Y-183418364D01*
X61155042Y-183414612D01*
X60312282Y-183414612D01*
X60290595Y-183418763D01*
X60277224Y-183432675D01*
X60273081Y-183456378D01*
X59766277Y-183456378D01*
X59766277Y-183056186D01*
X59766323Y-183051750D01*
X59779663Y-182992023D01*
X59795394Y-182970302D01*
X59817163Y-182954214D01*
X59850547Y-182942491D01*
X59892306Y-182938583D01*
X61244679Y-182938583D01*
X61355520Y-182945495D01*
G37*
G36*
X55419507Y-94239181D02*
G01*
X55519900Y-94245892D01*
X55614247Y-94259784D01*
X55703316Y-94280683D01*
X55786629Y-94308169D01*
X55866301Y-94342845D01*
X55940314Y-94383713D01*
X56012039Y-94432792D01*
X56078001Y-94487833D01*
X56147519Y-94559281D01*
X56248718Y-94698198D01*
X56322847Y-94851781D01*
X56367995Y-95015176D01*
X56383182Y-95184413D01*
X56383151Y-95192301D01*
X56378445Y-95281359D01*
X56365985Y-95367822D01*
X56345713Y-95452793D01*
X56318161Y-95534326D01*
X56283243Y-95612971D01*
X56241648Y-95687313D01*
X56193567Y-95757226D01*
X56139550Y-95822009D01*
X56048610Y-95909144D01*
X55912780Y-96002550D01*
X55837801Y-96040063D01*
X55757486Y-96071466D01*
X55671636Y-96096487D01*
X55580250Y-96114783D01*
X55482055Y-96126144D01*
X55378001Y-96130000D01*
X54980373Y-96130000D01*
X54837457Y-96122602D01*
X54742800Y-96108653D01*
X54653711Y-96087823D01*
X54569465Y-96060170D01*
X54490686Y-96026135D01*
X54415642Y-95985027D01*
X54346120Y-95937887D01*
X54279601Y-95882846D01*
X54218824Y-95822009D01*
X54207737Y-95809677D01*
X54108410Y-95673674D01*
X54035232Y-95521260D01*
X53990372Y-95356905D01*
X53975428Y-95187100D01*
X54481996Y-95187100D01*
X54491844Y-95279528D01*
X54508375Y-95336916D01*
X54532184Y-95390905D01*
X54562824Y-95441015D01*
X54599599Y-95486297D01*
X54625539Y-95512471D01*
X54716417Y-95575764D01*
X54770944Y-95599210D01*
X54832047Y-95616621D01*
X54902306Y-95627793D01*
X54980373Y-95631622D01*
X55378001Y-95631622D01*
X55424122Y-95630330D01*
X55495315Y-95622582D01*
X55559420Y-95608210D01*
X55617410Y-95587383D01*
X55668934Y-95560665D01*
X55717053Y-95526295D01*
X55758775Y-95486297D01*
X55817143Y-95407330D01*
X55861415Y-95300684D01*
X55876378Y-95187100D01*
X55876299Y-95178682D01*
X55871072Y-95118558D01*
X55858032Y-95060570D01*
X55837347Y-95004675D01*
X55809673Y-94952450D01*
X55736427Y-94862868D01*
X55730829Y-94857747D01*
X55640295Y-94794790D01*
X55587546Y-94771905D01*
X55527904Y-94754813D01*
X55457706Y-94743710D01*
X55378001Y-94739891D01*
X54980373Y-94739891D01*
X54841995Y-94752381D01*
X54779884Y-94768752D01*
X54725111Y-94791226D01*
X54670155Y-94823763D01*
X54621947Y-94862868D01*
X54612851Y-94871628D01*
X54574159Y-94915570D01*
X54541523Y-94964483D01*
X54497022Y-95072380D01*
X54481996Y-95187100D01*
X53975428Y-95187100D01*
X53975192Y-95184413D01*
X53979339Y-95095581D01*
X53991510Y-95009061D01*
X54011332Y-94925118D01*
X54039040Y-94842581D01*
X54073926Y-94763541D01*
X54116113Y-94687571D01*
X54164835Y-94616029D01*
X54280373Y-94487833D01*
X54313764Y-94458664D01*
X54449295Y-94365355D01*
X54523535Y-94328084D01*
X54603202Y-94296811D01*
X54688153Y-94271962D01*
X54778858Y-94253747D01*
X54876494Y-94242432D01*
X54980373Y-94238583D01*
X55378001Y-94238583D01*
X55419507Y-94239181D01*
G37*
G36*
X56964480Y-94238583D02*
G01*
X56895051Y-94242505D01*
X56833450Y-94254325D01*
X56785005Y-94271655D01*
X56742854Y-94295428D01*
X56709146Y-94323541D01*
X56680966Y-94357389D01*
X56641303Y-94442285D01*
X56623483Y-94557647D01*
X56622906Y-94585896D01*
X56622906Y-96130000D01*
X57129710Y-96130000D01*
X57129710Y-95498387D01*
X58605304Y-95498387D01*
X58605304Y-95027976D01*
X57129710Y-95027976D01*
X57129710Y-94823789D01*
X57133653Y-94789951D01*
X57145618Y-94764801D01*
X57182740Y-94742457D01*
X57208112Y-94739891D01*
X58613730Y-94739891D01*
X58613730Y-94238583D01*
X56964480Y-94238583D01*
G37*
G36*
X59176343Y-94238583D02*
G01*
X59106914Y-94242505D01*
X59045314Y-94254325D01*
X58996869Y-94271655D01*
X58954718Y-94295428D01*
X58921009Y-94323541D01*
X58892829Y-94357389D01*
X58853166Y-94442285D01*
X58835346Y-94557647D01*
X58834770Y-94585896D01*
X58834770Y-96130000D01*
X59341574Y-96130000D01*
X59341574Y-95498387D01*
X60817167Y-95498387D01*
X60817167Y-95027976D01*
X59341574Y-95027976D01*
X59341574Y-94823789D01*
X59345516Y-94789951D01*
X59357481Y-94764801D01*
X59394603Y-94742457D01*
X59419976Y-94739891D01*
X60825593Y-94739891D01*
X60825593Y-94238583D01*
X59176343Y-94238583D01*
G37*
G36*
X63029030Y-94238583D02*
G01*
X61640265Y-94238583D01*
X61541220Y-94242407D01*
X61453781Y-94253546D01*
X61380047Y-94270569D01*
X61314970Y-94293379D01*
X61207548Y-94354188D01*
X61144574Y-94409431D01*
X61100383Y-94460451D01*
X61062420Y-94516229D01*
X61031400Y-94575740D01*
X61007516Y-94638821D01*
X60991546Y-94703381D01*
X60983330Y-94770299D01*
X60982275Y-94804616D01*
X60986128Y-94872586D01*
X60997468Y-94937920D01*
X61041927Y-95060632D01*
X61114128Y-95169918D01*
X61141888Y-95200533D01*
X61190596Y-95244731D01*
X61246646Y-95283348D01*
X61304174Y-95312712D01*
X61369523Y-95336636D01*
X61441890Y-95354342D01*
X61523459Y-95365988D01*
X61640265Y-95371381D01*
X62410241Y-95371381D01*
X62467751Y-95375293D01*
X62509027Y-95387041D01*
X62544574Y-95412903D01*
X62576456Y-95465446D01*
X62583775Y-95512676D01*
X62579970Y-95545618D01*
X62568967Y-95575289D01*
X62553001Y-95598527D01*
X62530375Y-95619276D01*
X62499606Y-95634224D01*
X62410241Y-95645666D01*
X61032589Y-95645666D01*
X61032589Y-96130000D01*
X62499756Y-96130000D01*
X62584295Y-96126162D01*
X62661639Y-96114927D01*
X62730589Y-96097208D01*
X62793319Y-96073219D01*
X62901572Y-96007858D01*
X62978594Y-95934117D01*
X63054382Y-95822234D01*
X63082108Y-95760487D01*
X63102412Y-95695741D01*
X63114429Y-95631242D01*
X63118545Y-95565310D01*
X63103464Y-95439721D01*
X63058303Y-95317838D01*
X62984354Y-95206404D01*
X62956246Y-95175376D01*
X62906745Y-95130374D01*
X62850713Y-95091170D01*
X62792876Y-95060803D01*
X62728519Y-95036435D01*
X62659442Y-95019031D01*
X62583353Y-95008236D01*
X62499756Y-95004528D01*
X61668231Y-95004528D01*
X61611593Y-95000450D01*
X61574394Y-94987531D01*
X61559054Y-94976441D01*
X61537476Y-94954054D01*
X61521524Y-94926072D01*
X61511427Y-94875080D01*
X61515252Y-94840683D01*
X61526396Y-94809888D01*
X61550628Y-94776406D01*
X61574722Y-94758352D01*
X61607968Y-94745961D01*
X61668231Y-94739891D01*
X63029030Y-94739891D01*
X63029030Y-94238583D01*
G37*
G36*
X63587858Y-94238583D02*
G01*
X63525100Y-94242496D01*
X63470671Y-94254258D01*
X63429500Y-94271213D01*
X63394836Y-94294346D01*
X63368302Y-94321599D01*
X63347465Y-94354297D01*
X63322658Y-94437702D01*
X63319068Y-94493450D01*
X63319068Y-95866828D01*
X63322971Y-95926739D01*
X63334659Y-95978855D01*
X63351689Y-96018903D01*
X63374904Y-96052761D01*
X63435841Y-96100051D01*
X63521444Y-96125709D01*
X63585049Y-96130000D01*
X65309892Y-96130000D01*
X65309892Y-95645666D01*
X63870691Y-95645666D01*
X63848713Y-95641758D01*
X63834254Y-95630034D01*
X63825872Y-95595840D01*
X63825872Y-95368572D01*
X65301465Y-95368572D01*
X65301465Y-95004528D01*
X63825872Y-95004528D01*
X63825872Y-94787763D01*
X63829856Y-94763440D01*
X63842111Y-94747456D01*
X63870691Y-94739891D01*
X65309892Y-94739891D01*
X65309892Y-94238583D01*
X63587858Y-94238583D01*
G37*
G36*
X65463398Y-94238583D02*
G01*
X65463398Y-94739891D01*
X66295045Y-94739891D01*
X66295045Y-96130000D01*
X66804536Y-96130000D01*
X66804536Y-94739891D01*
X67633374Y-94739891D01*
X67633374Y-94238583D01*
X65463398Y-94238583D01*
G37*
G36*
X70551053Y-94245495D02*
G01*
X70690039Y-94278131D01*
X70807200Y-94335582D01*
X70858610Y-94373675D01*
X70905007Y-94417857D01*
X70921978Y-94436825D01*
X70990246Y-94539789D01*
X71032855Y-94659036D01*
X71043949Y-94724872D01*
X71047767Y-94795334D01*
X71038500Y-94896407D01*
X71001944Y-95009996D01*
X70940769Y-95104383D01*
X70857380Y-95177575D01*
X70900880Y-95204736D01*
X70939336Y-95237906D01*
X70976318Y-95281233D01*
X71007008Y-95330297D01*
X71032973Y-95388356D01*
X71051675Y-95450821D01*
X71063398Y-95519044D01*
X71067306Y-95589490D01*
X71054130Y-95707606D01*
X71035460Y-95771427D01*
X71009437Y-95831798D01*
X70975824Y-95889463D01*
X70935782Y-95942421D01*
X70866517Y-96009630D01*
X70761770Y-96073727D01*
X70700094Y-96097414D01*
X70631709Y-96114957D01*
X70553932Y-96126165D01*
X70468179Y-96130000D01*
X69087840Y-96130000D01*
X69078885Y-96129846D01*
X69015878Y-96115919D01*
X68993771Y-96100735D01*
X68977442Y-96079969D01*
X68965719Y-96048709D01*
X68961811Y-96009710D01*
X68961811Y-95628813D01*
X69468615Y-95628813D01*
X69473983Y-95655135D01*
X69486638Y-95666908D01*
X69507816Y-95670823D01*
X70347767Y-95670823D01*
X70354912Y-95670755D01*
X70401124Y-95666413D01*
X70438709Y-95655880D01*
X70471366Y-95638059D01*
X70496144Y-95614769D01*
X70520301Y-95576510D01*
X70535345Y-95508279D01*
X70529910Y-95469557D01*
X70515316Y-95434875D01*
X70493336Y-95404476D01*
X70491715Y-95402729D01*
X70439393Y-95366080D01*
X70399383Y-95355041D01*
X70347767Y-95351231D01*
X69468615Y-95351231D01*
X69468615Y-95628813D01*
X68961811Y-95628813D01*
X68961811Y-94756378D01*
X69468615Y-94756378D01*
X69468615Y-95012344D01*
X70350576Y-95012344D01*
X70356522Y-95012290D01*
X70399171Y-95008091D01*
X70434209Y-94997622D01*
X70465878Y-94978994D01*
X70490527Y-94953970D01*
X70510352Y-94921503D01*
X70524110Y-94862135D01*
X70521331Y-94835718D01*
X70509474Y-94800862D01*
X70490527Y-94770300D01*
X70486497Y-94765666D01*
X70434130Y-94728996D01*
X70396678Y-94718364D01*
X70350576Y-94714612D01*
X69507816Y-94714612D01*
X69486128Y-94718763D01*
X69472758Y-94732675D01*
X69468615Y-94756378D01*
X68961811Y-94756378D01*
X68961811Y-94356186D01*
X68961857Y-94351750D01*
X68975197Y-94292023D01*
X68990928Y-94270302D01*
X69012696Y-94254214D01*
X69046080Y-94242491D01*
X69087840Y-94238583D01*
X70440213Y-94238583D01*
X70551053Y-94245495D01*
G37*
G36*
X55475194Y-121739181D02*
G01*
X55575587Y-121745892D01*
X55669934Y-121759784D01*
X55759003Y-121780683D01*
X55842316Y-121808169D01*
X55921988Y-121842845D01*
X55996001Y-121883713D01*
X56067726Y-121932792D01*
X56133688Y-121987833D01*
X56203206Y-122059281D01*
X56304405Y-122198198D01*
X56378534Y-122351781D01*
X56423682Y-122515176D01*
X56438869Y-122684413D01*
X56438838Y-122692301D01*
X56434132Y-122781359D01*
X56421672Y-122867822D01*
X56401400Y-122952793D01*
X56373848Y-123034326D01*
X56338930Y-123112971D01*
X56297335Y-123187313D01*
X56249254Y-123257226D01*
X56195237Y-123322009D01*
X56104297Y-123409144D01*
X55968467Y-123502550D01*
X55893488Y-123540063D01*
X55813173Y-123571466D01*
X55727323Y-123596487D01*
X55635937Y-123614783D01*
X55537742Y-123626144D01*
X55433688Y-123630000D01*
X55036060Y-123630000D01*
X54893144Y-123622602D01*
X54798487Y-123608653D01*
X54709398Y-123587823D01*
X54625152Y-123560170D01*
X54546373Y-123526135D01*
X54471329Y-123485027D01*
X54401807Y-123437887D01*
X54335288Y-123382846D01*
X54274511Y-123322009D01*
X54263424Y-123309677D01*
X54164097Y-123173674D01*
X54090919Y-123021260D01*
X54046059Y-122856905D01*
X54031115Y-122687100D01*
X54537683Y-122687100D01*
X54547531Y-122779528D01*
X54564062Y-122836916D01*
X54587871Y-122890905D01*
X54618511Y-122941015D01*
X54655286Y-122986297D01*
X54681226Y-123012471D01*
X54772104Y-123075764D01*
X54826631Y-123099210D01*
X54887734Y-123116621D01*
X54957993Y-123127793D01*
X55036060Y-123131622D01*
X55433688Y-123131622D01*
X55479809Y-123130330D01*
X55551002Y-123122582D01*
X55615107Y-123108210D01*
X55673097Y-123087383D01*
X55724621Y-123060665D01*
X55772740Y-123026295D01*
X55814462Y-122986297D01*
X55872830Y-122907330D01*
X55917102Y-122800684D01*
X55932065Y-122687100D01*
X55931986Y-122678682D01*
X55926759Y-122618558D01*
X55913719Y-122560570D01*
X55893034Y-122504675D01*
X55865360Y-122452450D01*
X55792114Y-122362868D01*
X55786516Y-122357747D01*
X55695982Y-122294790D01*
X55643233Y-122271905D01*
X55583591Y-122254813D01*
X55513393Y-122243710D01*
X55433688Y-122239891D01*
X55036060Y-122239891D01*
X54897682Y-122252381D01*
X54835571Y-122268752D01*
X54780798Y-122291226D01*
X54725842Y-122323763D01*
X54677634Y-122362868D01*
X54668538Y-122371628D01*
X54629846Y-122415570D01*
X54597210Y-122464483D01*
X54552709Y-122572380D01*
X54537683Y-122687100D01*
X54031115Y-122687100D01*
X54030879Y-122684413D01*
X54035026Y-122595581D01*
X54047197Y-122509061D01*
X54067019Y-122425118D01*
X54094727Y-122342581D01*
X54129613Y-122263541D01*
X54171800Y-122187571D01*
X54220522Y-122116029D01*
X54336060Y-121987833D01*
X54369451Y-121958664D01*
X54504982Y-121865355D01*
X54579222Y-121828084D01*
X54658889Y-121796811D01*
X54743840Y-121771962D01*
X54834545Y-121753747D01*
X54932181Y-121742432D01*
X55036060Y-121738583D01*
X55433688Y-121738583D01*
X55475194Y-121739181D01*
G37*
G36*
X57020167Y-121738583D02*
G01*
X56950738Y-121742505D01*
X56889137Y-121754325D01*
X56840692Y-121771655D01*
X56798541Y-121795428D01*
X56764833Y-121823541D01*
X56736653Y-121857389D01*
X56696990Y-121942285D01*
X56679170Y-122057647D01*
X56678593Y-122085896D01*
X56678593Y-123630000D01*
X57185397Y-123630000D01*
X57185397Y-122998387D01*
X58660991Y-122998387D01*
X58660991Y-122527976D01*
X57185397Y-122527976D01*
X57185397Y-122323789D01*
X57189340Y-122289951D01*
X57201305Y-122264801D01*
X57238427Y-122242457D01*
X57263799Y-122239891D01*
X58669417Y-122239891D01*
X58669417Y-121738583D01*
X57020167Y-121738583D01*
G37*
G36*
X59232030Y-121738583D02*
G01*
X59162601Y-121742505D01*
X59101001Y-121754325D01*
X59052556Y-121771655D01*
X59010405Y-121795428D01*
X58976696Y-121823541D01*
X58948516Y-121857389D01*
X58908853Y-121942285D01*
X58891033Y-122057647D01*
X58890457Y-122085896D01*
X58890457Y-123630000D01*
X59397261Y-123630000D01*
X59397261Y-122998387D01*
X60872854Y-122998387D01*
X60872854Y-122527976D01*
X59397261Y-122527976D01*
X59397261Y-122323789D01*
X59401203Y-122289951D01*
X59413168Y-122264801D01*
X59450290Y-122242457D01*
X59475663Y-122239891D01*
X60881280Y-122239891D01*
X60881280Y-121738583D01*
X59232030Y-121738583D01*
G37*
G36*
X63084717Y-121738583D02*
G01*
X61695952Y-121738583D01*
X61596907Y-121742407D01*
X61509468Y-121753546D01*
X61435734Y-121770569D01*
X61370657Y-121793379D01*
X61263235Y-121854188D01*
X61200261Y-121909431D01*
X61156070Y-121960451D01*
X61118107Y-122016229D01*
X61087087Y-122075740D01*
X61063203Y-122138821D01*
X61047233Y-122203381D01*
X61039017Y-122270299D01*
X61037962Y-122304616D01*
X61041815Y-122372586D01*
X61053155Y-122437920D01*
X61097614Y-122560632D01*
X61169815Y-122669918D01*
X61197575Y-122700533D01*
X61246283Y-122744731D01*
X61302333Y-122783348D01*
X61359861Y-122812712D01*
X61425210Y-122836636D01*
X61497577Y-122854342D01*
X61579146Y-122865988D01*
X61695952Y-122871381D01*
X62465928Y-122871381D01*
X62523438Y-122875293D01*
X62564714Y-122887041D01*
X62600261Y-122912903D01*
X62632143Y-122965446D01*
X62639462Y-123012676D01*
X62635657Y-123045618D01*
X62624654Y-123075289D01*
X62608688Y-123098527D01*
X62586062Y-123119276D01*
X62555293Y-123134224D01*
X62465928Y-123145666D01*
X61088276Y-123145666D01*
X61088276Y-123630000D01*
X62555443Y-123630000D01*
X62639982Y-123626162D01*
X62717326Y-123614927D01*
X62786276Y-123597208D01*
X62849006Y-123573219D01*
X62957259Y-123507858D01*
X63034281Y-123434117D01*
X63110069Y-123322234D01*
X63137795Y-123260487D01*
X63158099Y-123195741D01*
X63170116Y-123131242D01*
X63174232Y-123065310D01*
X63159151Y-122939721D01*
X63113990Y-122817838D01*
X63040041Y-122706404D01*
X63011933Y-122675376D01*
X62962432Y-122630374D01*
X62906400Y-122591170D01*
X62848563Y-122560803D01*
X62784206Y-122536435D01*
X62715129Y-122519031D01*
X62639040Y-122508236D01*
X62555443Y-122504528D01*
X61723918Y-122504528D01*
X61667280Y-122500450D01*
X61630081Y-122487531D01*
X61614741Y-122476441D01*
X61593163Y-122454054D01*
X61577211Y-122426072D01*
X61567114Y-122375080D01*
X61570939Y-122340683D01*
X61582083Y-122309888D01*
X61606315Y-122276406D01*
X61630409Y-122258352D01*
X61663655Y-122245961D01*
X61723918Y-122239891D01*
X63084717Y-122239891D01*
X63084717Y-121738583D01*
G37*
G36*
X63643545Y-121738583D02*
G01*
X63580787Y-121742496D01*
X63526358Y-121754258D01*
X63485187Y-121771213D01*
X63450523Y-121794346D01*
X63423989Y-121821599D01*
X63403152Y-121854297D01*
X63378345Y-121937702D01*
X63374755Y-121993450D01*
X63374755Y-123366828D01*
X63378658Y-123426739D01*
X63390346Y-123478855D01*
X63407376Y-123518903D01*
X63430591Y-123552761D01*
X63491528Y-123600051D01*
X63577131Y-123625709D01*
X63640736Y-123630000D01*
X65365579Y-123630000D01*
X65365579Y-123145666D01*
X63926378Y-123145666D01*
X63904400Y-123141758D01*
X63889941Y-123130034D01*
X63881559Y-123095840D01*
X63881559Y-122868572D01*
X65357152Y-122868572D01*
X65357152Y-122504528D01*
X63881559Y-122504528D01*
X63881559Y-122287763D01*
X63885543Y-122263440D01*
X63897798Y-122247456D01*
X63926378Y-122239891D01*
X65365579Y-122239891D01*
X65365579Y-121738583D01*
X63643545Y-121738583D01*
G37*
G36*
X65519085Y-121738583D02*
G01*
X65519085Y-122239891D01*
X66350732Y-122239891D01*
X66350732Y-123630000D01*
X66860223Y-123630000D01*
X66860223Y-122239891D01*
X67689061Y-122239891D01*
X67689061Y-121738583D01*
X65519085Y-121738583D01*
G37*
G36*
X70968998Y-123131622D02*
G01*
X69977861Y-123131622D01*
X69899794Y-123127793D01*
X69829534Y-123116621D01*
X69768432Y-123099210D01*
X69713905Y-123075764D01*
X69623027Y-123012471D01*
X69597086Y-122986297D01*
X69560311Y-122941015D01*
X69529672Y-122890905D01*
X69505863Y-122836916D01*
X69489332Y-122779528D01*
X69479483Y-122687100D01*
X69494509Y-122572380D01*
X69539010Y-122464483D01*
X69571646Y-122415570D01*
X69610339Y-122371628D01*
X69619434Y-122362868D01*
X69667642Y-122323763D01*
X69722599Y-122291226D01*
X69777372Y-122268752D01*
X69839483Y-122252381D01*
X69977861Y-122239891D01*
X70968998Y-122239891D01*
X70968998Y-121738583D01*
X69977861Y-121738583D01*
X69873981Y-121742432D01*
X69776346Y-121753747D01*
X69685641Y-121771962D01*
X69600689Y-121796811D01*
X69521022Y-121828084D01*
X69446782Y-121865355D01*
X69311251Y-121958664D01*
X69277861Y-121987833D01*
X69162323Y-122116029D01*
X69113601Y-122187571D01*
X69071413Y-122263541D01*
X69036528Y-122342581D01*
X69008820Y-122425118D01*
X68988997Y-122509061D01*
X68976826Y-122595581D01*
X68972679Y-122684413D01*
X68987860Y-122856905D01*
X69032719Y-123021260D01*
X69105897Y-123173674D01*
X69205225Y-123309677D01*
X69216312Y-123322009D01*
X69277088Y-123382846D01*
X69343607Y-123437887D01*
X69413129Y-123485027D01*
X69488174Y-123526135D01*
X69566953Y-123560170D01*
X69651199Y-123587823D01*
X69740287Y-123608653D01*
X69834944Y-123622602D01*
X69977861Y-123630000D01*
X70968998Y-123630000D01*
X70968998Y-123131622D01*
G37*
G36*
X55053367Y-166438583D02*
G01*
X55053367Y-168330000D01*
X55562980Y-168330000D01*
X55562980Y-166438583D01*
X55053367Y-166438583D01*
G37*
G36*
X58194941Y-166438583D02*
G01*
X57699372Y-166438583D01*
X57699372Y-167661385D01*
X57695709Y-167685490D01*
X57685693Y-167701795D01*
X57660171Y-167711699D01*
X57635304Y-167707852D01*
X57612544Y-167689351D01*
X56688573Y-166584152D01*
X56635275Y-166524903D01*
X56581232Y-166477972D01*
X56532596Y-166446457D01*
X56481271Y-166422763D01*
X56367972Y-166396323D01*
X56279833Y-166391688D01*
X56202786Y-166395687D01*
X56131052Y-166408050D01*
X56072941Y-166426278D01*
X56020066Y-166451778D01*
X55977091Y-166481497D01*
X55939244Y-166517778D01*
X55908412Y-166558554D01*
X55882893Y-166605736D01*
X55849223Y-166719745D01*
X55840196Y-166834989D01*
X55840196Y-168330000D01*
X56338573Y-168330000D01*
X56338573Y-167045282D01*
X56342205Y-167023526D01*
X56351996Y-167007092D01*
X56384855Y-166992056D01*
X56386201Y-166992037D01*
X56404905Y-166995945D01*
X56422005Y-167007669D01*
X56431019Y-167017316D01*
X57469784Y-168220701D01*
X57510777Y-168262155D01*
X57555811Y-168296419D01*
X57656677Y-168343814D01*
X57780103Y-168366861D01*
X57839323Y-168369078D01*
X57896408Y-168365120D01*
X57951514Y-168353044D01*
X58000314Y-168334140D01*
X58045593Y-168307626D01*
X58083957Y-168275753D01*
X58117784Y-168236818D01*
X58145263Y-168192745D01*
X58167317Y-168141839D01*
X58183156Y-168084740D01*
X58192517Y-168020646D01*
X58194941Y-167963513D01*
X58194941Y-166438583D01*
G37*
G36*
X60919459Y-166405580D02*
G01*
X61042779Y-166445388D01*
X61097654Y-166475070D01*
X61148157Y-166511318D01*
X61196040Y-166555907D01*
X61239414Y-166607633D01*
X61281032Y-166671067D01*
X61317708Y-166742787D01*
X62000855Y-168246102D01*
X62031630Y-168330000D01*
X61460468Y-168330000D01*
X61438249Y-168266227D01*
X61437998Y-168265642D01*
X61337247Y-168036053D01*
X60217272Y-168036053D01*
X60119330Y-168262833D01*
X60119126Y-168263378D01*
X60099669Y-168330000D01*
X59514463Y-168330000D01*
X59545238Y-168246102D01*
X59828024Y-167618764D01*
X60402042Y-167618764D01*
X61152478Y-167618764D01*
X60861218Y-166939281D01*
X60830199Y-166897376D01*
X60803912Y-166884385D01*
X60774512Y-166880296D01*
X60770108Y-166880378D01*
X60725470Y-166894063D01*
X60706384Y-166912033D01*
X60690492Y-166939281D01*
X60402042Y-167618764D01*
X59828024Y-167618764D01*
X60222889Y-166742787D01*
X60297485Y-166611841D01*
X60383222Y-166517773D01*
X60432199Y-166480810D01*
X60485672Y-166450285D01*
X60546070Y-166425400D01*
X60611714Y-166407374D01*
X60688421Y-166395603D01*
X60771703Y-166391688D01*
X60919459Y-166405580D01*
G37*
G36*
X80822034Y-150631622D02*
G01*
X79830896Y-150631622D01*
X79752829Y-150627793D01*
X79682570Y-150616621D01*
X79621467Y-150599210D01*
X79566940Y-150575764D01*
X79476062Y-150512471D01*
X79450122Y-150486297D01*
X79413347Y-150441015D01*
X79382707Y-150390905D01*
X79358898Y-150336916D01*
X79342367Y-150279528D01*
X79332519Y-150187100D01*
X79347545Y-150072380D01*
X79392046Y-149964483D01*
X79424682Y-149915570D01*
X79463374Y-149871628D01*
X79472470Y-149862868D01*
X79520678Y-149823763D01*
X79575634Y-149791226D01*
X79630407Y-149768752D01*
X79692518Y-149752381D01*
X79830896Y-149739891D01*
X80822034Y-149739891D01*
X80822034Y-149238583D01*
X79830896Y-149238583D01*
X79727017Y-149242432D01*
X79629381Y-149253747D01*
X79538676Y-149271962D01*
X79453725Y-149296811D01*
X79374058Y-149328084D01*
X79299818Y-149365355D01*
X79164287Y-149458664D01*
X79130896Y-149487833D01*
X79015358Y-149616029D01*
X78966636Y-149687571D01*
X78924449Y-149763541D01*
X78889563Y-149842581D01*
X78861855Y-149925118D01*
X78842033Y-150009061D01*
X78829862Y-150095581D01*
X78825715Y-150184413D01*
X78840895Y-150356905D01*
X78885755Y-150521260D01*
X78958933Y-150673674D01*
X79058260Y-150809677D01*
X79069347Y-150822009D01*
X79130124Y-150882846D01*
X79196643Y-150937887D01*
X79266165Y-150985027D01*
X79341209Y-151026135D01*
X79419988Y-151060170D01*
X79504234Y-151087823D01*
X79593323Y-151108653D01*
X79687980Y-151122602D01*
X79830896Y-151130000D01*
X80822034Y-151130000D01*
X80822034Y-150631622D01*
G37*
G36*
X81687264Y-150822254D02*
G01*
X81723710Y-150893246D01*
X81765076Y-150955918D01*
X81808197Y-151006923D01*
X81855837Y-151050835D01*
X81906248Y-151086575D01*
X81961088Y-151115819D01*
X82085151Y-151155194D01*
X82236078Y-151169078D01*
X82319710Y-151165156D01*
X82396746Y-151153334D01*
X82462345Y-151135292D01*
X82522719Y-151110352D01*
X82575989Y-151079831D01*
X82624799Y-151042821D01*
X82710058Y-150948673D01*
X82781961Y-150822254D01*
X83459612Y-149322602D01*
X83490387Y-149238583D01*
X82899563Y-149238583D01*
X82877215Y-149305750D01*
X82317166Y-150612327D01*
X82299858Y-150642458D01*
X82279683Y-150660856D01*
X82238764Y-150671067D01*
X82211552Y-150666974D01*
X82187116Y-150653950D01*
X82157676Y-150612327D01*
X81592009Y-149305750D01*
X81572470Y-149238583D01*
X80973220Y-149238583D01*
X81003995Y-149322602D01*
X81687264Y-150822254D01*
G37*
G36*
X86002491Y-149239190D02*
G01*
X86102874Y-149245925D01*
X86197217Y-149259840D01*
X86286274Y-149280757D01*
X86369575Y-149308261D01*
X86449205Y-149342940D01*
X86523173Y-149383805D01*
X86594801Y-149432844D01*
X86660659Y-149487833D01*
X86730178Y-149559281D01*
X86831377Y-149698198D01*
X86905505Y-149851781D01*
X86950653Y-150015176D01*
X86965840Y-150184413D01*
X86965809Y-150192385D01*
X86961098Y-150281474D01*
X86948636Y-150367964D01*
X86928370Y-150452932D01*
X86900827Y-150534461D01*
X86865932Y-150613077D01*
X86824360Y-150687391D01*
X86776314Y-150757262D01*
X86722330Y-150822009D01*
X86631347Y-150909145D01*
X86495481Y-151002561D01*
X86420503Y-151040070D01*
X86340191Y-151071471D01*
X86254344Y-151096489D01*
X86162958Y-151114783D01*
X86064744Y-151126144D01*
X85960659Y-151130000D01*
X84938747Y-151130000D01*
X84931187Y-151129883D01*
X84869213Y-151116125D01*
X84847286Y-151100885D01*
X84831035Y-151079969D01*
X84819419Y-151048709D01*
X84815526Y-151009710D01*
X84815526Y-149778970D01*
X85322330Y-149778970D01*
X85322330Y-150592543D01*
X85325765Y-150614148D01*
X85337671Y-150627484D01*
X85358723Y-150631622D01*
X85960659Y-150631622D01*
X86006857Y-150630328D01*
X86078073Y-150622577D01*
X86142193Y-150608204D01*
X86200187Y-150587379D01*
X86251710Y-150560665D01*
X86299833Y-150526295D01*
X86341556Y-150486297D01*
X86399791Y-150407512D01*
X86444066Y-150300833D01*
X86459037Y-150187100D01*
X86458951Y-150178344D01*
X86453689Y-150118228D01*
X86440625Y-150060251D01*
X86419945Y-150004435D01*
X86392283Y-149952283D01*
X86319085Y-149862868D01*
X86313461Y-149857723D01*
X86222957Y-149794776D01*
X86170236Y-149771900D01*
X86110617Y-149754813D01*
X86040406Y-149743710D01*
X85960659Y-149739891D01*
X85358723Y-149739891D01*
X85338810Y-149743470D01*
X85326344Y-149756038D01*
X85322330Y-149778970D01*
X84815526Y-149778970D01*
X84815526Y-149356186D01*
X84828654Y-149292338D01*
X84844213Y-149270423D01*
X84865691Y-149254214D01*
X84898260Y-149242491D01*
X84938747Y-149238583D01*
X85960659Y-149238583D01*
X86002491Y-149239190D01*
G37*
G36*
X89654699Y-149205580D02*
G01*
X89778019Y-149245388D01*
X89832894Y-149275070D01*
X89883397Y-149311318D01*
X89931280Y-149355907D01*
X89974654Y-149407633D01*
X90016272Y-149471067D01*
X90052948Y-149542787D01*
X90736095Y-151046102D01*
X90766870Y-151130000D01*
X90195708Y-151130000D01*
X90173489Y-151066227D01*
X90173238Y-151065642D01*
X90072487Y-150836053D01*
X88952512Y-150836053D01*
X88854570Y-151062833D01*
X88854366Y-151063378D01*
X88834909Y-151130000D01*
X88249703Y-151130000D01*
X88280478Y-151046102D01*
X88563264Y-150418764D01*
X89137282Y-150418764D01*
X89887718Y-150418764D01*
X89596458Y-149739281D01*
X89565439Y-149697376D01*
X89539152Y-149684385D01*
X89509752Y-149680296D01*
X89505348Y-149680378D01*
X89460710Y-149694063D01*
X89441624Y-149712033D01*
X89425732Y-149739281D01*
X89137282Y-150418764D01*
X88563264Y-150418764D01*
X88958129Y-149542787D01*
X89032725Y-149411841D01*
X89118462Y-149317773D01*
X89167439Y-149280810D01*
X89220912Y-149250285D01*
X89281309Y-149225400D01*
X89346954Y-149207374D01*
X89423661Y-149195603D01*
X89506943Y-149191688D01*
X89654699Y-149205580D01*
G37*
G36*
X92414898Y-151169078D02*
G01*
X92477146Y-151165116D01*
X92536806Y-151153013D01*
X92588292Y-151134387D01*
X92635381Y-151108328D01*
X92673555Y-151077909D01*
X92706408Y-151040921D01*
X92734124Y-150995177D01*
X93308095Y-149803150D01*
X93329193Y-149783737D01*
X93344487Y-149780680D01*
X93362722Y-149784588D01*
X93378036Y-149796311D01*
X93389305Y-149831238D01*
X93389305Y-151130000D01*
X93876570Y-151130000D01*
X93876570Y-149741479D01*
X93872711Y-149655422D01*
X93861328Y-149578535D01*
X93843985Y-149513886D01*
X93820468Y-149456216D01*
X93791675Y-149405936D01*
X93757420Y-149361286D01*
X93700104Y-149306727D01*
X93646527Y-149269013D01*
X93586540Y-149237309D01*
X93525876Y-149214590D01*
X93460215Y-149199152D01*
X93369766Y-149191688D01*
X93303545Y-149195530D01*
X93242525Y-149206793D01*
X93187065Y-149224813D01*
X93136083Y-149249306D01*
X93043870Y-149318573D01*
X92961178Y-149418693D01*
X92890928Y-149545230D01*
X92462526Y-150476528D01*
X92449043Y-150499745D01*
X92431692Y-150510761D01*
X92414898Y-150512920D01*
X92392063Y-150508337D01*
X92374970Y-150491885D01*
X92367393Y-150476528D01*
X91938991Y-149545230D01*
X91895155Y-149460978D01*
X91845416Y-149385899D01*
X91799847Y-149332372D01*
X91749188Y-149286442D01*
X91699677Y-149252668D01*
X91645400Y-149225844D01*
X91589588Y-149207355D01*
X91528919Y-149195842D01*
X91460153Y-149191688D01*
X91334519Y-149206303D01*
X91219310Y-149248809D01*
X91129815Y-149306727D01*
X91084364Y-149348323D01*
X91045151Y-149395885D01*
X91014792Y-149445626D01*
X90990233Y-149501587D01*
X90959684Y-149632723D01*
X90953349Y-149741479D01*
X90953349Y-151130000D01*
X91440614Y-151130000D01*
X91440614Y-149831360D01*
X91444207Y-149809895D01*
X91453729Y-149794323D01*
X91485310Y-149780802D01*
X91516822Y-149795068D01*
X91521824Y-149803272D01*
X92095795Y-150995422D01*
X92149088Y-151070894D01*
X92224287Y-151126006D01*
X92321345Y-151159874D01*
X92414898Y-151169078D01*
G37*
G36*
X94043998Y-149238583D02*
G01*
X94043998Y-149739891D01*
X94875645Y-149739891D01*
X94875645Y-151130000D01*
X95385136Y-151130000D01*
X95385136Y-149739891D01*
X96213974Y-149739891D01*
X96213974Y-149238583D01*
X94043998Y-149238583D01*
G37*
G36*
X80704798Y-68131622D02*
G01*
X79713660Y-68131622D01*
X79635593Y-68127793D01*
X79565334Y-68116621D01*
X79504231Y-68099210D01*
X79449704Y-68075764D01*
X79358826Y-68012471D01*
X79332886Y-67986297D01*
X79296111Y-67941015D01*
X79265471Y-67890905D01*
X79241662Y-67836916D01*
X79225131Y-67779528D01*
X79215283Y-67687100D01*
X79230309Y-67572380D01*
X79274810Y-67464483D01*
X79307446Y-67415570D01*
X79346138Y-67371628D01*
X79355234Y-67362868D01*
X79403442Y-67323763D01*
X79458398Y-67291226D01*
X79513171Y-67268752D01*
X79575282Y-67252381D01*
X79713660Y-67239891D01*
X80704798Y-67239891D01*
X80704798Y-66738583D01*
X79713660Y-66738583D01*
X79609781Y-66742432D01*
X79512145Y-66753747D01*
X79421440Y-66771962D01*
X79336489Y-66796811D01*
X79256822Y-66828084D01*
X79182582Y-66865355D01*
X79047051Y-66958664D01*
X79013660Y-66987833D01*
X78898122Y-67116029D01*
X78849400Y-67187571D01*
X78807213Y-67263541D01*
X78772327Y-67342581D01*
X78744619Y-67425118D01*
X78724797Y-67509061D01*
X78712626Y-67595581D01*
X78708479Y-67684413D01*
X78723659Y-67856905D01*
X78768519Y-68021260D01*
X78841697Y-68173674D01*
X78941024Y-68309677D01*
X78952111Y-68322009D01*
X79012888Y-68382846D01*
X79079407Y-68437887D01*
X79148929Y-68485027D01*
X79223973Y-68526135D01*
X79302752Y-68560170D01*
X79386998Y-68587823D01*
X79476087Y-68608653D01*
X79570744Y-68622602D01*
X79713660Y-68630000D01*
X80704798Y-68630000D01*
X80704798Y-68131622D01*
G37*
G36*
X81570028Y-68322254D02*
G01*
X81606474Y-68393246D01*
X81647840Y-68455918D01*
X81690961Y-68506923D01*
X81738601Y-68550835D01*
X81789012Y-68586575D01*
X81843852Y-68615819D01*
X81967915Y-68655194D01*
X82118842Y-68669078D01*
X82202474Y-68665156D01*
X82279510Y-68653334D01*
X82345109Y-68635292D01*
X82405483Y-68610352D01*
X82458753Y-68579831D01*
X82507563Y-68542821D01*
X82592822Y-68448673D01*
X82664725Y-68322254D01*
X83342376Y-66822602D01*
X83373151Y-66738583D01*
X82782327Y-66738583D01*
X82759979Y-66805750D01*
X82199930Y-68112327D01*
X82182622Y-68142458D01*
X82162447Y-68160856D01*
X82121528Y-68171067D01*
X82094316Y-68166974D01*
X82069880Y-68153950D01*
X82040440Y-68112327D01*
X81474773Y-66805750D01*
X81455234Y-66738583D01*
X80855984Y-66738583D01*
X80886759Y-66822602D01*
X81570028Y-68322254D01*
G37*
G36*
X86016458Y-66705580D02*
G01*
X86139778Y-66745388D01*
X86194653Y-66775070D01*
X86245156Y-66811318D01*
X86293039Y-66855907D01*
X86336414Y-66907633D01*
X86378031Y-66971067D01*
X86414707Y-67042787D01*
X87097854Y-68546102D01*
X87128629Y-68630000D01*
X86557467Y-68630000D01*
X86535248Y-68566227D01*
X86534997Y-68565642D01*
X86434247Y-68336053D01*
X85314271Y-68336053D01*
X85216330Y-68562833D01*
X85216125Y-68563378D01*
X85196668Y-68630000D01*
X84611462Y-68630000D01*
X84642237Y-68546102D01*
X84925023Y-67918764D01*
X85499041Y-67918764D01*
X86249477Y-67918764D01*
X85958217Y-67239281D01*
X85927198Y-67197376D01*
X85900911Y-67184385D01*
X85871511Y-67180296D01*
X85867107Y-67180378D01*
X85822469Y-67194063D01*
X85803383Y-67212033D01*
X85787491Y-67239281D01*
X85499041Y-67918764D01*
X84925023Y-67918764D01*
X85319889Y-67042787D01*
X85394484Y-66911841D01*
X85480221Y-66817773D01*
X85529198Y-66780810D01*
X85582671Y-66750285D01*
X85643069Y-66725400D01*
X85708714Y-66707374D01*
X85785420Y-66695603D01*
X85868702Y-66691688D01*
X86016458Y-66705580D01*
G37*
G36*
X89771936Y-66705580D02*
G01*
X89895256Y-66745388D01*
X89950131Y-66775070D01*
X90000634Y-66811318D01*
X90048517Y-66855907D01*
X90091892Y-66907633D01*
X90133509Y-66971067D01*
X90170185Y-67042787D01*
X90853332Y-68546102D01*
X90884107Y-68630000D01*
X90312945Y-68630000D01*
X90290726Y-68566227D01*
X90290475Y-68565642D01*
X90189725Y-68336053D01*
X89069749Y-68336053D01*
X88971808Y-68562833D01*
X88971603Y-68563378D01*
X88952146Y-68630000D01*
X88366940Y-68630000D01*
X88397715Y-68546102D01*
X88680501Y-67918764D01*
X89254519Y-67918764D01*
X90004955Y-67918764D01*
X89713695Y-67239281D01*
X89682676Y-67197376D01*
X89656389Y-67184385D01*
X89626989Y-67180296D01*
X89622585Y-67180378D01*
X89577947Y-67194063D01*
X89558861Y-67212033D01*
X89542969Y-67239281D01*
X89254519Y-67918764D01*
X88680501Y-67918764D01*
X89075367Y-67042787D01*
X89149962Y-66911841D01*
X89235699Y-66817773D01*
X89284676Y-66780810D01*
X89338149Y-66750285D01*
X89398547Y-66725400D01*
X89464192Y-66707374D01*
X89540898Y-66695603D01*
X89624180Y-66691688D01*
X89771936Y-66705580D01*
G37*
G36*
X92532136Y-68669078D02*
G01*
X92594383Y-68665116D01*
X92654043Y-68653013D01*
X92705529Y-68634387D01*
X92752619Y-68608328D01*
X92790792Y-68577909D01*
X92823645Y-68540921D01*
X92851361Y-68495177D01*
X93425332Y-67303150D01*
X93446430Y-67283737D01*
X93461724Y-67280680D01*
X93479959Y-67284588D01*
X93495273Y-67296311D01*
X93506542Y-67331238D01*
X93506542Y-68630000D01*
X93993807Y-68630000D01*
X93993807Y-67241479D01*
X93989948Y-67155422D01*
X93978565Y-67078535D01*
X93961222Y-67013886D01*
X93937706Y-66956216D01*
X93908912Y-66905936D01*
X93874657Y-66861286D01*
X93817341Y-66806727D01*
X93763764Y-66769013D01*
X93703778Y-66737309D01*
X93643113Y-66714590D01*
X93577452Y-66699152D01*
X93487003Y-66691688D01*
X93420782Y-66695530D01*
X93359762Y-66706793D01*
X93304302Y-66724813D01*
X93253320Y-66749306D01*
X93161107Y-66818573D01*
X93078415Y-66918693D01*
X93008165Y-67045230D01*
X92579763Y-67976528D01*
X92566280Y-67999745D01*
X92548929Y-68010761D01*
X92532136Y-68012920D01*
X92509300Y-68008337D01*
X92492207Y-67991885D01*
X92484630Y-67976528D01*
X92056228Y-67045230D01*
X92012393Y-66960978D01*
X91962653Y-66885899D01*
X91917085Y-66832372D01*
X91866425Y-66786442D01*
X91816914Y-66752668D01*
X91762637Y-66725844D01*
X91706825Y-66707355D01*
X91646156Y-66695842D01*
X91577390Y-66691688D01*
X91451756Y-66706303D01*
X91336547Y-66748809D01*
X91247052Y-66806727D01*
X91201601Y-66848323D01*
X91162389Y-66895885D01*
X91132029Y-66945626D01*
X91107470Y-67001587D01*
X91076921Y-67132723D01*
X91070586Y-67241479D01*
X91070586Y-68630000D01*
X91557851Y-68630000D01*
X91557851Y-67331360D01*
X91561444Y-67309895D01*
X91570966Y-67294323D01*
X91602547Y-67280802D01*
X91634060Y-67295068D01*
X91639062Y-67303272D01*
X92213032Y-68495422D01*
X92266325Y-68570894D01*
X92341524Y-68626006D01*
X92438583Y-68659874D01*
X92532136Y-68669078D01*
G37*
G36*
X94161235Y-66738583D02*
G01*
X94161235Y-67239891D01*
X94992882Y-67239891D01*
X94992882Y-68630000D01*
X95502373Y-68630000D01*
X95502373Y-67239891D01*
X96331211Y-67239891D01*
X96331211Y-66738583D01*
X94161235Y-66738583D01*
G37*
G36*
X80866975Y-95631622D02*
G01*
X79875837Y-95631622D01*
X79797770Y-95627793D01*
X79727511Y-95616621D01*
X79666408Y-95599210D01*
X79611881Y-95575764D01*
X79521003Y-95512471D01*
X79495063Y-95486297D01*
X79458288Y-95441015D01*
X79427648Y-95390905D01*
X79403839Y-95336916D01*
X79387308Y-95279528D01*
X79377460Y-95187100D01*
X79392486Y-95072380D01*
X79436987Y-94964483D01*
X79469623Y-94915570D01*
X79508315Y-94871628D01*
X79517411Y-94862868D01*
X79565619Y-94823763D01*
X79620575Y-94791226D01*
X79675348Y-94768752D01*
X79737459Y-94752381D01*
X79875837Y-94739891D01*
X80866975Y-94739891D01*
X80866975Y-94238583D01*
X79875837Y-94238583D01*
X79771958Y-94242432D01*
X79674322Y-94253747D01*
X79583617Y-94271962D01*
X79498666Y-94296811D01*
X79418999Y-94328084D01*
X79344759Y-94365355D01*
X79209228Y-94458664D01*
X79175837Y-94487833D01*
X79060299Y-94616029D01*
X79011577Y-94687571D01*
X78969390Y-94763541D01*
X78934504Y-94842581D01*
X78906796Y-94925118D01*
X78886974Y-95009061D01*
X78874803Y-95095581D01*
X78870656Y-95184413D01*
X78885836Y-95356905D01*
X78930696Y-95521260D01*
X79003874Y-95673674D01*
X79103201Y-95809677D01*
X79114288Y-95822009D01*
X79175065Y-95882846D01*
X79241584Y-95937887D01*
X79311106Y-95985027D01*
X79386150Y-96026135D01*
X79464929Y-96060170D01*
X79549175Y-96087823D01*
X79638264Y-96108653D01*
X79732921Y-96122602D01*
X79875837Y-96130000D01*
X80866975Y-96130000D01*
X80866975Y-95631622D01*
G37*
G36*
X81732205Y-95822254D02*
G01*
X81768651Y-95893246D01*
X81810017Y-95955918D01*
X81853138Y-96006923D01*
X81900778Y-96050835D01*
X81951189Y-96086575D01*
X82006029Y-96115819D01*
X82130092Y-96155194D01*
X82281019Y-96169078D01*
X82364651Y-96165156D01*
X82441687Y-96153334D01*
X82507286Y-96135292D01*
X82567660Y-96110352D01*
X82620930Y-96079831D01*
X82669740Y-96042821D01*
X82754999Y-95948673D01*
X82826902Y-95822254D01*
X83504553Y-94322602D01*
X83535328Y-94238583D01*
X82944504Y-94238583D01*
X82922156Y-94305750D01*
X82362107Y-95612327D01*
X82344799Y-95642458D01*
X82324624Y-95660856D01*
X82283705Y-95671067D01*
X82256493Y-95666974D01*
X82232057Y-95653950D01*
X82202617Y-95612327D01*
X81636950Y-94305750D01*
X81617411Y-94238583D01*
X81018161Y-94238583D01*
X81048936Y-94322602D01*
X81732205Y-95822254D01*
G37*
G36*
X86452519Y-94245495D02*
G01*
X86591505Y-94278131D01*
X86708665Y-94335582D01*
X86760075Y-94373675D01*
X86806472Y-94417857D01*
X86823443Y-94436825D01*
X86891711Y-94539789D01*
X86934321Y-94659036D01*
X86945414Y-94724872D01*
X86949232Y-94795334D01*
X86939965Y-94896407D01*
X86903410Y-95009996D01*
X86842235Y-95104383D01*
X86758845Y-95177575D01*
X86802346Y-95204736D01*
X86840802Y-95237906D01*
X86877783Y-95281233D01*
X86908473Y-95330297D01*
X86934439Y-95388356D01*
X86953140Y-95450821D01*
X86964864Y-95519044D01*
X86968772Y-95589490D01*
X86955595Y-95707606D01*
X86936925Y-95771427D01*
X86910902Y-95831798D01*
X86877289Y-95889463D01*
X86837247Y-95942421D01*
X86767982Y-96009630D01*
X86663235Y-96073727D01*
X86601559Y-96097414D01*
X86533175Y-96114957D01*
X86455397Y-96126165D01*
X86369644Y-96130000D01*
X84989306Y-96130000D01*
X84980350Y-96129846D01*
X84917343Y-96115919D01*
X84895237Y-96100735D01*
X84878908Y-96079969D01*
X84867184Y-96048709D01*
X84863276Y-96009710D01*
X84863276Y-95628813D01*
X85370080Y-95628813D01*
X85375448Y-95655135D01*
X85388103Y-95666908D01*
X85409281Y-95670823D01*
X86249232Y-95670823D01*
X86256378Y-95670755D01*
X86302590Y-95666413D01*
X86340174Y-95655880D01*
X86372832Y-95638059D01*
X86397610Y-95614769D01*
X86421766Y-95576510D01*
X86436811Y-95508279D01*
X86431375Y-95469557D01*
X86416781Y-95434875D01*
X86394801Y-95404476D01*
X86393181Y-95402729D01*
X86340859Y-95366080D01*
X86300848Y-95355041D01*
X86249232Y-95351231D01*
X85370080Y-95351231D01*
X85370080Y-95628813D01*
X84863276Y-95628813D01*
X84863276Y-94756378D01*
X85370080Y-94756378D01*
X85370080Y-95012344D01*
X86252041Y-95012344D01*
X86257987Y-95012290D01*
X86300636Y-95008091D01*
X86335675Y-94997622D01*
X86367344Y-94978994D01*
X86391992Y-94953970D01*
X86411818Y-94921503D01*
X86425576Y-94862135D01*
X86422796Y-94835718D01*
X86410939Y-94800862D01*
X86391992Y-94770300D01*
X86387962Y-94765666D01*
X86335596Y-94728996D01*
X86298143Y-94718364D01*
X86252041Y-94714612D01*
X85409281Y-94714612D01*
X85387594Y-94718763D01*
X85374223Y-94732675D01*
X85370080Y-94756378D01*
X84863276Y-94756378D01*
X84863276Y-94356186D01*
X84863322Y-94351750D01*
X84876662Y-94292023D01*
X84892393Y-94270302D01*
X84914162Y-94254214D01*
X84947546Y-94242491D01*
X84989306Y-94238583D01*
X86341678Y-94238583D01*
X86452519Y-94245495D01*
G37*
G36*
X89609758Y-94205580D02*
G01*
X89733079Y-94245388D01*
X89787954Y-94275070D01*
X89838456Y-94311318D01*
X89886339Y-94355907D01*
X89929714Y-94407633D01*
X89971332Y-94471067D01*
X90008008Y-94542787D01*
X90691155Y-96046102D01*
X90721929Y-96130000D01*
X90150768Y-96130000D01*
X90128548Y-96066227D01*
X90128297Y-96065642D01*
X90027547Y-95836053D01*
X88907571Y-95836053D01*
X88809630Y-96062833D01*
X88809426Y-96063378D01*
X88789969Y-96130000D01*
X88204763Y-96130000D01*
X88235537Y-96046102D01*
X88518323Y-95418764D01*
X89092341Y-95418764D01*
X89842777Y-95418764D01*
X89551518Y-94739281D01*
X89520498Y-94697376D01*
X89494212Y-94684385D01*
X89464811Y-94680296D01*
X89460407Y-94680378D01*
X89415769Y-94694063D01*
X89396684Y-94712033D01*
X89380792Y-94739281D01*
X89092341Y-95418764D01*
X88518323Y-95418764D01*
X88913189Y-94542787D01*
X88987785Y-94411841D01*
X89073522Y-94317773D01*
X89122499Y-94280810D01*
X89175971Y-94250285D01*
X89236369Y-94225400D01*
X89302014Y-94207374D01*
X89378720Y-94195603D01*
X89462003Y-94191688D01*
X89609758Y-94205580D01*
G37*
G36*
X92369958Y-96169078D02*
G01*
X92432206Y-96165116D01*
X92491866Y-96153013D01*
X92543351Y-96134387D01*
X92590441Y-96108328D01*
X92628615Y-96077909D01*
X92661468Y-96040921D01*
X92689183Y-95995177D01*
X93263154Y-94803150D01*
X93284252Y-94783737D01*
X93299546Y-94780680D01*
X93317782Y-94784588D01*
X93333095Y-94796311D01*
X93344365Y-94831238D01*
X93344365Y-96130000D01*
X93831629Y-96130000D01*
X93831629Y-94741479D01*
X93827770Y-94655422D01*
X93816388Y-94578535D01*
X93799044Y-94513886D01*
X93775528Y-94456216D01*
X93746735Y-94405936D01*
X93712480Y-94361286D01*
X93655164Y-94306727D01*
X93601587Y-94269013D01*
X93541600Y-94237309D01*
X93480936Y-94214590D01*
X93415274Y-94199152D01*
X93324825Y-94191688D01*
X93258604Y-94195530D01*
X93197584Y-94206793D01*
X93142125Y-94224813D01*
X93091143Y-94249306D01*
X92998930Y-94318573D01*
X92916238Y-94418693D01*
X92845987Y-94545230D01*
X92417585Y-95476528D01*
X92404103Y-95499745D01*
X92386752Y-95510761D01*
X92369958Y-95512920D01*
X92347122Y-95508337D01*
X92330029Y-95491885D01*
X92322453Y-95476528D01*
X91894051Y-94545230D01*
X91850215Y-94460978D01*
X91800475Y-94385899D01*
X91754907Y-94332372D01*
X91704247Y-94286442D01*
X91654737Y-94252668D01*
X91600460Y-94225844D01*
X91544648Y-94207355D01*
X91483978Y-94195842D01*
X91415213Y-94191688D01*
X91289579Y-94206303D01*
X91174370Y-94248809D01*
X91084874Y-94306727D01*
X91039424Y-94348323D01*
X91000211Y-94395885D01*
X90969851Y-94445626D01*
X90945293Y-94501587D01*
X90914743Y-94632723D01*
X90908409Y-94741479D01*
X90908409Y-96130000D01*
X91395673Y-96130000D01*
X91395673Y-94831360D01*
X91399267Y-94809895D01*
X91408789Y-94794323D01*
X91440370Y-94780802D01*
X91471882Y-94795068D01*
X91476884Y-94803272D01*
X92050855Y-95995422D01*
X92104148Y-96070894D01*
X92179347Y-96126006D01*
X92276405Y-96159874D01*
X92369958Y-96169078D01*
G37*
G36*
X93999058Y-94238583D02*
G01*
X93999058Y-94739891D01*
X94830705Y-94739891D01*
X94830705Y-96130000D01*
X95340195Y-96130000D01*
X95340195Y-94739891D01*
X96169033Y-94739891D01*
X96169033Y-94238583D01*
X93999058Y-94238583D01*
G37*
G36*
X80922662Y-123131622D02*
G01*
X79931524Y-123131622D01*
X79853457Y-123127793D01*
X79783198Y-123116621D01*
X79722095Y-123099210D01*
X79667568Y-123075764D01*
X79576690Y-123012471D01*
X79550750Y-122986297D01*
X79513975Y-122941015D01*
X79483335Y-122890905D01*
X79459526Y-122836916D01*
X79442995Y-122779528D01*
X79433147Y-122687100D01*
X79448173Y-122572380D01*
X79492674Y-122464483D01*
X79525310Y-122415570D01*
X79564002Y-122371628D01*
X79573098Y-122362868D01*
X79621306Y-122323763D01*
X79676262Y-122291226D01*
X79731035Y-122268752D01*
X79793146Y-122252381D01*
X79931524Y-122239891D01*
X80922662Y-122239891D01*
X80922662Y-121738583D01*
X79931524Y-121738583D01*
X79827645Y-121742432D01*
X79730009Y-121753747D01*
X79639304Y-121771962D01*
X79554353Y-121796811D01*
X79474686Y-121828084D01*
X79400446Y-121865355D01*
X79264915Y-121958664D01*
X79231524Y-121987833D01*
X79115986Y-122116029D01*
X79067264Y-122187571D01*
X79025077Y-122263541D01*
X78990191Y-122342581D01*
X78962483Y-122425118D01*
X78942661Y-122509061D01*
X78930490Y-122595581D01*
X78926343Y-122684413D01*
X78941523Y-122856905D01*
X78986383Y-123021260D01*
X79059561Y-123173674D01*
X79158888Y-123309677D01*
X79169975Y-123322009D01*
X79230752Y-123382846D01*
X79297271Y-123437887D01*
X79366793Y-123485027D01*
X79441837Y-123526135D01*
X79520616Y-123560170D01*
X79604862Y-123587823D01*
X79693951Y-123608653D01*
X79788608Y-123622602D01*
X79931524Y-123630000D01*
X80922662Y-123630000D01*
X80922662Y-123131622D01*
G37*
G36*
X81787892Y-123322254D02*
G01*
X81824338Y-123393246D01*
X81865704Y-123455918D01*
X81908825Y-123506923D01*
X81956465Y-123550835D01*
X82006876Y-123586575D01*
X82061716Y-123615819D01*
X82185779Y-123655194D01*
X82336706Y-123669078D01*
X82420338Y-123665156D01*
X82497374Y-123653334D01*
X82562973Y-123635292D01*
X82623347Y-123610352D01*
X82676617Y-123579831D01*
X82725427Y-123542821D01*
X82810686Y-123448673D01*
X82882589Y-123322254D01*
X83560240Y-121822602D01*
X83591015Y-121738583D01*
X83000191Y-121738583D01*
X82977843Y-121805750D01*
X82417794Y-123112327D01*
X82400486Y-123142458D01*
X82380311Y-123160856D01*
X82339392Y-123171067D01*
X82312180Y-123166974D01*
X82287744Y-123153950D01*
X82258304Y-123112327D01*
X81692637Y-121805750D01*
X81673098Y-121738583D01*
X81073848Y-121738583D01*
X81104623Y-121822602D01*
X81787892Y-123322254D01*
G37*
G36*
X86870464Y-123131622D02*
G01*
X85879326Y-123131622D01*
X85801259Y-123127793D01*
X85731000Y-123116621D01*
X85669897Y-123099210D01*
X85615370Y-123075764D01*
X85524492Y-123012471D01*
X85498552Y-122986297D01*
X85461777Y-122941015D01*
X85431137Y-122890905D01*
X85407328Y-122836916D01*
X85390797Y-122779528D01*
X85380949Y-122687100D01*
X85395975Y-122572380D01*
X85440475Y-122464483D01*
X85473112Y-122415570D01*
X85511804Y-122371628D01*
X85520900Y-122362868D01*
X85569108Y-122323763D01*
X85624064Y-122291226D01*
X85678837Y-122268752D01*
X85740948Y-122252381D01*
X85879326Y-122239891D01*
X86870464Y-122239891D01*
X86870464Y-121738583D01*
X85879326Y-121738583D01*
X85775446Y-121742432D01*
X85677811Y-121753747D01*
X85587106Y-121771962D01*
X85502155Y-121796811D01*
X85422488Y-121828084D01*
X85348248Y-121865355D01*
X85212717Y-121958664D01*
X85179326Y-121987833D01*
X85063788Y-122116029D01*
X85015066Y-122187571D01*
X84972879Y-122263541D01*
X84937993Y-122342581D01*
X84910285Y-122425118D01*
X84890462Y-122509061D01*
X84878292Y-122595581D01*
X84874145Y-122684413D01*
X84889325Y-122856905D01*
X84934184Y-123021260D01*
X85007362Y-123173674D01*
X85106690Y-123309677D01*
X85117777Y-123322009D01*
X85178554Y-123382846D01*
X85245073Y-123437887D01*
X85314595Y-123485027D01*
X85389639Y-123526135D01*
X85468418Y-123560170D01*
X85552664Y-123587823D01*
X85641753Y-123608653D01*
X85736409Y-123622602D01*
X85879326Y-123630000D01*
X86870464Y-123630000D01*
X86870464Y-123131622D01*
G37*
G36*
X89554071Y-121705580D02*
G01*
X89677391Y-121745388D01*
X89732266Y-121775070D01*
X89782769Y-121811318D01*
X89830652Y-121855907D01*
X89874026Y-121907633D01*
X89915644Y-121971067D01*
X89952320Y-122042787D01*
X90635467Y-123546102D01*
X90666242Y-123630000D01*
X90095080Y-123630000D01*
X90072861Y-123566227D01*
X90072609Y-123565642D01*
X89971859Y-123336053D01*
X88851884Y-123336053D01*
X88753942Y-123562833D01*
X88753738Y-123563378D01*
X88734281Y-123630000D01*
X88149075Y-123630000D01*
X88179850Y-123546102D01*
X88462636Y-122918764D01*
X89036653Y-122918764D01*
X89787090Y-122918764D01*
X89495830Y-122239281D01*
X89464810Y-122197376D01*
X89438524Y-122184385D01*
X89409124Y-122180296D01*
X89404719Y-122180378D01*
X89360081Y-122194063D01*
X89340996Y-122212033D01*
X89325104Y-122239281D01*
X89036653Y-122918764D01*
X88462636Y-122918764D01*
X88857501Y-122042787D01*
X88932097Y-121911841D01*
X89017834Y-121817773D01*
X89066811Y-121780810D01*
X89120284Y-121750285D01*
X89180681Y-121725400D01*
X89246326Y-121707374D01*
X89323033Y-121695603D01*
X89406315Y-121691688D01*
X89554071Y-121705580D01*
G37*
G36*
X92314270Y-123669078D02*
G01*
X92376518Y-123665116D01*
X92436178Y-123653013D01*
X92487664Y-123634387D01*
X92534753Y-123608328D01*
X92572927Y-123577909D01*
X92605780Y-123540921D01*
X92633496Y-123495177D01*
X93207466Y-122303150D01*
X93228565Y-122283737D01*
X93243859Y-122280680D01*
X93262094Y-122284588D01*
X93277407Y-122296311D01*
X93288677Y-122331238D01*
X93288677Y-123630000D01*
X93775942Y-123630000D01*
X93775942Y-122241479D01*
X93772082Y-122155422D01*
X93760700Y-122078535D01*
X93743357Y-122013886D01*
X93719840Y-121956216D01*
X93691047Y-121905936D01*
X93656792Y-121861286D01*
X93599476Y-121806727D01*
X93545899Y-121769013D01*
X93485912Y-121737309D01*
X93425248Y-121714590D01*
X93359586Y-121699152D01*
X93269138Y-121691688D01*
X93202917Y-121695530D01*
X93141897Y-121706793D01*
X93086437Y-121724813D01*
X93035455Y-121749306D01*
X92943242Y-121818573D01*
X92860550Y-121918693D01*
X92790300Y-122045230D01*
X92361898Y-122976528D01*
X92348415Y-122999745D01*
X92331064Y-123010761D01*
X92314270Y-123012920D01*
X92291434Y-123008337D01*
X92274341Y-122991885D01*
X92266765Y-122976528D01*
X91838363Y-122045230D01*
X91794527Y-121960978D01*
X91744788Y-121885899D01*
X91699219Y-121832372D01*
X91648559Y-121786442D01*
X91599049Y-121752668D01*
X91544772Y-121725844D01*
X91488960Y-121707355D01*
X91428291Y-121695842D01*
X91359525Y-121691688D01*
X91233891Y-121706303D01*
X91118682Y-121748809D01*
X91029187Y-121806727D01*
X90983736Y-121848323D01*
X90944523Y-121895885D01*
X90914163Y-121945626D01*
X90889605Y-122001587D01*
X90859056Y-122132723D01*
X90852721Y-122241479D01*
X90852721Y-123630000D01*
X91339986Y-123630000D01*
X91339986Y-122331360D01*
X91343579Y-122309895D01*
X91353101Y-122294323D01*
X91384682Y-122280802D01*
X91416194Y-122295068D01*
X91421196Y-122303272D01*
X91995167Y-123495422D01*
X92048460Y-123570894D01*
X92123659Y-123626006D01*
X92220717Y-123659874D01*
X92314270Y-123669078D01*
G37*
G36*
X93943370Y-121738583D02*
G01*
X93943370Y-122239891D01*
X94775017Y-122239891D01*
X94775017Y-123630000D01*
X95284508Y-123630000D01*
X95284508Y-122239891D01*
X96113346Y-122239891D01*
X96113346Y-121738583D01*
X93943370Y-121738583D01*
G37*
G36*
X87664029Y-182939181D02*
G01*
X87764422Y-182945892D01*
X87858769Y-182959784D01*
X87947838Y-182980683D01*
X88031151Y-183008169D01*
X88110823Y-183042845D01*
X88184836Y-183083713D01*
X88256561Y-183132792D01*
X88322523Y-183187833D01*
X88392041Y-183259281D01*
X88493240Y-183398198D01*
X88567369Y-183551781D01*
X88612517Y-183715176D01*
X88627704Y-183884413D01*
X88627673Y-183892301D01*
X88622967Y-183981359D01*
X88610507Y-184067822D01*
X88590235Y-184152793D01*
X88562683Y-184234326D01*
X88527765Y-184312971D01*
X88486170Y-184387313D01*
X88438089Y-184457226D01*
X88384072Y-184522009D01*
X88293132Y-184609144D01*
X88157302Y-184702550D01*
X88082323Y-184740063D01*
X88002008Y-184771466D01*
X87916158Y-184796487D01*
X87824772Y-184814783D01*
X87726577Y-184826144D01*
X87622523Y-184830000D01*
X87224895Y-184830000D01*
X87081979Y-184822602D01*
X86987322Y-184808653D01*
X86898233Y-184787823D01*
X86813987Y-184760170D01*
X86735208Y-184726135D01*
X86660164Y-184685027D01*
X86590642Y-184637887D01*
X86524123Y-184582846D01*
X86463346Y-184522009D01*
X86452259Y-184509677D01*
X86352932Y-184373674D01*
X86279754Y-184221260D01*
X86234894Y-184056905D01*
X86219950Y-183887100D01*
X86726518Y-183887100D01*
X86736366Y-183979528D01*
X86752897Y-184036916D01*
X86776706Y-184090905D01*
X86807346Y-184141015D01*
X86844121Y-184186297D01*
X86870061Y-184212471D01*
X86960939Y-184275764D01*
X87015466Y-184299210D01*
X87076569Y-184316621D01*
X87146828Y-184327793D01*
X87224895Y-184331622D01*
X87622523Y-184331622D01*
X87668644Y-184330330D01*
X87739837Y-184322582D01*
X87803942Y-184308210D01*
X87861932Y-184287383D01*
X87913456Y-184260665D01*
X87961575Y-184226295D01*
X88003297Y-184186297D01*
X88061665Y-184107330D01*
X88105937Y-184000684D01*
X88120900Y-183887100D01*
X88120821Y-183878682D01*
X88115594Y-183818558D01*
X88102554Y-183760570D01*
X88081869Y-183704675D01*
X88054195Y-183652450D01*
X87980949Y-183562868D01*
X87975351Y-183557747D01*
X87884817Y-183494790D01*
X87832068Y-183471905D01*
X87772426Y-183454813D01*
X87702228Y-183443710D01*
X87622523Y-183439891D01*
X87224895Y-183439891D01*
X87086517Y-183452381D01*
X87024406Y-183468752D01*
X86969633Y-183491226D01*
X86914677Y-183523763D01*
X86866469Y-183562868D01*
X86857373Y-183571628D01*
X86818681Y-183615570D01*
X86786045Y-183664483D01*
X86741544Y-183772380D01*
X86726518Y-183887100D01*
X86219950Y-183887100D01*
X86219714Y-183884413D01*
X86223861Y-183795581D01*
X86236032Y-183709061D01*
X86255854Y-183625118D01*
X86283562Y-183542581D01*
X86318448Y-183463541D01*
X86360635Y-183387571D01*
X86409357Y-183316029D01*
X86524895Y-183187833D01*
X86558286Y-183158664D01*
X86693817Y-183065355D01*
X86768057Y-183028084D01*
X86847724Y-182996811D01*
X86932675Y-182971962D01*
X87023380Y-182953747D01*
X87121016Y-182942432D01*
X87224895Y-182938583D01*
X87622523Y-182938583D01*
X87664029Y-182939181D01*
G37*
G36*
X90370987Y-184830000D02*
G01*
X90485684Y-184826056D01*
X90588357Y-184814083D01*
X90669257Y-184796682D01*
X90741334Y-184772716D01*
X90799500Y-184745062D01*
X90850751Y-184711734D01*
X90893182Y-184674741D01*
X90929712Y-184632440D01*
X90985683Y-184531636D01*
X91021212Y-184401795D01*
X91034595Y-184225376D01*
X91034595Y-182938583D01*
X90524983Y-182938583D01*
X90524983Y-184169445D01*
X90521066Y-184217883D01*
X90509279Y-184258305D01*
X90492642Y-184286991D01*
X90470009Y-184309866D01*
X90408451Y-184338151D01*
X90337404Y-184345666D01*
X89550576Y-184345666D01*
X89498929Y-184341758D01*
X89456302Y-184330034D01*
X89426623Y-184313681D01*
X89403253Y-184291536D01*
X89375358Y-184232498D01*
X89368615Y-184169445D01*
X89368615Y-182938583D01*
X88859002Y-182938583D01*
X88859002Y-184225376D01*
X88862968Y-184326061D01*
X88875101Y-184416921D01*
X88892739Y-184488680D01*
X88917163Y-184553176D01*
X88945631Y-184605901D01*
X88980148Y-184652775D01*
X89019174Y-184692396D01*
X89064110Y-184726808D01*
X89173902Y-184780936D01*
X89318822Y-184816238D01*
X89522610Y-184830000D01*
X90370987Y-184830000D01*
G37*
G36*
X91218876Y-182938583D02*
G01*
X91218876Y-183439891D01*
X92050523Y-183439891D01*
X92050523Y-184830000D01*
X92560014Y-184830000D01*
X92560014Y-183439891D01*
X93388852Y-183439891D01*
X93388852Y-182938583D01*
X91218876Y-182938583D01*
G37*
G36*
X96306531Y-182945495D02*
G01*
X96445517Y-182978131D01*
X96562678Y-183035582D01*
X96614088Y-183073675D01*
X96660485Y-183117857D01*
X96677456Y-183136825D01*
X96745724Y-183239789D01*
X96788333Y-183359036D01*
X96799427Y-183424872D01*
X96803245Y-183495334D01*
X96793978Y-183596407D01*
X96757422Y-183709996D01*
X96696247Y-183804383D01*
X96612858Y-183877575D01*
X96656358Y-183904736D01*
X96694814Y-183937906D01*
X96731796Y-183981233D01*
X96762486Y-184030297D01*
X96788451Y-184088356D01*
X96807153Y-184150821D01*
X96818876Y-184219044D01*
X96822784Y-184289490D01*
X96809608Y-184407606D01*
X96790938Y-184471427D01*
X96764915Y-184531798D01*
X96731302Y-184589463D01*
X96691260Y-184642421D01*
X96621995Y-184709630D01*
X96517248Y-184773727D01*
X96455572Y-184797414D01*
X96387187Y-184814957D01*
X96309410Y-184826165D01*
X96223657Y-184830000D01*
X94843318Y-184830000D01*
X94834363Y-184829846D01*
X94771356Y-184815919D01*
X94749249Y-184800735D01*
X94732920Y-184779969D01*
X94721197Y-184748709D01*
X94717289Y-184709710D01*
X94717289Y-184328813D01*
X95224093Y-184328813D01*
X95229461Y-184355135D01*
X95242116Y-184366908D01*
X95263294Y-184370823D01*
X96103245Y-184370823D01*
X96110390Y-184370755D01*
X96156602Y-184366413D01*
X96194187Y-184355880D01*
X96226844Y-184338059D01*
X96251622Y-184314769D01*
X96275779Y-184276510D01*
X96290823Y-184208279D01*
X96285388Y-184169557D01*
X96270794Y-184134875D01*
X96248814Y-184104476D01*
X96247193Y-184102729D01*
X96194871Y-184066080D01*
X96154861Y-184055041D01*
X96103245Y-184051231D01*
X95224093Y-184051231D01*
X95224093Y-184328813D01*
X94717289Y-184328813D01*
X94717289Y-183456378D01*
X95224093Y-183456378D01*
X95224093Y-183712344D01*
X96106054Y-183712344D01*
X96112000Y-183712290D01*
X96154649Y-183708091D01*
X96189687Y-183697622D01*
X96221356Y-183678994D01*
X96246005Y-183653970D01*
X96265830Y-183621503D01*
X96279588Y-183562135D01*
X96276809Y-183535718D01*
X96264952Y-183500862D01*
X96246005Y-183470300D01*
X96241975Y-183465666D01*
X96189608Y-183428996D01*
X96152156Y-183418364D01*
X96106054Y-183414612D01*
X95263294Y-183414612D01*
X95241606Y-183418763D01*
X95228236Y-183432675D01*
X95224093Y-183456378D01*
X94717289Y-183456378D01*
X94717289Y-183056186D01*
X94717335Y-183051750D01*
X94730675Y-182992023D01*
X94746406Y-182970302D01*
X94768174Y-182954214D01*
X94801558Y-182942491D01*
X94843318Y-182938583D01*
X96195691Y-182938583D01*
X96306531Y-182945495D01*
G37*
D13*
%TO.C,H23*%
G36*
X85000000Y-192250000D02*
G01*
X85000000Y-192250000D01*
G75*
G03*
X91500000Y-198750000I6500000J0D01*
G01*
X86000000Y-198750000D01*
X85000000Y-197750000D01*
X85000000Y-192250000D01*
G37*
G36*
X91500000Y-185750000D02*
G01*
X91500000Y-185750000D01*
G75*
G03*
X85000000Y-192250000I0J-6500000D01*
G01*
X85000000Y-186750000D01*
X86000000Y-185750000D01*
X91500000Y-185750000D01*
G37*
G36*
X98000000Y-197750000D02*
G01*
X97000000Y-198750000D01*
X91500000Y-198750000D01*
G75*
G03*
X98000000Y-192250000I0J6500000D01*
G01*
X98000000Y-197750000D01*
G37*
G36*
X98000000Y-186750000D02*
G01*
X98000000Y-192250000D01*
G75*
G03*
X91500000Y-185750000I-6500000J0D01*
G01*
X97000000Y-185750000D01*
X98000000Y-186750000D01*
G37*
D14*
%TO.C,H5*%
X55000002Y-54500000D02*
X50500000Y-54500000D01*
X56006990Y-50746229D02*
X52105715Y-48503433D01*
X56006990Y-58253772D02*
X52105773Y-60496669D01*
X58746228Y-48006990D02*
X56503331Y-44105773D01*
X58746229Y-60993010D02*
X56503433Y-64894285D01*
X62500000Y-47000000D02*
X62500000Y-42500000D01*
X66253771Y-48006990D02*
X68496567Y-44105715D01*
X66253772Y-60993010D02*
X68496669Y-64894227D01*
X68993010Y-50746228D02*
X72894227Y-48503331D01*
X68993010Y-58253771D02*
X72894285Y-60496567D01*
X70000000Y-54500000D02*
X74500000Y-54500000D01*
%TO.C,H19*%
X55000002Y-137000000D02*
X50500000Y-137000000D01*
X56006990Y-133246229D02*
X52105715Y-131003433D01*
X56006990Y-140753772D02*
X52105773Y-142996669D01*
X58746228Y-130506990D02*
X56503331Y-126605773D01*
X58746229Y-143493010D02*
X56503433Y-147394285D01*
X62500000Y-129500000D02*
X62500000Y-125000000D01*
X66253771Y-130506990D02*
X68496567Y-126605715D01*
X66253772Y-143493010D02*
X68496669Y-147394227D01*
X68993010Y-133246228D02*
X72894227Y-131003331D01*
X68993010Y-140753771D02*
X72894285Y-142996567D01*
X70000000Y-137000000D02*
X74500000Y-137000000D01*
D13*
%TO.C,H11*%
G36*
X85000000Y-159250000D02*
G01*
X85000000Y-159250000D01*
G75*
G03*
X91500000Y-165750000I6500000J0D01*
G01*
X86000000Y-165750000D01*
X85000000Y-164750000D01*
X85000000Y-159250000D01*
G37*
G36*
X91500000Y-152750000D02*
G01*
X91500000Y-152750000D01*
G75*
G03*
X85000000Y-159250000I0J-6500000D01*
G01*
X85000000Y-153750000D01*
X86000000Y-152750000D01*
X91500000Y-152750000D01*
G37*
G36*
X98000000Y-164750000D02*
G01*
X97000000Y-165750000D01*
X91500000Y-165750000D01*
G75*
G03*
X98000000Y-159250000I0J6500000D01*
G01*
X98000000Y-164750000D01*
G37*
G36*
X98000000Y-153750000D02*
G01*
X98000000Y-159250000D01*
G75*
G03*
X91500000Y-152750000I-6500000J0D01*
G01*
X97000000Y-152750000D01*
X98000000Y-153750000D01*
G37*
%TO.C,H24*%
G36*
X85000000Y-208750000D02*
G01*
X85000000Y-208750000D01*
G75*
G03*
X91500000Y-215250000I6500000J0D01*
G01*
X86000000Y-215250000D01*
X85000000Y-214250000D01*
X85000000Y-208750000D01*
G37*
G36*
X91500000Y-202250000D02*
G01*
X91500000Y-202250000D01*
G75*
G03*
X85000000Y-208750000I0J-6500000D01*
G01*
X85000000Y-203250000D01*
X86000000Y-202250000D01*
X91500000Y-202250000D01*
G37*
G36*
X98000000Y-214250000D02*
G01*
X97000000Y-215250000D01*
X91500000Y-215250000D01*
G75*
G03*
X98000000Y-208750000I0J6500000D01*
G01*
X98000000Y-214250000D01*
G37*
G36*
X98000000Y-203250000D02*
G01*
X98000000Y-208750000D01*
G75*
G03*
X91500000Y-202250000I-6500000J0D01*
G01*
X97000000Y-202250000D01*
X98000000Y-203250000D01*
G37*
D14*
%TO.C,H12*%
X55000002Y-82000000D02*
X50500000Y-82000000D01*
X56006990Y-78246229D02*
X52105715Y-76003433D01*
X56006990Y-85753772D02*
X52105773Y-87996669D01*
X58746228Y-75506990D02*
X56503331Y-71605773D01*
X58746229Y-88493010D02*
X56503433Y-92394285D01*
X62500000Y-74500000D02*
X62500000Y-70000000D01*
X66253771Y-75506990D02*
X68496567Y-71605715D01*
X66253772Y-88493010D02*
X68496669Y-92394227D01*
X68993010Y-78246228D02*
X72894227Y-76003331D01*
X68993010Y-85753771D02*
X72894285Y-87996567D01*
X70000000Y-82000000D02*
X74500000Y-82000000D01*
%TO.C,H7*%
X55000002Y-109500000D02*
X50500000Y-109500000D01*
X56006990Y-105746229D02*
X52105715Y-103503433D01*
X56006990Y-113253772D02*
X52105773Y-115496669D01*
X58746228Y-103006990D02*
X56503331Y-99105773D01*
X58746229Y-115993010D02*
X56503433Y-119894285D01*
X62500000Y-102000000D02*
X62500000Y-97500000D01*
X66253771Y-103006990D02*
X68496567Y-99105715D01*
X66253772Y-115993010D02*
X68496669Y-119894227D01*
X68993010Y-105746228D02*
X72894227Y-103503331D01*
X68993010Y-113253771D02*
X72894285Y-115496567D01*
X70000000Y-109500000D02*
X74500000Y-109500000D01*
%TO.C,H20*%
X76750000Y-147000000D02*
X78250000Y-147000000D01*
X80000002Y-137000000D02*
X75500000Y-137000000D01*
X81006990Y-133246229D02*
X77105715Y-131003433D01*
X81006990Y-140753772D02*
X77105773Y-142996669D01*
X83746228Y-130506990D02*
X81503331Y-126605773D01*
X83746229Y-143493010D02*
X81503433Y-147394285D01*
X87500000Y-129500000D02*
X87500000Y-125000000D01*
X91253771Y-130506990D02*
X93496567Y-126605715D01*
X91253772Y-143493010D02*
X93496669Y-147394227D01*
X93993010Y-133246228D02*
X97894227Y-131003331D01*
X93993010Y-140753771D02*
X97894285Y-142996567D01*
X95000000Y-137000000D02*
X99500000Y-137000000D01*
X96750000Y-147000000D02*
X98250000Y-147000000D01*
X97500000Y-147750000D02*
X97500000Y-146250000D01*
X81503433Y-147394285D02*
G75*
G02*
X87500000Y-125000001I5996567J10394285D01*
G01*
X87500000Y-125000004D02*
G75*
G02*
X93496668Y-147394226I-2J-11999998D01*
G01*
%TO.C,H6*%
X76750000Y-64500000D02*
X78250000Y-64500000D01*
X80000002Y-54500000D02*
X75500000Y-54500000D01*
X81006990Y-50746229D02*
X77105715Y-48503433D01*
X81006990Y-58253772D02*
X77105773Y-60496669D01*
X83746228Y-48006990D02*
X81503331Y-44105773D01*
X83746229Y-60993010D02*
X81503433Y-64894285D01*
X87500000Y-47000000D02*
X87500000Y-42500000D01*
X91253771Y-48006990D02*
X93496567Y-44105715D01*
X91253772Y-60993010D02*
X93496669Y-64894227D01*
X93993010Y-50746228D02*
X97894227Y-48503331D01*
X93993010Y-58253771D02*
X97894285Y-60496567D01*
X95000000Y-54500000D02*
X99500000Y-54500000D01*
X96750000Y-64500000D02*
X98250000Y-64500000D01*
X97500000Y-65250000D02*
X97500000Y-63750000D01*
X81503433Y-64894285D02*
G75*
G02*
X87500000Y-42500001I5996567J10394285D01*
G01*
X87500000Y-42500004D02*
G75*
G02*
X93496668Y-64894226I-2J-11999998D01*
G01*
%TO.C,H13*%
X76750000Y-92000000D02*
X78250000Y-92000000D01*
X80000002Y-82000000D02*
X75500000Y-82000000D01*
X81006990Y-78246229D02*
X77105715Y-76003433D01*
X81006990Y-85753772D02*
X77105773Y-87996669D01*
X83746228Y-75506990D02*
X81503331Y-71605773D01*
X83746229Y-88493010D02*
X81503433Y-92394285D01*
X87500000Y-74500000D02*
X87500000Y-70000000D01*
X91253771Y-75506990D02*
X93496567Y-71605715D01*
X91253772Y-88493010D02*
X93496669Y-92394227D01*
X93993010Y-78246228D02*
X97894227Y-76003331D01*
X93993010Y-85753771D02*
X97894285Y-87996567D01*
X95000000Y-82000000D02*
X99500000Y-82000000D01*
X96750000Y-92000000D02*
X98250000Y-92000000D01*
X97500000Y-92750000D02*
X97500000Y-91250000D01*
X81503433Y-92394285D02*
G75*
G02*
X87500000Y-70000001I5996567J10394285D01*
G01*
X87500000Y-70000004D02*
G75*
G02*
X93496668Y-92394226I-2J-11999998D01*
G01*
%TO.C,H10*%
X76750000Y-119500000D02*
X78250000Y-119500000D01*
X80000002Y-109500000D02*
X75500000Y-109500000D01*
X81006990Y-105746229D02*
X77105715Y-103503433D01*
X81006990Y-113253772D02*
X77105773Y-115496669D01*
X83746228Y-103006990D02*
X81503331Y-99105773D01*
X83746229Y-115993010D02*
X81503433Y-119894285D01*
X87500000Y-102000000D02*
X87500000Y-97500000D01*
X91253771Y-103006990D02*
X93496567Y-99105715D01*
X91253772Y-115993010D02*
X93496669Y-119894227D01*
X93993010Y-105746228D02*
X97894227Y-103503331D01*
X93993010Y-113253771D02*
X97894285Y-115496567D01*
X95000000Y-109500000D02*
X99500000Y-109500000D01*
X96750000Y-119500000D02*
X98250000Y-119500000D01*
X97500000Y-120250000D02*
X97500000Y-118750000D01*
X81503433Y-119894285D02*
G75*
G02*
X87500000Y-97500001I5996567J10394285D01*
G01*
X87500000Y-97500004D02*
G75*
G02*
X93496668Y-119894226I-2J-11999998D01*
G01*
D13*
%TO.C,H16*%
G36*
X85000000Y-175750000D02*
G01*
X85000000Y-175750000D01*
G75*
G03*
X91500000Y-182250000I6500000J0D01*
G01*
X86000000Y-182250000D01*
X85000000Y-181250000D01*
X85000000Y-175750000D01*
G37*
G36*
X91500000Y-169250000D02*
G01*
X91500000Y-169250000D01*
G75*
G03*
X85000000Y-175750000I0J-6500000D01*
G01*
X85000000Y-170250000D01*
X86000000Y-169250000D01*
X91500000Y-169250000D01*
G37*
G36*
X98000000Y-181250000D02*
G01*
X97000000Y-182250000D01*
X91500000Y-182250000D01*
G75*
G03*
X98000000Y-175750000I0J6500000D01*
G01*
X98000000Y-181250000D01*
G37*
G36*
X98000000Y-170250000D02*
G01*
X98000000Y-175750000D01*
G75*
G03*
X91500000Y-169250000I-6500000J0D01*
G01*
X97000000Y-169250000D01*
X98000000Y-170250000D01*
G37*
%TD*%
%LPC*%
D15*
%TO.C,H14*%
X52800000Y-192250000D03*
X54460000Y-188220000D03*
X54470000Y-196290000D03*
X58500000Y-186550000D03*
D16*
X58500000Y-192250000D03*
D15*
X58500000Y-197950000D03*
X62530000Y-196290000D03*
X62540000Y-188220000D03*
X64200000Y-192250000D03*
%TD*%
D17*
%TO.C,H3*%
X53500000Y-226500000D03*
%TD*%
D15*
%TO.C,H23*%
X85800000Y-192250000D03*
X87460000Y-188220000D03*
X87470000Y-196290000D03*
X91500000Y-186550000D03*
D16*
X91500000Y-192250000D03*
D15*
X91500000Y-197950000D03*
X95530000Y-196290000D03*
X95540000Y-188220000D03*
X97200000Y-192250000D03*
%TD*%
%TO.C,H22*%
X69300000Y-208750000D03*
X70960000Y-204720000D03*
X70970000Y-212790000D03*
X75000000Y-203050000D03*
D16*
X75000000Y-208750000D03*
D15*
X75000000Y-214450000D03*
X79030000Y-212790000D03*
X79040000Y-204720000D03*
X80700000Y-208750000D03*
%TD*%
D16*
%TO.C,H5*%
X62500000Y-54500000D03*
D18*
X62500000Y-60500000D03*
%TD*%
D15*
%TO.C,H18*%
X69300000Y-192250000D03*
X70960000Y-188220000D03*
X70970000Y-196290000D03*
X75000000Y-186550000D03*
D16*
X75000000Y-192250000D03*
D15*
X75000000Y-197950000D03*
X79030000Y-196290000D03*
X79040000Y-188220000D03*
X80700000Y-192250000D03*
%TD*%
%TO.C,H9*%
X69300000Y-159250000D03*
X70960000Y-155220000D03*
X70970000Y-163290000D03*
X75000000Y-153550000D03*
D16*
X75000000Y-159250000D03*
D15*
X75000000Y-164950000D03*
X79030000Y-163290000D03*
X79040000Y-155220000D03*
X80700000Y-159250000D03*
%TD*%
D16*
%TO.C,H19*%
X62500000Y-137000000D03*
D18*
X62500000Y-143000000D03*
%TD*%
D15*
%TO.C,H11*%
X85800000Y-159250000D03*
X87460000Y-155220000D03*
X87470000Y-163290000D03*
X91500000Y-153550000D03*
D16*
X91500000Y-159250000D03*
D15*
X91500000Y-164950000D03*
X95530000Y-163290000D03*
X95540000Y-155220000D03*
X97200000Y-159250000D03*
%TD*%
%TO.C,H17*%
X69300000Y-175750000D03*
X70960000Y-171720000D03*
X70970000Y-179790000D03*
X75000000Y-170050000D03*
D16*
X75000000Y-175750000D03*
D15*
X75000000Y-181450000D03*
X79030000Y-179790000D03*
X79040000Y-171720000D03*
X80700000Y-175750000D03*
%TD*%
%TO.C,H21*%
X52800000Y-208750000D03*
X54460000Y-204720000D03*
X54470000Y-212790000D03*
X58500000Y-203050000D03*
D16*
X58500000Y-208750000D03*
D15*
X58500000Y-214450000D03*
X62530000Y-212790000D03*
X62540000Y-204720000D03*
X64200000Y-208750000D03*
%TD*%
%TO.C,H24*%
X85800000Y-208750000D03*
X87460000Y-204720000D03*
X87470000Y-212790000D03*
X91500000Y-203050000D03*
D16*
X91500000Y-208750000D03*
D15*
X91500000Y-214450000D03*
X95530000Y-212790000D03*
X95540000Y-204720000D03*
X97200000Y-208750000D03*
%TD*%
%TO.C,H15*%
X52800000Y-175750000D03*
X54460000Y-171720000D03*
X54470000Y-179790000D03*
X58500000Y-170050000D03*
D16*
X58500000Y-175750000D03*
D15*
X58500000Y-181450000D03*
X62530000Y-179790000D03*
X62540000Y-171720000D03*
X64200000Y-175750000D03*
%TD*%
D16*
%TO.C,H12*%
X62500000Y-82000000D03*
D18*
X62500000Y-88000000D03*
%TD*%
D16*
%TO.C,H7*%
X62500000Y-109500000D03*
D18*
X62500000Y-115500000D03*
%TD*%
D17*
%TO.C,H2*%
X96500000Y-33500000D03*
%TD*%
%TO.C,H4*%
X96500000Y-226500000D03*
%TD*%
D15*
%TO.C,H8*%
X52800000Y-159250000D03*
X54460000Y-155220000D03*
X54470000Y-163290000D03*
X58500000Y-153550000D03*
D16*
X58500000Y-159250000D03*
D15*
X58500000Y-164950000D03*
X62530000Y-163290000D03*
X62540000Y-155220000D03*
X64200000Y-159250000D03*
%TD*%
D16*
%TO.C,H20*%
X87500000Y-137000000D03*
%TD*%
%TO.C,H6*%
X87500000Y-54500000D03*
%TD*%
%TO.C,H13*%
X87500000Y-82000000D03*
%TD*%
D17*
%TO.C,H1*%
X53500000Y-33500000D03*
%TD*%
D16*
%TO.C,H10*%
X87500000Y-109500000D03*
%TD*%
D15*
%TO.C,H16*%
X85800000Y-175750000D03*
X87460000Y-171720000D03*
X87470000Y-179790000D03*
X91500000Y-170050000D03*
D16*
X91500000Y-175750000D03*
D15*
X91500000Y-181450000D03*
X95530000Y-179790000D03*
X95540000Y-171720000D03*
X97200000Y-175750000D03*
%TD*%
%LPD*%
M02*
