%TF.GenerationSoftware,KiCad,Pcbnew,9.0.4*%
%TF.CreationDate,2025-10-04T20:25:59+02:00*%
%TF.ProjectId,DMH_VCA_Bank_PCB_2,444d485f-5643-4415-9f42-616e6b5f5043,1*%
%TF.SameCoordinates,Original*%
%TF.FileFunction,Drillmap*%
%TF.FilePolarity,Positive*%
%FSLAX45Y45*%
G04 Gerber Fmt 4.5, Leading zero omitted, Abs format (unit mm)*
G04 Created by KiCad (PCBNEW 9.0.4) date 2025-10-04 20:25:59*
%MOMM*%
%LPD*%
G01*
G04 APERTURE LIST*
%ADD10C,0.050000*%
%ADD11C,0.200000*%
G04 APERTURE END LIST*
D10*
X5100000Y-4250000D02*
X5100000Y-15050000D01*
X9900000Y-15050000D02*
X9900000Y-4250000D01*
X5100000Y-15050000D02*
X9900000Y-15050000D01*
X9900000Y-4250000D02*
X5100000Y-4250000D01*
D11*
X5358277Y-15363984D02*
X5358277Y-15163984D01*
X5358277Y-15163984D02*
X5405896Y-15163984D01*
X5405896Y-15163984D02*
X5434467Y-15173508D01*
X5434467Y-15173508D02*
X5453515Y-15192555D01*
X5453515Y-15192555D02*
X5463039Y-15211603D01*
X5463039Y-15211603D02*
X5472563Y-15249698D01*
X5472563Y-15249698D02*
X5472563Y-15278269D01*
X5472563Y-15278269D02*
X5463039Y-15316365D01*
X5463039Y-15316365D02*
X5453515Y-15335412D01*
X5453515Y-15335412D02*
X5434467Y-15354460D01*
X5434467Y-15354460D02*
X5405896Y-15363984D01*
X5405896Y-15363984D02*
X5358277Y-15363984D01*
X5558277Y-15363984D02*
X5558277Y-15230650D01*
X5558277Y-15268746D02*
X5567801Y-15249698D01*
X5567801Y-15249698D02*
X5577324Y-15240174D01*
X5577324Y-15240174D02*
X5596372Y-15230650D01*
X5596372Y-15230650D02*
X5615420Y-15230650D01*
X5682086Y-15363984D02*
X5682086Y-15230650D01*
X5682086Y-15163984D02*
X5672562Y-15173508D01*
X5672562Y-15173508D02*
X5682086Y-15183031D01*
X5682086Y-15183031D02*
X5691610Y-15173508D01*
X5691610Y-15173508D02*
X5682086Y-15163984D01*
X5682086Y-15163984D02*
X5682086Y-15183031D01*
X5805896Y-15363984D02*
X5786848Y-15354460D01*
X5786848Y-15354460D02*
X5777324Y-15335412D01*
X5777324Y-15335412D02*
X5777324Y-15163984D01*
X5910658Y-15363984D02*
X5891610Y-15354460D01*
X5891610Y-15354460D02*
X5882086Y-15335412D01*
X5882086Y-15335412D02*
X5882086Y-15163984D01*
X6139229Y-15363984D02*
X6139229Y-15163984D01*
X6139229Y-15163984D02*
X6205896Y-15306841D01*
X6205896Y-15306841D02*
X6272562Y-15163984D01*
X6272562Y-15163984D02*
X6272562Y-15363984D01*
X6453515Y-15363984D02*
X6453515Y-15259222D01*
X6453515Y-15259222D02*
X6443991Y-15240174D01*
X6443991Y-15240174D02*
X6424943Y-15230650D01*
X6424943Y-15230650D02*
X6386848Y-15230650D01*
X6386848Y-15230650D02*
X6367801Y-15240174D01*
X6453515Y-15354460D02*
X6434467Y-15363984D01*
X6434467Y-15363984D02*
X6386848Y-15363984D01*
X6386848Y-15363984D02*
X6367801Y-15354460D01*
X6367801Y-15354460D02*
X6358277Y-15335412D01*
X6358277Y-15335412D02*
X6358277Y-15316365D01*
X6358277Y-15316365D02*
X6367801Y-15297317D01*
X6367801Y-15297317D02*
X6386848Y-15287793D01*
X6386848Y-15287793D02*
X6434467Y-15287793D01*
X6434467Y-15287793D02*
X6453515Y-15278269D01*
X6548753Y-15230650D02*
X6548753Y-15430650D01*
X6548753Y-15240174D02*
X6567801Y-15230650D01*
X6567801Y-15230650D02*
X6605896Y-15230650D01*
X6605896Y-15230650D02*
X6624943Y-15240174D01*
X6624943Y-15240174D02*
X6634467Y-15249698D01*
X6634467Y-15249698D02*
X6643991Y-15268746D01*
X6643991Y-15268746D02*
X6643991Y-15325888D01*
X6643991Y-15325888D02*
X6634467Y-15344936D01*
X6634467Y-15344936D02*
X6624943Y-15354460D01*
X6624943Y-15354460D02*
X6605896Y-15363984D01*
X6605896Y-15363984D02*
X6567801Y-15363984D01*
X6567801Y-15363984D02*
X6548753Y-15354460D01*
X6729705Y-15344936D02*
X6739229Y-15354460D01*
X6739229Y-15354460D02*
X6729705Y-15363984D01*
X6729705Y-15363984D02*
X6720182Y-15354460D01*
X6720182Y-15354460D02*
X6729705Y-15344936D01*
X6729705Y-15344936D02*
X6729705Y-15363984D01*
X6729705Y-15240174D02*
X6739229Y-15249698D01*
X6739229Y-15249698D02*
X6729705Y-15259222D01*
X6729705Y-15259222D02*
X6720182Y-15249698D01*
X6720182Y-15249698D02*
X6729705Y-15240174D01*
X6729705Y-15240174D02*
X6729705Y-15259222D01*
M02*
