%TF.GenerationSoftware,KiCad,Pcbnew,9.0.4*%
%TF.CreationDate,2025-10-04T20:25:53+02:00*%
%TF.ProjectId,DMH_VCA_Bank_PCB_2,444d485f-5643-4415-9f42-616e6b5f5043,1*%
%TF.SameCoordinates,Original*%
%TF.FileFunction,Copper,L1,Top*%
%TF.FilePolarity,Positive*%
%FSLAX46Y46*%
G04 Gerber Fmt 4.6, Leading zero omitted, Abs format (unit mm)*
G04 Created by KiCad (PCBNEW 9.0.4) date 2025-10-04 20:25:53*
%MOMM*%
%LPD*%
G01*
G04 APERTURE LIST*
%TA.AperFunction,ComponentPad*%
%ADD10O,4.000000X4.200000*%
%TD*%
%TA.AperFunction,ComponentPad*%
%ADD11C,1.800000*%
%TD*%
%TA.AperFunction,ComponentPad*%
%ADD12R,1.800000X1.800000*%
%TD*%
%TA.AperFunction,ComponentPad*%
%ADD13C,1.600000*%
%TD*%
%TA.AperFunction,ComponentPad*%
%ADD14O,1.600000X1.600000*%
%TD*%
%TA.AperFunction,ComponentPad*%
%ADD15O,2.720000X3.240000*%
%TD*%
%TA.AperFunction,ComponentPad*%
%ADD16R,1.700000X1.700000*%
%TD*%
%TA.AperFunction,ComponentPad*%
%ADD17O,1.700000X1.700000*%
%TD*%
%TA.AperFunction,Conductor*%
%ADD18C,1.000000*%
%TD*%
%TA.AperFunction,Conductor*%
%ADD19C,0.200000*%
%TD*%
G04 APERTURE END LIST*
D10*
%TO.P,RV7,*%
%TO.N,*%
X81700000Y-54500000D03*
D11*
X91250000Y-65500000D03*
D10*
X93300000Y-54500000D03*
D12*
%TO.P,RV7,1,1*%
%TO.N,GND*%
X83750000Y-65500000D03*
D11*
%TO.P,RV7,2,2*%
%TO.N,/Inputs and Outputs/CV Amt A Pot*%
X86250000Y-65500000D03*
%TO.P,RV7,3,3*%
%TO.N,/Inputs and Outputs/CV A Jack*%
X88750000Y-65500000D03*
%TD*%
D13*
%TO.P,R53,1*%
%TO.N,Net-(R53-Pad1)*%
X58690000Y-46000000D03*
D14*
%TO.P,R53,2*%
%TO.N,+12V*%
X66310000Y-46000000D03*
%TD*%
D10*
%TO.P,RV13,*%
%TO.N,*%
X81700000Y-137000000D03*
D11*
X91250000Y-148000000D03*
D10*
X93300000Y-137000000D03*
D12*
%TO.P,RV13,1,1*%
%TO.N,GND*%
X83750000Y-148000000D03*
D11*
%TO.P,RV13,2,2*%
%TO.N,/Inputs and Outputs/CV Amt D Pot*%
X86250000Y-148000000D03*
%TO.P,RV13,3,3*%
%TO.N,/Inputs and Outputs/CV D Jack*%
X88750000Y-148000000D03*
%TD*%
D13*
%TO.P,R56,1*%
%TO.N,Net-(R56-Pad1)*%
X58690000Y-128500000D03*
D14*
%TO.P,R56,2*%
%TO.N,+12V*%
X66310000Y-128500000D03*
%TD*%
D10*
%TO.P,RV9,*%
%TO.N,*%
X81700000Y-109500000D03*
D11*
X91250000Y-120500000D03*
D10*
X93300000Y-109500000D03*
D12*
%TO.P,RV9,1,1*%
%TO.N,GND*%
X83750000Y-120500000D03*
D11*
%TO.P,RV9,2,2*%
%TO.N,/Inputs and Outputs/CV Amt C Pot*%
X86250000Y-120500000D03*
%TO.P,RV9,3,3*%
%TO.N,/Inputs and Outputs/CV C Jack*%
X88750000Y-120500000D03*
%TD*%
D15*
%TO.P,RV5,*%
%TO.N,*%
X57700000Y-82000000D03*
X67300000Y-82000000D03*
D12*
%TO.P,RV5,1,1*%
%TO.N,GND*%
X60000000Y-89500000D03*
D11*
%TO.P,RV5,2,2*%
%TO.N,/Inputs and Outputs/Offset B Pot*%
X62500000Y-89500000D03*
%TO.P,RV5,3,3*%
%TO.N,Net-(R54-Pad1)*%
X65000000Y-89500000D03*
%TD*%
D16*
%TO.P,J0,1,Pin_1*%
%TO.N,GND*%
X97000000Y-120000000D03*
%TD*%
D15*
%TO.P,RV14,*%
%TO.N,*%
X57700000Y-137000000D03*
X67300000Y-137000000D03*
D12*
%TO.P,RV14,1,1*%
%TO.N,GND*%
X60000000Y-144500000D03*
D11*
%TO.P,RV14,2,2*%
%TO.N,/Inputs and Outputs/Offset D Pot*%
X62500000Y-144500000D03*
%TO.P,RV14,3,3*%
%TO.N,Net-(R56-Pad1)*%
X65000000Y-144500000D03*
%TD*%
D13*
%TO.P,R55,1*%
%TO.N,Net-(R55-Pad1)*%
X58690000Y-101000000D03*
D14*
%TO.P,R55,2*%
%TO.N,+12V*%
X66310000Y-101000000D03*
%TD*%
D10*
%TO.P,RV8,*%
%TO.N,*%
X81700000Y-82000000D03*
D11*
X91250000Y-93000000D03*
D10*
X93300000Y-82000000D03*
D12*
%TO.P,RV8,1,1*%
%TO.N,GND*%
X83750000Y-93000000D03*
D11*
%TO.P,RV8,2,2*%
%TO.N,/Inputs and Outputs/CV Amt B Pot*%
X86250000Y-93000000D03*
%TO.P,RV8,3,3*%
%TO.N,/Inputs and Outputs/CV B Jack*%
X88750000Y-93000000D03*
%TD*%
D15*
%TO.P,RV6,*%
%TO.N,*%
X57700000Y-109500000D03*
X67300000Y-109500000D03*
D12*
%TO.P,RV6,1,1*%
%TO.N,GND*%
X60000000Y-117000000D03*
D11*
%TO.P,RV6,2,2*%
%TO.N,/Inputs and Outputs/Offset C Pot*%
X62500000Y-117000000D03*
%TO.P,RV6,3,3*%
%TO.N,Net-(R55-Pad1)*%
X65000000Y-117000000D03*
%TD*%
D13*
%TO.P,R54,1*%
%TO.N,Net-(R54-Pad1)*%
X58690000Y-73550000D03*
D14*
%TO.P,R54,2*%
%TO.N,+12V*%
X66310000Y-73550000D03*
%TD*%
D15*
%TO.P,RV4,*%
%TO.N,*%
X57700000Y-54500000D03*
X67300000Y-54500000D03*
D12*
%TO.P,RV4,1,1*%
%TO.N,GND*%
X60000000Y-62000000D03*
D11*
%TO.P,RV4,2,2*%
%TO.N,/Inputs and Outputs/Offset A Pot*%
X62500000Y-62000000D03*
%TO.P,RV4,3,3*%
%TO.N,Net-(R53-Pad1)*%
X65000000Y-62000000D03*
%TD*%
D16*
%TO.P,J60,1,Pin_1*%
%TO.N,+12V*%
X97000000Y-77000000D03*
D17*
%TO.P,J60,2,Pin_2*%
%TO.N,/Inputs and Outputs/Offset B Pot*%
X97000000Y-79540000D03*
%TO.P,J60,3,Pin_3*%
%TO.N,/Inputs and Outputs/CV Amt B Pot*%
X97000000Y-82080000D03*
%TO.P,J60,4,Pin_4*%
%TO.N,/Inputs and Outputs/CV B Jack*%
X97000000Y-84620000D03*
%TO.P,J60,5,Pin_5*%
%TO.N,GND*%
X97000000Y-87160000D03*
%TO.P,J60,6,Pin_6*%
X97000000Y-89700000D03*
%TD*%
D16*
%TO.P,J70,1,Pin_1*%
%TO.N,+12V*%
X53000000Y-103000000D03*
D17*
%TO.P,J70,2,Pin_2*%
%TO.N,/Inputs and Outputs/Offset C Pot*%
X53000000Y-105540000D03*
%TO.P,J70,3,Pin_3*%
%TO.N,/Inputs and Outputs/CV Amt C Pot*%
X53000000Y-108080000D03*
%TO.P,J70,4,Pin_4*%
%TO.N,/Inputs and Outputs/CV C Jack*%
X53000000Y-110620000D03*
%TO.P,J70,5,Pin_5*%
%TO.N,GND*%
X53000000Y-113160000D03*
%TO.P,J70,6,Pin_6*%
X53000000Y-115700000D03*
%TD*%
D16*
%TO.P,J50,1,Pin_1*%
%TO.N,+12V*%
X53000000Y-48000000D03*
D17*
%TO.P,J50,2,Pin_2*%
%TO.N,/Inputs and Outputs/Offset A Pot*%
X53000000Y-50540000D03*
%TO.P,J50,3,Pin_3*%
%TO.N,/Inputs and Outputs/CV Amt A Pot*%
X53000000Y-53080000D03*
%TO.P,J50,4,Pin_4*%
%TO.N,/Inputs and Outputs/CV A Jack*%
X53000000Y-55620000D03*
%TO.P,J50,5,Pin_5*%
%TO.N,GND*%
X53000000Y-58160000D03*
%TO.P,J50,6,Pin_6*%
X53000000Y-60700000D03*
%TD*%
D16*
%TO.P,J80,1,Pin_1*%
%TO.N,+12V*%
X97000000Y-132000000D03*
D17*
%TO.P,J80,2,Pin_2*%
%TO.N,/Inputs and Outputs/Offset D Pot*%
X97000000Y-134540000D03*
%TO.P,J80,3,Pin_3*%
%TO.N,/Inputs and Outputs/CV Amt D Pot*%
X97000000Y-137080000D03*
%TO.P,J80,4,Pin_4*%
%TO.N,/Inputs and Outputs/CV D Jack*%
X97000000Y-139620000D03*
%TO.P,J80,5,Pin_5*%
%TO.N,GND*%
X97000000Y-142160000D03*
%TO.P,J80,6,Pin_6*%
X97000000Y-144700000D03*
%TD*%
D18*
%TO.N,+12V*%
X56750000Y-44250000D02*
X64560000Y-44250000D01*
X93500000Y-128500000D02*
X97000000Y-132000000D01*
X66310000Y-73550000D02*
X93550000Y-73550000D01*
X53000000Y-103000000D02*
X57000000Y-99000000D01*
X53000000Y-48000000D02*
X56750000Y-44250000D01*
X66250000Y-101000000D02*
X66310000Y-101000000D01*
X93550000Y-73550000D02*
X97000000Y-77000000D01*
X64250000Y-99000000D02*
X66250000Y-101000000D01*
X57000000Y-99000000D02*
X64250000Y-99000000D01*
X66310000Y-128500000D02*
X93500000Y-128500000D01*
X64560000Y-44250000D02*
X66310000Y-46000000D01*
D19*
%TO.N,/Inputs and Outputs/CV Amt D Pot*%
X97000000Y-137250000D02*
X97000000Y-137080000D01*
X86250000Y-148000000D02*
X97000000Y-137250000D01*
%TO.N,/Inputs and Outputs/Offset D Pot*%
X72460000Y-134540000D02*
X97000000Y-134540000D01*
X62500000Y-144500000D02*
X72460000Y-134540000D01*
%TO.N,/Inputs and Outputs/CV D Jack*%
X97000000Y-139750000D02*
X97000000Y-139620000D01*
X88750000Y-148000000D02*
X97000000Y-139750000D01*
%TO.N,/Inputs and Outputs/CV A Jack*%
X51849000Y-54469000D02*
X51849000Y-52365240D01*
X52385240Y-51829000D02*
X75079000Y-51829000D01*
X53000000Y-55620000D02*
X51849000Y-54469000D01*
X75079000Y-51829000D02*
X88750000Y-65500000D01*
X51849000Y-52365240D02*
X52385240Y-51829000D01*
%TO.N,/Inputs and Outputs/CV B Jack*%
X97000000Y-84750000D02*
X97000000Y-84620000D01*
X88750000Y-93000000D02*
X97000000Y-84750000D01*
%TO.N,/Inputs and Outputs/CV C Jack*%
X51849000Y-107603240D02*
X52623240Y-106829000D01*
X51849000Y-109469000D02*
X51849000Y-107603240D01*
X52623240Y-106829000D02*
X75079000Y-106829000D01*
X53000000Y-110620000D02*
X51849000Y-109469000D01*
X75079000Y-106829000D02*
X88750000Y-120500000D01*
%TO.N,/Inputs and Outputs/Offset B Pot*%
X72460000Y-79540000D02*
X97000000Y-79540000D01*
X62500000Y-89500000D02*
X72460000Y-79540000D01*
%TO.N,/Inputs and Outputs/CV Amt A Pot*%
X72980000Y-52230000D02*
X86250000Y-65500000D01*
X53850000Y-52230000D02*
X72980000Y-52230000D01*
X53000000Y-53080000D02*
X53850000Y-52230000D01*
%TO.N,/Inputs and Outputs/CV Amt B Pot*%
X97000000Y-82250000D02*
X97000000Y-82080000D01*
X86250000Y-93000000D02*
X97000000Y-82250000D01*
%TO.N,/Inputs and Outputs/CV Amt C Pot*%
X53850000Y-107230000D02*
X72980000Y-107230000D01*
X72980000Y-107230000D02*
X86250000Y-120500000D01*
X53000000Y-108080000D02*
X53850000Y-107230000D01*
%TD*%
%TA.AperFunction,Conductor*%
%TO.N,GND*%
G36*
X98442539Y-43020185D02*
G01*
X98488294Y-43072989D01*
X98499500Y-43124500D01*
X98499500Y-75809897D01*
X98479815Y-75876936D01*
X98427011Y-75922691D01*
X98357853Y-75932635D01*
X98294297Y-75903610D01*
X98276234Y-75884208D01*
X98207547Y-75792455D01*
X98207544Y-75792452D01*
X98092335Y-75706206D01*
X98092328Y-75706202D01*
X97957482Y-75655908D01*
X97957483Y-75655908D01*
X97897883Y-75649501D01*
X97897881Y-75649500D01*
X97897873Y-75649500D01*
X97897865Y-75649500D01*
X97115782Y-75649500D01*
X97048743Y-75629815D01*
X97028101Y-75613181D01*
X94331479Y-72916559D01*
X94331459Y-72916537D01*
X94187785Y-72772863D01*
X94187781Y-72772860D01*
X94023920Y-72663371D01*
X94023911Y-72663366D01*
X93951315Y-72633296D01*
X93895165Y-72610038D01*
X93841836Y-72587949D01*
X93841832Y-72587948D01*
X93841828Y-72587946D01*
X93745188Y-72568724D01*
X93648544Y-72549500D01*
X93648541Y-72549500D01*
X67185762Y-72549500D01*
X67118723Y-72529815D01*
X67112877Y-72525818D01*
X66991613Y-72437715D01*
X66991612Y-72437714D01*
X66991610Y-72437713D01*
X66934653Y-72408691D01*
X66809223Y-72344781D01*
X66614534Y-72281522D01*
X66439995Y-72253878D01*
X66412352Y-72249500D01*
X66207648Y-72249500D01*
X66183329Y-72253351D01*
X66005465Y-72281522D01*
X65810776Y-72344781D01*
X65628386Y-72437715D01*
X65462786Y-72558028D01*
X65318028Y-72702786D01*
X65197715Y-72868386D01*
X65104781Y-73050776D01*
X65041522Y-73245465D01*
X65009500Y-73447648D01*
X65009500Y-73652351D01*
X65041522Y-73854534D01*
X65104781Y-74049223D01*
X65197715Y-74231613D01*
X65318028Y-74397213D01*
X65462786Y-74541971D01*
X65617749Y-74654556D01*
X65628390Y-74662287D01*
X65744607Y-74721503D01*
X65810776Y-74755218D01*
X65810778Y-74755218D01*
X65810781Y-74755220D01*
X65915137Y-74789127D01*
X66005465Y-74818477D01*
X66106557Y-74834488D01*
X66207648Y-74850500D01*
X66207649Y-74850500D01*
X66412351Y-74850500D01*
X66412352Y-74850500D01*
X66614534Y-74818477D01*
X66809219Y-74755220D01*
X66991610Y-74662287D01*
X67112877Y-74574181D01*
X67178683Y-74550702D01*
X67185762Y-74550500D01*
X93084218Y-74550500D01*
X93151257Y-74570185D01*
X93171899Y-74586819D01*
X95613181Y-77028101D01*
X95646666Y-77089424D01*
X95649500Y-77115782D01*
X95649500Y-77897870D01*
X95649501Y-77897876D01*
X95655908Y-77957483D01*
X95706202Y-78092328D01*
X95706206Y-78092335D01*
X95792452Y-78207544D01*
X95792455Y-78207547D01*
X95907664Y-78293793D01*
X95907671Y-78293797D01*
X96039082Y-78342810D01*
X96095016Y-78384681D01*
X96119433Y-78450145D01*
X96104582Y-78518418D01*
X96083431Y-78546673D01*
X95969889Y-78660215D01*
X95844948Y-78832184D01*
X95844947Y-78832185D01*
X95824765Y-78871795D01*
X95776791Y-78922591D01*
X95714281Y-78939500D01*
X72539057Y-78939500D01*
X72380943Y-78939500D01*
X72228215Y-78980423D01*
X72228214Y-78980423D01*
X72228212Y-78980424D01*
X72228209Y-78980425D01*
X72178096Y-79009359D01*
X72178095Y-79009360D01*
X72134689Y-79034420D01*
X72091285Y-79059479D01*
X72091282Y-79059481D01*
X69372181Y-81778583D01*
X69310858Y-81812068D01*
X69241166Y-81807084D01*
X69185233Y-81765212D01*
X69160816Y-81699748D01*
X69160500Y-81690902D01*
X69160500Y-81618062D01*
X69160499Y-81618048D01*
X69150457Y-81541773D01*
X69128666Y-81376256D01*
X69065544Y-81140679D01*
X68972212Y-80915356D01*
X68972210Y-80915353D01*
X68972208Y-80915348D01*
X68850272Y-80704151D01*
X68850268Y-80704144D01*
X68701799Y-80510655D01*
X68701794Y-80510649D01*
X68529350Y-80338205D01*
X68529343Y-80338199D01*
X68335864Y-80189738D01*
X68335862Y-80189736D01*
X68335856Y-80189732D01*
X68335851Y-80189729D01*
X68335848Y-80189727D01*
X68124651Y-80067791D01*
X68124640Y-80067786D01*
X67899330Y-79974459D01*
X67899323Y-79974457D01*
X67899321Y-79974456D01*
X67663744Y-79911334D01*
X67623333Y-79906013D01*
X67421951Y-79879500D01*
X67421944Y-79879500D01*
X67178056Y-79879500D01*
X67178048Y-79879500D01*
X66947896Y-79909801D01*
X66936256Y-79911334D01*
X66773164Y-79955034D01*
X66700679Y-79974456D01*
X66700669Y-79974459D01*
X66475359Y-80067786D01*
X66475348Y-80067791D01*
X66264151Y-80189727D01*
X66264135Y-80189738D01*
X66070656Y-80338199D01*
X66070649Y-80338205D01*
X65898205Y-80510649D01*
X65898199Y-80510656D01*
X65749738Y-80704135D01*
X65749727Y-80704151D01*
X65627791Y-80915348D01*
X65627786Y-80915359D01*
X65534459Y-81140669D01*
X65534456Y-81140679D01*
X65472427Y-81372179D01*
X65471335Y-81376253D01*
X65471333Y-81376264D01*
X65439500Y-81618048D01*
X65439500Y-82381951D01*
X65462177Y-82554193D01*
X65471334Y-82623744D01*
X65516771Y-82793318D01*
X65534456Y-82859320D01*
X65534459Y-82859330D01*
X65627786Y-83084640D01*
X65627791Y-83084651D01*
X65749727Y-83295848D01*
X65749738Y-83295864D01*
X65898199Y-83489343D01*
X65898205Y-83489350D01*
X66070649Y-83661794D01*
X66070655Y-83661799D01*
X66264144Y-83810268D01*
X66264151Y-83810272D01*
X66475348Y-83932208D01*
X66475353Y-83932210D01*
X66475356Y-83932212D01*
X66700679Y-84025544D01*
X66828051Y-84059672D01*
X66887708Y-84096035D01*
X66918238Y-84158882D01*
X66909944Y-84228258D01*
X66883636Y-84267127D01*
X63024202Y-88126561D01*
X62962879Y-88160046D01*
X62898203Y-88156811D01*
X62873584Y-88148812D01*
X62827952Y-88133985D01*
X62719086Y-88116742D01*
X62610222Y-88099500D01*
X62389778Y-88099500D01*
X62317201Y-88110995D01*
X62172047Y-88133985D01*
X61962396Y-88202103D01*
X61962393Y-88202104D01*
X61765974Y-88302187D01*
X61587641Y-88431752D01*
X61587635Y-88431757D01*
X61566207Y-88453185D01*
X61504884Y-88486669D01*
X61435192Y-88481683D01*
X61379259Y-88439810D01*
X61362346Y-88408834D01*
X61343355Y-88357915D01*
X61343350Y-88357906D01*
X61257190Y-88242812D01*
X61257187Y-88242809D01*
X61142093Y-88156649D01*
X61142086Y-88156645D01*
X61007379Y-88106403D01*
X61007372Y-88106401D01*
X60947844Y-88100000D01*
X60250000Y-88100000D01*
X60250000Y-89066988D01*
X60192993Y-89034075D01*
X60065826Y-89000000D01*
X59934174Y-89000000D01*
X59807007Y-89034075D01*
X59750000Y-89066988D01*
X59750000Y-88100000D01*
X59052155Y-88100000D01*
X58992627Y-88106401D01*
X58992620Y-88106403D01*
X58857913Y-88156645D01*
X58857906Y-88156649D01*
X58742812Y-88242809D01*
X58742809Y-88242812D01*
X58656649Y-88357906D01*
X58656645Y-88357913D01*
X58606403Y-88492620D01*
X58606401Y-88492627D01*
X58600000Y-88552155D01*
X58600000Y-89250000D01*
X59566988Y-89250000D01*
X59534075Y-89307007D01*
X59500000Y-89434174D01*
X59500000Y-89565826D01*
X59534075Y-89692993D01*
X59566988Y-89750000D01*
X58600000Y-89750000D01*
X58600000Y-90447844D01*
X58606401Y-90507372D01*
X58606403Y-90507379D01*
X58656645Y-90642086D01*
X58656649Y-90642093D01*
X58742809Y-90757187D01*
X58742812Y-90757190D01*
X58857906Y-90843350D01*
X58857913Y-90843354D01*
X58992620Y-90893596D01*
X58992627Y-90893598D01*
X59052155Y-90899999D01*
X59052172Y-90900000D01*
X59750000Y-90900000D01*
X59750000Y-89933012D01*
X59807007Y-89965925D01*
X59934174Y-90000000D01*
X60065826Y-90000000D01*
X60192993Y-89965925D01*
X60250000Y-89933012D01*
X60250000Y-90900000D01*
X60947828Y-90900000D01*
X60947844Y-90899999D01*
X61007372Y-90893598D01*
X61007379Y-90893596D01*
X61142086Y-90843354D01*
X61142093Y-90843350D01*
X61257187Y-90757190D01*
X61257190Y-90757187D01*
X61343350Y-90642093D01*
X61343353Y-90642088D01*
X61362345Y-90591166D01*
X61404215Y-90535232D01*
X61469679Y-90510813D01*
X61537952Y-90525663D01*
X61566209Y-90546816D01*
X61587636Y-90568243D01*
X61587641Y-90568247D01*
X61743192Y-90681260D01*
X61765978Y-90697815D01*
X61882501Y-90757187D01*
X61962393Y-90797895D01*
X61962396Y-90797896D01*
X62067221Y-90831955D01*
X62172049Y-90866015D01*
X62389778Y-90900500D01*
X62389779Y-90900500D01*
X62610221Y-90900500D01*
X62610222Y-90900500D01*
X62827951Y-90866015D01*
X63037606Y-90797895D01*
X63234022Y-90697815D01*
X63412365Y-90568242D01*
X63568242Y-90412365D01*
X63649682Y-90300270D01*
X63705011Y-90257606D01*
X63774624Y-90251627D01*
X63836420Y-90284232D01*
X63850313Y-90300265D01*
X63928265Y-90407557D01*
X63931758Y-90412365D01*
X64087636Y-90568243D01*
X64087641Y-90568247D01*
X64243192Y-90681260D01*
X64265978Y-90697815D01*
X64382501Y-90757187D01*
X64462393Y-90797895D01*
X64462396Y-90797896D01*
X64567221Y-90831955D01*
X64672049Y-90866015D01*
X64889778Y-90900500D01*
X64889779Y-90900500D01*
X65110221Y-90900500D01*
X65110222Y-90900500D01*
X65327951Y-90866015D01*
X65537606Y-90797895D01*
X65734022Y-90697815D01*
X65912365Y-90568242D01*
X66068242Y-90412365D01*
X66197815Y-90234022D01*
X66297895Y-90037606D01*
X66366015Y-89827951D01*
X66400500Y-89610222D01*
X66400500Y-89389778D01*
X66366015Y-89172049D01*
X66297895Y-88962394D01*
X66297895Y-88962393D01*
X66263237Y-88894375D01*
X66197815Y-88765978D01*
X66128281Y-88670272D01*
X66068247Y-88587641D01*
X66068243Y-88587636D01*
X65912363Y-88431756D01*
X65912358Y-88431752D01*
X65734025Y-88302187D01*
X65734024Y-88302186D01*
X65734022Y-88302185D01*
X65671096Y-88270122D01*
X65537606Y-88202104D01*
X65537603Y-88202103D01*
X65327952Y-88133985D01*
X65219086Y-88116742D01*
X65110222Y-88099500D01*
X65049096Y-88099500D01*
X64982057Y-88079815D01*
X64936302Y-88027011D01*
X64926358Y-87957853D01*
X64955383Y-87894297D01*
X64961415Y-87887819D01*
X68728735Y-84120500D01*
X72672416Y-80176819D01*
X72733739Y-80143334D01*
X72760097Y-80140500D01*
X79647406Y-80140500D01*
X79714445Y-80160185D01*
X79760200Y-80212989D01*
X79770144Y-80282147D01*
X79744353Y-80341813D01*
X79657476Y-80450753D01*
X79508053Y-80688557D01*
X79386200Y-80941588D01*
X79293443Y-81206670D01*
X79293439Y-81206682D01*
X79230945Y-81480487D01*
X79230942Y-81480505D01*
X79199500Y-81759568D01*
X79199500Y-82240431D01*
X79230942Y-82519494D01*
X79230945Y-82519512D01*
X79293439Y-82793317D01*
X79293443Y-82793329D01*
X79386200Y-83058411D01*
X79508053Y-83311442D01*
X79532281Y-83350000D01*
X79657477Y-83549248D01*
X79832584Y-83768825D01*
X80031175Y-83967416D01*
X80250752Y-84142523D01*
X80488555Y-84291945D01*
X80741592Y-84413801D01*
X80940680Y-84483465D01*
X81006670Y-84506556D01*
X81006682Y-84506560D01*
X81280491Y-84569055D01*
X81280497Y-84569055D01*
X81280505Y-84569057D01*
X81466547Y-84590018D01*
X81559569Y-84600499D01*
X81559572Y-84600500D01*
X81559575Y-84600500D01*
X81840428Y-84600500D01*
X81840429Y-84600499D01*
X81983055Y-84584429D01*
X82119494Y-84569057D01*
X82119499Y-84569056D01*
X82119509Y-84569055D01*
X82393318Y-84506560D01*
X82658408Y-84413801D01*
X82911445Y-84291945D01*
X83149248Y-84142523D01*
X83368825Y-83967416D01*
X83567416Y-83768825D01*
X83742523Y-83549248D01*
X83891945Y-83311445D01*
X84013801Y-83058408D01*
X84106560Y-82793318D01*
X84169055Y-82519509D01*
X84200500Y-82240425D01*
X84200500Y-81759575D01*
X84186519Y-81635486D01*
X84169057Y-81480505D01*
X84169054Y-81480487D01*
X84144333Y-81372179D01*
X84106560Y-81206682D01*
X84104296Y-81200213D01*
X84051696Y-81049890D01*
X84013801Y-80941592D01*
X83891945Y-80688555D01*
X83742523Y-80450752D01*
X83655647Y-80341813D01*
X83629238Y-80277126D01*
X83641995Y-80208431D01*
X83689865Y-80157537D01*
X83752594Y-80140500D01*
X91247406Y-80140500D01*
X91314445Y-80160185D01*
X91360200Y-80212989D01*
X91370144Y-80282147D01*
X91344353Y-80341813D01*
X91257476Y-80450753D01*
X91108053Y-80688557D01*
X90986200Y-80941588D01*
X90893443Y-81206670D01*
X90893439Y-81206682D01*
X90830945Y-81480487D01*
X90830942Y-81480505D01*
X90799500Y-81759568D01*
X90799500Y-82240431D01*
X90830942Y-82519494D01*
X90830945Y-82519512D01*
X90893439Y-82793317D01*
X90893443Y-82793329D01*
X90986200Y-83058411D01*
X91108053Y-83311442D01*
X91132281Y-83350000D01*
X91257477Y-83549248D01*
X91432584Y-83768825D01*
X91631175Y-83967416D01*
X91850752Y-84142523D01*
X92088555Y-84291945D01*
X92341592Y-84413801D01*
X92540680Y-84483465D01*
X92606670Y-84506556D01*
X92606682Y-84506560D01*
X92880491Y-84569055D01*
X92880497Y-84569055D01*
X92880505Y-84569057D01*
X93066547Y-84590018D01*
X93159569Y-84600499D01*
X93159572Y-84600500D01*
X93159575Y-84600500D01*
X93440428Y-84600500D01*
X93440428Y-84600499D01*
X93485822Y-84595384D01*
X93493811Y-84594485D01*
X93562633Y-84606539D01*
X93614012Y-84653888D01*
X93631637Y-84721498D01*
X93609911Y-84787904D01*
X93595376Y-84805386D01*
X86774202Y-91626561D01*
X86712879Y-91660046D01*
X86648203Y-91656811D01*
X86623584Y-91648812D01*
X86577952Y-91633985D01*
X86469086Y-91616742D01*
X86360222Y-91599500D01*
X86139778Y-91599500D01*
X86067201Y-91610995D01*
X85922047Y-91633985D01*
X85712396Y-91702103D01*
X85712393Y-91702104D01*
X85515974Y-91802187D01*
X85337641Y-91931752D01*
X85337635Y-91931757D01*
X85316207Y-91953185D01*
X85254884Y-91986669D01*
X85185192Y-91981683D01*
X85129259Y-91939810D01*
X85112346Y-91908834D01*
X85093355Y-91857915D01*
X85093350Y-91857906D01*
X85007190Y-91742812D01*
X85007187Y-91742809D01*
X84892093Y-91656649D01*
X84892086Y-91656645D01*
X84757379Y-91606403D01*
X84757372Y-91606401D01*
X84697844Y-91600000D01*
X84000000Y-91600000D01*
X84000000Y-92566988D01*
X83942993Y-92534075D01*
X83815826Y-92500000D01*
X83684174Y-92500000D01*
X83557007Y-92534075D01*
X83500000Y-92566988D01*
X83500000Y-91600000D01*
X82802155Y-91600000D01*
X82742627Y-91606401D01*
X82742620Y-91606403D01*
X82607913Y-91656645D01*
X82607906Y-91656649D01*
X82492812Y-91742809D01*
X82492809Y-91742812D01*
X82406649Y-91857906D01*
X82406645Y-91857913D01*
X82356403Y-91992620D01*
X82356401Y-91992627D01*
X82350000Y-92052155D01*
X82350000Y-92750000D01*
X83316988Y-92750000D01*
X83284075Y-92807007D01*
X83250000Y-92934174D01*
X83250000Y-93065826D01*
X83284075Y-93192993D01*
X83316988Y-93250000D01*
X82350000Y-93250000D01*
X82350000Y-93947844D01*
X82356401Y-94007372D01*
X82356403Y-94007379D01*
X82406645Y-94142086D01*
X82406649Y-94142093D01*
X82492809Y-94257187D01*
X82492812Y-94257190D01*
X82607906Y-94343350D01*
X82607913Y-94343354D01*
X82742620Y-94393596D01*
X82742627Y-94393598D01*
X82802155Y-94399999D01*
X82802172Y-94400000D01*
X83500000Y-94400000D01*
X83500000Y-93433012D01*
X83557007Y-93465925D01*
X83684174Y-93500000D01*
X83815826Y-93500000D01*
X83942993Y-93465925D01*
X84000000Y-93433012D01*
X84000000Y-94400000D01*
X84697828Y-94400000D01*
X84697844Y-94399999D01*
X84757372Y-94393598D01*
X84757379Y-94393596D01*
X84892086Y-94343354D01*
X84892093Y-94343350D01*
X85007187Y-94257190D01*
X85007190Y-94257187D01*
X85093350Y-94142093D01*
X85093353Y-94142088D01*
X85112345Y-94091166D01*
X85154215Y-94035232D01*
X85219679Y-94010813D01*
X85287952Y-94025663D01*
X85316209Y-94046816D01*
X85337636Y-94068243D01*
X85337641Y-94068247D01*
X85493192Y-94181260D01*
X85515978Y-94197815D01*
X85632501Y-94257187D01*
X85712393Y-94297895D01*
X85712396Y-94297896D01*
X85817221Y-94331955D01*
X85922049Y-94366015D01*
X86139778Y-94400500D01*
X86139779Y-94400500D01*
X86360221Y-94400500D01*
X86360222Y-94400500D01*
X86577951Y-94366015D01*
X86787606Y-94297895D01*
X86984022Y-94197815D01*
X87162365Y-94068242D01*
X87318242Y-93912365D01*
X87399682Y-93800270D01*
X87455011Y-93757606D01*
X87524624Y-93751627D01*
X87586420Y-93784232D01*
X87600313Y-93800265D01*
X87681753Y-93912358D01*
X87681758Y-93912365D01*
X87837636Y-94068243D01*
X87837641Y-94068247D01*
X87993192Y-94181260D01*
X88015978Y-94197815D01*
X88132501Y-94257187D01*
X88212393Y-94297895D01*
X88212396Y-94297896D01*
X88317221Y-94331955D01*
X88422049Y-94366015D01*
X88639778Y-94400500D01*
X88639779Y-94400500D01*
X88860221Y-94400500D01*
X88860222Y-94400500D01*
X89077951Y-94366015D01*
X89287606Y-94297895D01*
X89484022Y-94197815D01*
X89662365Y-94068242D01*
X89818242Y-93912365D01*
X89899682Y-93800270D01*
X89955011Y-93757606D01*
X90024624Y-93751627D01*
X90086420Y-93784232D01*
X90100313Y-93800265D01*
X90181753Y-93912358D01*
X90181758Y-93912365D01*
X90337636Y-94068243D01*
X90337641Y-94068247D01*
X90493192Y-94181260D01*
X90515978Y-94197815D01*
X90632501Y-94257187D01*
X90712393Y-94297895D01*
X90712396Y-94297896D01*
X90817221Y-94331955D01*
X90922049Y-94366015D01*
X91139778Y-94400500D01*
X91139779Y-94400500D01*
X91360221Y-94400500D01*
X91360222Y-94400500D01*
X91577951Y-94366015D01*
X91787606Y-94297895D01*
X91984022Y-94197815D01*
X92162365Y-94068242D01*
X92318242Y-93912365D01*
X92447815Y-93734022D01*
X92547895Y-93537606D01*
X92616015Y-93327951D01*
X92650500Y-93110222D01*
X92650500Y-92889778D01*
X92616015Y-92672049D01*
X92547895Y-92462394D01*
X92547895Y-92462393D01*
X92513237Y-92394375D01*
X92447815Y-92265978D01*
X92431260Y-92243192D01*
X92318247Y-92087641D01*
X92318243Y-92087636D01*
X92162363Y-91931756D01*
X92162358Y-91931752D01*
X91984025Y-91802187D01*
X91984024Y-91802186D01*
X91984022Y-91802185D01*
X91921096Y-91770122D01*
X91787606Y-91702104D01*
X91787603Y-91702103D01*
X91577952Y-91633985D01*
X91469086Y-91616742D01*
X91360222Y-91599500D01*
X91299096Y-91599500D01*
X91232057Y-91579815D01*
X91186302Y-91527011D01*
X91176358Y-91457853D01*
X91205383Y-91394297D01*
X91211415Y-91387819D01*
X95652915Y-86946319D01*
X95714238Y-86912834D01*
X95740596Y-86910000D01*
X96566988Y-86910000D01*
X96534075Y-86967007D01*
X96500000Y-87094174D01*
X96500000Y-87225826D01*
X96534075Y-87352993D01*
X96566988Y-87410000D01*
X95672769Y-87410000D01*
X95683242Y-87476126D01*
X95683242Y-87476129D01*
X95748904Y-87678217D01*
X95845379Y-87867557D01*
X95970272Y-88039459D01*
X95970276Y-88039464D01*
X96120535Y-88189723D01*
X96120540Y-88189727D01*
X96292444Y-88314622D01*
X96302048Y-88319516D01*
X96352844Y-88367491D01*
X96369638Y-88435312D01*
X96347100Y-88501447D01*
X96302048Y-88540484D01*
X96292444Y-88545377D01*
X96120540Y-88670272D01*
X96120535Y-88670276D01*
X95970276Y-88820535D01*
X95970272Y-88820540D01*
X95845379Y-88992442D01*
X95748904Y-89181782D01*
X95683242Y-89383870D01*
X95683242Y-89383873D01*
X95672769Y-89450000D01*
X96566988Y-89450000D01*
X96534075Y-89507007D01*
X96500000Y-89634174D01*
X96500000Y-89765826D01*
X96534075Y-89892993D01*
X96566988Y-89950000D01*
X95672769Y-89950000D01*
X95683242Y-90016126D01*
X95683242Y-90016129D01*
X95748904Y-90218217D01*
X95845379Y-90407557D01*
X95970272Y-90579459D01*
X95970276Y-90579464D01*
X96120535Y-90729723D01*
X96120540Y-90729727D01*
X96292442Y-90854620D01*
X96481782Y-90951095D01*
X96683871Y-91016757D01*
X96750000Y-91027231D01*
X96750000Y-90133012D01*
X96807007Y-90165925D01*
X96934174Y-90200000D01*
X97065826Y-90200000D01*
X97192993Y-90165925D01*
X97250000Y-90133012D01*
X97250000Y-91027230D01*
X97316126Y-91016757D01*
X97316129Y-91016757D01*
X97518217Y-90951095D01*
X97707557Y-90854620D01*
X97879459Y-90729727D01*
X97879464Y-90729723D01*
X98029723Y-90579464D01*
X98029727Y-90579459D01*
X98154620Y-90407557D01*
X98251093Y-90218221D01*
X98257568Y-90198294D01*
X98297005Y-90140618D01*
X98361363Y-90113419D01*
X98430210Y-90125333D01*
X98481686Y-90172576D01*
X98499500Y-90236611D01*
X98499500Y-118810730D01*
X98479815Y-118877769D01*
X98427011Y-118923524D01*
X98357853Y-118933468D01*
X98294297Y-118904443D01*
X98276234Y-118885042D01*
X98207187Y-118792809D01*
X98092093Y-118706649D01*
X98092086Y-118706645D01*
X97957379Y-118656403D01*
X97957372Y-118656401D01*
X97897844Y-118650000D01*
X97250000Y-118650000D01*
X97250000Y-119566988D01*
X97192993Y-119534075D01*
X97065826Y-119500000D01*
X96934174Y-119500000D01*
X96807007Y-119534075D01*
X96750000Y-119566988D01*
X96750000Y-118650000D01*
X96102155Y-118650000D01*
X96042627Y-118656401D01*
X96042620Y-118656403D01*
X95907913Y-118706645D01*
X95907906Y-118706649D01*
X95792812Y-118792809D01*
X95792809Y-118792812D01*
X95706649Y-118907906D01*
X95706645Y-118907913D01*
X95656403Y-119042620D01*
X95656401Y-119042627D01*
X95650000Y-119102155D01*
X95650000Y-119750000D01*
X96566988Y-119750000D01*
X96534075Y-119807007D01*
X96500000Y-119934174D01*
X96500000Y-120065826D01*
X96534075Y-120192993D01*
X96566988Y-120250000D01*
X95650000Y-120250000D01*
X95650000Y-120897844D01*
X95656401Y-120957372D01*
X95656403Y-120957379D01*
X95706645Y-121092086D01*
X95706649Y-121092093D01*
X95792809Y-121207187D01*
X95792812Y-121207190D01*
X95907906Y-121293350D01*
X95907913Y-121293354D01*
X96042620Y-121343596D01*
X96042627Y-121343598D01*
X96102155Y-121349999D01*
X96102172Y-121350000D01*
X96750000Y-121350000D01*
X96750000Y-120433012D01*
X96807007Y-120465925D01*
X96934174Y-120500000D01*
X97065826Y-120500000D01*
X97192993Y-120465925D01*
X97250000Y-120433012D01*
X97250000Y-121350000D01*
X97897828Y-121350000D01*
X97897844Y-121349999D01*
X97957372Y-121343598D01*
X97957379Y-121343596D01*
X98092086Y-121293354D01*
X98092093Y-121293350D01*
X98207187Y-121207190D01*
X98207190Y-121207187D01*
X98276234Y-121114958D01*
X98332168Y-121073087D01*
X98401859Y-121068103D01*
X98463182Y-121101589D01*
X98496666Y-121162912D01*
X98499500Y-121189269D01*
X98499500Y-130809897D01*
X98479815Y-130876936D01*
X98427011Y-130922691D01*
X98357853Y-130932635D01*
X98294297Y-130903610D01*
X98276234Y-130884208D01*
X98207547Y-130792455D01*
X98207544Y-130792452D01*
X98092335Y-130706206D01*
X98092328Y-130706202D01*
X97957482Y-130655908D01*
X97957483Y-130655908D01*
X97897883Y-130649501D01*
X97897881Y-130649500D01*
X97897873Y-130649500D01*
X97897865Y-130649500D01*
X97115783Y-130649500D01*
X97048744Y-130629815D01*
X97028102Y-130613181D01*
X94284209Y-127869289D01*
X94284206Y-127869285D01*
X94284206Y-127869286D01*
X94277139Y-127862219D01*
X94277139Y-127862218D01*
X94137782Y-127722861D01*
X94137781Y-127722860D01*
X94137780Y-127722859D01*
X93973920Y-127613371D01*
X93973911Y-127613366D01*
X93901315Y-127583296D01*
X93845165Y-127560038D01*
X93791836Y-127537949D01*
X93791832Y-127537948D01*
X93791828Y-127537946D01*
X93695188Y-127518724D01*
X93598544Y-127499500D01*
X93598541Y-127499500D01*
X67185762Y-127499500D01*
X67118723Y-127479815D01*
X67112877Y-127475818D01*
X66991613Y-127387715D01*
X66991612Y-127387714D01*
X66991610Y-127387713D01*
X66934653Y-127358691D01*
X66809223Y-127294781D01*
X66614534Y-127231522D01*
X66439995Y-127203878D01*
X66412352Y-127199500D01*
X66207648Y-127199500D01*
X66183329Y-127203351D01*
X66005465Y-127231522D01*
X65810776Y-127294781D01*
X65628386Y-127387715D01*
X65462786Y-127508028D01*
X65318028Y-127652786D01*
X65197715Y-127818386D01*
X65104781Y-128000776D01*
X65041522Y-128195465D01*
X65009500Y-128397648D01*
X65009500Y-128602351D01*
X65041522Y-128804534D01*
X65104781Y-128999223D01*
X65197715Y-129181613D01*
X65318028Y-129347213D01*
X65462786Y-129491971D01*
X65617749Y-129604556D01*
X65628390Y-129612287D01*
X65744607Y-129671503D01*
X65810776Y-129705218D01*
X65810778Y-129705218D01*
X65810781Y-129705220D01*
X65915137Y-129739127D01*
X66005465Y-129768477D01*
X66106557Y-129784488D01*
X66207648Y-129800500D01*
X66207649Y-129800500D01*
X66412351Y-129800500D01*
X66412352Y-129800500D01*
X66614534Y-129768477D01*
X66809219Y-129705220D01*
X66991610Y-129612287D01*
X67112877Y-129524181D01*
X67178683Y-129500702D01*
X67185762Y-129500500D01*
X93034218Y-129500500D01*
X93101257Y-129520185D01*
X93121899Y-129536819D01*
X95613181Y-132028102D01*
X95646666Y-132089425D01*
X95649500Y-132115783D01*
X95649500Y-132897870D01*
X95649501Y-132897876D01*
X95655908Y-132957483D01*
X95706202Y-133092328D01*
X95706206Y-133092335D01*
X95792452Y-133207544D01*
X95792455Y-133207547D01*
X95907664Y-133293793D01*
X95907671Y-133293797D01*
X96039082Y-133342810D01*
X96095016Y-133384681D01*
X96119433Y-133450145D01*
X96104582Y-133518418D01*
X96083431Y-133546673D01*
X95969889Y-133660215D01*
X95844948Y-133832184D01*
X95844947Y-133832185D01*
X95824765Y-133871795D01*
X95776791Y-133922591D01*
X95714281Y-133939500D01*
X72539057Y-133939500D01*
X72380943Y-133939500D01*
X72228215Y-133980423D01*
X72228214Y-133980423D01*
X72228212Y-133980424D01*
X72228209Y-133980425D01*
X72178096Y-134009359D01*
X72178095Y-134009360D01*
X72134689Y-134034420D01*
X72091285Y-134059479D01*
X72091282Y-134059481D01*
X69372181Y-136778583D01*
X69310858Y-136812068D01*
X69241166Y-136807084D01*
X69185233Y-136765212D01*
X69160816Y-136699748D01*
X69160500Y-136690902D01*
X69160500Y-136618062D01*
X69160499Y-136618048D01*
X69150457Y-136541773D01*
X69128666Y-136376256D01*
X69065544Y-136140679D01*
X68972212Y-135915356D01*
X68972210Y-135915353D01*
X68972208Y-135915348D01*
X68850272Y-135704151D01*
X68850268Y-135704144D01*
X68701799Y-135510655D01*
X68701794Y-135510649D01*
X68529350Y-135338205D01*
X68529343Y-135338199D01*
X68335864Y-135189738D01*
X68335862Y-135189736D01*
X68335856Y-135189732D01*
X68335851Y-135189729D01*
X68335848Y-135189727D01*
X68124651Y-135067791D01*
X68124640Y-135067786D01*
X67899330Y-134974459D01*
X67899323Y-134974457D01*
X67899321Y-134974456D01*
X67663744Y-134911334D01*
X67623333Y-134906013D01*
X67421951Y-134879500D01*
X67421944Y-134879500D01*
X67178056Y-134879500D01*
X67178048Y-134879500D01*
X66947896Y-134909801D01*
X66936256Y-134911334D01*
X66773164Y-134955034D01*
X66700679Y-134974456D01*
X66700669Y-134974459D01*
X66475359Y-135067786D01*
X66475348Y-135067791D01*
X66264151Y-135189727D01*
X66264135Y-135189738D01*
X66070656Y-135338199D01*
X66070649Y-135338205D01*
X65898205Y-135510649D01*
X65898199Y-135510656D01*
X65749738Y-135704135D01*
X65749727Y-135704151D01*
X65627791Y-135915348D01*
X65627786Y-135915359D01*
X65534459Y-136140669D01*
X65534456Y-136140679D01*
X65472427Y-136372179D01*
X65471335Y-136376253D01*
X65471333Y-136376264D01*
X65439500Y-136618048D01*
X65439500Y-137381951D01*
X65462177Y-137554193D01*
X65471334Y-137623744D01*
X65516771Y-137793318D01*
X65534456Y-137859320D01*
X65534459Y-137859330D01*
X65627786Y-138084640D01*
X65627791Y-138084651D01*
X65749727Y-138295848D01*
X65749738Y-138295864D01*
X65898199Y-138489343D01*
X65898205Y-138489350D01*
X66070649Y-138661794D01*
X66070655Y-138661799D01*
X66264144Y-138810268D01*
X66264151Y-138810272D01*
X66475348Y-138932208D01*
X66475353Y-138932210D01*
X66475356Y-138932212D01*
X66700679Y-139025544D01*
X66828051Y-139059672D01*
X66887708Y-139096035D01*
X66918238Y-139158882D01*
X66909944Y-139228258D01*
X66883636Y-139267127D01*
X63024202Y-143126561D01*
X62962879Y-143160046D01*
X62898203Y-143156811D01*
X62873584Y-143148812D01*
X62827952Y-143133985D01*
X62719086Y-143116742D01*
X62610222Y-143099500D01*
X62389778Y-143099500D01*
X62317201Y-143110995D01*
X62172047Y-143133985D01*
X61962396Y-143202103D01*
X61962393Y-143202104D01*
X61765974Y-143302187D01*
X61587641Y-143431752D01*
X61587635Y-143431757D01*
X61566207Y-143453185D01*
X61504884Y-143486669D01*
X61435192Y-143481683D01*
X61379259Y-143439810D01*
X61362346Y-143408834D01*
X61343355Y-143357915D01*
X61343350Y-143357906D01*
X61257190Y-143242812D01*
X61257187Y-143242809D01*
X61142093Y-143156649D01*
X61142086Y-143156645D01*
X61007379Y-143106403D01*
X61007372Y-143106401D01*
X60947844Y-143100000D01*
X60250000Y-143100000D01*
X60250000Y-144066988D01*
X60192993Y-144034075D01*
X60065826Y-144000000D01*
X59934174Y-144000000D01*
X59807007Y-144034075D01*
X59750000Y-144066988D01*
X59750000Y-143100000D01*
X59052155Y-143100000D01*
X58992627Y-143106401D01*
X58992620Y-143106403D01*
X58857913Y-143156645D01*
X58857906Y-143156649D01*
X58742812Y-143242809D01*
X58742809Y-143242812D01*
X58656649Y-143357906D01*
X58656645Y-143357913D01*
X58606403Y-143492620D01*
X58606401Y-143492627D01*
X58600000Y-143552155D01*
X58600000Y-144250000D01*
X59566988Y-144250000D01*
X59534075Y-144307007D01*
X59500000Y-144434174D01*
X59500000Y-144565826D01*
X59534075Y-144692993D01*
X59566988Y-144750000D01*
X58600000Y-144750000D01*
X58600000Y-145447844D01*
X58606401Y-145507372D01*
X58606403Y-145507379D01*
X58656645Y-145642086D01*
X58656649Y-145642093D01*
X58742809Y-145757187D01*
X58742812Y-145757190D01*
X58857906Y-145843350D01*
X58857913Y-145843354D01*
X58992620Y-145893596D01*
X58992627Y-145893598D01*
X59052155Y-145899999D01*
X59052172Y-145900000D01*
X59750000Y-145900000D01*
X59750000Y-144933012D01*
X59807007Y-144965925D01*
X59934174Y-145000000D01*
X60065826Y-145000000D01*
X60192993Y-144965925D01*
X60250000Y-144933012D01*
X60250000Y-145900000D01*
X60947828Y-145900000D01*
X60947844Y-145899999D01*
X61007372Y-145893598D01*
X61007379Y-145893596D01*
X61142086Y-145843354D01*
X61142093Y-145843350D01*
X61257187Y-145757190D01*
X61257190Y-145757187D01*
X61343350Y-145642093D01*
X61343353Y-145642088D01*
X61362345Y-145591166D01*
X61404215Y-145535232D01*
X61469679Y-145510813D01*
X61537952Y-145525663D01*
X61566209Y-145546816D01*
X61587636Y-145568243D01*
X61587641Y-145568247D01*
X61743192Y-145681260D01*
X61765978Y-145697815D01*
X61882501Y-145757187D01*
X61962393Y-145797895D01*
X61962396Y-145797896D01*
X62067221Y-145831955D01*
X62172049Y-145866015D01*
X62389778Y-145900500D01*
X62389779Y-145900500D01*
X62610221Y-145900500D01*
X62610222Y-145900500D01*
X62827951Y-145866015D01*
X63037606Y-145797895D01*
X63234022Y-145697815D01*
X63412365Y-145568242D01*
X63568242Y-145412365D01*
X63649682Y-145300270D01*
X63705011Y-145257606D01*
X63774624Y-145251627D01*
X63836420Y-145284232D01*
X63850313Y-145300265D01*
X63928265Y-145407557D01*
X63931758Y-145412365D01*
X64087636Y-145568243D01*
X64087641Y-145568247D01*
X64243192Y-145681260D01*
X64265978Y-145697815D01*
X64382501Y-145757187D01*
X64462393Y-145797895D01*
X64462396Y-145797896D01*
X64567221Y-145831955D01*
X64672049Y-145866015D01*
X64889778Y-145900500D01*
X64889779Y-145900500D01*
X65110221Y-145900500D01*
X65110222Y-145900500D01*
X65327951Y-145866015D01*
X65537606Y-145797895D01*
X65734022Y-145697815D01*
X65912365Y-145568242D01*
X66068242Y-145412365D01*
X66197815Y-145234022D01*
X66297895Y-145037606D01*
X66366015Y-144827951D01*
X66400500Y-144610222D01*
X66400500Y-144389778D01*
X66366015Y-144172049D01*
X66297895Y-143962394D01*
X66297895Y-143962393D01*
X66263237Y-143894375D01*
X66197815Y-143765978D01*
X66128281Y-143670272D01*
X66068247Y-143587641D01*
X66068243Y-143587636D01*
X65912363Y-143431756D01*
X65912358Y-143431752D01*
X65734025Y-143302187D01*
X65734024Y-143302186D01*
X65734022Y-143302185D01*
X65671096Y-143270122D01*
X65537606Y-143202104D01*
X65537603Y-143202103D01*
X65327952Y-143133985D01*
X65219086Y-143116742D01*
X65110222Y-143099500D01*
X65049096Y-143099500D01*
X64982057Y-143079815D01*
X64936302Y-143027011D01*
X64926358Y-142957853D01*
X64955383Y-142894297D01*
X64961415Y-142887819D01*
X68728735Y-139120500D01*
X72672416Y-135176819D01*
X72733739Y-135143334D01*
X72760097Y-135140500D01*
X79647406Y-135140500D01*
X79714445Y-135160185D01*
X79760200Y-135212989D01*
X79770144Y-135282147D01*
X79744353Y-135341813D01*
X79657476Y-135450753D01*
X79508053Y-135688557D01*
X79386200Y-135941588D01*
X79293443Y-136206670D01*
X79293439Y-136206682D01*
X79230945Y-136480487D01*
X79230942Y-136480505D01*
X79199500Y-136759568D01*
X79199500Y-137240431D01*
X79230942Y-137519494D01*
X79230945Y-137519512D01*
X79293439Y-137793317D01*
X79293443Y-137793329D01*
X79386200Y-138058411D01*
X79508053Y-138311442D01*
X79532281Y-138350000D01*
X79657477Y-138549248D01*
X79832584Y-138768825D01*
X80031175Y-138967416D01*
X80250752Y-139142523D01*
X80488555Y-139291945D01*
X80741592Y-139413801D01*
X80940680Y-139483465D01*
X81006670Y-139506556D01*
X81006682Y-139506560D01*
X81280491Y-139569055D01*
X81280497Y-139569055D01*
X81280505Y-139569057D01*
X81466547Y-139590018D01*
X81559569Y-139600499D01*
X81559572Y-139600500D01*
X81559575Y-139600500D01*
X81840428Y-139600500D01*
X81840429Y-139600499D01*
X81983055Y-139584429D01*
X82119494Y-139569057D01*
X82119499Y-139569056D01*
X82119509Y-139569055D01*
X82393318Y-139506560D01*
X82658408Y-139413801D01*
X82911445Y-139291945D01*
X83149248Y-139142523D01*
X83368825Y-138967416D01*
X83567416Y-138768825D01*
X83742523Y-138549248D01*
X83891945Y-138311445D01*
X84013801Y-138058408D01*
X84106560Y-137793318D01*
X84169055Y-137519509D01*
X84200500Y-137240425D01*
X84200500Y-136759575D01*
X84186519Y-136635486D01*
X84169057Y-136480505D01*
X84169054Y-136480487D01*
X84144333Y-136372179D01*
X84106560Y-136206682D01*
X84104296Y-136200213D01*
X84051696Y-136049890D01*
X84013801Y-135941592D01*
X83891945Y-135688555D01*
X83742523Y-135450752D01*
X83655647Y-135341813D01*
X83629238Y-135277126D01*
X83641995Y-135208431D01*
X83689865Y-135157537D01*
X83752594Y-135140500D01*
X91247406Y-135140500D01*
X91314445Y-135160185D01*
X91360200Y-135212989D01*
X91370144Y-135282147D01*
X91344353Y-135341813D01*
X91257476Y-135450753D01*
X91108053Y-135688557D01*
X90986200Y-135941588D01*
X90893443Y-136206670D01*
X90893439Y-136206682D01*
X90830945Y-136480487D01*
X90830942Y-136480505D01*
X90799500Y-136759568D01*
X90799500Y-137240431D01*
X90830942Y-137519494D01*
X90830945Y-137519512D01*
X90893439Y-137793317D01*
X90893443Y-137793329D01*
X90986200Y-138058411D01*
X91108053Y-138311442D01*
X91132281Y-138350000D01*
X91257477Y-138549248D01*
X91432584Y-138768825D01*
X91631175Y-138967416D01*
X91850752Y-139142523D01*
X92088555Y-139291945D01*
X92341592Y-139413801D01*
X92540680Y-139483465D01*
X92606670Y-139506556D01*
X92606682Y-139506560D01*
X92880491Y-139569055D01*
X92880497Y-139569055D01*
X92880505Y-139569057D01*
X93066547Y-139590018D01*
X93159569Y-139600499D01*
X93159572Y-139600500D01*
X93159575Y-139600500D01*
X93440428Y-139600500D01*
X93440428Y-139600499D01*
X93485822Y-139595384D01*
X93493811Y-139594485D01*
X93562633Y-139606539D01*
X93614012Y-139653888D01*
X93631637Y-139721498D01*
X93609911Y-139787904D01*
X93595376Y-139805386D01*
X86774202Y-146626561D01*
X86712879Y-146660046D01*
X86648203Y-146656811D01*
X86623584Y-146648812D01*
X86577952Y-146633985D01*
X86469086Y-146616742D01*
X86360222Y-146599500D01*
X86139778Y-146599500D01*
X86067201Y-146610995D01*
X85922047Y-146633985D01*
X85712396Y-146702103D01*
X85712393Y-146702104D01*
X85515974Y-146802187D01*
X85337641Y-146931752D01*
X85337635Y-146931757D01*
X85316207Y-146953185D01*
X85254884Y-146986669D01*
X85185192Y-146981683D01*
X85129259Y-146939810D01*
X85112346Y-146908834D01*
X85093355Y-146857915D01*
X85093350Y-146857906D01*
X85007190Y-146742812D01*
X85007187Y-146742809D01*
X84892093Y-146656649D01*
X84892086Y-146656645D01*
X84757379Y-146606403D01*
X84757372Y-146606401D01*
X84697844Y-146600000D01*
X84000000Y-146600000D01*
X84000000Y-147566988D01*
X83942993Y-147534075D01*
X83815826Y-147500000D01*
X83684174Y-147500000D01*
X83557007Y-147534075D01*
X83500000Y-147566988D01*
X83500000Y-146600000D01*
X82802155Y-146600000D01*
X82742627Y-146606401D01*
X82742620Y-146606403D01*
X82607913Y-146656645D01*
X82607906Y-146656649D01*
X82492812Y-146742809D01*
X82492809Y-146742812D01*
X82406649Y-146857906D01*
X82406645Y-146857913D01*
X82356403Y-146992620D01*
X82356401Y-146992627D01*
X82350000Y-147052155D01*
X82350000Y-147750000D01*
X83316988Y-147750000D01*
X83284075Y-147807007D01*
X83250000Y-147934174D01*
X83250000Y-148065826D01*
X83284075Y-148192993D01*
X83316988Y-148250000D01*
X82350000Y-148250000D01*
X82350000Y-148947844D01*
X82356401Y-149007372D01*
X82356403Y-149007379D01*
X82406645Y-149142086D01*
X82406649Y-149142093D01*
X82492809Y-149257187D01*
X82492812Y-149257190D01*
X82607906Y-149343350D01*
X82607913Y-149343354D01*
X82742620Y-149393596D01*
X82742627Y-149393598D01*
X82802155Y-149399999D01*
X82802172Y-149400000D01*
X83500000Y-149400000D01*
X83500000Y-148433012D01*
X83557007Y-148465925D01*
X83684174Y-148500000D01*
X83815826Y-148500000D01*
X83942993Y-148465925D01*
X84000000Y-148433012D01*
X84000000Y-149400000D01*
X84697828Y-149400000D01*
X84697844Y-149399999D01*
X84757372Y-149393598D01*
X84757379Y-149393596D01*
X84892086Y-149343354D01*
X84892093Y-149343350D01*
X85007187Y-149257190D01*
X85007190Y-149257187D01*
X85093350Y-149142093D01*
X85093353Y-149142088D01*
X85112345Y-149091166D01*
X85154215Y-149035232D01*
X85219679Y-149010813D01*
X85287952Y-149025663D01*
X85316209Y-149046816D01*
X85337636Y-149068243D01*
X85337641Y-149068247D01*
X85493192Y-149181260D01*
X85515978Y-149197815D01*
X85632501Y-149257187D01*
X85712393Y-149297895D01*
X85712396Y-149297896D01*
X85817221Y-149331955D01*
X85922049Y-149366015D01*
X86139778Y-149400500D01*
X86139779Y-149400500D01*
X86360221Y-149400500D01*
X86360222Y-149400500D01*
X86577951Y-149366015D01*
X86787606Y-149297895D01*
X86984022Y-149197815D01*
X87162365Y-149068242D01*
X87318242Y-148912365D01*
X87399682Y-148800270D01*
X87455011Y-148757606D01*
X87524624Y-148751627D01*
X87586420Y-148784232D01*
X87600313Y-148800265D01*
X87681753Y-148912358D01*
X87681758Y-148912365D01*
X87837636Y-149068243D01*
X87837641Y-149068247D01*
X87993192Y-149181260D01*
X88015978Y-149197815D01*
X88132501Y-149257187D01*
X88212393Y-149297895D01*
X88212396Y-149297896D01*
X88317221Y-149331955D01*
X88422049Y-149366015D01*
X88639778Y-149400500D01*
X88639779Y-149400500D01*
X88860221Y-149400500D01*
X88860222Y-149400500D01*
X89077951Y-149366015D01*
X89287606Y-149297895D01*
X89484022Y-149197815D01*
X89662365Y-149068242D01*
X89818242Y-148912365D01*
X89899682Y-148800270D01*
X89955011Y-148757606D01*
X90024624Y-148751627D01*
X90086420Y-148784232D01*
X90100313Y-148800265D01*
X90181753Y-148912358D01*
X90181758Y-148912365D01*
X90337636Y-149068243D01*
X90337641Y-149068247D01*
X90493192Y-149181260D01*
X90515978Y-149197815D01*
X90632501Y-149257187D01*
X90712393Y-149297895D01*
X90712396Y-149297896D01*
X90817221Y-149331955D01*
X90922049Y-149366015D01*
X91139778Y-149400500D01*
X91139779Y-149400500D01*
X91360221Y-149400500D01*
X91360222Y-149400500D01*
X91577951Y-149366015D01*
X91787606Y-149297895D01*
X91984022Y-149197815D01*
X92162365Y-149068242D01*
X92318242Y-148912365D01*
X92447815Y-148734022D01*
X92547895Y-148537606D01*
X92616015Y-148327951D01*
X92650500Y-148110222D01*
X92650500Y-147889778D01*
X92616015Y-147672049D01*
X92547895Y-147462394D01*
X92547895Y-147462393D01*
X92513237Y-147394375D01*
X92447815Y-147265978D01*
X92431260Y-147243192D01*
X92318247Y-147087641D01*
X92318243Y-147087636D01*
X92162363Y-146931756D01*
X92162358Y-146931752D01*
X91984025Y-146802187D01*
X91984024Y-146802186D01*
X91984022Y-146802185D01*
X91921096Y-146770122D01*
X91787606Y-146702104D01*
X91787603Y-146702103D01*
X91577952Y-146633985D01*
X91469086Y-146616742D01*
X91360222Y-146599500D01*
X91299096Y-146599500D01*
X91232057Y-146579815D01*
X91186302Y-146527011D01*
X91176358Y-146457853D01*
X91205383Y-146394297D01*
X91211415Y-146387819D01*
X95652915Y-141946319D01*
X95714238Y-141912834D01*
X95740596Y-141910000D01*
X96566988Y-141910000D01*
X96534075Y-141967007D01*
X96500000Y-142094174D01*
X96500000Y-142225826D01*
X96534075Y-142352993D01*
X96566988Y-142410000D01*
X95672769Y-142410000D01*
X95683242Y-142476126D01*
X95683242Y-142476129D01*
X95748904Y-142678217D01*
X95845379Y-142867557D01*
X95970272Y-143039459D01*
X95970276Y-143039464D01*
X96120535Y-143189723D01*
X96120540Y-143189727D01*
X96292444Y-143314622D01*
X96302048Y-143319516D01*
X96352844Y-143367491D01*
X96369638Y-143435312D01*
X96347100Y-143501447D01*
X96302048Y-143540484D01*
X96292444Y-143545377D01*
X96120540Y-143670272D01*
X96120535Y-143670276D01*
X95970276Y-143820535D01*
X95970272Y-143820540D01*
X95845379Y-143992442D01*
X95748904Y-144181782D01*
X95683242Y-144383870D01*
X95683242Y-144383873D01*
X95672769Y-144450000D01*
X96566988Y-144450000D01*
X96534075Y-144507007D01*
X96500000Y-144634174D01*
X96500000Y-144765826D01*
X96534075Y-144892993D01*
X96566988Y-144950000D01*
X95672769Y-144950000D01*
X95683242Y-145016126D01*
X95683242Y-145016129D01*
X95748904Y-145218217D01*
X95845379Y-145407557D01*
X95970272Y-145579459D01*
X95970276Y-145579464D01*
X96120535Y-145729723D01*
X96120540Y-145729727D01*
X96292442Y-145854620D01*
X96481782Y-145951095D01*
X96683871Y-146016757D01*
X96750000Y-146027231D01*
X96750000Y-145133012D01*
X96807007Y-145165925D01*
X96934174Y-145200000D01*
X97065826Y-145200000D01*
X97192993Y-145165925D01*
X97250000Y-145133012D01*
X97250000Y-146027230D01*
X97316126Y-146016757D01*
X97316129Y-146016757D01*
X97518217Y-145951095D01*
X97707557Y-145854620D01*
X97879459Y-145729727D01*
X97879464Y-145729723D01*
X98029723Y-145579464D01*
X98029727Y-145579459D01*
X98154620Y-145407557D01*
X98251093Y-145218221D01*
X98257568Y-145198294D01*
X98297005Y-145140618D01*
X98361363Y-145113419D01*
X98430210Y-145125333D01*
X98481686Y-145172576D01*
X98499500Y-145236611D01*
X98499500Y-149875500D01*
X98479815Y-149942539D01*
X98427011Y-149988294D01*
X98375500Y-149999500D01*
X51624500Y-149999500D01*
X51557461Y-149979815D01*
X51511706Y-149927011D01*
X51500500Y-149875500D01*
X51500500Y-136618048D01*
X55839500Y-136618048D01*
X55839500Y-137381951D01*
X55862177Y-137554193D01*
X55871334Y-137623744D01*
X55916771Y-137793318D01*
X55934456Y-137859320D01*
X55934459Y-137859330D01*
X56027786Y-138084640D01*
X56027791Y-138084651D01*
X56149727Y-138295848D01*
X56149738Y-138295864D01*
X56298199Y-138489343D01*
X56298205Y-138489350D01*
X56470649Y-138661794D01*
X56470655Y-138661799D01*
X56664144Y-138810268D01*
X56664151Y-138810272D01*
X56875348Y-138932208D01*
X56875353Y-138932210D01*
X56875356Y-138932212D01*
X57100679Y-139025544D01*
X57336256Y-139088666D01*
X57566415Y-139118967D01*
X57574964Y-139120093D01*
X57578056Y-139120500D01*
X57578063Y-139120500D01*
X57821937Y-139120500D01*
X57821944Y-139120500D01*
X58063744Y-139088666D01*
X58299321Y-139025544D01*
X58524644Y-138932212D01*
X58735856Y-138810268D01*
X58929345Y-138661799D01*
X59101799Y-138489345D01*
X59250268Y-138295856D01*
X59372212Y-138084644D01*
X59465544Y-137859321D01*
X59528666Y-137623744D01*
X59560500Y-137381944D01*
X59560500Y-136618056D01*
X59528666Y-136376256D01*
X59465544Y-136140679D01*
X59372212Y-135915356D01*
X59372210Y-135915353D01*
X59372208Y-135915348D01*
X59250272Y-135704151D01*
X59250268Y-135704144D01*
X59101799Y-135510655D01*
X59101794Y-135510649D01*
X58929350Y-135338205D01*
X58929343Y-135338199D01*
X58735864Y-135189738D01*
X58735862Y-135189736D01*
X58735856Y-135189732D01*
X58735851Y-135189729D01*
X58735848Y-135189727D01*
X58524651Y-135067791D01*
X58524640Y-135067786D01*
X58299330Y-134974459D01*
X58299323Y-134974457D01*
X58299321Y-134974456D01*
X58063744Y-134911334D01*
X58023333Y-134906013D01*
X57821951Y-134879500D01*
X57821944Y-134879500D01*
X57578056Y-134879500D01*
X57578048Y-134879500D01*
X57347896Y-134909801D01*
X57336256Y-134911334D01*
X57173164Y-134955034D01*
X57100679Y-134974456D01*
X57100669Y-134974459D01*
X56875359Y-135067786D01*
X56875348Y-135067791D01*
X56664151Y-135189727D01*
X56664135Y-135189738D01*
X56470656Y-135338199D01*
X56470649Y-135338205D01*
X56298205Y-135510649D01*
X56298199Y-135510656D01*
X56149738Y-135704135D01*
X56149727Y-135704151D01*
X56027791Y-135915348D01*
X56027786Y-135915359D01*
X55934459Y-136140669D01*
X55934456Y-136140679D01*
X55872427Y-136372179D01*
X55871335Y-136376253D01*
X55871333Y-136376264D01*
X55839500Y-136618048D01*
X51500500Y-136618048D01*
X51500500Y-128397648D01*
X57389500Y-128397648D01*
X57389500Y-128602351D01*
X57421522Y-128804534D01*
X57484781Y-128999223D01*
X57577715Y-129181613D01*
X57698028Y-129347213D01*
X57842786Y-129491971D01*
X57997749Y-129604556D01*
X58008390Y-129612287D01*
X58124607Y-129671503D01*
X58190776Y-129705218D01*
X58190778Y-129705218D01*
X58190781Y-129705220D01*
X58295137Y-129739127D01*
X58385465Y-129768477D01*
X58486557Y-129784488D01*
X58587648Y-129800500D01*
X58587649Y-129800500D01*
X58792351Y-129800500D01*
X58792352Y-129800500D01*
X58994534Y-129768477D01*
X59189219Y-129705220D01*
X59371610Y-129612287D01*
X59498379Y-129520185D01*
X59537213Y-129491971D01*
X59537215Y-129491968D01*
X59537219Y-129491966D01*
X59681966Y-129347219D01*
X59681968Y-129347215D01*
X59681971Y-129347213D01*
X59734732Y-129274590D01*
X59802287Y-129181610D01*
X59895220Y-128999219D01*
X59958477Y-128804534D01*
X59990500Y-128602352D01*
X59990500Y-128397648D01*
X59958477Y-128195466D01*
X59895220Y-128000781D01*
X59895218Y-128000778D01*
X59895218Y-128000776D01*
X59828221Y-127869289D01*
X59802287Y-127818390D01*
X59732882Y-127722861D01*
X59681971Y-127652786D01*
X59537213Y-127508028D01*
X59371613Y-127387715D01*
X59371612Y-127387714D01*
X59371610Y-127387713D01*
X59314653Y-127358691D01*
X59189223Y-127294781D01*
X58994534Y-127231522D01*
X58819995Y-127203878D01*
X58792352Y-127199500D01*
X58587648Y-127199500D01*
X58563329Y-127203351D01*
X58385465Y-127231522D01*
X58190776Y-127294781D01*
X58008386Y-127387715D01*
X57842786Y-127508028D01*
X57698028Y-127652786D01*
X57577715Y-127818386D01*
X57484781Y-128000776D01*
X57421522Y-128195465D01*
X57389500Y-128397648D01*
X51500500Y-128397648D01*
X51500500Y-116236611D01*
X51520185Y-116169572D01*
X51572989Y-116123817D01*
X51642147Y-116113873D01*
X51705703Y-116142898D01*
X51742432Y-116198294D01*
X51748906Y-116218221D01*
X51845379Y-116407557D01*
X51970272Y-116579459D01*
X51970276Y-116579464D01*
X52120535Y-116729723D01*
X52120540Y-116729727D01*
X52292442Y-116854620D01*
X52481782Y-116951095D01*
X52683871Y-117016757D01*
X52750000Y-117027231D01*
X52750000Y-116133012D01*
X52807007Y-116165925D01*
X52934174Y-116200000D01*
X53065826Y-116200000D01*
X53192993Y-116165925D01*
X53250000Y-116133012D01*
X53250000Y-117027230D01*
X53316126Y-117016757D01*
X53316129Y-117016757D01*
X53518217Y-116951095D01*
X53707557Y-116854620D01*
X53879459Y-116729727D01*
X53879464Y-116729723D01*
X54029723Y-116579464D01*
X54029727Y-116579459D01*
X54154620Y-116407557D01*
X54251095Y-116218217D01*
X54305052Y-116052155D01*
X58600000Y-116052155D01*
X58600000Y-116750000D01*
X59566988Y-116750000D01*
X59534075Y-116807007D01*
X59500000Y-116934174D01*
X59500000Y-117065826D01*
X59534075Y-117192993D01*
X59566988Y-117250000D01*
X58600000Y-117250000D01*
X58600000Y-117947844D01*
X58606401Y-118007372D01*
X58606403Y-118007379D01*
X58656645Y-118142086D01*
X58656649Y-118142093D01*
X58742809Y-118257187D01*
X58742812Y-118257190D01*
X58857906Y-118343350D01*
X58857913Y-118343354D01*
X58992620Y-118393596D01*
X58992627Y-118393598D01*
X59052155Y-118399999D01*
X59052172Y-118400000D01*
X59750000Y-118400000D01*
X59750000Y-117433012D01*
X59807007Y-117465925D01*
X59934174Y-117500000D01*
X60065826Y-117500000D01*
X60192993Y-117465925D01*
X60250000Y-117433012D01*
X60250000Y-118400000D01*
X60947828Y-118400000D01*
X60947844Y-118399999D01*
X61007372Y-118393598D01*
X61007379Y-118393596D01*
X61142086Y-118343354D01*
X61142093Y-118343350D01*
X61257187Y-118257190D01*
X61257190Y-118257187D01*
X61343350Y-118142093D01*
X61343353Y-118142088D01*
X61362345Y-118091166D01*
X61404215Y-118035232D01*
X61469679Y-118010813D01*
X61537952Y-118025663D01*
X61566209Y-118046816D01*
X61587636Y-118068243D01*
X61587641Y-118068247D01*
X61743192Y-118181260D01*
X61765978Y-118197815D01*
X61882501Y-118257187D01*
X61962393Y-118297895D01*
X61962396Y-118297896D01*
X62067221Y-118331955D01*
X62172049Y-118366015D01*
X62389778Y-118400500D01*
X62389779Y-118400500D01*
X62610221Y-118400500D01*
X62610222Y-118400500D01*
X62827951Y-118366015D01*
X63037606Y-118297895D01*
X63234022Y-118197815D01*
X63412365Y-118068242D01*
X63568242Y-117912365D01*
X63649682Y-117800270D01*
X63705011Y-117757606D01*
X63774624Y-117751627D01*
X63836420Y-117784232D01*
X63850313Y-117800265D01*
X63931753Y-117912358D01*
X63931758Y-117912365D01*
X64087636Y-118068243D01*
X64087641Y-118068247D01*
X64243192Y-118181260D01*
X64265978Y-118197815D01*
X64382501Y-118257187D01*
X64462393Y-118297895D01*
X64462396Y-118297896D01*
X64567221Y-118331955D01*
X64672049Y-118366015D01*
X64889778Y-118400500D01*
X64889779Y-118400500D01*
X65110221Y-118400500D01*
X65110222Y-118400500D01*
X65327951Y-118366015D01*
X65537606Y-118297895D01*
X65734022Y-118197815D01*
X65912365Y-118068242D01*
X66068242Y-117912365D01*
X66197815Y-117734022D01*
X66297895Y-117537606D01*
X66366015Y-117327951D01*
X66400500Y-117110222D01*
X66400500Y-116889778D01*
X66366015Y-116672049D01*
X66297895Y-116462394D01*
X66297895Y-116462393D01*
X66263237Y-116394375D01*
X66197815Y-116265978D01*
X66161335Y-116215767D01*
X66068247Y-116087641D01*
X66068243Y-116087636D01*
X65912363Y-115931756D01*
X65912358Y-115931752D01*
X65734025Y-115802187D01*
X65734024Y-115802186D01*
X65734022Y-115802185D01*
X65662664Y-115765826D01*
X65537606Y-115702104D01*
X65537603Y-115702103D01*
X65327952Y-115633985D01*
X65219086Y-115616742D01*
X65110222Y-115599500D01*
X64889778Y-115599500D01*
X64817201Y-115610995D01*
X64672047Y-115633985D01*
X64462396Y-115702103D01*
X64462393Y-115702104D01*
X64265974Y-115802187D01*
X64087641Y-115931752D01*
X64087636Y-115931756D01*
X63931756Y-116087636D01*
X63931752Y-116087641D01*
X63850318Y-116199727D01*
X63794989Y-116242393D01*
X63725375Y-116248372D01*
X63663580Y-116215767D01*
X63649682Y-116199727D01*
X63568247Y-116087641D01*
X63568243Y-116087636D01*
X63412363Y-115931756D01*
X63412358Y-115931752D01*
X63234025Y-115802187D01*
X63234024Y-115802186D01*
X63234022Y-115802185D01*
X63162664Y-115765826D01*
X63037606Y-115702104D01*
X63037603Y-115702103D01*
X62827952Y-115633985D01*
X62719086Y-115616742D01*
X62610222Y-115599500D01*
X62389778Y-115599500D01*
X62317201Y-115610995D01*
X62172047Y-115633985D01*
X61962396Y-115702103D01*
X61962393Y-115702104D01*
X61765974Y-115802187D01*
X61587641Y-115931752D01*
X61587635Y-115931757D01*
X61566207Y-115953185D01*
X61504884Y-115986669D01*
X61435192Y-115981683D01*
X61379259Y-115939810D01*
X61362346Y-115908834D01*
X61343355Y-115857915D01*
X61343350Y-115857906D01*
X61257190Y-115742812D01*
X61257187Y-115742809D01*
X61142093Y-115656649D01*
X61142086Y-115656645D01*
X61007379Y-115606403D01*
X61007372Y-115606401D01*
X60947844Y-115600000D01*
X60250000Y-115600000D01*
X60250000Y-116566988D01*
X60192993Y-116534075D01*
X60065826Y-116500000D01*
X59934174Y-116500000D01*
X59807007Y-116534075D01*
X59750000Y-116566988D01*
X59750000Y-115600000D01*
X59052155Y-115600000D01*
X58992627Y-115606401D01*
X58992620Y-115606403D01*
X58857913Y-115656645D01*
X58857906Y-115656649D01*
X58742812Y-115742809D01*
X58742809Y-115742812D01*
X58656649Y-115857906D01*
X58656645Y-115857913D01*
X58606403Y-115992620D01*
X58606401Y-115992627D01*
X58600000Y-116052155D01*
X54305052Y-116052155D01*
X54316755Y-116016136D01*
X54316758Y-116016119D01*
X54327231Y-115950000D01*
X53433012Y-115950000D01*
X53465925Y-115892993D01*
X53500000Y-115765826D01*
X53500000Y-115634174D01*
X53465925Y-115507007D01*
X53433012Y-115450000D01*
X54327231Y-115450000D01*
X54316757Y-115383873D01*
X54316757Y-115383870D01*
X54251095Y-115181782D01*
X54154620Y-114992442D01*
X54029727Y-114820540D01*
X54029723Y-114820535D01*
X53879464Y-114670276D01*
X53879459Y-114670272D01*
X53707558Y-114545379D01*
X53697954Y-114540486D01*
X53647157Y-114492512D01*
X53630361Y-114424692D01*
X53652897Y-114358556D01*
X53697954Y-114319514D01*
X53707558Y-114314620D01*
X53879459Y-114189727D01*
X53879464Y-114189723D01*
X54029723Y-114039464D01*
X54029727Y-114039459D01*
X54154620Y-113867557D01*
X54251095Y-113678217D01*
X54316757Y-113476129D01*
X54316757Y-113476126D01*
X54327231Y-113410000D01*
X53433012Y-113410000D01*
X53465925Y-113352993D01*
X53500000Y-113225826D01*
X53500000Y-113094174D01*
X53465925Y-112967007D01*
X53433012Y-112910000D01*
X54327231Y-112910000D01*
X54316757Y-112843873D01*
X54316757Y-112843870D01*
X54251095Y-112641782D01*
X54154620Y-112452442D01*
X54029727Y-112280540D01*
X54029723Y-112280535D01*
X53879464Y-112130276D01*
X53879459Y-112130272D01*
X53707555Y-112005377D01*
X53698500Y-112000763D01*
X53647706Y-111952788D01*
X53630912Y-111884966D01*
X53653451Y-111818832D01*
X53698508Y-111779793D01*
X53707816Y-111775051D01*
X53787007Y-111717515D01*
X53879786Y-111650109D01*
X53879788Y-111650106D01*
X53879792Y-111650104D01*
X54030104Y-111499792D01*
X54030106Y-111499788D01*
X54030109Y-111499786D01*
X54155048Y-111327820D01*
X54155047Y-111327820D01*
X54155051Y-111327816D01*
X54251557Y-111138412D01*
X54317246Y-110936243D01*
X54350500Y-110726287D01*
X54350500Y-110513713D01*
X54317246Y-110303757D01*
X54251557Y-110101588D01*
X54155051Y-109912184D01*
X54155049Y-109912181D01*
X54155048Y-109912179D01*
X54030109Y-109740213D01*
X53879786Y-109589890D01*
X53707820Y-109464951D01*
X53707115Y-109464591D01*
X53699054Y-109460485D01*
X53648259Y-109412512D01*
X53631463Y-109344692D01*
X53653999Y-109278556D01*
X53699054Y-109239515D01*
X53707816Y-109235051D01*
X53868839Y-109118062D01*
X53879786Y-109110109D01*
X53879788Y-109110106D01*
X53879792Y-109110104D01*
X54030104Y-108959792D01*
X54030106Y-108959788D01*
X54030109Y-108959786D01*
X54155048Y-108787820D01*
X54155047Y-108787820D01*
X54155051Y-108787816D01*
X54251557Y-108598412D01*
X54317246Y-108396243D01*
X54350500Y-108186287D01*
X54350500Y-107973713D01*
X54350500Y-107973712D01*
X54350118Y-107968862D01*
X54351191Y-107968777D01*
X54359482Y-107904608D01*
X54404476Y-107851155D01*
X54471227Y-107830513D01*
X54473002Y-107830500D01*
X56184991Y-107830500D01*
X56252030Y-107850185D01*
X56297785Y-107902989D01*
X56307729Y-107972147D01*
X56283367Y-108029986D01*
X56149738Y-108204135D01*
X56149727Y-108204151D01*
X56027791Y-108415348D01*
X56027786Y-108415359D01*
X55934459Y-108640669D01*
X55934456Y-108640679D01*
X55871335Y-108876253D01*
X55871333Y-108876264D01*
X55839500Y-109118048D01*
X55839500Y-109881951D01*
X55851058Y-109969735D01*
X55871334Y-110123744D01*
X55916771Y-110293318D01*
X55934456Y-110359320D01*
X55934459Y-110359330D01*
X56027786Y-110584640D01*
X56027791Y-110584651D01*
X56149727Y-110795848D01*
X56149738Y-110795864D01*
X56298199Y-110989343D01*
X56298205Y-110989350D01*
X56470649Y-111161794D01*
X56470655Y-111161799D01*
X56664144Y-111310268D01*
X56664151Y-111310272D01*
X56875348Y-111432208D01*
X56875353Y-111432210D01*
X56875356Y-111432212D01*
X57100679Y-111525544D01*
X57336256Y-111588666D01*
X57578056Y-111620500D01*
X57578063Y-111620500D01*
X57821937Y-111620500D01*
X57821944Y-111620500D01*
X58063744Y-111588666D01*
X58299321Y-111525544D01*
X58524644Y-111432212D01*
X58735856Y-111310268D01*
X58929345Y-111161799D01*
X59101799Y-110989345D01*
X59250268Y-110795856D01*
X59372212Y-110584644D01*
X59465544Y-110359321D01*
X59528666Y-110123744D01*
X59560500Y-109881944D01*
X59560500Y-109118056D01*
X59528666Y-108876256D01*
X59465544Y-108640679D01*
X59372212Y-108415356D01*
X59372210Y-108415353D01*
X59372208Y-108415348D01*
X59250272Y-108204151D01*
X59250268Y-108204144D01*
X59236565Y-108186286D01*
X59116633Y-108029986D01*
X59091439Y-107964817D01*
X59105478Y-107896372D01*
X59154292Y-107846382D01*
X59215009Y-107830500D01*
X65784991Y-107830500D01*
X65852030Y-107850185D01*
X65897785Y-107902989D01*
X65907729Y-107972147D01*
X65883367Y-108029986D01*
X65749738Y-108204135D01*
X65749727Y-108204151D01*
X65627791Y-108415348D01*
X65627786Y-108415359D01*
X65534459Y-108640669D01*
X65534456Y-108640679D01*
X65471335Y-108876253D01*
X65471333Y-108876264D01*
X65439500Y-109118048D01*
X65439500Y-109881951D01*
X65451058Y-109969735D01*
X65471334Y-110123744D01*
X65516771Y-110293318D01*
X65534456Y-110359320D01*
X65534459Y-110359330D01*
X65627786Y-110584640D01*
X65627791Y-110584651D01*
X65749727Y-110795848D01*
X65749738Y-110795864D01*
X65898199Y-110989343D01*
X65898205Y-110989350D01*
X66070649Y-111161794D01*
X66070655Y-111161799D01*
X66264144Y-111310268D01*
X66264151Y-111310272D01*
X66475348Y-111432208D01*
X66475353Y-111432210D01*
X66475356Y-111432212D01*
X66700679Y-111525544D01*
X66936256Y-111588666D01*
X67178056Y-111620500D01*
X67178063Y-111620500D01*
X67421937Y-111620500D01*
X67421944Y-111620500D01*
X67663744Y-111588666D01*
X67899321Y-111525544D01*
X68124644Y-111432212D01*
X68335856Y-111310268D01*
X68529345Y-111161799D01*
X68701799Y-110989345D01*
X68850268Y-110795856D01*
X68972212Y-110584644D01*
X69065544Y-110359321D01*
X69128666Y-110123744D01*
X69160500Y-109881944D01*
X69160500Y-109118056D01*
X69128666Y-108876256D01*
X69065544Y-108640679D01*
X68972212Y-108415356D01*
X68972210Y-108415353D01*
X68972208Y-108415348D01*
X68850272Y-108204151D01*
X68850268Y-108204144D01*
X68836565Y-108186286D01*
X68716633Y-108029986D01*
X68691439Y-107964817D01*
X68705478Y-107896372D01*
X68754292Y-107846382D01*
X68815009Y-107830500D01*
X72679903Y-107830500D01*
X72746942Y-107850185D01*
X72767584Y-107866819D01*
X83963681Y-119062916D01*
X83997166Y-119124239D01*
X84000000Y-119150597D01*
X84000000Y-120066988D01*
X83942993Y-120034075D01*
X83815826Y-120000000D01*
X83684174Y-120000000D01*
X83557007Y-120034075D01*
X83500000Y-120066988D01*
X83500000Y-119100000D01*
X82802155Y-119100000D01*
X82742627Y-119106401D01*
X82742620Y-119106403D01*
X82607913Y-119156645D01*
X82607906Y-119156649D01*
X82492812Y-119242809D01*
X82492809Y-119242812D01*
X82406649Y-119357906D01*
X82406645Y-119357913D01*
X82356403Y-119492620D01*
X82356401Y-119492627D01*
X82350000Y-119552155D01*
X82350000Y-120250000D01*
X83316988Y-120250000D01*
X83284075Y-120307007D01*
X83250000Y-120434174D01*
X83250000Y-120565826D01*
X83284075Y-120692993D01*
X83316988Y-120750000D01*
X82350000Y-120750000D01*
X82350000Y-121447844D01*
X82356401Y-121507372D01*
X82356403Y-121507379D01*
X82406645Y-121642086D01*
X82406649Y-121642093D01*
X82492809Y-121757187D01*
X82492812Y-121757190D01*
X82607906Y-121843350D01*
X82607913Y-121843354D01*
X82742620Y-121893596D01*
X82742627Y-121893598D01*
X82802155Y-121899999D01*
X82802172Y-121900000D01*
X83500000Y-121900000D01*
X83500000Y-120933012D01*
X83557007Y-120965925D01*
X83684174Y-121000000D01*
X83815826Y-121000000D01*
X83942993Y-120965925D01*
X84000000Y-120933012D01*
X84000000Y-121900000D01*
X84697828Y-121900000D01*
X84697844Y-121899999D01*
X84757372Y-121893598D01*
X84757379Y-121893596D01*
X84892086Y-121843354D01*
X84892093Y-121843350D01*
X85007187Y-121757190D01*
X85007190Y-121757187D01*
X85093350Y-121642093D01*
X85093353Y-121642088D01*
X85112345Y-121591166D01*
X85154215Y-121535232D01*
X85219679Y-121510813D01*
X85287952Y-121525663D01*
X85316209Y-121546816D01*
X85337636Y-121568243D01*
X85337641Y-121568247D01*
X85493192Y-121681260D01*
X85515978Y-121697815D01*
X85632501Y-121757187D01*
X85712393Y-121797895D01*
X85712396Y-121797896D01*
X85817221Y-121831955D01*
X85922049Y-121866015D01*
X86139778Y-121900500D01*
X86139779Y-121900500D01*
X86360221Y-121900500D01*
X86360222Y-121900500D01*
X86577951Y-121866015D01*
X86787606Y-121797895D01*
X86984022Y-121697815D01*
X87162365Y-121568242D01*
X87318242Y-121412365D01*
X87399682Y-121300270D01*
X87455011Y-121257606D01*
X87524624Y-121251627D01*
X87586420Y-121284232D01*
X87600313Y-121300265D01*
X87681753Y-121412358D01*
X87681758Y-121412365D01*
X87837636Y-121568243D01*
X87837641Y-121568247D01*
X87993192Y-121681260D01*
X88015978Y-121697815D01*
X88132501Y-121757187D01*
X88212393Y-121797895D01*
X88212396Y-121797896D01*
X88317221Y-121831955D01*
X88422049Y-121866015D01*
X88639778Y-121900500D01*
X88639779Y-121900500D01*
X88860221Y-121900500D01*
X88860222Y-121900500D01*
X89077951Y-121866015D01*
X89287606Y-121797895D01*
X89484022Y-121697815D01*
X89662365Y-121568242D01*
X89818242Y-121412365D01*
X89899682Y-121300270D01*
X89955011Y-121257606D01*
X90024624Y-121251627D01*
X90086420Y-121284232D01*
X90100313Y-121300265D01*
X90181753Y-121412358D01*
X90181758Y-121412365D01*
X90337636Y-121568243D01*
X90337641Y-121568247D01*
X90493192Y-121681260D01*
X90515978Y-121697815D01*
X90632501Y-121757187D01*
X90712393Y-121797895D01*
X90712396Y-121797896D01*
X90817221Y-121831955D01*
X90922049Y-121866015D01*
X91139778Y-121900500D01*
X91139779Y-121900500D01*
X91360221Y-121900500D01*
X91360222Y-121900500D01*
X91577951Y-121866015D01*
X91787606Y-121797895D01*
X91984022Y-121697815D01*
X92162365Y-121568242D01*
X92318242Y-121412365D01*
X92447815Y-121234022D01*
X92547895Y-121037606D01*
X92616015Y-120827951D01*
X92650500Y-120610222D01*
X92650500Y-120389778D01*
X92637390Y-120307007D01*
X92623299Y-120218036D01*
X92619332Y-120192993D01*
X92616015Y-120172049D01*
X92547895Y-119962394D01*
X92547895Y-119962393D01*
X92513237Y-119894375D01*
X92447815Y-119765978D01*
X92327154Y-119599901D01*
X92318247Y-119587641D01*
X92318243Y-119587636D01*
X92162363Y-119431756D01*
X92162358Y-119431752D01*
X91984021Y-119302184D01*
X91984020Y-119302183D01*
X91801801Y-119209336D01*
X91801798Y-119209336D01*
X91787606Y-119202105D01*
X91787603Y-119202103D01*
X91577952Y-119133985D01*
X91469086Y-119116742D01*
X91360222Y-119099500D01*
X91139778Y-119099500D01*
X91067201Y-119110995D01*
X90922047Y-119133985D01*
X90712396Y-119202103D01*
X90712393Y-119202104D01*
X90515974Y-119302187D01*
X90337641Y-119431752D01*
X90337636Y-119431756D01*
X90181756Y-119587636D01*
X90181752Y-119587641D01*
X90100318Y-119699727D01*
X90044989Y-119742393D01*
X89975375Y-119748372D01*
X89913580Y-119715767D01*
X89899682Y-119699727D01*
X89818247Y-119587641D01*
X89818243Y-119587636D01*
X89662363Y-119431756D01*
X89662358Y-119431752D01*
X89484025Y-119302187D01*
X89484024Y-119302186D01*
X89484022Y-119302185D01*
X89421096Y-119270122D01*
X89287606Y-119202104D01*
X89287603Y-119202103D01*
X89077952Y-119133985D01*
X88969086Y-119116742D01*
X88860222Y-119099500D01*
X88639778Y-119099500D01*
X88567201Y-119110995D01*
X88422047Y-119133985D01*
X88351796Y-119156811D01*
X88281955Y-119158806D01*
X88225797Y-119126561D01*
X84842045Y-115742809D01*
X81404619Y-112305384D01*
X81371135Y-112244062D01*
X81376119Y-112174370D01*
X81417991Y-112118437D01*
X81483455Y-112094020D01*
X81506180Y-112094483D01*
X81543966Y-112098741D01*
X81559573Y-112100500D01*
X81559575Y-112100500D01*
X81840428Y-112100500D01*
X81840429Y-112100499D01*
X81983055Y-112084429D01*
X82119494Y-112069057D01*
X82119499Y-112069056D01*
X82119509Y-112069055D01*
X82393318Y-112006560D01*
X82658408Y-111913801D01*
X82911445Y-111791945D01*
X83149248Y-111642523D01*
X83368825Y-111467416D01*
X83567416Y-111268825D01*
X83742523Y-111049248D01*
X83891945Y-110811445D01*
X84013801Y-110558408D01*
X84106560Y-110293318D01*
X84169055Y-110019509D01*
X84178956Y-109931640D01*
X84200499Y-109740431D01*
X84200500Y-109740427D01*
X84200500Y-109259572D01*
X84200499Y-109259568D01*
X90799500Y-109259568D01*
X90799500Y-109740431D01*
X90830942Y-110019494D01*
X90830945Y-110019512D01*
X90893439Y-110293317D01*
X90893443Y-110293329D01*
X90986200Y-110558411D01*
X91108053Y-110811442D01*
X91108055Y-110811445D01*
X91257477Y-111049248D01*
X91432584Y-111268825D01*
X91631175Y-111467416D01*
X91850752Y-111642523D01*
X92088555Y-111791945D01*
X92088557Y-111791946D01*
X92162938Y-111827766D01*
X92341592Y-111913801D01*
X92540680Y-111983465D01*
X92606670Y-112006556D01*
X92606682Y-112006560D01*
X92880491Y-112069055D01*
X92880497Y-112069055D01*
X92880505Y-112069057D01*
X93066547Y-112090018D01*
X93159569Y-112100499D01*
X93159572Y-112100500D01*
X93159575Y-112100500D01*
X93440428Y-112100500D01*
X93440429Y-112100499D01*
X93583055Y-112084429D01*
X93719494Y-112069057D01*
X93719499Y-112069056D01*
X93719509Y-112069055D01*
X93993318Y-112006560D01*
X94258408Y-111913801D01*
X94511445Y-111791945D01*
X94749248Y-111642523D01*
X94968825Y-111467416D01*
X95167416Y-111268825D01*
X95342523Y-111049248D01*
X95491945Y-110811445D01*
X95613801Y-110558408D01*
X95706560Y-110293318D01*
X95769055Y-110019509D01*
X95778956Y-109931640D01*
X95800499Y-109740431D01*
X95800500Y-109740427D01*
X95800500Y-109259572D01*
X95800499Y-109259568D01*
X95769057Y-108980505D01*
X95769054Y-108980487D01*
X95706560Y-108706682D01*
X95706556Y-108706670D01*
X95668675Y-108598412D01*
X95613801Y-108441592D01*
X95491945Y-108188555D01*
X95342523Y-107950752D01*
X95167416Y-107731175D01*
X94968825Y-107532584D01*
X94749248Y-107357477D01*
X94511445Y-107208055D01*
X94511442Y-107208053D01*
X94258411Y-107086200D01*
X93993329Y-106993443D01*
X93993317Y-106993439D01*
X93719512Y-106930945D01*
X93719494Y-106930942D01*
X93440431Y-106899500D01*
X93440425Y-106899500D01*
X93159575Y-106899500D01*
X93159568Y-106899500D01*
X92880505Y-106930942D01*
X92880487Y-106930945D01*
X92606682Y-106993439D01*
X92606670Y-106993443D01*
X92341588Y-107086200D01*
X92088557Y-107208053D01*
X91850753Y-107357476D01*
X91631175Y-107532583D01*
X91432583Y-107731175D01*
X91257476Y-107950753D01*
X91108053Y-108188557D01*
X90986200Y-108441588D01*
X90893443Y-108706670D01*
X90893439Y-108706682D01*
X90830945Y-108980487D01*
X90830942Y-108980505D01*
X90799500Y-109259568D01*
X84200499Y-109259568D01*
X84169057Y-108980505D01*
X84169054Y-108980487D01*
X84106560Y-108706682D01*
X84106556Y-108706670D01*
X84068675Y-108598412D01*
X84013801Y-108441592D01*
X83891945Y-108188555D01*
X83742523Y-107950752D01*
X83567416Y-107731175D01*
X83368825Y-107532584D01*
X83149248Y-107357477D01*
X82911445Y-107208055D01*
X82911442Y-107208053D01*
X82658411Y-107086200D01*
X82393329Y-106993443D01*
X82393317Y-106993439D01*
X82119512Y-106930945D01*
X82119494Y-106930942D01*
X81840431Y-106899500D01*
X81840425Y-106899500D01*
X81559575Y-106899500D01*
X81559568Y-106899500D01*
X81280505Y-106930942D01*
X81280487Y-106930945D01*
X81006682Y-106993439D01*
X81006670Y-106993443D01*
X80741588Y-107086200D01*
X80488557Y-107208053D01*
X80250753Y-107357476D01*
X80031175Y-107532583D01*
X79832583Y-107731175D01*
X79657476Y-107950753D01*
X79508053Y-108188557D01*
X79386200Y-108441588D01*
X79293443Y-108706670D01*
X79293439Y-108706682D01*
X79230945Y-108980487D01*
X79230942Y-108980505D01*
X79199500Y-109259568D01*
X79199500Y-109740431D01*
X79205515Y-109793815D01*
X79193460Y-109862637D01*
X79146111Y-109914016D01*
X79078501Y-109931640D01*
X79012095Y-109909913D01*
X78994614Y-109895379D01*
X75566590Y-106467355D01*
X75566588Y-106467352D01*
X75447717Y-106348481D01*
X75447716Y-106348480D01*
X75360904Y-106298360D01*
X75360904Y-106298359D01*
X75360900Y-106298358D01*
X75310785Y-106269423D01*
X75158057Y-106228499D01*
X74999943Y-106228499D01*
X74992347Y-106228499D01*
X74992331Y-106228500D01*
X54366683Y-106228500D01*
X54299644Y-106208815D01*
X54253889Y-106156011D01*
X54243945Y-106086853D01*
X54250441Y-106063172D01*
X54250051Y-106063046D01*
X54275568Y-105984513D01*
X54317246Y-105856243D01*
X54350500Y-105646287D01*
X54350500Y-105433713D01*
X54317246Y-105223757D01*
X54251557Y-105021588D01*
X54155051Y-104832184D01*
X54155049Y-104832181D01*
X54155048Y-104832179D01*
X54030109Y-104660213D01*
X53916569Y-104546673D01*
X53883084Y-104485350D01*
X53888068Y-104415658D01*
X53929940Y-104359725D01*
X53960915Y-104342810D01*
X54092331Y-104293796D01*
X54207546Y-104207546D01*
X54293796Y-104092331D01*
X54344091Y-103957483D01*
X54350500Y-103897873D01*
X54350499Y-103115780D01*
X54370183Y-103048742D01*
X54386813Y-103028105D01*
X57378102Y-100036819D01*
X57405029Y-100022115D01*
X57430848Y-100005523D01*
X57437048Y-100004631D01*
X57439425Y-100003334D01*
X57465783Y-100000500D01*
X57565309Y-100000500D01*
X57632348Y-100020185D01*
X57678103Y-100072989D01*
X57688047Y-100142147D01*
X57665627Y-100197385D01*
X57577715Y-100318386D01*
X57484781Y-100500776D01*
X57421522Y-100695465D01*
X57389500Y-100897648D01*
X57389500Y-101102351D01*
X57421522Y-101304534D01*
X57484781Y-101499223D01*
X57577715Y-101681613D01*
X57698028Y-101847213D01*
X57842786Y-101991971D01*
X57994406Y-102102127D01*
X58008390Y-102112287D01*
X58124607Y-102171503D01*
X58190776Y-102205218D01*
X58190778Y-102205218D01*
X58190781Y-102205220D01*
X58295137Y-102239127D01*
X58385465Y-102268477D01*
X58486557Y-102284488D01*
X58587648Y-102300500D01*
X58587649Y-102300500D01*
X58792351Y-102300500D01*
X58792352Y-102300500D01*
X58994534Y-102268477D01*
X59189219Y-102205220D01*
X59371610Y-102112287D01*
X59467641Y-102042517D01*
X59537213Y-101991971D01*
X59537215Y-101991968D01*
X59537219Y-101991966D01*
X59681966Y-101847219D01*
X59681968Y-101847215D01*
X59681971Y-101847213D01*
X59784417Y-101706206D01*
X59802287Y-101681610D01*
X59895220Y-101499219D01*
X59958477Y-101304534D01*
X59990500Y-101102352D01*
X59990500Y-100897648D01*
X59958477Y-100695466D01*
X59895220Y-100500781D01*
X59895218Y-100500778D01*
X59895218Y-100500776D01*
X59861503Y-100434607D01*
X59802287Y-100318390D01*
X59789692Y-100301055D01*
X59714373Y-100197385D01*
X59690893Y-100131579D01*
X59706719Y-100063525D01*
X59756825Y-100014830D01*
X59814691Y-100000500D01*
X63784218Y-100000500D01*
X63851257Y-100020185D01*
X63871899Y-100036819D01*
X64994572Y-101159492D01*
X65028057Y-101220815D01*
X65029364Y-101227773D01*
X65041522Y-101304531D01*
X65041523Y-101304534D01*
X65104780Y-101499219D01*
X65184617Y-101655908D01*
X65197715Y-101681613D01*
X65318028Y-101847213D01*
X65462786Y-101991971D01*
X65614406Y-102102127D01*
X65628390Y-102112287D01*
X65744607Y-102171503D01*
X65810776Y-102205218D01*
X65810778Y-102205218D01*
X65810781Y-102205220D01*
X65915137Y-102239127D01*
X66005465Y-102268477D01*
X66106557Y-102284488D01*
X66207648Y-102300500D01*
X66207649Y-102300500D01*
X66412351Y-102300500D01*
X66412352Y-102300500D01*
X66614534Y-102268477D01*
X66809219Y-102205220D01*
X66991610Y-102112287D01*
X67087641Y-102042517D01*
X67157213Y-101991971D01*
X67157215Y-101991968D01*
X67157219Y-101991966D01*
X67301966Y-101847219D01*
X67301968Y-101847215D01*
X67301971Y-101847213D01*
X67404417Y-101706206D01*
X67422287Y-101681610D01*
X67515220Y-101499219D01*
X67578477Y-101304534D01*
X67610500Y-101102352D01*
X67610500Y-100897648D01*
X67578477Y-100695466D01*
X67515220Y-100500781D01*
X67515218Y-100500778D01*
X67515218Y-100500776D01*
X67481503Y-100434607D01*
X67422287Y-100318390D01*
X67414556Y-100307749D01*
X67301971Y-100152786D01*
X67157213Y-100008028D01*
X66991613Y-99887715D01*
X66991612Y-99887714D01*
X66991610Y-99887713D01*
X66934653Y-99858691D01*
X66809223Y-99794781D01*
X66614534Y-99731522D01*
X66412349Y-99699499D01*
X66407489Y-99699117D01*
X66407646Y-99697111D01*
X66348743Y-99679815D01*
X66328101Y-99663181D01*
X65031479Y-98366559D01*
X65031459Y-98366537D01*
X64887785Y-98222863D01*
X64887781Y-98222860D01*
X64723920Y-98113371D01*
X64723911Y-98113366D01*
X64651315Y-98083296D01*
X64595165Y-98060038D01*
X64541836Y-98037949D01*
X64541832Y-98037948D01*
X64541828Y-98037946D01*
X64445188Y-98018724D01*
X64348544Y-97999500D01*
X64348541Y-97999500D01*
X56901459Y-97999500D01*
X56901455Y-97999500D01*
X56804812Y-98018724D01*
X56708167Y-98037947D01*
X56708161Y-98037949D01*
X56654834Y-98060037D01*
X56654834Y-98060038D01*
X56609315Y-98078892D01*
X56526089Y-98113366D01*
X56526079Y-98113371D01*
X56362218Y-98222860D01*
X56362214Y-98222863D01*
X52971897Y-101613181D01*
X52910574Y-101646666D01*
X52884216Y-101649500D01*
X52102129Y-101649500D01*
X52102123Y-101649501D01*
X52042516Y-101655908D01*
X51907671Y-101706202D01*
X51907664Y-101706206D01*
X51792455Y-101792452D01*
X51792452Y-101792455D01*
X51723766Y-101884208D01*
X51667832Y-101926079D01*
X51598141Y-101931063D01*
X51536818Y-101897577D01*
X51503334Y-101836254D01*
X51500500Y-101809897D01*
X51500500Y-81618048D01*
X55839500Y-81618048D01*
X55839500Y-82381951D01*
X55862177Y-82554193D01*
X55871334Y-82623744D01*
X55916771Y-82793318D01*
X55934456Y-82859320D01*
X55934459Y-82859330D01*
X56027786Y-83084640D01*
X56027791Y-83084651D01*
X56149727Y-83295848D01*
X56149738Y-83295864D01*
X56298199Y-83489343D01*
X56298205Y-83489350D01*
X56470649Y-83661794D01*
X56470655Y-83661799D01*
X56664144Y-83810268D01*
X56664151Y-83810272D01*
X56875348Y-83932208D01*
X56875353Y-83932210D01*
X56875356Y-83932212D01*
X57100679Y-84025544D01*
X57336256Y-84088666D01*
X57566415Y-84118967D01*
X57574964Y-84120093D01*
X57578056Y-84120500D01*
X57578063Y-84120500D01*
X57821937Y-84120500D01*
X57821944Y-84120500D01*
X58063744Y-84088666D01*
X58299321Y-84025544D01*
X58524644Y-83932212D01*
X58735856Y-83810268D01*
X58929345Y-83661799D01*
X59101799Y-83489345D01*
X59250268Y-83295856D01*
X59372212Y-83084644D01*
X59465544Y-82859321D01*
X59528666Y-82623744D01*
X59560500Y-82381944D01*
X59560500Y-81618056D01*
X59528666Y-81376256D01*
X59465544Y-81140679D01*
X59372212Y-80915356D01*
X59372210Y-80915353D01*
X59372208Y-80915348D01*
X59250272Y-80704151D01*
X59250268Y-80704144D01*
X59101799Y-80510655D01*
X59101794Y-80510649D01*
X58929350Y-80338205D01*
X58929343Y-80338199D01*
X58735864Y-80189738D01*
X58735862Y-80189736D01*
X58735856Y-80189732D01*
X58735851Y-80189729D01*
X58735848Y-80189727D01*
X58524651Y-80067791D01*
X58524640Y-80067786D01*
X58299330Y-79974459D01*
X58299323Y-79974457D01*
X58299321Y-79974456D01*
X58063744Y-79911334D01*
X58023333Y-79906013D01*
X57821951Y-79879500D01*
X57821944Y-79879500D01*
X57578056Y-79879500D01*
X57578048Y-79879500D01*
X57347896Y-79909801D01*
X57336256Y-79911334D01*
X57173164Y-79955034D01*
X57100679Y-79974456D01*
X57100669Y-79974459D01*
X56875359Y-80067786D01*
X56875348Y-80067791D01*
X56664151Y-80189727D01*
X56664135Y-80189738D01*
X56470656Y-80338199D01*
X56470649Y-80338205D01*
X56298205Y-80510649D01*
X56298199Y-80510656D01*
X56149738Y-80704135D01*
X56149727Y-80704151D01*
X56027791Y-80915348D01*
X56027786Y-80915359D01*
X55934459Y-81140669D01*
X55934456Y-81140679D01*
X55872427Y-81372179D01*
X55871335Y-81376253D01*
X55871333Y-81376264D01*
X55839500Y-81618048D01*
X51500500Y-81618048D01*
X51500500Y-73447648D01*
X57389500Y-73447648D01*
X57389500Y-73652351D01*
X57421522Y-73854534D01*
X57484781Y-74049223D01*
X57577715Y-74231613D01*
X57698028Y-74397213D01*
X57842786Y-74541971D01*
X57997749Y-74654556D01*
X58008390Y-74662287D01*
X58124607Y-74721503D01*
X58190776Y-74755218D01*
X58190778Y-74755218D01*
X58190781Y-74755220D01*
X58295137Y-74789127D01*
X58385465Y-74818477D01*
X58486557Y-74834488D01*
X58587648Y-74850500D01*
X58587649Y-74850500D01*
X58792351Y-74850500D01*
X58792352Y-74850500D01*
X58994534Y-74818477D01*
X59189219Y-74755220D01*
X59371610Y-74662287D01*
X59498379Y-74570185D01*
X59537213Y-74541971D01*
X59537215Y-74541968D01*
X59537219Y-74541966D01*
X59681966Y-74397219D01*
X59681968Y-74397215D01*
X59681971Y-74397213D01*
X59734732Y-74324590D01*
X59802287Y-74231610D01*
X59895220Y-74049219D01*
X59958477Y-73854534D01*
X59990500Y-73652352D01*
X59990500Y-73447648D01*
X59958477Y-73245466D01*
X59895220Y-73050781D01*
X59895218Y-73050778D01*
X59895218Y-73050776D01*
X59826819Y-72916537D01*
X59802287Y-72868390D01*
X59794556Y-72857749D01*
X59681971Y-72702786D01*
X59537213Y-72558028D01*
X59371613Y-72437715D01*
X59371612Y-72437714D01*
X59371610Y-72437713D01*
X59314653Y-72408691D01*
X59189223Y-72344781D01*
X58994534Y-72281522D01*
X58819995Y-72253878D01*
X58792352Y-72249500D01*
X58587648Y-72249500D01*
X58563329Y-72253351D01*
X58385465Y-72281522D01*
X58190776Y-72344781D01*
X58008386Y-72437715D01*
X57842786Y-72558028D01*
X57698028Y-72702786D01*
X57577715Y-72868386D01*
X57484781Y-73050776D01*
X57421522Y-73245465D01*
X57389500Y-73447648D01*
X51500500Y-73447648D01*
X51500500Y-61236611D01*
X51520185Y-61169572D01*
X51572989Y-61123817D01*
X51642147Y-61113873D01*
X51705703Y-61142898D01*
X51742432Y-61198294D01*
X51748906Y-61218221D01*
X51845379Y-61407557D01*
X51970272Y-61579459D01*
X51970276Y-61579464D01*
X52120535Y-61729723D01*
X52120540Y-61729727D01*
X52292442Y-61854620D01*
X52481782Y-61951095D01*
X52683871Y-62016757D01*
X52750000Y-62027231D01*
X52750000Y-61133012D01*
X52807007Y-61165925D01*
X52934174Y-61200000D01*
X53065826Y-61200000D01*
X53192993Y-61165925D01*
X53250000Y-61133012D01*
X53250000Y-62027230D01*
X53316126Y-62016757D01*
X53316129Y-62016757D01*
X53518217Y-61951095D01*
X53707557Y-61854620D01*
X53879459Y-61729727D01*
X53879464Y-61729723D01*
X54029723Y-61579464D01*
X54029727Y-61579459D01*
X54154620Y-61407557D01*
X54251095Y-61218217D01*
X54305052Y-61052155D01*
X58600000Y-61052155D01*
X58600000Y-61750000D01*
X59566988Y-61750000D01*
X59534075Y-61807007D01*
X59500000Y-61934174D01*
X59500000Y-62065826D01*
X59534075Y-62192993D01*
X59566988Y-62250000D01*
X58600000Y-62250000D01*
X58600000Y-62947844D01*
X58606401Y-63007372D01*
X58606403Y-63007379D01*
X58656645Y-63142086D01*
X58656649Y-63142093D01*
X58742809Y-63257187D01*
X58742812Y-63257190D01*
X58857906Y-63343350D01*
X58857913Y-63343354D01*
X58992620Y-63393596D01*
X58992627Y-63393598D01*
X59052155Y-63399999D01*
X59052172Y-63400000D01*
X59750000Y-63400000D01*
X59750000Y-62433012D01*
X59807007Y-62465925D01*
X59934174Y-62500000D01*
X60065826Y-62500000D01*
X60192993Y-62465925D01*
X60250000Y-62433012D01*
X60250000Y-63400000D01*
X60947828Y-63400000D01*
X60947844Y-63399999D01*
X61007372Y-63393598D01*
X61007379Y-63393596D01*
X61142086Y-63343354D01*
X61142093Y-63343350D01*
X61257187Y-63257190D01*
X61257190Y-63257187D01*
X61343350Y-63142093D01*
X61343353Y-63142088D01*
X61362345Y-63091166D01*
X61404215Y-63035232D01*
X61469679Y-63010813D01*
X61537952Y-63025663D01*
X61566209Y-63046816D01*
X61587636Y-63068243D01*
X61587641Y-63068247D01*
X61743192Y-63181260D01*
X61765978Y-63197815D01*
X61882501Y-63257187D01*
X61962393Y-63297895D01*
X61962396Y-63297896D01*
X62067221Y-63331955D01*
X62172049Y-63366015D01*
X62389778Y-63400500D01*
X62389779Y-63400500D01*
X62610221Y-63400500D01*
X62610222Y-63400500D01*
X62827951Y-63366015D01*
X63037606Y-63297895D01*
X63234022Y-63197815D01*
X63412365Y-63068242D01*
X63568242Y-62912365D01*
X63649682Y-62800270D01*
X63705011Y-62757606D01*
X63774624Y-62751627D01*
X63836420Y-62784232D01*
X63850313Y-62800265D01*
X63931753Y-62912358D01*
X63931758Y-62912365D01*
X64087636Y-63068243D01*
X64087641Y-63068247D01*
X64243192Y-63181260D01*
X64265978Y-63197815D01*
X64382501Y-63257187D01*
X64462393Y-63297895D01*
X64462396Y-63297896D01*
X64567221Y-63331955D01*
X64672049Y-63366015D01*
X64889778Y-63400500D01*
X64889779Y-63400500D01*
X65110221Y-63400500D01*
X65110222Y-63400500D01*
X65327951Y-63366015D01*
X65537606Y-63297895D01*
X65734022Y-63197815D01*
X65912365Y-63068242D01*
X66068242Y-62912365D01*
X66197815Y-62734022D01*
X66297895Y-62537606D01*
X66366015Y-62327951D01*
X66400500Y-62110222D01*
X66400500Y-61889778D01*
X66366015Y-61672049D01*
X66297895Y-61462394D01*
X66297895Y-61462393D01*
X66263237Y-61394375D01*
X66197815Y-61265978D01*
X66161335Y-61215767D01*
X66068247Y-61087641D01*
X66068243Y-61087636D01*
X65912363Y-60931756D01*
X65912358Y-60931752D01*
X65734025Y-60802187D01*
X65734024Y-60802186D01*
X65734022Y-60802185D01*
X65662664Y-60765826D01*
X65537606Y-60702104D01*
X65537603Y-60702103D01*
X65327952Y-60633985D01*
X65219086Y-60616742D01*
X65110222Y-60599500D01*
X64889778Y-60599500D01*
X64817201Y-60610995D01*
X64672047Y-60633985D01*
X64462396Y-60702103D01*
X64462393Y-60702104D01*
X64265974Y-60802187D01*
X64087641Y-60931752D01*
X64087636Y-60931756D01*
X63931756Y-61087636D01*
X63931752Y-61087641D01*
X63850318Y-61199727D01*
X63794989Y-61242393D01*
X63725375Y-61248372D01*
X63663580Y-61215767D01*
X63649682Y-61199727D01*
X63568247Y-61087641D01*
X63568243Y-61087636D01*
X63412363Y-60931756D01*
X63412358Y-60931752D01*
X63234025Y-60802187D01*
X63234024Y-60802186D01*
X63234022Y-60802185D01*
X63162664Y-60765826D01*
X63037606Y-60702104D01*
X63037603Y-60702103D01*
X62827952Y-60633985D01*
X62719086Y-60616742D01*
X62610222Y-60599500D01*
X62389778Y-60599500D01*
X62317201Y-60610995D01*
X62172047Y-60633985D01*
X61962396Y-60702103D01*
X61962393Y-60702104D01*
X61765974Y-60802187D01*
X61587641Y-60931752D01*
X61587635Y-60931757D01*
X61566207Y-60953185D01*
X61504884Y-60986669D01*
X61435192Y-60981683D01*
X61379259Y-60939810D01*
X61362346Y-60908834D01*
X61343355Y-60857915D01*
X61343350Y-60857906D01*
X61257190Y-60742812D01*
X61257187Y-60742809D01*
X61142093Y-60656649D01*
X61142086Y-60656645D01*
X61007379Y-60606403D01*
X61007372Y-60606401D01*
X60947844Y-60600000D01*
X60250000Y-60600000D01*
X60250000Y-61566988D01*
X60192993Y-61534075D01*
X60065826Y-61500000D01*
X59934174Y-61500000D01*
X59807007Y-61534075D01*
X59750000Y-61566988D01*
X59750000Y-60600000D01*
X59052155Y-60600000D01*
X58992627Y-60606401D01*
X58992620Y-60606403D01*
X58857913Y-60656645D01*
X58857906Y-60656649D01*
X58742812Y-60742809D01*
X58742809Y-60742812D01*
X58656649Y-60857906D01*
X58656645Y-60857913D01*
X58606403Y-60992620D01*
X58606401Y-60992627D01*
X58600000Y-61052155D01*
X54305052Y-61052155D01*
X54316755Y-61016136D01*
X54316758Y-61016119D01*
X54327231Y-60950000D01*
X53433012Y-60950000D01*
X53465925Y-60892993D01*
X53500000Y-60765826D01*
X53500000Y-60634174D01*
X53465925Y-60507007D01*
X53433012Y-60450000D01*
X54327231Y-60450000D01*
X54316757Y-60383873D01*
X54316757Y-60383870D01*
X54251095Y-60181782D01*
X54154620Y-59992442D01*
X54029727Y-59820540D01*
X54029723Y-59820535D01*
X53879464Y-59670276D01*
X53879459Y-59670272D01*
X53707558Y-59545379D01*
X53697954Y-59540486D01*
X53647157Y-59492512D01*
X53630361Y-59424692D01*
X53652897Y-59358556D01*
X53697954Y-59319514D01*
X53707558Y-59314620D01*
X53879459Y-59189727D01*
X53879464Y-59189723D01*
X54029723Y-59039464D01*
X54029727Y-59039459D01*
X54154620Y-58867557D01*
X54251095Y-58678217D01*
X54316757Y-58476129D01*
X54316757Y-58476126D01*
X54327231Y-58410000D01*
X53433012Y-58410000D01*
X53465925Y-58352993D01*
X53500000Y-58225826D01*
X53500000Y-58094174D01*
X53465925Y-57967007D01*
X53433012Y-57910000D01*
X54327231Y-57910000D01*
X54316757Y-57843873D01*
X54316757Y-57843870D01*
X54251095Y-57641782D01*
X54154620Y-57452442D01*
X54029727Y-57280540D01*
X54029723Y-57280535D01*
X53879464Y-57130276D01*
X53879459Y-57130272D01*
X53707555Y-57005377D01*
X53698500Y-57000763D01*
X53647706Y-56952788D01*
X53630912Y-56884966D01*
X53653451Y-56818832D01*
X53698508Y-56779793D01*
X53707816Y-56775051D01*
X53787007Y-56717515D01*
X53879786Y-56650109D01*
X53879788Y-56650106D01*
X53879792Y-56650104D01*
X54030104Y-56499792D01*
X54030106Y-56499788D01*
X54030109Y-56499786D01*
X54155048Y-56327820D01*
X54155047Y-56327820D01*
X54155051Y-56327816D01*
X54251557Y-56138412D01*
X54317246Y-55936243D01*
X54350500Y-55726287D01*
X54350500Y-55513713D01*
X54317246Y-55303757D01*
X54251557Y-55101588D01*
X54155051Y-54912184D01*
X54155049Y-54912181D01*
X54155048Y-54912179D01*
X54030109Y-54740213D01*
X53879786Y-54589890D01*
X53707820Y-54464951D01*
X53707115Y-54464591D01*
X53699054Y-54460485D01*
X53648259Y-54412512D01*
X53631463Y-54344692D01*
X53653999Y-54278556D01*
X53699054Y-54239515D01*
X53707816Y-54235051D01*
X53868839Y-54118062D01*
X53879786Y-54110109D01*
X53879788Y-54110106D01*
X53879792Y-54110104D01*
X54030104Y-53959792D01*
X54030106Y-53959788D01*
X54030109Y-53959786D01*
X54155048Y-53787820D01*
X54155047Y-53787820D01*
X54155051Y-53787816D01*
X54251557Y-53598412D01*
X54317246Y-53396243D01*
X54350500Y-53186287D01*
X54350500Y-52973713D01*
X54350500Y-52973712D01*
X54350118Y-52968862D01*
X54351191Y-52968777D01*
X54359482Y-52904608D01*
X54404476Y-52851155D01*
X54471227Y-52830513D01*
X54473002Y-52830500D01*
X56184991Y-52830500D01*
X56252030Y-52850185D01*
X56297785Y-52902989D01*
X56307729Y-52972147D01*
X56283367Y-53029986D01*
X56149738Y-53204135D01*
X56149727Y-53204151D01*
X56027791Y-53415348D01*
X56027786Y-53415359D01*
X55934459Y-53640669D01*
X55934456Y-53640679D01*
X55871335Y-53876253D01*
X55871333Y-53876264D01*
X55839500Y-54118048D01*
X55839500Y-54881951D01*
X55851058Y-54969735D01*
X55871334Y-55123744D01*
X55916771Y-55293318D01*
X55934456Y-55359320D01*
X55934459Y-55359330D01*
X56027786Y-55584640D01*
X56027791Y-55584651D01*
X56149727Y-55795848D01*
X56149738Y-55795864D01*
X56298199Y-55989343D01*
X56298205Y-55989350D01*
X56470649Y-56161794D01*
X56470655Y-56161799D01*
X56664144Y-56310268D01*
X56664151Y-56310272D01*
X56875348Y-56432208D01*
X56875353Y-56432210D01*
X56875356Y-56432212D01*
X57100679Y-56525544D01*
X57336256Y-56588666D01*
X57578056Y-56620500D01*
X57578063Y-56620500D01*
X57821937Y-56620500D01*
X57821944Y-56620500D01*
X58063744Y-56588666D01*
X58299321Y-56525544D01*
X58524644Y-56432212D01*
X58735856Y-56310268D01*
X58929345Y-56161799D01*
X59101799Y-55989345D01*
X59250268Y-55795856D01*
X59372212Y-55584644D01*
X59465544Y-55359321D01*
X59528666Y-55123744D01*
X59560500Y-54881944D01*
X59560500Y-54118056D01*
X59528666Y-53876256D01*
X59465544Y-53640679D01*
X59372212Y-53415356D01*
X59372210Y-53415353D01*
X59372208Y-53415348D01*
X59250272Y-53204151D01*
X59250268Y-53204144D01*
X59236565Y-53186286D01*
X59116633Y-53029986D01*
X59091439Y-52964817D01*
X59105478Y-52896372D01*
X59154292Y-52846382D01*
X59215009Y-52830500D01*
X65784991Y-52830500D01*
X65852030Y-52850185D01*
X65897785Y-52902989D01*
X65907729Y-52972147D01*
X65883367Y-53029986D01*
X65749738Y-53204135D01*
X65749727Y-53204151D01*
X65627791Y-53415348D01*
X65627786Y-53415359D01*
X65534459Y-53640669D01*
X65534456Y-53640679D01*
X65471335Y-53876253D01*
X65471333Y-53876264D01*
X65439500Y-54118048D01*
X65439500Y-54881951D01*
X65451058Y-54969735D01*
X65471334Y-55123744D01*
X65516771Y-55293318D01*
X65534456Y-55359320D01*
X65534459Y-55359330D01*
X65627786Y-55584640D01*
X65627791Y-55584651D01*
X65749727Y-55795848D01*
X65749738Y-55795864D01*
X65898199Y-55989343D01*
X65898205Y-55989350D01*
X66070649Y-56161794D01*
X66070655Y-56161799D01*
X66264144Y-56310268D01*
X66264151Y-56310272D01*
X66475348Y-56432208D01*
X66475353Y-56432210D01*
X66475356Y-56432212D01*
X66700679Y-56525544D01*
X66936256Y-56588666D01*
X67178056Y-56620500D01*
X67178063Y-56620500D01*
X67421937Y-56620500D01*
X67421944Y-56620500D01*
X67663744Y-56588666D01*
X67899321Y-56525544D01*
X68124644Y-56432212D01*
X68335856Y-56310268D01*
X68529345Y-56161799D01*
X68701799Y-55989345D01*
X68850268Y-55795856D01*
X68972212Y-55584644D01*
X69065544Y-55359321D01*
X69128666Y-55123744D01*
X69160500Y-54881944D01*
X69160500Y-54118056D01*
X69128666Y-53876256D01*
X69065544Y-53640679D01*
X68972212Y-53415356D01*
X68972210Y-53415353D01*
X68972208Y-53415348D01*
X68850272Y-53204151D01*
X68850268Y-53204144D01*
X68836565Y-53186286D01*
X68716633Y-53029986D01*
X68691439Y-52964817D01*
X68705478Y-52896372D01*
X68754292Y-52846382D01*
X68815009Y-52830500D01*
X72679903Y-52830500D01*
X72746942Y-52850185D01*
X72767584Y-52866819D01*
X83963681Y-64062916D01*
X83997166Y-64124239D01*
X84000000Y-64150597D01*
X84000000Y-65066988D01*
X83942993Y-65034075D01*
X83815826Y-65000000D01*
X83684174Y-65000000D01*
X83557007Y-65034075D01*
X83500000Y-65066988D01*
X83500000Y-64100000D01*
X82802155Y-64100000D01*
X82742627Y-64106401D01*
X82742620Y-64106403D01*
X82607913Y-64156645D01*
X82607906Y-64156649D01*
X82492812Y-64242809D01*
X82492809Y-64242812D01*
X82406649Y-64357906D01*
X82406645Y-64357913D01*
X82356403Y-64492620D01*
X82356401Y-64492627D01*
X82350000Y-64552155D01*
X82350000Y-65250000D01*
X83316988Y-65250000D01*
X83284075Y-65307007D01*
X83250000Y-65434174D01*
X83250000Y-65565826D01*
X83284075Y-65692993D01*
X83316988Y-65750000D01*
X82350000Y-65750000D01*
X82350000Y-66447844D01*
X82356401Y-66507372D01*
X82356403Y-66507379D01*
X82406645Y-66642086D01*
X82406649Y-66642093D01*
X82492809Y-66757187D01*
X82492812Y-66757190D01*
X82607906Y-66843350D01*
X82607913Y-66843354D01*
X82742620Y-66893596D01*
X82742627Y-66893598D01*
X82802155Y-66899999D01*
X82802172Y-66900000D01*
X83500000Y-66900000D01*
X83500000Y-65933012D01*
X83557007Y-65965925D01*
X83684174Y-66000000D01*
X83815826Y-66000000D01*
X83942993Y-65965925D01*
X84000000Y-65933012D01*
X84000000Y-66900000D01*
X84697828Y-66900000D01*
X84697844Y-66899999D01*
X84757372Y-66893598D01*
X84757379Y-66893596D01*
X84892086Y-66843354D01*
X84892093Y-66843350D01*
X85007187Y-66757190D01*
X85007190Y-66757187D01*
X85093350Y-66642093D01*
X85093353Y-66642088D01*
X85112345Y-66591166D01*
X85154215Y-66535232D01*
X85219679Y-66510813D01*
X85287952Y-66525663D01*
X85316209Y-66546816D01*
X85337636Y-66568243D01*
X85337641Y-66568247D01*
X85493192Y-66681260D01*
X85515978Y-66697815D01*
X85632501Y-66757187D01*
X85712393Y-66797895D01*
X85712396Y-66797896D01*
X85817221Y-66831955D01*
X85922049Y-66866015D01*
X86139778Y-66900500D01*
X86139779Y-66900500D01*
X86360221Y-66900500D01*
X86360222Y-66900500D01*
X86577951Y-66866015D01*
X86787606Y-66797895D01*
X86984022Y-66697815D01*
X87162365Y-66568242D01*
X87318242Y-66412365D01*
X87399682Y-66300270D01*
X87455011Y-66257606D01*
X87524624Y-66251627D01*
X87586420Y-66284232D01*
X87600313Y-66300265D01*
X87681753Y-66412358D01*
X87681758Y-66412365D01*
X87837636Y-66568243D01*
X87837641Y-66568247D01*
X87993192Y-66681260D01*
X88015978Y-66697815D01*
X88132501Y-66757187D01*
X88212393Y-66797895D01*
X88212396Y-66797896D01*
X88317221Y-66831955D01*
X88422049Y-66866015D01*
X88639778Y-66900500D01*
X88639779Y-66900500D01*
X88860221Y-66900500D01*
X88860222Y-66900500D01*
X89077951Y-66866015D01*
X89287606Y-66797895D01*
X89484022Y-66697815D01*
X89662365Y-66568242D01*
X89818242Y-66412365D01*
X89899682Y-66300270D01*
X89955011Y-66257606D01*
X90024624Y-66251627D01*
X90086420Y-66284232D01*
X90100313Y-66300265D01*
X90181753Y-66412358D01*
X90181758Y-66412365D01*
X90337636Y-66568243D01*
X90337641Y-66568247D01*
X90493192Y-66681260D01*
X90515978Y-66697815D01*
X90632501Y-66757187D01*
X90712393Y-66797895D01*
X90712396Y-66797896D01*
X90817221Y-66831955D01*
X90922049Y-66866015D01*
X91139778Y-66900500D01*
X91139779Y-66900500D01*
X91360221Y-66900500D01*
X91360222Y-66900500D01*
X91577951Y-66866015D01*
X91787606Y-66797895D01*
X91984022Y-66697815D01*
X92162365Y-66568242D01*
X92318242Y-66412365D01*
X92447815Y-66234022D01*
X92547895Y-66037606D01*
X92616015Y-65827951D01*
X92650500Y-65610222D01*
X92650500Y-65389778D01*
X92616015Y-65172049D01*
X92547895Y-64962394D01*
X92547895Y-64962393D01*
X92513237Y-64894375D01*
X92447815Y-64765978D01*
X92399681Y-64699727D01*
X92318247Y-64587641D01*
X92318243Y-64587636D01*
X92162363Y-64431756D01*
X92162358Y-64431752D01*
X91984025Y-64302187D01*
X91984024Y-64302186D01*
X91984022Y-64302185D01*
X91921096Y-64270122D01*
X91787606Y-64202104D01*
X91787603Y-64202103D01*
X91577952Y-64133985D01*
X91469086Y-64116742D01*
X91360222Y-64099500D01*
X91139778Y-64099500D01*
X91067201Y-64110995D01*
X90922047Y-64133985D01*
X90712396Y-64202103D01*
X90712393Y-64202104D01*
X90515974Y-64302187D01*
X90337641Y-64431752D01*
X90337636Y-64431756D01*
X90181756Y-64587636D01*
X90181752Y-64587641D01*
X90100318Y-64699727D01*
X90044989Y-64742393D01*
X89975375Y-64748372D01*
X89913580Y-64715767D01*
X89899682Y-64699727D01*
X89818247Y-64587641D01*
X89818243Y-64587636D01*
X89662363Y-64431756D01*
X89662358Y-64431752D01*
X89484025Y-64302187D01*
X89484024Y-64302186D01*
X89484022Y-64302185D01*
X89421096Y-64270122D01*
X89287606Y-64202104D01*
X89287603Y-64202103D01*
X89077952Y-64133985D01*
X88969086Y-64116742D01*
X88860222Y-64099500D01*
X88639778Y-64099500D01*
X88567201Y-64110995D01*
X88422047Y-64133985D01*
X88351796Y-64156811D01*
X88281955Y-64158806D01*
X88225797Y-64126561D01*
X84842045Y-60742809D01*
X81404619Y-57305384D01*
X81371135Y-57244062D01*
X81376119Y-57174370D01*
X81417991Y-57118437D01*
X81483455Y-57094020D01*
X81506180Y-57094483D01*
X81543966Y-57098741D01*
X81559573Y-57100500D01*
X81559575Y-57100500D01*
X81840428Y-57100500D01*
X81840429Y-57100499D01*
X81983055Y-57084429D01*
X82119494Y-57069057D01*
X82119499Y-57069056D01*
X82119509Y-57069055D01*
X82393318Y-57006560D01*
X82658408Y-56913801D01*
X82911445Y-56791945D01*
X83149248Y-56642523D01*
X83368825Y-56467416D01*
X83567416Y-56268825D01*
X83742523Y-56049248D01*
X83891945Y-55811445D01*
X84013801Y-55558408D01*
X84106560Y-55293318D01*
X84169055Y-55019509D01*
X84178956Y-54931640D01*
X84200499Y-54740431D01*
X84200500Y-54740427D01*
X84200500Y-54259572D01*
X84200499Y-54259568D01*
X90799500Y-54259568D01*
X90799500Y-54740431D01*
X90830942Y-55019494D01*
X90830945Y-55019512D01*
X90893439Y-55293317D01*
X90893443Y-55293329D01*
X90986200Y-55558411D01*
X91108053Y-55811442D01*
X91108055Y-55811445D01*
X91257477Y-56049248D01*
X91432584Y-56268825D01*
X91631175Y-56467416D01*
X91850752Y-56642523D01*
X92088555Y-56791945D01*
X92088557Y-56791946D01*
X92162938Y-56827766D01*
X92341592Y-56913801D01*
X92540680Y-56983465D01*
X92606670Y-57006556D01*
X92606682Y-57006560D01*
X92880491Y-57069055D01*
X92880497Y-57069055D01*
X92880505Y-57069057D01*
X93066547Y-57090018D01*
X93159569Y-57100499D01*
X93159572Y-57100500D01*
X93159575Y-57100500D01*
X93440428Y-57100500D01*
X93440429Y-57100499D01*
X93583055Y-57084429D01*
X93719494Y-57069057D01*
X93719499Y-57069056D01*
X93719509Y-57069055D01*
X93993318Y-57006560D01*
X94258408Y-56913801D01*
X94511445Y-56791945D01*
X94749248Y-56642523D01*
X94968825Y-56467416D01*
X95167416Y-56268825D01*
X95342523Y-56049248D01*
X95491945Y-55811445D01*
X95613801Y-55558408D01*
X95706560Y-55293318D01*
X95769055Y-55019509D01*
X95778956Y-54931640D01*
X95800499Y-54740431D01*
X95800500Y-54740427D01*
X95800500Y-54259572D01*
X95800499Y-54259568D01*
X95769057Y-53980505D01*
X95769054Y-53980487D01*
X95706560Y-53706682D01*
X95706556Y-53706670D01*
X95668675Y-53598412D01*
X95613801Y-53441592D01*
X95491945Y-53188555D01*
X95342523Y-52950752D01*
X95167416Y-52731175D01*
X94968825Y-52532584D01*
X94749248Y-52357477D01*
X94511445Y-52208055D01*
X94511442Y-52208053D01*
X94258411Y-52086200D01*
X93993329Y-51993443D01*
X93993317Y-51993439D01*
X93719512Y-51930945D01*
X93719494Y-51930942D01*
X93440431Y-51899500D01*
X93440425Y-51899500D01*
X93159575Y-51899500D01*
X93159568Y-51899500D01*
X92880505Y-51930942D01*
X92880487Y-51930945D01*
X92606682Y-51993439D01*
X92606670Y-51993443D01*
X92341588Y-52086200D01*
X92088557Y-52208053D01*
X91850753Y-52357476D01*
X91631175Y-52532583D01*
X91432583Y-52731175D01*
X91257476Y-52950753D01*
X91108053Y-53188557D01*
X90986200Y-53441588D01*
X90893443Y-53706670D01*
X90893439Y-53706682D01*
X90830945Y-53980487D01*
X90830942Y-53980505D01*
X90799500Y-54259568D01*
X84200499Y-54259568D01*
X84169057Y-53980505D01*
X84169054Y-53980487D01*
X84106560Y-53706682D01*
X84106556Y-53706670D01*
X84068675Y-53598412D01*
X84013801Y-53441592D01*
X83891945Y-53188555D01*
X83742523Y-52950752D01*
X83567416Y-52731175D01*
X83368825Y-52532584D01*
X83149248Y-52357477D01*
X82911445Y-52208055D01*
X82911442Y-52208053D01*
X82658411Y-52086200D01*
X82393329Y-51993443D01*
X82393317Y-51993439D01*
X82119512Y-51930945D01*
X82119494Y-51930942D01*
X81840431Y-51899500D01*
X81840425Y-51899500D01*
X81559575Y-51899500D01*
X81559568Y-51899500D01*
X81280505Y-51930942D01*
X81280487Y-51930945D01*
X81006682Y-51993439D01*
X81006670Y-51993443D01*
X80741588Y-52086200D01*
X80488557Y-52208053D01*
X80250753Y-52357476D01*
X80031175Y-52532583D01*
X79832583Y-52731175D01*
X79657476Y-52950753D01*
X79508053Y-53188557D01*
X79386200Y-53441588D01*
X79293443Y-53706670D01*
X79293439Y-53706682D01*
X79230945Y-53980487D01*
X79230942Y-53980505D01*
X79199500Y-54259568D01*
X79199500Y-54740431D01*
X79205515Y-54793815D01*
X79193460Y-54862637D01*
X79146111Y-54914016D01*
X79078501Y-54931640D01*
X79012095Y-54909913D01*
X78994614Y-54895379D01*
X75566590Y-51467355D01*
X75566588Y-51467352D01*
X75447717Y-51348481D01*
X75447716Y-51348480D01*
X75360904Y-51298360D01*
X75360904Y-51298359D01*
X75360900Y-51298358D01*
X75310785Y-51269423D01*
X75158057Y-51228499D01*
X74999943Y-51228499D01*
X74992347Y-51228499D01*
X74992331Y-51228500D01*
X54366683Y-51228500D01*
X54299644Y-51208815D01*
X54253889Y-51156011D01*
X54243945Y-51086853D01*
X54250441Y-51063172D01*
X54250051Y-51063046D01*
X54275568Y-50984513D01*
X54317246Y-50856243D01*
X54350500Y-50646287D01*
X54350500Y-50433713D01*
X54317246Y-50223757D01*
X54251557Y-50021588D01*
X54155051Y-49832184D01*
X54155049Y-49832181D01*
X54155048Y-49832179D01*
X54030109Y-49660213D01*
X53916569Y-49546673D01*
X53883084Y-49485350D01*
X53888068Y-49415658D01*
X53929940Y-49359725D01*
X53960915Y-49342810D01*
X54092331Y-49293796D01*
X54207546Y-49207546D01*
X54293796Y-49092331D01*
X54344091Y-48957483D01*
X54350500Y-48897873D01*
X54350499Y-48115780D01*
X54370183Y-48048742D01*
X54386813Y-48028105D01*
X57128101Y-45286819D01*
X57155028Y-45272115D01*
X57180847Y-45255523D01*
X57187047Y-45254631D01*
X57189424Y-45253334D01*
X57215782Y-45250500D01*
X57409955Y-45250500D01*
X57476994Y-45270185D01*
X57522749Y-45322989D01*
X57532693Y-45392147D01*
X57520440Y-45430795D01*
X57484781Y-45500776D01*
X57421522Y-45695465D01*
X57389500Y-45897648D01*
X57389500Y-46102351D01*
X57421522Y-46304534D01*
X57484781Y-46499223D01*
X57577715Y-46681613D01*
X57698028Y-46847213D01*
X57842786Y-46991971D01*
X57994406Y-47102127D01*
X58008390Y-47112287D01*
X58124607Y-47171503D01*
X58190776Y-47205218D01*
X58190778Y-47205218D01*
X58190781Y-47205220D01*
X58295137Y-47239127D01*
X58385465Y-47268477D01*
X58486557Y-47284488D01*
X58587648Y-47300500D01*
X58587649Y-47300500D01*
X58792351Y-47300500D01*
X58792352Y-47300500D01*
X58994534Y-47268477D01*
X59189219Y-47205220D01*
X59371610Y-47112287D01*
X59467641Y-47042517D01*
X59537213Y-46991971D01*
X59537215Y-46991968D01*
X59537219Y-46991966D01*
X59681966Y-46847219D01*
X59681968Y-46847215D01*
X59681971Y-46847213D01*
X59784417Y-46706206D01*
X59802287Y-46681610D01*
X59895220Y-46499219D01*
X59958477Y-46304534D01*
X59990500Y-46102352D01*
X59990500Y-45897648D01*
X59958477Y-45695466D01*
X59895220Y-45500781D01*
X59895218Y-45500778D01*
X59895218Y-45500776D01*
X59859560Y-45430795D01*
X59846664Y-45362126D01*
X59872940Y-45297386D01*
X59930046Y-45257128D01*
X59970045Y-45250500D01*
X64094218Y-45250500D01*
X64161257Y-45270185D01*
X64181899Y-45286819D01*
X64983281Y-46088201D01*
X65016766Y-46149524D01*
X65018073Y-46156483D01*
X65041523Y-46304535D01*
X65104781Y-46499223D01*
X65197715Y-46681613D01*
X65318028Y-46847213D01*
X65462786Y-46991971D01*
X65614406Y-47102127D01*
X65628390Y-47112287D01*
X65744607Y-47171503D01*
X65810776Y-47205218D01*
X65810778Y-47205218D01*
X65810781Y-47205220D01*
X65915137Y-47239127D01*
X66005465Y-47268477D01*
X66106557Y-47284488D01*
X66207648Y-47300500D01*
X66207649Y-47300500D01*
X66412351Y-47300500D01*
X66412352Y-47300500D01*
X66614534Y-47268477D01*
X66809219Y-47205220D01*
X66991610Y-47112287D01*
X67087641Y-47042517D01*
X67157213Y-46991971D01*
X67157215Y-46991968D01*
X67157219Y-46991966D01*
X67301966Y-46847219D01*
X67301968Y-46847215D01*
X67301971Y-46847213D01*
X67404417Y-46706206D01*
X67422287Y-46681610D01*
X67515220Y-46499219D01*
X67578477Y-46304534D01*
X67610500Y-46102352D01*
X67610500Y-45897648D01*
X67578477Y-45695466D01*
X67515220Y-45500781D01*
X67515218Y-45500778D01*
X67515218Y-45500776D01*
X67459868Y-45392147D01*
X67422287Y-45318390D01*
X67388667Y-45272115D01*
X67301971Y-45152786D01*
X67157213Y-45008028D01*
X66991613Y-44887715D01*
X66991612Y-44887714D01*
X66991610Y-44887713D01*
X66934653Y-44858691D01*
X66809223Y-44794781D01*
X66614535Y-44731523D01*
X66466483Y-44708073D01*
X66403349Y-44678143D01*
X66398201Y-44673281D01*
X65344209Y-43619289D01*
X65344206Y-43619285D01*
X65344206Y-43619286D01*
X65337139Y-43612219D01*
X65337139Y-43612218D01*
X65197782Y-43472861D01*
X65197781Y-43472860D01*
X65197780Y-43472859D01*
X65033920Y-43363371D01*
X65033911Y-43363366D01*
X64961315Y-43333296D01*
X64905165Y-43310038D01*
X64851836Y-43287949D01*
X64851832Y-43287948D01*
X64851828Y-43287946D01*
X64755188Y-43268724D01*
X64658544Y-43249500D01*
X64658541Y-43249500D01*
X56651459Y-43249500D01*
X56651455Y-43249500D01*
X56554812Y-43268724D01*
X56458167Y-43287947D01*
X56458161Y-43287949D01*
X56404834Y-43310037D01*
X56404834Y-43310038D01*
X56359315Y-43328892D01*
X56276089Y-43363366D01*
X56276079Y-43363371D01*
X56112219Y-43472859D01*
X56042540Y-43542538D01*
X55972861Y-43612218D01*
X55972858Y-43612221D01*
X52971897Y-46613181D01*
X52910574Y-46646666D01*
X52884216Y-46649500D01*
X52102129Y-46649500D01*
X52102123Y-46649501D01*
X52042516Y-46655908D01*
X51907671Y-46706202D01*
X51907664Y-46706206D01*
X51792455Y-46792452D01*
X51792452Y-46792455D01*
X51723766Y-46884208D01*
X51667832Y-46926079D01*
X51598141Y-46931063D01*
X51536818Y-46897577D01*
X51503334Y-46836254D01*
X51500500Y-46809897D01*
X51500500Y-43124500D01*
X51520185Y-43057461D01*
X51572989Y-43011706D01*
X51624500Y-43000500D01*
X98375500Y-43000500D01*
X98442539Y-43020185D01*
G37*
%TD.AperFunction*%
%TA.AperFunction,Conductor*%
G36*
X97250000Y-144266988D02*
G01*
X97192993Y-144234075D01*
X97065826Y-144200000D01*
X96934174Y-144200000D01*
X96807007Y-144234075D01*
X96750000Y-144266988D01*
X96750000Y-142593012D01*
X96807007Y-142625925D01*
X96934174Y-142660000D01*
X97065826Y-142660000D01*
X97192993Y-142625925D01*
X97250000Y-142593012D01*
X97250000Y-144266988D01*
G37*
%TD.AperFunction*%
%TA.AperFunction,Conductor*%
G36*
X53250000Y-115266988D02*
G01*
X53192993Y-115234075D01*
X53065826Y-115200000D01*
X52934174Y-115200000D01*
X52807007Y-115234075D01*
X52750000Y-115266988D01*
X52750000Y-113593012D01*
X52807007Y-113625925D01*
X52934174Y-113660000D01*
X53065826Y-113660000D01*
X53192993Y-113625925D01*
X53250000Y-113593012D01*
X53250000Y-115266988D01*
G37*
%TD.AperFunction*%
%TA.AperFunction,Conductor*%
G36*
X97250000Y-89266988D02*
G01*
X97192993Y-89234075D01*
X97065826Y-89200000D01*
X96934174Y-89200000D01*
X96807007Y-89234075D01*
X96750000Y-89266988D01*
X96750000Y-87593012D01*
X96807007Y-87625925D01*
X96934174Y-87660000D01*
X97065826Y-87660000D01*
X97192993Y-87625925D01*
X97250000Y-87593012D01*
X97250000Y-89266988D01*
G37*
%TD.AperFunction*%
%TA.AperFunction,Conductor*%
G36*
X53250000Y-60266988D02*
G01*
X53192993Y-60234075D01*
X53065826Y-60200000D01*
X52934174Y-60200000D01*
X52807007Y-60234075D01*
X52750000Y-60266988D01*
X52750000Y-58593012D01*
X52807007Y-58625925D01*
X52934174Y-58660000D01*
X53065826Y-58660000D01*
X53192993Y-58625925D01*
X53250000Y-58593012D01*
X53250000Y-60266988D01*
G37*
%TD.AperFunction*%
%TD*%
M02*
