%TF.GenerationSoftware,KiCad,Pcbnew,9.0.4*%
%TF.CreationDate,2025-10-04T20:25:59+02:00*%
%TF.ProjectId,DMH_VCA_Bank_PCB_2,444d485f-5643-4415-9f42-616e6b5f5043,1*%
%TF.SameCoordinates,Original*%
%TF.FileFunction,Drillmap*%
%TF.FilePolarity,Positive*%
%FSLAX45Y45*%
G04 Gerber Fmt 4.5, Leading zero omitted, Abs format (unit mm)*
G04 Created by KiCad (PCBNEW 9.0.4) date 2025-10-04 20:25:59*
%MOMM*%
%LPD*%
G01*
G04 APERTURE LIST*
%ADD10C,0.050000*%
%ADD11C,0.200000*%
%ADD12C,0.100000*%
%ADD13C,0.110000*%
G04 APERTURE END LIST*
D10*
X5100000Y-4250000D02*
X5100000Y-15050000D01*
X9900000Y-15050000D02*
X9900000Y-4250000D01*
X5100000Y-15050000D02*
X9900000Y-15050000D01*
X9900000Y-4250000D02*
X5100000Y-4250000D01*
D11*
D12*
X5829000Y-4560000D02*
X5909000Y-4640000D01*
X5909000Y-4560000D02*
X5829000Y-4640000D01*
X5829000Y-7315000D02*
X5909000Y-7395000D01*
X5909000Y-7315000D02*
X5829000Y-7395000D01*
X5829000Y-10060000D02*
X5909000Y-10140000D01*
X5909000Y-10060000D02*
X5829000Y-10140000D01*
X5829000Y-12810000D02*
X5909000Y-12890000D01*
X5909000Y-12810000D02*
X5829000Y-12890000D01*
X6591000Y-4560000D02*
X6671000Y-4640000D01*
X6671000Y-4560000D02*
X6591000Y-4640000D01*
X6591000Y-7315000D02*
X6671000Y-7395000D01*
X6671000Y-7315000D02*
X6591000Y-7395000D01*
X6591000Y-10060000D02*
X6671000Y-10140000D01*
X6671000Y-10060000D02*
X6591000Y-10140000D01*
X6591000Y-12810000D02*
X6671000Y-12890000D01*
X6671000Y-12810000D02*
X6591000Y-12890000D01*
X5350000Y-4800000D02*
G75*
G02*
X5250000Y-4800000I-50000J0D01*
G01*
X5250000Y-4800000D02*
G75*
G02*
X5350000Y-4800000I50000J0D01*
G01*
X5350000Y-5054000D02*
G75*
G02*
X5250000Y-5054000I-50000J0D01*
G01*
X5250000Y-5054000D02*
G75*
G02*
X5350000Y-5054000I50000J0D01*
G01*
X5350000Y-5308000D02*
G75*
G02*
X5250000Y-5308000I-50000J0D01*
G01*
X5250000Y-5308000D02*
G75*
G02*
X5350000Y-5308000I50000J0D01*
G01*
X5350000Y-5562000D02*
G75*
G02*
X5250000Y-5562000I-50000J0D01*
G01*
X5250000Y-5562000D02*
G75*
G02*
X5350000Y-5562000I50000J0D01*
G01*
X5350000Y-5816000D02*
G75*
G02*
X5250000Y-5816000I-50000J0D01*
G01*
X5250000Y-5816000D02*
G75*
G02*
X5350000Y-5816000I50000J0D01*
G01*
X5350000Y-6070000D02*
G75*
G02*
X5250000Y-6070000I-50000J0D01*
G01*
X5250000Y-6070000D02*
G75*
G02*
X5350000Y-6070000I50000J0D01*
G01*
X5350000Y-10300000D02*
G75*
G02*
X5250000Y-10300000I-50000J0D01*
G01*
X5250000Y-10300000D02*
G75*
G02*
X5350000Y-10300000I50000J0D01*
G01*
X5350000Y-10554000D02*
G75*
G02*
X5250000Y-10554000I-50000J0D01*
G01*
X5250000Y-10554000D02*
G75*
G02*
X5350000Y-10554000I50000J0D01*
G01*
X5350000Y-10808000D02*
G75*
G02*
X5250000Y-10808000I-50000J0D01*
G01*
X5250000Y-10808000D02*
G75*
G02*
X5350000Y-10808000I50000J0D01*
G01*
X5350000Y-11062000D02*
G75*
G02*
X5250000Y-11062000I-50000J0D01*
G01*
X5250000Y-11062000D02*
G75*
G02*
X5350000Y-11062000I50000J0D01*
G01*
X5350000Y-11316000D02*
G75*
G02*
X5250000Y-11316000I-50000J0D01*
G01*
X5250000Y-11316000D02*
G75*
G02*
X5350000Y-11316000I50000J0D01*
G01*
X5350000Y-11570000D02*
G75*
G02*
X5250000Y-11570000I-50000J0D01*
G01*
X5250000Y-11570000D02*
G75*
G02*
X5350000Y-11570000I50000J0D01*
G01*
X6050000Y-6200000D02*
G75*
G02*
X5950000Y-6200000I-50000J0D01*
G01*
X5950000Y-6200000D02*
G75*
G02*
X6050000Y-6200000I50000J0D01*
G01*
X6050000Y-8950000D02*
G75*
G02*
X5950000Y-8950000I-50000J0D01*
G01*
X5950000Y-8950000D02*
G75*
G02*
X6050000Y-8950000I50000J0D01*
G01*
X6050000Y-11700000D02*
G75*
G02*
X5950000Y-11700000I-50000J0D01*
G01*
X5950000Y-11700000D02*
G75*
G02*
X6050000Y-11700000I50000J0D01*
G01*
X6050000Y-14450000D02*
G75*
G02*
X5950000Y-14450000I-50000J0D01*
G01*
X5950000Y-14450000D02*
G75*
G02*
X6050000Y-14450000I50000J0D01*
G01*
X6300000Y-6200000D02*
G75*
G02*
X6200000Y-6200000I-50000J0D01*
G01*
X6200000Y-6200000D02*
G75*
G02*
X6300000Y-6200000I50000J0D01*
G01*
X6300000Y-8950000D02*
G75*
G02*
X6200000Y-8950000I-50000J0D01*
G01*
X6200000Y-8950000D02*
G75*
G02*
X6300000Y-8950000I50000J0D01*
G01*
X6300000Y-11700000D02*
G75*
G02*
X6200000Y-11700000I-50000J0D01*
G01*
X6200000Y-11700000D02*
G75*
G02*
X6300000Y-11700000I50000J0D01*
G01*
X6300000Y-14450000D02*
G75*
G02*
X6200000Y-14450000I-50000J0D01*
G01*
X6200000Y-14450000D02*
G75*
G02*
X6300000Y-14450000I50000J0D01*
G01*
X6550000Y-6200000D02*
G75*
G02*
X6450000Y-6200000I-50000J0D01*
G01*
X6450000Y-6200000D02*
G75*
G02*
X6550000Y-6200000I50000J0D01*
G01*
X6550000Y-8950000D02*
G75*
G02*
X6450000Y-8950000I-50000J0D01*
G01*
X6450000Y-8950000D02*
G75*
G02*
X6550000Y-8950000I50000J0D01*
G01*
X6550000Y-11700000D02*
G75*
G02*
X6450000Y-11700000I-50000J0D01*
G01*
X6450000Y-11700000D02*
G75*
G02*
X6550000Y-11700000I50000J0D01*
G01*
X6550000Y-14450000D02*
G75*
G02*
X6450000Y-14450000I-50000J0D01*
G01*
X6450000Y-14450000D02*
G75*
G02*
X6550000Y-14450000I50000J0D01*
G01*
X8425000Y-6550000D02*
G75*
G02*
X8325000Y-6550000I-50000J0D01*
G01*
X8325000Y-6550000D02*
G75*
G02*
X8425000Y-6550000I50000J0D01*
G01*
X8425000Y-9300000D02*
G75*
G02*
X8325000Y-9300000I-50000J0D01*
G01*
X8325000Y-9300000D02*
G75*
G02*
X8425000Y-9300000I50000J0D01*
G01*
X8425000Y-12050000D02*
G75*
G02*
X8325000Y-12050000I-50000J0D01*
G01*
X8325000Y-12050000D02*
G75*
G02*
X8425000Y-12050000I50000J0D01*
G01*
X8425000Y-14800000D02*
G75*
G02*
X8325000Y-14800000I-50000J0D01*
G01*
X8325000Y-14800000D02*
G75*
G02*
X8425000Y-14800000I50000J0D01*
G01*
X8675000Y-6550000D02*
G75*
G02*
X8575000Y-6550000I-50000J0D01*
G01*
X8575000Y-6550000D02*
G75*
G02*
X8675000Y-6550000I50000J0D01*
G01*
X8675000Y-9300000D02*
G75*
G02*
X8575000Y-9300000I-50000J0D01*
G01*
X8575000Y-9300000D02*
G75*
G02*
X8675000Y-9300000I50000J0D01*
G01*
X8675000Y-12050000D02*
G75*
G02*
X8575000Y-12050000I-50000J0D01*
G01*
X8575000Y-12050000D02*
G75*
G02*
X8675000Y-12050000I50000J0D01*
G01*
X8675000Y-14800000D02*
G75*
G02*
X8575000Y-14800000I-50000J0D01*
G01*
X8575000Y-14800000D02*
G75*
G02*
X8675000Y-14800000I50000J0D01*
G01*
X8925000Y-6550000D02*
G75*
G02*
X8825000Y-6550000I-50000J0D01*
G01*
X8825000Y-6550000D02*
G75*
G02*
X8925000Y-6550000I50000J0D01*
G01*
X8925000Y-9300000D02*
G75*
G02*
X8825000Y-9300000I-50000J0D01*
G01*
X8825000Y-9300000D02*
G75*
G02*
X8925000Y-9300000I50000J0D01*
G01*
X8925000Y-12050000D02*
G75*
G02*
X8825000Y-12050000I-50000J0D01*
G01*
X8825000Y-12050000D02*
G75*
G02*
X8925000Y-12050000I50000J0D01*
G01*
X8925000Y-14800000D02*
G75*
G02*
X8825000Y-14800000I-50000J0D01*
G01*
X8825000Y-14800000D02*
G75*
G02*
X8925000Y-14800000I50000J0D01*
G01*
X9175000Y-6550000D02*
G75*
G02*
X9075000Y-6550000I-50000J0D01*
G01*
X9075000Y-6550000D02*
G75*
G02*
X9175000Y-6550000I50000J0D01*
G01*
X9175000Y-9300000D02*
G75*
G02*
X9075000Y-9300000I-50000J0D01*
G01*
X9075000Y-9300000D02*
G75*
G02*
X9175000Y-9300000I50000J0D01*
G01*
X9175000Y-12050000D02*
G75*
G02*
X9075000Y-12050000I-50000J0D01*
G01*
X9075000Y-12050000D02*
G75*
G02*
X9175000Y-12050000I50000J0D01*
G01*
X9175000Y-14800000D02*
G75*
G02*
X9075000Y-14800000I-50000J0D01*
G01*
X9075000Y-14800000D02*
G75*
G02*
X9175000Y-14800000I50000J0D01*
G01*
X9750000Y-7700000D02*
G75*
G02*
X9650000Y-7700000I-50000J0D01*
G01*
X9650000Y-7700000D02*
G75*
G02*
X9750000Y-7700000I50000J0D01*
G01*
X9750000Y-7954000D02*
G75*
G02*
X9650000Y-7954000I-50000J0D01*
G01*
X9650000Y-7954000D02*
G75*
G02*
X9750000Y-7954000I50000J0D01*
G01*
X9750000Y-8208000D02*
G75*
G02*
X9650000Y-8208000I-50000J0D01*
G01*
X9650000Y-8208000D02*
G75*
G02*
X9750000Y-8208000I50000J0D01*
G01*
X9750000Y-8462000D02*
G75*
G02*
X9650000Y-8462000I-50000J0D01*
G01*
X9650000Y-8462000D02*
G75*
G02*
X9750000Y-8462000I50000J0D01*
G01*
X9750000Y-8716000D02*
G75*
G02*
X9650000Y-8716000I-50000J0D01*
G01*
X9650000Y-8716000D02*
G75*
G02*
X9750000Y-8716000I50000J0D01*
G01*
X9750000Y-8970000D02*
G75*
G02*
X9650000Y-8970000I-50000J0D01*
G01*
X9650000Y-8970000D02*
G75*
G02*
X9750000Y-8970000I50000J0D01*
G01*
X9750000Y-12000000D02*
G75*
G02*
X9650000Y-12000000I-50000J0D01*
G01*
X9650000Y-12000000D02*
G75*
G02*
X9750000Y-12000000I50000J0D01*
G01*
X9750000Y-13200000D02*
G75*
G02*
X9650000Y-13200000I-50000J0D01*
G01*
X9650000Y-13200000D02*
G75*
G02*
X9750000Y-13200000I50000J0D01*
G01*
X9750000Y-13454000D02*
G75*
G02*
X9650000Y-13454000I-50000J0D01*
G01*
X9650000Y-13454000D02*
G75*
G02*
X9750000Y-13454000I50000J0D01*
G01*
X9750000Y-13708000D02*
G75*
G02*
X9650000Y-13708000I-50000J0D01*
G01*
X9650000Y-13708000D02*
G75*
G02*
X9750000Y-13708000I50000J0D01*
G01*
X9750000Y-13962000D02*
G75*
G02*
X9650000Y-13962000I-50000J0D01*
G01*
X9650000Y-13962000D02*
G75*
G02*
X9750000Y-13962000I50000J0D01*
G01*
X9750000Y-14216000D02*
G75*
G02*
X9650000Y-14216000I-50000J0D01*
G01*
X9650000Y-14216000D02*
G75*
G02*
X9750000Y-14216000I50000J0D01*
G01*
X9750000Y-14470000D02*
G75*
G02*
X9650000Y-14470000I-50000J0D01*
G01*
X9650000Y-14470000D02*
G75*
G02*
X9750000Y-14470000I50000J0D01*
G01*
D13*
X5770000Y-5395000D02*
X5770000Y-5505000D01*
X5715000Y-5450000D02*
X5825000Y-5450000D01*
D12*
X5825000Y-5485000D02*
X5825000Y-5415000D01*
X5715000Y-5415000D02*
G75*
G02*
X5825000Y-5415000I55000J0D01*
G01*
X5715000Y-5415000D02*
X5715000Y-5485000D01*
X5715000Y-5485000D02*
G75*
G03*
X5825000Y-5485000I55000J0D01*
G01*
D13*
X5770000Y-8145000D02*
X5770000Y-8255000D01*
X5715000Y-8200000D02*
X5825000Y-8200000D01*
D12*
X5825000Y-8235000D02*
X5825000Y-8165000D01*
X5715000Y-8165000D02*
G75*
G02*
X5825000Y-8165000I55000J0D01*
G01*
X5715000Y-8165000D02*
X5715000Y-8235000D01*
X5715000Y-8235000D02*
G75*
G03*
X5825000Y-8235000I55000J0D01*
G01*
D13*
X5770000Y-10895000D02*
X5770000Y-11005000D01*
X5715000Y-10950000D02*
X5825000Y-10950000D01*
D12*
X5825000Y-10985000D02*
X5825000Y-10915000D01*
X5715000Y-10915000D02*
G75*
G02*
X5825000Y-10915000I55000J0D01*
G01*
X5715000Y-10915000D02*
X5715000Y-10985000D01*
X5715000Y-10985000D02*
G75*
G03*
X5825000Y-10985000I55000J0D01*
G01*
D13*
X5770000Y-13645000D02*
X5770000Y-13755000D01*
X5715000Y-13700000D02*
X5825000Y-13700000D01*
D12*
X5825000Y-13735000D02*
X5825000Y-13665000D01*
X5715000Y-13665000D02*
G75*
G02*
X5825000Y-13665000I55000J0D01*
G01*
X5715000Y-13665000D02*
X5715000Y-13735000D01*
X5715000Y-13735000D02*
G75*
G03*
X5825000Y-13735000I55000J0D01*
G01*
D13*
X6730000Y-5395000D02*
X6730000Y-5505000D01*
X6675000Y-5450000D02*
X6785000Y-5450000D01*
D12*
X6785000Y-5485000D02*
X6785000Y-5415000D01*
X6675000Y-5415000D02*
G75*
G02*
X6785000Y-5415000I55000J0D01*
G01*
X6675000Y-5415000D02*
X6675000Y-5485000D01*
X6675000Y-5485000D02*
G75*
G03*
X6785000Y-5485000I55000J0D01*
G01*
D13*
X6730000Y-8145000D02*
X6730000Y-8255000D01*
X6675000Y-8200000D02*
X6785000Y-8200000D01*
D12*
X6785000Y-8235000D02*
X6785000Y-8165000D01*
X6675000Y-8165000D02*
G75*
G02*
X6785000Y-8165000I55000J0D01*
G01*
X6675000Y-8165000D02*
X6675000Y-8235000D01*
X6675000Y-8235000D02*
G75*
G03*
X6785000Y-8235000I55000J0D01*
G01*
D13*
X6730000Y-10895000D02*
X6730000Y-11005000D01*
X6675000Y-10950000D02*
X6785000Y-10950000D01*
D12*
X6785000Y-10985000D02*
X6785000Y-10915000D01*
X6675000Y-10915000D02*
G75*
G02*
X6785000Y-10915000I55000J0D01*
G01*
X6675000Y-10915000D02*
X6675000Y-10985000D01*
X6675000Y-10985000D02*
G75*
G03*
X6785000Y-10985000I55000J0D01*
G01*
D13*
X6730000Y-13645000D02*
X6730000Y-13755000D01*
X6675000Y-13700000D02*
X6785000Y-13700000D01*
D12*
X6785000Y-13735000D02*
X6785000Y-13665000D01*
X6675000Y-13665000D02*
G75*
G02*
X6785000Y-13665000I55000J0D01*
G01*
X6675000Y-13665000D02*
X6675000Y-13735000D01*
X6675000Y-13735000D02*
G75*
G03*
X6785000Y-13735000I55000J0D01*
G01*
D11*
X8240711Y-5520711D02*
X8240711Y-5379289D01*
X8099289Y-5379289D01*
X8099289Y-5520711D01*
X8240711Y-5520711D01*
D12*
X8070000Y-5440000D02*
X8070000Y-5460000D01*
X8270000Y-5460000D02*
G75*
G02*
X8070000Y-5460000I-100000J0D01*
G01*
X8270000Y-5460000D02*
X8270000Y-5440000D01*
X8270000Y-5440000D02*
G75*
G03*
X8070000Y-5440000I-100000J0D01*
G01*
D11*
X8240711Y-8270711D02*
X8240711Y-8129289D01*
X8099289Y-8129289D01*
X8099289Y-8270711D01*
X8240711Y-8270711D01*
D12*
X8070000Y-8190000D02*
X8070000Y-8210000D01*
X8270000Y-8210000D02*
G75*
G02*
X8070000Y-8210000I-100000J0D01*
G01*
X8270000Y-8210000D02*
X8270000Y-8190000D01*
X8270000Y-8190000D02*
G75*
G03*
X8070000Y-8190000I-100000J0D01*
G01*
D11*
X8240711Y-11020711D02*
X8240711Y-10879289D01*
X8099289Y-10879289D01*
X8099289Y-11020711D01*
X8240711Y-11020711D01*
D12*
X8070000Y-10940000D02*
X8070000Y-10960000D01*
X8270000Y-10960000D02*
G75*
G02*
X8070000Y-10960000I-100000J0D01*
G01*
X8270000Y-10960000D02*
X8270000Y-10940000D01*
X8270000Y-10940000D02*
G75*
G03*
X8070000Y-10940000I-100000J0D01*
G01*
D11*
X8240711Y-13770711D02*
X8240711Y-13629289D01*
X8099289Y-13629289D01*
X8099289Y-13770711D01*
X8240711Y-13770711D01*
D12*
X8070000Y-13690000D02*
X8070000Y-13710000D01*
X8270000Y-13710000D02*
G75*
G02*
X8070000Y-13710000I-100000J0D01*
G01*
X8270000Y-13710000D02*
X8270000Y-13690000D01*
X8270000Y-13690000D02*
G75*
G03*
X8070000Y-13690000I-100000J0D01*
G01*
D11*
X9400711Y-5520711D02*
X9400711Y-5379289D01*
X9259289Y-5379289D01*
X9259289Y-5520711D01*
X9400711Y-5520711D01*
D12*
X9230000Y-5440000D02*
X9230000Y-5460000D01*
X9430000Y-5460000D02*
G75*
G02*
X9230000Y-5460000I-100000J0D01*
G01*
X9430000Y-5460000D02*
X9430000Y-5440000D01*
X9430000Y-5440000D02*
G75*
G03*
X9230000Y-5440000I-100000J0D01*
G01*
D11*
X9400711Y-8270711D02*
X9400711Y-8129289D01*
X9259289Y-8129289D01*
X9259289Y-8270711D01*
X9400711Y-8270711D01*
D12*
X9230000Y-8190000D02*
X9230000Y-8210000D01*
X9430000Y-8210000D02*
G75*
G02*
X9230000Y-8210000I-100000J0D01*
G01*
X9430000Y-8210000D02*
X9430000Y-8190000D01*
X9430000Y-8190000D02*
G75*
G03*
X9230000Y-8190000I-100000J0D01*
G01*
D11*
X9400711Y-11020711D02*
X9400711Y-10879289D01*
X9259289Y-10879289D01*
X9259289Y-11020711D01*
X9400711Y-11020711D01*
D12*
X9230000Y-10940000D02*
X9230000Y-10960000D01*
X9430000Y-10960000D02*
G75*
G02*
X9230000Y-10960000I-100000J0D01*
G01*
X9430000Y-10960000D02*
X9430000Y-10940000D01*
X9430000Y-10940000D02*
G75*
G03*
X9230000Y-10940000I-100000J0D01*
G01*
D11*
X9400711Y-13770711D02*
X9400711Y-13629289D01*
X9259289Y-13629289D01*
X9259289Y-13770711D01*
X9400711Y-13770711D01*
D12*
X9230000Y-13690000D02*
X9230000Y-13710000D01*
X9430000Y-13710000D02*
G75*
G02*
X9230000Y-13710000I-100000J0D01*
G01*
X9430000Y-13710000D02*
X9430000Y-13690000D01*
X9430000Y-13690000D02*
G75*
G03*
X9230000Y-13690000I-100000J0D01*
G01*
D11*
X5358277Y-15363984D02*
X5358277Y-15163984D01*
X5358277Y-15163984D02*
X5405896Y-15163984D01*
X5405896Y-15163984D02*
X5434467Y-15173508D01*
X5434467Y-15173508D02*
X5453515Y-15192555D01*
X5453515Y-15192555D02*
X5463039Y-15211603D01*
X5463039Y-15211603D02*
X5472563Y-15249698D01*
X5472563Y-15249698D02*
X5472563Y-15278269D01*
X5472563Y-15278269D02*
X5463039Y-15316365D01*
X5463039Y-15316365D02*
X5453515Y-15335412D01*
X5453515Y-15335412D02*
X5434467Y-15354460D01*
X5434467Y-15354460D02*
X5405896Y-15363984D01*
X5405896Y-15363984D02*
X5358277Y-15363984D01*
X5558277Y-15363984D02*
X5558277Y-15230650D01*
X5558277Y-15268746D02*
X5567801Y-15249698D01*
X5567801Y-15249698D02*
X5577324Y-15240174D01*
X5577324Y-15240174D02*
X5596372Y-15230650D01*
X5596372Y-15230650D02*
X5615420Y-15230650D01*
X5682086Y-15363984D02*
X5682086Y-15230650D01*
X5682086Y-15163984D02*
X5672562Y-15173508D01*
X5672562Y-15173508D02*
X5682086Y-15183031D01*
X5682086Y-15183031D02*
X5691610Y-15173508D01*
X5691610Y-15173508D02*
X5682086Y-15163984D01*
X5682086Y-15163984D02*
X5682086Y-15183031D01*
X5805896Y-15363984D02*
X5786848Y-15354460D01*
X5786848Y-15354460D02*
X5777324Y-15335412D01*
X5777324Y-15335412D02*
X5777324Y-15163984D01*
X5910658Y-15363984D02*
X5891610Y-15354460D01*
X5891610Y-15354460D02*
X5882086Y-15335412D01*
X5882086Y-15335412D02*
X5882086Y-15163984D01*
X6139229Y-15363984D02*
X6139229Y-15163984D01*
X6139229Y-15163984D02*
X6205896Y-15306841D01*
X6205896Y-15306841D02*
X6272562Y-15163984D01*
X6272562Y-15163984D02*
X6272562Y-15363984D01*
X6453515Y-15363984D02*
X6453515Y-15259222D01*
X6453515Y-15259222D02*
X6443991Y-15240174D01*
X6443991Y-15240174D02*
X6424943Y-15230650D01*
X6424943Y-15230650D02*
X6386848Y-15230650D01*
X6386848Y-15230650D02*
X6367801Y-15240174D01*
X6453515Y-15354460D02*
X6434467Y-15363984D01*
X6434467Y-15363984D02*
X6386848Y-15363984D01*
X6386848Y-15363984D02*
X6367801Y-15354460D01*
X6367801Y-15354460D02*
X6358277Y-15335412D01*
X6358277Y-15335412D02*
X6358277Y-15316365D01*
X6358277Y-15316365D02*
X6367801Y-15297317D01*
X6367801Y-15297317D02*
X6386848Y-15287793D01*
X6386848Y-15287793D02*
X6434467Y-15287793D01*
X6434467Y-15287793D02*
X6453515Y-15278269D01*
X6548753Y-15230650D02*
X6548753Y-15430650D01*
X6548753Y-15240174D02*
X6567801Y-15230650D01*
X6567801Y-15230650D02*
X6605896Y-15230650D01*
X6605896Y-15230650D02*
X6624943Y-15240174D01*
X6624943Y-15240174D02*
X6634467Y-15249698D01*
X6634467Y-15249698D02*
X6643991Y-15268746D01*
X6643991Y-15268746D02*
X6643991Y-15325888D01*
X6643991Y-15325888D02*
X6634467Y-15344936D01*
X6634467Y-15344936D02*
X6624943Y-15354460D01*
X6624943Y-15354460D02*
X6605896Y-15363984D01*
X6605896Y-15363984D02*
X6567801Y-15363984D01*
X6567801Y-15363984D02*
X6548753Y-15354460D01*
X6729705Y-15344936D02*
X6739229Y-15354460D01*
X6739229Y-15354460D02*
X6729705Y-15363984D01*
X6729705Y-15363984D02*
X6720182Y-15354460D01*
X6720182Y-15354460D02*
X6729705Y-15344936D01*
X6729705Y-15344936D02*
X6729705Y-15363984D01*
X6729705Y-15240174D02*
X6739229Y-15249698D01*
X6739229Y-15249698D02*
X6729705Y-15259222D01*
X6729705Y-15259222D02*
X6720182Y-15249698D01*
X6720182Y-15249698D02*
X6729705Y-15240174D01*
X6729705Y-15240174D02*
X6729705Y-15259222D01*
D12*
X5017500Y-15652500D02*
X5097500Y-15732500D01*
X5097500Y-15652500D02*
X5017500Y-15732500D01*
D11*
X5396372Y-15583984D02*
X5415420Y-15583984D01*
X5415420Y-15583984D02*
X5434467Y-15593508D01*
X5434467Y-15593508D02*
X5443991Y-15603031D01*
X5443991Y-15603031D02*
X5453515Y-15622079D01*
X5453515Y-15622079D02*
X5463039Y-15660174D01*
X5463039Y-15660174D02*
X5463039Y-15707793D01*
X5463039Y-15707793D02*
X5453515Y-15745888D01*
X5453515Y-15745888D02*
X5443991Y-15764936D01*
X5443991Y-15764936D02*
X5434467Y-15774460D01*
X5434467Y-15774460D02*
X5415420Y-15783984D01*
X5415420Y-15783984D02*
X5396372Y-15783984D01*
X5396372Y-15783984D02*
X5377324Y-15774460D01*
X5377324Y-15774460D02*
X5367801Y-15764936D01*
X5367801Y-15764936D02*
X5358277Y-15745888D01*
X5358277Y-15745888D02*
X5348753Y-15707793D01*
X5348753Y-15707793D02*
X5348753Y-15660174D01*
X5348753Y-15660174D02*
X5358277Y-15622079D01*
X5358277Y-15622079D02*
X5367801Y-15603031D01*
X5367801Y-15603031D02*
X5377324Y-15593508D01*
X5377324Y-15593508D02*
X5396372Y-15583984D01*
X5548753Y-15764936D02*
X5558277Y-15774460D01*
X5558277Y-15774460D02*
X5548753Y-15783984D01*
X5548753Y-15783984D02*
X5539229Y-15774460D01*
X5539229Y-15774460D02*
X5548753Y-15764936D01*
X5548753Y-15764936D02*
X5548753Y-15783984D01*
X5672562Y-15669698D02*
X5653515Y-15660174D01*
X5653515Y-15660174D02*
X5643991Y-15650650D01*
X5643991Y-15650650D02*
X5634467Y-15631603D01*
X5634467Y-15631603D02*
X5634467Y-15622079D01*
X5634467Y-15622079D02*
X5643991Y-15603031D01*
X5643991Y-15603031D02*
X5653515Y-15593508D01*
X5653515Y-15593508D02*
X5672562Y-15583984D01*
X5672562Y-15583984D02*
X5710658Y-15583984D01*
X5710658Y-15583984D02*
X5729705Y-15593508D01*
X5729705Y-15593508D02*
X5739229Y-15603031D01*
X5739229Y-15603031D02*
X5748753Y-15622079D01*
X5748753Y-15622079D02*
X5748753Y-15631603D01*
X5748753Y-15631603D02*
X5739229Y-15650650D01*
X5739229Y-15650650D02*
X5729705Y-15660174D01*
X5729705Y-15660174D02*
X5710658Y-15669698D01*
X5710658Y-15669698D02*
X5672562Y-15669698D01*
X5672562Y-15669698D02*
X5653515Y-15679222D01*
X5653515Y-15679222D02*
X5643991Y-15688746D01*
X5643991Y-15688746D02*
X5634467Y-15707793D01*
X5634467Y-15707793D02*
X5634467Y-15745888D01*
X5634467Y-15745888D02*
X5643991Y-15764936D01*
X5643991Y-15764936D02*
X5653515Y-15774460D01*
X5653515Y-15774460D02*
X5672562Y-15783984D01*
X5672562Y-15783984D02*
X5710658Y-15783984D01*
X5710658Y-15783984D02*
X5729705Y-15774460D01*
X5729705Y-15774460D02*
X5739229Y-15764936D01*
X5739229Y-15764936D02*
X5748753Y-15745888D01*
X5748753Y-15745888D02*
X5748753Y-15707793D01*
X5748753Y-15707793D02*
X5739229Y-15688746D01*
X5739229Y-15688746D02*
X5729705Y-15679222D01*
X5729705Y-15679222D02*
X5710658Y-15669698D01*
X5872562Y-15583984D02*
X5891610Y-15583984D01*
X5891610Y-15583984D02*
X5910658Y-15593508D01*
X5910658Y-15593508D02*
X5920182Y-15603031D01*
X5920182Y-15603031D02*
X5929705Y-15622079D01*
X5929705Y-15622079D02*
X5939229Y-15660174D01*
X5939229Y-15660174D02*
X5939229Y-15707793D01*
X5939229Y-15707793D02*
X5929705Y-15745888D01*
X5929705Y-15745888D02*
X5920182Y-15764936D01*
X5920182Y-15764936D02*
X5910658Y-15774460D01*
X5910658Y-15774460D02*
X5891610Y-15783984D01*
X5891610Y-15783984D02*
X5872562Y-15783984D01*
X5872562Y-15783984D02*
X5853515Y-15774460D01*
X5853515Y-15774460D02*
X5843991Y-15764936D01*
X5843991Y-15764936D02*
X5834467Y-15745888D01*
X5834467Y-15745888D02*
X5824943Y-15707793D01*
X5824943Y-15707793D02*
X5824943Y-15660174D01*
X5824943Y-15660174D02*
X5834467Y-15622079D01*
X5834467Y-15622079D02*
X5843991Y-15603031D01*
X5843991Y-15603031D02*
X5853515Y-15593508D01*
X5853515Y-15593508D02*
X5872562Y-15583984D01*
X6063039Y-15583984D02*
X6082086Y-15583984D01*
X6082086Y-15583984D02*
X6101134Y-15593508D01*
X6101134Y-15593508D02*
X6110658Y-15603031D01*
X6110658Y-15603031D02*
X6120182Y-15622079D01*
X6120182Y-15622079D02*
X6129705Y-15660174D01*
X6129705Y-15660174D02*
X6129705Y-15707793D01*
X6129705Y-15707793D02*
X6120182Y-15745888D01*
X6120182Y-15745888D02*
X6110658Y-15764936D01*
X6110658Y-15764936D02*
X6101134Y-15774460D01*
X6101134Y-15774460D02*
X6082086Y-15783984D01*
X6082086Y-15783984D02*
X6063039Y-15783984D01*
X6063039Y-15783984D02*
X6043991Y-15774460D01*
X6043991Y-15774460D02*
X6034467Y-15764936D01*
X6034467Y-15764936D02*
X6024943Y-15745888D01*
X6024943Y-15745888D02*
X6015420Y-15707793D01*
X6015420Y-15707793D02*
X6015420Y-15660174D01*
X6015420Y-15660174D02*
X6024943Y-15622079D01*
X6024943Y-15622079D02*
X6034467Y-15603031D01*
X6034467Y-15603031D02*
X6043991Y-15593508D01*
X6043991Y-15593508D02*
X6063039Y-15583984D01*
X6215420Y-15783984D02*
X6215420Y-15650650D01*
X6215420Y-15669698D02*
X6224943Y-15660174D01*
X6224943Y-15660174D02*
X6243991Y-15650650D01*
X6243991Y-15650650D02*
X6272563Y-15650650D01*
X6272563Y-15650650D02*
X6291610Y-15660174D01*
X6291610Y-15660174D02*
X6301134Y-15679222D01*
X6301134Y-15679222D02*
X6301134Y-15783984D01*
X6301134Y-15679222D02*
X6310658Y-15660174D01*
X6310658Y-15660174D02*
X6329705Y-15650650D01*
X6329705Y-15650650D02*
X6358277Y-15650650D01*
X6358277Y-15650650D02*
X6377324Y-15660174D01*
X6377324Y-15660174D02*
X6386848Y-15679222D01*
X6386848Y-15679222D02*
X6386848Y-15783984D01*
X6482086Y-15783984D02*
X6482086Y-15650650D01*
X6482086Y-15669698D02*
X6491610Y-15660174D01*
X6491610Y-15660174D02*
X6510658Y-15650650D01*
X6510658Y-15650650D02*
X6539229Y-15650650D01*
X6539229Y-15650650D02*
X6558277Y-15660174D01*
X6558277Y-15660174D02*
X6567801Y-15679222D01*
X6567801Y-15679222D02*
X6567801Y-15783984D01*
X6567801Y-15679222D02*
X6577324Y-15660174D01*
X6577324Y-15660174D02*
X6596372Y-15650650D01*
X6596372Y-15650650D02*
X6624943Y-15650650D01*
X6624943Y-15650650D02*
X6643991Y-15660174D01*
X6643991Y-15660174D02*
X6653515Y-15679222D01*
X6653515Y-15679222D02*
X6653515Y-15783984D01*
X7043991Y-15574460D02*
X6872563Y-15831603D01*
X7301134Y-15583984D02*
X7320182Y-15583984D01*
X7320182Y-15583984D02*
X7339229Y-15593508D01*
X7339229Y-15593508D02*
X7348753Y-15603031D01*
X7348753Y-15603031D02*
X7358277Y-15622079D01*
X7358277Y-15622079D02*
X7367801Y-15660174D01*
X7367801Y-15660174D02*
X7367801Y-15707793D01*
X7367801Y-15707793D02*
X7358277Y-15745888D01*
X7358277Y-15745888D02*
X7348753Y-15764936D01*
X7348753Y-15764936D02*
X7339229Y-15774460D01*
X7339229Y-15774460D02*
X7320182Y-15783984D01*
X7320182Y-15783984D02*
X7301134Y-15783984D01*
X7301134Y-15783984D02*
X7282086Y-15774460D01*
X7282086Y-15774460D02*
X7272563Y-15764936D01*
X7272563Y-15764936D02*
X7263039Y-15745888D01*
X7263039Y-15745888D02*
X7253515Y-15707793D01*
X7253515Y-15707793D02*
X7253515Y-15660174D01*
X7253515Y-15660174D02*
X7263039Y-15622079D01*
X7263039Y-15622079D02*
X7272563Y-15603031D01*
X7272563Y-15603031D02*
X7282086Y-15593508D01*
X7282086Y-15593508D02*
X7301134Y-15583984D01*
X7453515Y-15764936D02*
X7463039Y-15774460D01*
X7463039Y-15774460D02*
X7453515Y-15783984D01*
X7453515Y-15783984D02*
X7443991Y-15774460D01*
X7443991Y-15774460D02*
X7453515Y-15764936D01*
X7453515Y-15764936D02*
X7453515Y-15783984D01*
X7586848Y-15583984D02*
X7605896Y-15583984D01*
X7605896Y-15583984D02*
X7624944Y-15593508D01*
X7624944Y-15593508D02*
X7634467Y-15603031D01*
X7634467Y-15603031D02*
X7643991Y-15622079D01*
X7643991Y-15622079D02*
X7653515Y-15660174D01*
X7653515Y-15660174D02*
X7653515Y-15707793D01*
X7653515Y-15707793D02*
X7643991Y-15745888D01*
X7643991Y-15745888D02*
X7634467Y-15764936D01*
X7634467Y-15764936D02*
X7624944Y-15774460D01*
X7624944Y-15774460D02*
X7605896Y-15783984D01*
X7605896Y-15783984D02*
X7586848Y-15783984D01*
X7586848Y-15783984D02*
X7567801Y-15774460D01*
X7567801Y-15774460D02*
X7558277Y-15764936D01*
X7558277Y-15764936D02*
X7548753Y-15745888D01*
X7548753Y-15745888D02*
X7539229Y-15707793D01*
X7539229Y-15707793D02*
X7539229Y-15660174D01*
X7539229Y-15660174D02*
X7548753Y-15622079D01*
X7548753Y-15622079D02*
X7558277Y-15603031D01*
X7558277Y-15603031D02*
X7567801Y-15593508D01*
X7567801Y-15593508D02*
X7586848Y-15583984D01*
X7720182Y-15583984D02*
X7843991Y-15583984D01*
X7843991Y-15583984D02*
X7777325Y-15660174D01*
X7777325Y-15660174D02*
X7805896Y-15660174D01*
X7805896Y-15660174D02*
X7824944Y-15669698D01*
X7824944Y-15669698D02*
X7834467Y-15679222D01*
X7834467Y-15679222D02*
X7843991Y-15698269D01*
X7843991Y-15698269D02*
X7843991Y-15745888D01*
X7843991Y-15745888D02*
X7834467Y-15764936D01*
X7834467Y-15764936D02*
X7824944Y-15774460D01*
X7824944Y-15774460D02*
X7805896Y-15783984D01*
X7805896Y-15783984D02*
X7748753Y-15783984D01*
X7748753Y-15783984D02*
X7729706Y-15774460D01*
X7729706Y-15774460D02*
X7720182Y-15764936D01*
X8034467Y-15783984D02*
X7920182Y-15783984D01*
X7977325Y-15783984D02*
X7977325Y-15583984D01*
X7977325Y-15583984D02*
X7958277Y-15612555D01*
X7958277Y-15612555D02*
X7939229Y-15631603D01*
X7939229Y-15631603D02*
X7920182Y-15641127D01*
X8215420Y-15583984D02*
X8120182Y-15583984D01*
X8120182Y-15583984D02*
X8110658Y-15679222D01*
X8110658Y-15679222D02*
X8120182Y-15669698D01*
X8120182Y-15669698D02*
X8139229Y-15660174D01*
X8139229Y-15660174D02*
X8186848Y-15660174D01*
X8186848Y-15660174D02*
X8205896Y-15669698D01*
X8205896Y-15669698D02*
X8215420Y-15679222D01*
X8215420Y-15679222D02*
X8224944Y-15698269D01*
X8224944Y-15698269D02*
X8224944Y-15745888D01*
X8224944Y-15745888D02*
X8215420Y-15764936D01*
X8215420Y-15764936D02*
X8205896Y-15774460D01*
X8205896Y-15774460D02*
X8186848Y-15783984D01*
X8186848Y-15783984D02*
X8139229Y-15783984D01*
X8139229Y-15783984D02*
X8120182Y-15774460D01*
X8120182Y-15774460D02*
X8110658Y-15764936D01*
X8301134Y-15583984D02*
X8301134Y-15622079D01*
X8377325Y-15583984D02*
X8377325Y-15622079D01*
X8672563Y-15860174D02*
X8663039Y-15850650D01*
X8663039Y-15850650D02*
X8643991Y-15822079D01*
X8643991Y-15822079D02*
X8634468Y-15803031D01*
X8634468Y-15803031D02*
X8624944Y-15774460D01*
X8624944Y-15774460D02*
X8615420Y-15726841D01*
X8615420Y-15726841D02*
X8615420Y-15688746D01*
X8615420Y-15688746D02*
X8624944Y-15641127D01*
X8624944Y-15641127D02*
X8634468Y-15612555D01*
X8634468Y-15612555D02*
X8643991Y-15593508D01*
X8643991Y-15593508D02*
X8663039Y-15564936D01*
X8663039Y-15564936D02*
X8672563Y-15555412D01*
X8777325Y-15669698D02*
X8758277Y-15660174D01*
X8758277Y-15660174D02*
X8748753Y-15650650D01*
X8748753Y-15650650D02*
X8739230Y-15631603D01*
X8739230Y-15631603D02*
X8739230Y-15622079D01*
X8739230Y-15622079D02*
X8748753Y-15603031D01*
X8748753Y-15603031D02*
X8758277Y-15593508D01*
X8758277Y-15593508D02*
X8777325Y-15583984D01*
X8777325Y-15583984D02*
X8815420Y-15583984D01*
X8815420Y-15583984D02*
X8834468Y-15593508D01*
X8834468Y-15593508D02*
X8843991Y-15603031D01*
X8843991Y-15603031D02*
X8853515Y-15622079D01*
X8853515Y-15622079D02*
X8853515Y-15631603D01*
X8853515Y-15631603D02*
X8843991Y-15650650D01*
X8843991Y-15650650D02*
X8834468Y-15660174D01*
X8834468Y-15660174D02*
X8815420Y-15669698D01*
X8815420Y-15669698D02*
X8777325Y-15669698D01*
X8777325Y-15669698D02*
X8758277Y-15679222D01*
X8758277Y-15679222D02*
X8748753Y-15688746D01*
X8748753Y-15688746D02*
X8739230Y-15707793D01*
X8739230Y-15707793D02*
X8739230Y-15745888D01*
X8739230Y-15745888D02*
X8748753Y-15764936D01*
X8748753Y-15764936D02*
X8758277Y-15774460D01*
X8758277Y-15774460D02*
X8777325Y-15783984D01*
X8777325Y-15783984D02*
X8815420Y-15783984D01*
X8815420Y-15783984D02*
X8834468Y-15774460D01*
X8834468Y-15774460D02*
X8843991Y-15764936D01*
X8843991Y-15764936D02*
X8853515Y-15745888D01*
X8853515Y-15745888D02*
X8853515Y-15707793D01*
X8853515Y-15707793D02*
X8843991Y-15688746D01*
X8843991Y-15688746D02*
X8834468Y-15679222D01*
X8834468Y-15679222D02*
X8815420Y-15669698D01*
X9091611Y-15783984D02*
X9091611Y-15583984D01*
X9177325Y-15783984D02*
X9177325Y-15679222D01*
X9177325Y-15679222D02*
X9167801Y-15660174D01*
X9167801Y-15660174D02*
X9148753Y-15650650D01*
X9148753Y-15650650D02*
X9120182Y-15650650D01*
X9120182Y-15650650D02*
X9101134Y-15660174D01*
X9101134Y-15660174D02*
X9091611Y-15669698D01*
X9301134Y-15783984D02*
X9282087Y-15774460D01*
X9282087Y-15774460D02*
X9272563Y-15764936D01*
X9272563Y-15764936D02*
X9263039Y-15745888D01*
X9263039Y-15745888D02*
X9263039Y-15688746D01*
X9263039Y-15688746D02*
X9272563Y-15669698D01*
X9272563Y-15669698D02*
X9282087Y-15660174D01*
X9282087Y-15660174D02*
X9301134Y-15650650D01*
X9301134Y-15650650D02*
X9329706Y-15650650D01*
X9329706Y-15650650D02*
X9348753Y-15660174D01*
X9348753Y-15660174D02*
X9358277Y-15669698D01*
X9358277Y-15669698D02*
X9367801Y-15688746D01*
X9367801Y-15688746D02*
X9367801Y-15745888D01*
X9367801Y-15745888D02*
X9358277Y-15764936D01*
X9358277Y-15764936D02*
X9348753Y-15774460D01*
X9348753Y-15774460D02*
X9329706Y-15783984D01*
X9329706Y-15783984D02*
X9301134Y-15783984D01*
X9482087Y-15783984D02*
X9463039Y-15774460D01*
X9463039Y-15774460D02*
X9453515Y-15755412D01*
X9453515Y-15755412D02*
X9453515Y-15583984D01*
X9634468Y-15774460D02*
X9615420Y-15783984D01*
X9615420Y-15783984D02*
X9577325Y-15783984D01*
X9577325Y-15783984D02*
X9558277Y-15774460D01*
X9558277Y-15774460D02*
X9548753Y-15755412D01*
X9548753Y-15755412D02*
X9548753Y-15679222D01*
X9548753Y-15679222D02*
X9558277Y-15660174D01*
X9558277Y-15660174D02*
X9577325Y-15650650D01*
X9577325Y-15650650D02*
X9615420Y-15650650D01*
X9615420Y-15650650D02*
X9634468Y-15660174D01*
X9634468Y-15660174D02*
X9643992Y-15679222D01*
X9643992Y-15679222D02*
X9643992Y-15698269D01*
X9643992Y-15698269D02*
X9548753Y-15717317D01*
X9720182Y-15774460D02*
X9739230Y-15783984D01*
X9739230Y-15783984D02*
X9777325Y-15783984D01*
X9777325Y-15783984D02*
X9796373Y-15774460D01*
X9796373Y-15774460D02*
X9805896Y-15755412D01*
X9805896Y-15755412D02*
X9805896Y-15745888D01*
X9805896Y-15745888D02*
X9796373Y-15726841D01*
X9796373Y-15726841D02*
X9777325Y-15717317D01*
X9777325Y-15717317D02*
X9748753Y-15717317D01*
X9748753Y-15717317D02*
X9729706Y-15707793D01*
X9729706Y-15707793D02*
X9720182Y-15688746D01*
X9720182Y-15688746D02*
X9720182Y-15679222D01*
X9720182Y-15679222D02*
X9729706Y-15660174D01*
X9729706Y-15660174D02*
X9748753Y-15650650D01*
X9748753Y-15650650D02*
X9777325Y-15650650D01*
X9777325Y-15650650D02*
X9796373Y-15660174D01*
X9872563Y-15860174D02*
X9882087Y-15850650D01*
X9882087Y-15850650D02*
X9901134Y-15822079D01*
X9901134Y-15822079D02*
X9910658Y-15803031D01*
X9910658Y-15803031D02*
X9920182Y-15774460D01*
X9920182Y-15774460D02*
X9929706Y-15726841D01*
X9929706Y-15726841D02*
X9929706Y-15688746D01*
X9929706Y-15688746D02*
X9920182Y-15641127D01*
X9920182Y-15641127D02*
X9910658Y-15612555D01*
X9910658Y-15612555D02*
X9901134Y-15593508D01*
X9901134Y-15593508D02*
X9882087Y-15564936D01*
X9882087Y-15564936D02*
X9872563Y-15555412D01*
D12*
X5097500Y-15956500D02*
G75*
G02*
X4997500Y-15956500I-50000J0D01*
G01*
X4997500Y-15956500D02*
G75*
G02*
X5097500Y-15956500I50000J0D01*
G01*
D11*
X5463039Y-16047984D02*
X5348753Y-16047984D01*
X5405896Y-16047984D02*
X5405896Y-15847984D01*
X5405896Y-15847984D02*
X5386848Y-15876555D01*
X5386848Y-15876555D02*
X5367801Y-15895603D01*
X5367801Y-15895603D02*
X5348753Y-15905127D01*
X5548753Y-16028936D02*
X5558277Y-16038460D01*
X5558277Y-16038460D02*
X5548753Y-16047984D01*
X5548753Y-16047984D02*
X5539229Y-16038460D01*
X5539229Y-16038460D02*
X5548753Y-16028936D01*
X5548753Y-16028936D02*
X5548753Y-16047984D01*
X5682086Y-15847984D02*
X5701134Y-15847984D01*
X5701134Y-15847984D02*
X5720182Y-15857508D01*
X5720182Y-15857508D02*
X5729705Y-15867031D01*
X5729705Y-15867031D02*
X5739229Y-15886079D01*
X5739229Y-15886079D02*
X5748753Y-15924174D01*
X5748753Y-15924174D02*
X5748753Y-15971793D01*
X5748753Y-15971793D02*
X5739229Y-16009888D01*
X5739229Y-16009888D02*
X5729705Y-16028936D01*
X5729705Y-16028936D02*
X5720182Y-16038460D01*
X5720182Y-16038460D02*
X5701134Y-16047984D01*
X5701134Y-16047984D02*
X5682086Y-16047984D01*
X5682086Y-16047984D02*
X5663039Y-16038460D01*
X5663039Y-16038460D02*
X5653515Y-16028936D01*
X5653515Y-16028936D02*
X5643991Y-16009888D01*
X5643991Y-16009888D02*
X5634467Y-15971793D01*
X5634467Y-15971793D02*
X5634467Y-15924174D01*
X5634467Y-15924174D02*
X5643991Y-15886079D01*
X5643991Y-15886079D02*
X5653515Y-15867031D01*
X5653515Y-15867031D02*
X5663039Y-15857508D01*
X5663039Y-15857508D02*
X5682086Y-15847984D01*
X5872562Y-15847984D02*
X5891610Y-15847984D01*
X5891610Y-15847984D02*
X5910658Y-15857508D01*
X5910658Y-15857508D02*
X5920182Y-15867031D01*
X5920182Y-15867031D02*
X5929705Y-15886079D01*
X5929705Y-15886079D02*
X5939229Y-15924174D01*
X5939229Y-15924174D02*
X5939229Y-15971793D01*
X5939229Y-15971793D02*
X5929705Y-16009888D01*
X5929705Y-16009888D02*
X5920182Y-16028936D01*
X5920182Y-16028936D02*
X5910658Y-16038460D01*
X5910658Y-16038460D02*
X5891610Y-16047984D01*
X5891610Y-16047984D02*
X5872562Y-16047984D01*
X5872562Y-16047984D02*
X5853515Y-16038460D01*
X5853515Y-16038460D02*
X5843991Y-16028936D01*
X5843991Y-16028936D02*
X5834467Y-16009888D01*
X5834467Y-16009888D02*
X5824943Y-15971793D01*
X5824943Y-15971793D02*
X5824943Y-15924174D01*
X5824943Y-15924174D02*
X5834467Y-15886079D01*
X5834467Y-15886079D02*
X5843991Y-15867031D01*
X5843991Y-15867031D02*
X5853515Y-15857508D01*
X5853515Y-15857508D02*
X5872562Y-15847984D01*
X6063039Y-15847984D02*
X6082086Y-15847984D01*
X6082086Y-15847984D02*
X6101134Y-15857508D01*
X6101134Y-15857508D02*
X6110658Y-15867031D01*
X6110658Y-15867031D02*
X6120182Y-15886079D01*
X6120182Y-15886079D02*
X6129705Y-15924174D01*
X6129705Y-15924174D02*
X6129705Y-15971793D01*
X6129705Y-15971793D02*
X6120182Y-16009888D01*
X6120182Y-16009888D02*
X6110658Y-16028936D01*
X6110658Y-16028936D02*
X6101134Y-16038460D01*
X6101134Y-16038460D02*
X6082086Y-16047984D01*
X6082086Y-16047984D02*
X6063039Y-16047984D01*
X6063039Y-16047984D02*
X6043991Y-16038460D01*
X6043991Y-16038460D02*
X6034467Y-16028936D01*
X6034467Y-16028936D02*
X6024943Y-16009888D01*
X6024943Y-16009888D02*
X6015420Y-15971793D01*
X6015420Y-15971793D02*
X6015420Y-15924174D01*
X6015420Y-15924174D02*
X6024943Y-15886079D01*
X6024943Y-15886079D02*
X6034467Y-15867031D01*
X6034467Y-15867031D02*
X6043991Y-15857508D01*
X6043991Y-15857508D02*
X6063039Y-15847984D01*
X6215420Y-16047984D02*
X6215420Y-15914650D01*
X6215420Y-15933698D02*
X6224943Y-15924174D01*
X6224943Y-15924174D02*
X6243991Y-15914650D01*
X6243991Y-15914650D02*
X6272563Y-15914650D01*
X6272563Y-15914650D02*
X6291610Y-15924174D01*
X6291610Y-15924174D02*
X6301134Y-15943222D01*
X6301134Y-15943222D02*
X6301134Y-16047984D01*
X6301134Y-15943222D02*
X6310658Y-15924174D01*
X6310658Y-15924174D02*
X6329705Y-15914650D01*
X6329705Y-15914650D02*
X6358277Y-15914650D01*
X6358277Y-15914650D02*
X6377324Y-15924174D01*
X6377324Y-15924174D02*
X6386848Y-15943222D01*
X6386848Y-15943222D02*
X6386848Y-16047984D01*
X6482086Y-16047984D02*
X6482086Y-15914650D01*
X6482086Y-15933698D02*
X6491610Y-15924174D01*
X6491610Y-15924174D02*
X6510658Y-15914650D01*
X6510658Y-15914650D02*
X6539229Y-15914650D01*
X6539229Y-15914650D02*
X6558277Y-15924174D01*
X6558277Y-15924174D02*
X6567801Y-15943222D01*
X6567801Y-15943222D02*
X6567801Y-16047984D01*
X6567801Y-15943222D02*
X6577324Y-15924174D01*
X6577324Y-15924174D02*
X6596372Y-15914650D01*
X6596372Y-15914650D02*
X6624943Y-15914650D01*
X6624943Y-15914650D02*
X6643991Y-15924174D01*
X6643991Y-15924174D02*
X6653515Y-15943222D01*
X6653515Y-15943222D02*
X6653515Y-16047984D01*
X7043991Y-15838460D02*
X6872563Y-16095603D01*
X7301134Y-15847984D02*
X7320182Y-15847984D01*
X7320182Y-15847984D02*
X7339229Y-15857508D01*
X7339229Y-15857508D02*
X7348753Y-15867031D01*
X7348753Y-15867031D02*
X7358277Y-15886079D01*
X7358277Y-15886079D02*
X7367801Y-15924174D01*
X7367801Y-15924174D02*
X7367801Y-15971793D01*
X7367801Y-15971793D02*
X7358277Y-16009888D01*
X7358277Y-16009888D02*
X7348753Y-16028936D01*
X7348753Y-16028936D02*
X7339229Y-16038460D01*
X7339229Y-16038460D02*
X7320182Y-16047984D01*
X7320182Y-16047984D02*
X7301134Y-16047984D01*
X7301134Y-16047984D02*
X7282086Y-16038460D01*
X7282086Y-16038460D02*
X7272563Y-16028936D01*
X7272563Y-16028936D02*
X7263039Y-16009888D01*
X7263039Y-16009888D02*
X7253515Y-15971793D01*
X7253515Y-15971793D02*
X7253515Y-15924174D01*
X7253515Y-15924174D02*
X7263039Y-15886079D01*
X7263039Y-15886079D02*
X7272563Y-15867031D01*
X7272563Y-15867031D02*
X7282086Y-15857508D01*
X7282086Y-15857508D02*
X7301134Y-15847984D01*
X7453515Y-16028936D02*
X7463039Y-16038460D01*
X7463039Y-16038460D02*
X7453515Y-16047984D01*
X7453515Y-16047984D02*
X7443991Y-16038460D01*
X7443991Y-16038460D02*
X7453515Y-16028936D01*
X7453515Y-16028936D02*
X7453515Y-16047984D01*
X7586848Y-15847984D02*
X7605896Y-15847984D01*
X7605896Y-15847984D02*
X7624944Y-15857508D01*
X7624944Y-15857508D02*
X7634467Y-15867031D01*
X7634467Y-15867031D02*
X7643991Y-15886079D01*
X7643991Y-15886079D02*
X7653515Y-15924174D01*
X7653515Y-15924174D02*
X7653515Y-15971793D01*
X7653515Y-15971793D02*
X7643991Y-16009888D01*
X7643991Y-16009888D02*
X7634467Y-16028936D01*
X7634467Y-16028936D02*
X7624944Y-16038460D01*
X7624944Y-16038460D02*
X7605896Y-16047984D01*
X7605896Y-16047984D02*
X7586848Y-16047984D01*
X7586848Y-16047984D02*
X7567801Y-16038460D01*
X7567801Y-16038460D02*
X7558277Y-16028936D01*
X7558277Y-16028936D02*
X7548753Y-16009888D01*
X7548753Y-16009888D02*
X7539229Y-15971793D01*
X7539229Y-15971793D02*
X7539229Y-15924174D01*
X7539229Y-15924174D02*
X7548753Y-15886079D01*
X7548753Y-15886079D02*
X7558277Y-15867031D01*
X7558277Y-15867031D02*
X7567801Y-15857508D01*
X7567801Y-15857508D02*
X7586848Y-15847984D01*
X7720182Y-15847984D02*
X7843991Y-15847984D01*
X7843991Y-15847984D02*
X7777325Y-15924174D01*
X7777325Y-15924174D02*
X7805896Y-15924174D01*
X7805896Y-15924174D02*
X7824944Y-15933698D01*
X7824944Y-15933698D02*
X7834467Y-15943222D01*
X7834467Y-15943222D02*
X7843991Y-15962269D01*
X7843991Y-15962269D02*
X7843991Y-16009888D01*
X7843991Y-16009888D02*
X7834467Y-16028936D01*
X7834467Y-16028936D02*
X7824944Y-16038460D01*
X7824944Y-16038460D02*
X7805896Y-16047984D01*
X7805896Y-16047984D02*
X7748753Y-16047984D01*
X7748753Y-16047984D02*
X7729706Y-16038460D01*
X7729706Y-16038460D02*
X7720182Y-16028936D01*
X7939229Y-16047984D02*
X7977325Y-16047984D01*
X7977325Y-16047984D02*
X7996372Y-16038460D01*
X7996372Y-16038460D02*
X8005896Y-16028936D01*
X8005896Y-16028936D02*
X8024944Y-16000365D01*
X8024944Y-16000365D02*
X8034467Y-15962269D01*
X8034467Y-15962269D02*
X8034467Y-15886079D01*
X8034467Y-15886079D02*
X8024944Y-15867031D01*
X8024944Y-15867031D02*
X8015420Y-15857508D01*
X8015420Y-15857508D02*
X7996372Y-15847984D01*
X7996372Y-15847984D02*
X7958277Y-15847984D01*
X7958277Y-15847984D02*
X7939229Y-15857508D01*
X7939229Y-15857508D02*
X7929706Y-15867031D01*
X7929706Y-15867031D02*
X7920182Y-15886079D01*
X7920182Y-15886079D02*
X7920182Y-15933698D01*
X7920182Y-15933698D02*
X7929706Y-15952746D01*
X7929706Y-15952746D02*
X7939229Y-15962269D01*
X7939229Y-15962269D02*
X7958277Y-15971793D01*
X7958277Y-15971793D02*
X7996372Y-15971793D01*
X7996372Y-15971793D02*
X8015420Y-15962269D01*
X8015420Y-15962269D02*
X8024944Y-15952746D01*
X8024944Y-15952746D02*
X8034467Y-15933698D01*
X8205896Y-15914650D02*
X8205896Y-16047984D01*
X8158277Y-15838460D02*
X8110658Y-15981317D01*
X8110658Y-15981317D02*
X8234467Y-15981317D01*
X8301134Y-15847984D02*
X8301134Y-15886079D01*
X8377325Y-15847984D02*
X8377325Y-15886079D01*
X8672563Y-16124174D02*
X8663039Y-16114650D01*
X8663039Y-16114650D02*
X8643991Y-16086079D01*
X8643991Y-16086079D02*
X8634468Y-16067031D01*
X8634468Y-16067031D02*
X8624944Y-16038460D01*
X8624944Y-16038460D02*
X8615420Y-15990841D01*
X8615420Y-15990841D02*
X8615420Y-15952746D01*
X8615420Y-15952746D02*
X8624944Y-15905127D01*
X8624944Y-15905127D02*
X8634468Y-15876555D01*
X8634468Y-15876555D02*
X8643991Y-15857508D01*
X8643991Y-15857508D02*
X8663039Y-15828936D01*
X8663039Y-15828936D02*
X8672563Y-15819412D01*
X8843991Y-15847984D02*
X8748753Y-15847984D01*
X8748753Y-15847984D02*
X8739230Y-15943222D01*
X8739230Y-15943222D02*
X8748753Y-15933698D01*
X8748753Y-15933698D02*
X8767801Y-15924174D01*
X8767801Y-15924174D02*
X8815420Y-15924174D01*
X8815420Y-15924174D02*
X8834468Y-15933698D01*
X8834468Y-15933698D02*
X8843991Y-15943222D01*
X8843991Y-15943222D02*
X8853515Y-15962269D01*
X8853515Y-15962269D02*
X8853515Y-16009888D01*
X8853515Y-16009888D02*
X8843991Y-16028936D01*
X8843991Y-16028936D02*
X8834468Y-16038460D01*
X8834468Y-16038460D02*
X8815420Y-16047984D01*
X8815420Y-16047984D02*
X8767801Y-16047984D01*
X8767801Y-16047984D02*
X8748753Y-16038460D01*
X8748753Y-16038460D02*
X8739230Y-16028936D01*
X8920182Y-15847984D02*
X9043991Y-15847984D01*
X9043991Y-15847984D02*
X8977325Y-15924174D01*
X8977325Y-15924174D02*
X9005896Y-15924174D01*
X9005896Y-15924174D02*
X9024944Y-15933698D01*
X9024944Y-15933698D02*
X9034468Y-15943222D01*
X9034468Y-15943222D02*
X9043991Y-15962269D01*
X9043991Y-15962269D02*
X9043991Y-16009888D01*
X9043991Y-16009888D02*
X9034468Y-16028936D01*
X9034468Y-16028936D02*
X9024944Y-16038460D01*
X9024944Y-16038460D02*
X9005896Y-16047984D01*
X9005896Y-16047984D02*
X8948753Y-16047984D01*
X8948753Y-16047984D02*
X8929706Y-16038460D01*
X8929706Y-16038460D02*
X8920182Y-16028936D01*
X9282087Y-16047984D02*
X9282087Y-15847984D01*
X9367801Y-16047984D02*
X9367801Y-15943222D01*
X9367801Y-15943222D02*
X9358277Y-15924174D01*
X9358277Y-15924174D02*
X9339230Y-15914650D01*
X9339230Y-15914650D02*
X9310658Y-15914650D01*
X9310658Y-15914650D02*
X9291611Y-15924174D01*
X9291611Y-15924174D02*
X9282087Y-15933698D01*
X9491611Y-16047984D02*
X9472563Y-16038460D01*
X9472563Y-16038460D02*
X9463039Y-16028936D01*
X9463039Y-16028936D02*
X9453515Y-16009888D01*
X9453515Y-16009888D02*
X9453515Y-15952746D01*
X9453515Y-15952746D02*
X9463039Y-15933698D01*
X9463039Y-15933698D02*
X9472563Y-15924174D01*
X9472563Y-15924174D02*
X9491611Y-15914650D01*
X9491611Y-15914650D02*
X9520182Y-15914650D01*
X9520182Y-15914650D02*
X9539230Y-15924174D01*
X9539230Y-15924174D02*
X9548753Y-15933698D01*
X9548753Y-15933698D02*
X9558277Y-15952746D01*
X9558277Y-15952746D02*
X9558277Y-16009888D01*
X9558277Y-16009888D02*
X9548753Y-16028936D01*
X9548753Y-16028936D02*
X9539230Y-16038460D01*
X9539230Y-16038460D02*
X9520182Y-16047984D01*
X9520182Y-16047984D02*
X9491611Y-16047984D01*
X9672563Y-16047984D02*
X9653515Y-16038460D01*
X9653515Y-16038460D02*
X9643992Y-16019412D01*
X9643992Y-16019412D02*
X9643992Y-15847984D01*
X9824944Y-16038460D02*
X9805896Y-16047984D01*
X9805896Y-16047984D02*
X9767801Y-16047984D01*
X9767801Y-16047984D02*
X9748753Y-16038460D01*
X9748753Y-16038460D02*
X9739230Y-16019412D01*
X9739230Y-16019412D02*
X9739230Y-15943222D01*
X9739230Y-15943222D02*
X9748753Y-15924174D01*
X9748753Y-15924174D02*
X9767801Y-15914650D01*
X9767801Y-15914650D02*
X9805896Y-15914650D01*
X9805896Y-15914650D02*
X9824944Y-15924174D01*
X9824944Y-15924174D02*
X9834468Y-15943222D01*
X9834468Y-15943222D02*
X9834468Y-15962269D01*
X9834468Y-15962269D02*
X9739230Y-15981317D01*
X9910658Y-16038460D02*
X9929706Y-16047984D01*
X9929706Y-16047984D02*
X9967801Y-16047984D01*
X9967801Y-16047984D02*
X9986849Y-16038460D01*
X9986849Y-16038460D02*
X9996373Y-16019412D01*
X9996373Y-16019412D02*
X9996373Y-16009888D01*
X9996373Y-16009888D02*
X9986849Y-15990841D01*
X9986849Y-15990841D02*
X9967801Y-15981317D01*
X9967801Y-15981317D02*
X9939230Y-15981317D01*
X9939230Y-15981317D02*
X9920182Y-15971793D01*
X9920182Y-15971793D02*
X9910658Y-15952746D01*
X9910658Y-15952746D02*
X9910658Y-15943222D01*
X9910658Y-15943222D02*
X9920182Y-15924174D01*
X9920182Y-15924174D02*
X9939230Y-15914650D01*
X9939230Y-15914650D02*
X9967801Y-15914650D01*
X9967801Y-15914650D02*
X9986849Y-15924174D01*
X10063039Y-16124174D02*
X10072563Y-16114650D01*
X10072563Y-16114650D02*
X10091611Y-16086079D01*
X10091611Y-16086079D02*
X10101134Y-16067031D01*
X10101134Y-16067031D02*
X10110658Y-16038460D01*
X10110658Y-16038460D02*
X10120182Y-15990841D01*
X10120182Y-15990841D02*
X10120182Y-15952746D01*
X10120182Y-15952746D02*
X10110658Y-15905127D01*
X10110658Y-15905127D02*
X10101134Y-15876555D01*
X10101134Y-15876555D02*
X10091611Y-15857508D01*
X10091611Y-15857508D02*
X10072563Y-15828936D01*
X10072563Y-15828936D02*
X10063039Y-15819412D01*
D13*
X5042500Y-16165500D02*
X5042500Y-16275500D01*
X4987500Y-16220500D02*
X5097500Y-16220500D01*
D11*
X5463039Y-16311984D02*
X5348753Y-16311984D01*
X5405896Y-16311984D02*
X5405896Y-16111984D01*
X5405896Y-16111984D02*
X5386848Y-16140555D01*
X5386848Y-16140555D02*
X5367801Y-16159603D01*
X5367801Y-16159603D02*
X5348753Y-16169127D01*
X5548753Y-16292936D02*
X5558277Y-16302460D01*
X5558277Y-16302460D02*
X5548753Y-16311984D01*
X5548753Y-16311984D02*
X5539229Y-16302460D01*
X5539229Y-16302460D02*
X5548753Y-16292936D01*
X5548753Y-16292936D02*
X5548753Y-16311984D01*
X5748753Y-16311984D02*
X5634467Y-16311984D01*
X5691610Y-16311984D02*
X5691610Y-16111984D01*
X5691610Y-16111984D02*
X5672562Y-16140555D01*
X5672562Y-16140555D02*
X5653515Y-16159603D01*
X5653515Y-16159603D02*
X5634467Y-16169127D01*
X5872562Y-16111984D02*
X5891610Y-16111984D01*
X5891610Y-16111984D02*
X5910658Y-16121508D01*
X5910658Y-16121508D02*
X5920182Y-16131031D01*
X5920182Y-16131031D02*
X5929705Y-16150079D01*
X5929705Y-16150079D02*
X5939229Y-16188174D01*
X5939229Y-16188174D02*
X5939229Y-16235793D01*
X5939229Y-16235793D02*
X5929705Y-16273888D01*
X5929705Y-16273888D02*
X5920182Y-16292936D01*
X5920182Y-16292936D02*
X5910658Y-16302460D01*
X5910658Y-16302460D02*
X5891610Y-16311984D01*
X5891610Y-16311984D02*
X5872562Y-16311984D01*
X5872562Y-16311984D02*
X5853515Y-16302460D01*
X5853515Y-16302460D02*
X5843991Y-16292936D01*
X5843991Y-16292936D02*
X5834467Y-16273888D01*
X5834467Y-16273888D02*
X5824943Y-16235793D01*
X5824943Y-16235793D02*
X5824943Y-16188174D01*
X5824943Y-16188174D02*
X5834467Y-16150079D01*
X5834467Y-16150079D02*
X5843991Y-16131031D01*
X5843991Y-16131031D02*
X5853515Y-16121508D01*
X5853515Y-16121508D02*
X5872562Y-16111984D01*
X6063039Y-16111984D02*
X6082086Y-16111984D01*
X6082086Y-16111984D02*
X6101134Y-16121508D01*
X6101134Y-16121508D02*
X6110658Y-16131031D01*
X6110658Y-16131031D02*
X6120182Y-16150079D01*
X6120182Y-16150079D02*
X6129705Y-16188174D01*
X6129705Y-16188174D02*
X6129705Y-16235793D01*
X6129705Y-16235793D02*
X6120182Y-16273888D01*
X6120182Y-16273888D02*
X6110658Y-16292936D01*
X6110658Y-16292936D02*
X6101134Y-16302460D01*
X6101134Y-16302460D02*
X6082086Y-16311984D01*
X6082086Y-16311984D02*
X6063039Y-16311984D01*
X6063039Y-16311984D02*
X6043991Y-16302460D01*
X6043991Y-16302460D02*
X6034467Y-16292936D01*
X6034467Y-16292936D02*
X6024943Y-16273888D01*
X6024943Y-16273888D02*
X6015420Y-16235793D01*
X6015420Y-16235793D02*
X6015420Y-16188174D01*
X6015420Y-16188174D02*
X6024943Y-16150079D01*
X6024943Y-16150079D02*
X6034467Y-16131031D01*
X6034467Y-16131031D02*
X6043991Y-16121508D01*
X6043991Y-16121508D02*
X6063039Y-16111984D01*
X6215420Y-16311984D02*
X6215420Y-16178650D01*
X6215420Y-16197698D02*
X6224943Y-16188174D01*
X6224943Y-16188174D02*
X6243991Y-16178650D01*
X6243991Y-16178650D02*
X6272563Y-16178650D01*
X6272563Y-16178650D02*
X6291610Y-16188174D01*
X6291610Y-16188174D02*
X6301134Y-16207222D01*
X6301134Y-16207222D02*
X6301134Y-16311984D01*
X6301134Y-16207222D02*
X6310658Y-16188174D01*
X6310658Y-16188174D02*
X6329705Y-16178650D01*
X6329705Y-16178650D02*
X6358277Y-16178650D01*
X6358277Y-16178650D02*
X6377324Y-16188174D01*
X6377324Y-16188174D02*
X6386848Y-16207222D01*
X6386848Y-16207222D02*
X6386848Y-16311984D01*
X6482086Y-16311984D02*
X6482086Y-16178650D01*
X6482086Y-16197698D02*
X6491610Y-16188174D01*
X6491610Y-16188174D02*
X6510658Y-16178650D01*
X6510658Y-16178650D02*
X6539229Y-16178650D01*
X6539229Y-16178650D02*
X6558277Y-16188174D01*
X6558277Y-16188174D02*
X6567801Y-16207222D01*
X6567801Y-16207222D02*
X6567801Y-16311984D01*
X6567801Y-16207222D02*
X6577324Y-16188174D01*
X6577324Y-16188174D02*
X6596372Y-16178650D01*
X6596372Y-16178650D02*
X6624943Y-16178650D01*
X6624943Y-16178650D02*
X6643991Y-16188174D01*
X6643991Y-16188174D02*
X6653515Y-16207222D01*
X6653515Y-16207222D02*
X6653515Y-16311984D01*
X7043991Y-16102460D02*
X6872563Y-16359603D01*
X7301134Y-16111984D02*
X7320182Y-16111984D01*
X7320182Y-16111984D02*
X7339229Y-16121508D01*
X7339229Y-16121508D02*
X7348753Y-16131031D01*
X7348753Y-16131031D02*
X7358277Y-16150079D01*
X7358277Y-16150079D02*
X7367801Y-16188174D01*
X7367801Y-16188174D02*
X7367801Y-16235793D01*
X7367801Y-16235793D02*
X7358277Y-16273888D01*
X7358277Y-16273888D02*
X7348753Y-16292936D01*
X7348753Y-16292936D02*
X7339229Y-16302460D01*
X7339229Y-16302460D02*
X7320182Y-16311984D01*
X7320182Y-16311984D02*
X7301134Y-16311984D01*
X7301134Y-16311984D02*
X7282086Y-16302460D01*
X7282086Y-16302460D02*
X7272563Y-16292936D01*
X7272563Y-16292936D02*
X7263039Y-16273888D01*
X7263039Y-16273888D02*
X7253515Y-16235793D01*
X7253515Y-16235793D02*
X7253515Y-16188174D01*
X7253515Y-16188174D02*
X7263039Y-16150079D01*
X7263039Y-16150079D02*
X7272563Y-16131031D01*
X7272563Y-16131031D02*
X7282086Y-16121508D01*
X7282086Y-16121508D02*
X7301134Y-16111984D01*
X7453515Y-16292936D02*
X7463039Y-16302460D01*
X7463039Y-16302460D02*
X7453515Y-16311984D01*
X7453515Y-16311984D02*
X7443991Y-16302460D01*
X7443991Y-16302460D02*
X7453515Y-16292936D01*
X7453515Y-16292936D02*
X7453515Y-16311984D01*
X7586848Y-16111984D02*
X7605896Y-16111984D01*
X7605896Y-16111984D02*
X7624944Y-16121508D01*
X7624944Y-16121508D02*
X7634467Y-16131031D01*
X7634467Y-16131031D02*
X7643991Y-16150079D01*
X7643991Y-16150079D02*
X7653515Y-16188174D01*
X7653515Y-16188174D02*
X7653515Y-16235793D01*
X7653515Y-16235793D02*
X7643991Y-16273888D01*
X7643991Y-16273888D02*
X7634467Y-16292936D01*
X7634467Y-16292936D02*
X7624944Y-16302460D01*
X7624944Y-16302460D02*
X7605896Y-16311984D01*
X7605896Y-16311984D02*
X7586848Y-16311984D01*
X7586848Y-16311984D02*
X7567801Y-16302460D01*
X7567801Y-16302460D02*
X7558277Y-16292936D01*
X7558277Y-16292936D02*
X7548753Y-16273888D01*
X7548753Y-16273888D02*
X7539229Y-16235793D01*
X7539229Y-16235793D02*
X7539229Y-16188174D01*
X7539229Y-16188174D02*
X7548753Y-16150079D01*
X7548753Y-16150079D02*
X7558277Y-16131031D01*
X7558277Y-16131031D02*
X7567801Y-16121508D01*
X7567801Y-16121508D02*
X7586848Y-16111984D01*
X7824944Y-16178650D02*
X7824944Y-16311984D01*
X7777325Y-16102460D02*
X7729706Y-16245317D01*
X7729706Y-16245317D02*
X7853515Y-16245317D01*
X7910658Y-16111984D02*
X8034467Y-16111984D01*
X8034467Y-16111984D02*
X7967801Y-16188174D01*
X7967801Y-16188174D02*
X7996372Y-16188174D01*
X7996372Y-16188174D02*
X8015420Y-16197698D01*
X8015420Y-16197698D02*
X8024944Y-16207222D01*
X8024944Y-16207222D02*
X8034467Y-16226269D01*
X8034467Y-16226269D02*
X8034467Y-16273888D01*
X8034467Y-16273888D02*
X8024944Y-16292936D01*
X8024944Y-16292936D02*
X8015420Y-16302460D01*
X8015420Y-16302460D02*
X7996372Y-16311984D01*
X7996372Y-16311984D02*
X7939229Y-16311984D01*
X7939229Y-16311984D02*
X7920182Y-16302460D01*
X7920182Y-16302460D02*
X7910658Y-16292936D01*
X8101134Y-16111984D02*
X8224944Y-16111984D01*
X8224944Y-16111984D02*
X8158277Y-16188174D01*
X8158277Y-16188174D02*
X8186848Y-16188174D01*
X8186848Y-16188174D02*
X8205896Y-16197698D01*
X8205896Y-16197698D02*
X8215420Y-16207222D01*
X8215420Y-16207222D02*
X8224944Y-16226269D01*
X8224944Y-16226269D02*
X8224944Y-16273888D01*
X8224944Y-16273888D02*
X8215420Y-16292936D01*
X8215420Y-16292936D02*
X8205896Y-16302460D01*
X8205896Y-16302460D02*
X8186848Y-16311984D01*
X8186848Y-16311984D02*
X8129706Y-16311984D01*
X8129706Y-16311984D02*
X8110658Y-16302460D01*
X8110658Y-16302460D02*
X8101134Y-16292936D01*
X8301134Y-16111984D02*
X8301134Y-16150079D01*
X8377325Y-16111984D02*
X8377325Y-16150079D01*
X8672563Y-16388174D02*
X8663039Y-16378650D01*
X8663039Y-16378650D02*
X8643991Y-16350079D01*
X8643991Y-16350079D02*
X8634468Y-16331031D01*
X8634468Y-16331031D02*
X8624944Y-16302460D01*
X8624944Y-16302460D02*
X8615420Y-16254841D01*
X8615420Y-16254841D02*
X8615420Y-16216746D01*
X8615420Y-16216746D02*
X8624944Y-16169127D01*
X8624944Y-16169127D02*
X8634468Y-16140555D01*
X8634468Y-16140555D02*
X8643991Y-16121508D01*
X8643991Y-16121508D02*
X8663039Y-16092936D01*
X8663039Y-16092936D02*
X8672563Y-16083412D01*
X8786849Y-16111984D02*
X8805896Y-16111984D01*
X8805896Y-16111984D02*
X8824944Y-16121508D01*
X8824944Y-16121508D02*
X8834468Y-16131031D01*
X8834468Y-16131031D02*
X8843991Y-16150079D01*
X8843991Y-16150079D02*
X8853515Y-16188174D01*
X8853515Y-16188174D02*
X8853515Y-16235793D01*
X8853515Y-16235793D02*
X8843991Y-16273888D01*
X8843991Y-16273888D02*
X8834468Y-16292936D01*
X8834468Y-16292936D02*
X8824944Y-16302460D01*
X8824944Y-16302460D02*
X8805896Y-16311984D01*
X8805896Y-16311984D02*
X8786849Y-16311984D01*
X8786849Y-16311984D02*
X8767801Y-16302460D01*
X8767801Y-16302460D02*
X8758277Y-16292936D01*
X8758277Y-16292936D02*
X8748753Y-16273888D01*
X8748753Y-16273888D02*
X8739230Y-16235793D01*
X8739230Y-16235793D02*
X8739230Y-16188174D01*
X8739230Y-16188174D02*
X8748753Y-16150079D01*
X8748753Y-16150079D02*
X8758277Y-16131031D01*
X8758277Y-16131031D02*
X8767801Y-16121508D01*
X8767801Y-16121508D02*
X8786849Y-16111984D01*
X9091611Y-16311984D02*
X9091611Y-16111984D01*
X9177325Y-16311984D02*
X9177325Y-16207222D01*
X9177325Y-16207222D02*
X9167801Y-16188174D01*
X9167801Y-16188174D02*
X9148753Y-16178650D01*
X9148753Y-16178650D02*
X9120182Y-16178650D01*
X9120182Y-16178650D02*
X9101134Y-16188174D01*
X9101134Y-16188174D02*
X9091611Y-16197698D01*
X9301134Y-16311984D02*
X9282087Y-16302460D01*
X9282087Y-16302460D02*
X9272563Y-16292936D01*
X9272563Y-16292936D02*
X9263039Y-16273888D01*
X9263039Y-16273888D02*
X9263039Y-16216746D01*
X9263039Y-16216746D02*
X9272563Y-16197698D01*
X9272563Y-16197698D02*
X9282087Y-16188174D01*
X9282087Y-16188174D02*
X9301134Y-16178650D01*
X9301134Y-16178650D02*
X9329706Y-16178650D01*
X9329706Y-16178650D02*
X9348753Y-16188174D01*
X9348753Y-16188174D02*
X9358277Y-16197698D01*
X9358277Y-16197698D02*
X9367801Y-16216746D01*
X9367801Y-16216746D02*
X9367801Y-16273888D01*
X9367801Y-16273888D02*
X9358277Y-16292936D01*
X9358277Y-16292936D02*
X9348753Y-16302460D01*
X9348753Y-16302460D02*
X9329706Y-16311984D01*
X9329706Y-16311984D02*
X9301134Y-16311984D01*
X9482087Y-16311984D02*
X9463039Y-16302460D01*
X9463039Y-16302460D02*
X9453515Y-16283412D01*
X9453515Y-16283412D02*
X9453515Y-16111984D01*
X9634468Y-16302460D02*
X9615420Y-16311984D01*
X9615420Y-16311984D02*
X9577325Y-16311984D01*
X9577325Y-16311984D02*
X9558277Y-16302460D01*
X9558277Y-16302460D02*
X9548753Y-16283412D01*
X9548753Y-16283412D02*
X9548753Y-16207222D01*
X9548753Y-16207222D02*
X9558277Y-16188174D01*
X9558277Y-16188174D02*
X9577325Y-16178650D01*
X9577325Y-16178650D02*
X9615420Y-16178650D01*
X9615420Y-16178650D02*
X9634468Y-16188174D01*
X9634468Y-16188174D02*
X9643992Y-16207222D01*
X9643992Y-16207222D02*
X9643992Y-16226269D01*
X9643992Y-16226269D02*
X9548753Y-16245317D01*
X9720182Y-16302460D02*
X9739230Y-16311984D01*
X9739230Y-16311984D02*
X9777325Y-16311984D01*
X9777325Y-16311984D02*
X9796373Y-16302460D01*
X9796373Y-16302460D02*
X9805896Y-16283412D01*
X9805896Y-16283412D02*
X9805896Y-16273888D01*
X9805896Y-16273888D02*
X9796373Y-16254841D01*
X9796373Y-16254841D02*
X9777325Y-16245317D01*
X9777325Y-16245317D02*
X9748753Y-16245317D01*
X9748753Y-16245317D02*
X9729706Y-16235793D01*
X9729706Y-16235793D02*
X9720182Y-16216746D01*
X9720182Y-16216746D02*
X9720182Y-16207222D01*
X9720182Y-16207222D02*
X9729706Y-16188174D01*
X9729706Y-16188174D02*
X9748753Y-16178650D01*
X9748753Y-16178650D02*
X9777325Y-16178650D01*
X9777325Y-16178650D02*
X9796373Y-16188174D01*
X10043992Y-16235793D02*
X10196373Y-16235793D01*
X10120182Y-16311984D02*
X10120182Y-16159603D01*
X10472563Y-16197698D02*
X10453515Y-16188174D01*
X10453515Y-16188174D02*
X10443992Y-16178650D01*
X10443992Y-16178650D02*
X10434468Y-16159603D01*
X10434468Y-16159603D02*
X10434468Y-16150079D01*
X10434468Y-16150079D02*
X10443992Y-16131031D01*
X10443992Y-16131031D02*
X10453515Y-16121508D01*
X10453515Y-16121508D02*
X10472563Y-16111984D01*
X10472563Y-16111984D02*
X10510658Y-16111984D01*
X10510658Y-16111984D02*
X10529706Y-16121508D01*
X10529706Y-16121508D02*
X10539230Y-16131031D01*
X10539230Y-16131031D02*
X10548754Y-16150079D01*
X10548754Y-16150079D02*
X10548754Y-16159603D01*
X10548754Y-16159603D02*
X10539230Y-16178650D01*
X10539230Y-16178650D02*
X10529706Y-16188174D01*
X10529706Y-16188174D02*
X10510658Y-16197698D01*
X10510658Y-16197698D02*
X10472563Y-16197698D01*
X10472563Y-16197698D02*
X10453515Y-16207222D01*
X10453515Y-16207222D02*
X10443992Y-16216746D01*
X10443992Y-16216746D02*
X10434468Y-16235793D01*
X10434468Y-16235793D02*
X10434468Y-16273888D01*
X10434468Y-16273888D02*
X10443992Y-16292936D01*
X10443992Y-16292936D02*
X10453515Y-16302460D01*
X10453515Y-16302460D02*
X10472563Y-16311984D01*
X10472563Y-16311984D02*
X10510658Y-16311984D01*
X10510658Y-16311984D02*
X10529706Y-16302460D01*
X10529706Y-16302460D02*
X10539230Y-16292936D01*
X10539230Y-16292936D02*
X10548754Y-16273888D01*
X10548754Y-16273888D02*
X10548754Y-16235793D01*
X10548754Y-16235793D02*
X10539230Y-16216746D01*
X10539230Y-16216746D02*
X10529706Y-16207222D01*
X10529706Y-16207222D02*
X10510658Y-16197698D01*
X10777325Y-16302460D02*
X10796373Y-16311984D01*
X10796373Y-16311984D02*
X10834468Y-16311984D01*
X10834468Y-16311984D02*
X10853516Y-16302460D01*
X10853516Y-16302460D02*
X10863039Y-16283412D01*
X10863039Y-16283412D02*
X10863039Y-16273888D01*
X10863039Y-16273888D02*
X10853516Y-16254841D01*
X10853516Y-16254841D02*
X10834468Y-16245317D01*
X10834468Y-16245317D02*
X10805896Y-16245317D01*
X10805896Y-16245317D02*
X10786849Y-16235793D01*
X10786849Y-16235793D02*
X10777325Y-16216746D01*
X10777325Y-16216746D02*
X10777325Y-16207222D01*
X10777325Y-16207222D02*
X10786849Y-16188174D01*
X10786849Y-16188174D02*
X10805896Y-16178650D01*
X10805896Y-16178650D02*
X10834468Y-16178650D01*
X10834468Y-16178650D02*
X10853516Y-16188174D01*
X10977325Y-16311984D02*
X10958277Y-16302460D01*
X10958277Y-16302460D02*
X10948754Y-16283412D01*
X10948754Y-16283412D02*
X10948754Y-16111984D01*
X11082087Y-16311984D02*
X11063039Y-16302460D01*
X11063039Y-16302460D02*
X11053516Y-16292936D01*
X11053516Y-16292936D02*
X11043992Y-16273888D01*
X11043992Y-16273888D02*
X11043992Y-16216746D01*
X11043992Y-16216746D02*
X11053516Y-16197698D01*
X11053516Y-16197698D02*
X11063039Y-16188174D01*
X11063039Y-16188174D02*
X11082087Y-16178650D01*
X11082087Y-16178650D02*
X11110658Y-16178650D01*
X11110658Y-16178650D02*
X11129706Y-16188174D01*
X11129706Y-16188174D02*
X11139230Y-16197698D01*
X11139230Y-16197698D02*
X11148754Y-16216746D01*
X11148754Y-16216746D02*
X11148754Y-16273888D01*
X11148754Y-16273888D02*
X11139230Y-16292936D01*
X11139230Y-16292936D02*
X11129706Y-16302460D01*
X11129706Y-16302460D02*
X11110658Y-16311984D01*
X11110658Y-16311984D02*
X11082087Y-16311984D01*
X11205896Y-16178650D02*
X11282087Y-16178650D01*
X11234468Y-16111984D02*
X11234468Y-16283412D01*
X11234468Y-16283412D02*
X11243992Y-16302460D01*
X11243992Y-16302460D02*
X11263039Y-16311984D01*
X11263039Y-16311984D02*
X11282087Y-16311984D01*
X11339230Y-16302460D02*
X11358277Y-16311984D01*
X11358277Y-16311984D02*
X11396373Y-16311984D01*
X11396373Y-16311984D02*
X11415420Y-16302460D01*
X11415420Y-16302460D02*
X11424944Y-16283412D01*
X11424944Y-16283412D02*
X11424944Y-16273888D01*
X11424944Y-16273888D02*
X11415420Y-16254841D01*
X11415420Y-16254841D02*
X11396373Y-16245317D01*
X11396373Y-16245317D02*
X11367801Y-16245317D01*
X11367801Y-16245317D02*
X11348754Y-16235793D01*
X11348754Y-16235793D02*
X11339230Y-16216746D01*
X11339230Y-16216746D02*
X11339230Y-16207222D01*
X11339230Y-16207222D02*
X11348754Y-16188174D01*
X11348754Y-16188174D02*
X11367801Y-16178650D01*
X11367801Y-16178650D02*
X11396373Y-16178650D01*
X11396373Y-16178650D02*
X11415420Y-16188174D01*
X11491611Y-16388174D02*
X11501135Y-16378650D01*
X11501135Y-16378650D02*
X11520182Y-16350079D01*
X11520182Y-16350079D02*
X11529706Y-16331031D01*
X11529706Y-16331031D02*
X11539230Y-16302460D01*
X11539230Y-16302460D02*
X11548754Y-16254841D01*
X11548754Y-16254841D02*
X11548754Y-16216746D01*
X11548754Y-16216746D02*
X11539230Y-16169127D01*
X11539230Y-16169127D02*
X11529706Y-16140555D01*
X11529706Y-16140555D02*
X11520182Y-16121508D01*
X11520182Y-16121508D02*
X11501135Y-16092936D01*
X11501135Y-16092936D02*
X11491611Y-16083412D01*
X5068211Y-16555211D02*
X5068211Y-16413789D01*
X4926789Y-16413789D01*
X4926789Y-16555211D01*
X5068211Y-16555211D01*
X5348753Y-16395031D02*
X5358277Y-16385508D01*
X5358277Y-16385508D02*
X5377324Y-16375984D01*
X5377324Y-16375984D02*
X5424944Y-16375984D01*
X5424944Y-16375984D02*
X5443991Y-16385508D01*
X5443991Y-16385508D02*
X5453515Y-16395031D01*
X5453515Y-16395031D02*
X5463039Y-16414079D01*
X5463039Y-16414079D02*
X5463039Y-16433127D01*
X5463039Y-16433127D02*
X5453515Y-16461698D01*
X5453515Y-16461698D02*
X5339229Y-16575984D01*
X5339229Y-16575984D02*
X5463039Y-16575984D01*
X5548753Y-16556936D02*
X5558277Y-16566460D01*
X5558277Y-16566460D02*
X5548753Y-16575984D01*
X5548753Y-16575984D02*
X5539229Y-16566460D01*
X5539229Y-16566460D02*
X5548753Y-16556936D01*
X5548753Y-16556936D02*
X5548753Y-16575984D01*
X5682086Y-16375984D02*
X5701134Y-16375984D01*
X5701134Y-16375984D02*
X5720182Y-16385508D01*
X5720182Y-16385508D02*
X5729705Y-16395031D01*
X5729705Y-16395031D02*
X5739229Y-16414079D01*
X5739229Y-16414079D02*
X5748753Y-16452174D01*
X5748753Y-16452174D02*
X5748753Y-16499793D01*
X5748753Y-16499793D02*
X5739229Y-16537888D01*
X5739229Y-16537888D02*
X5729705Y-16556936D01*
X5729705Y-16556936D02*
X5720182Y-16566460D01*
X5720182Y-16566460D02*
X5701134Y-16575984D01*
X5701134Y-16575984D02*
X5682086Y-16575984D01*
X5682086Y-16575984D02*
X5663039Y-16566460D01*
X5663039Y-16566460D02*
X5653515Y-16556936D01*
X5653515Y-16556936D02*
X5643991Y-16537888D01*
X5643991Y-16537888D02*
X5634467Y-16499793D01*
X5634467Y-16499793D02*
X5634467Y-16452174D01*
X5634467Y-16452174D02*
X5643991Y-16414079D01*
X5643991Y-16414079D02*
X5653515Y-16395031D01*
X5653515Y-16395031D02*
X5663039Y-16385508D01*
X5663039Y-16385508D02*
X5682086Y-16375984D01*
X5872562Y-16375984D02*
X5891610Y-16375984D01*
X5891610Y-16375984D02*
X5910658Y-16385508D01*
X5910658Y-16385508D02*
X5920182Y-16395031D01*
X5920182Y-16395031D02*
X5929705Y-16414079D01*
X5929705Y-16414079D02*
X5939229Y-16452174D01*
X5939229Y-16452174D02*
X5939229Y-16499793D01*
X5939229Y-16499793D02*
X5929705Y-16537888D01*
X5929705Y-16537888D02*
X5920182Y-16556936D01*
X5920182Y-16556936D02*
X5910658Y-16566460D01*
X5910658Y-16566460D02*
X5891610Y-16575984D01*
X5891610Y-16575984D02*
X5872562Y-16575984D01*
X5872562Y-16575984D02*
X5853515Y-16566460D01*
X5853515Y-16566460D02*
X5843991Y-16556936D01*
X5843991Y-16556936D02*
X5834467Y-16537888D01*
X5834467Y-16537888D02*
X5824943Y-16499793D01*
X5824943Y-16499793D02*
X5824943Y-16452174D01*
X5824943Y-16452174D02*
X5834467Y-16414079D01*
X5834467Y-16414079D02*
X5843991Y-16395031D01*
X5843991Y-16395031D02*
X5853515Y-16385508D01*
X5853515Y-16385508D02*
X5872562Y-16375984D01*
X6063039Y-16375984D02*
X6082086Y-16375984D01*
X6082086Y-16375984D02*
X6101134Y-16385508D01*
X6101134Y-16385508D02*
X6110658Y-16395031D01*
X6110658Y-16395031D02*
X6120182Y-16414079D01*
X6120182Y-16414079D02*
X6129705Y-16452174D01*
X6129705Y-16452174D02*
X6129705Y-16499793D01*
X6129705Y-16499793D02*
X6120182Y-16537888D01*
X6120182Y-16537888D02*
X6110658Y-16556936D01*
X6110658Y-16556936D02*
X6101134Y-16566460D01*
X6101134Y-16566460D02*
X6082086Y-16575984D01*
X6082086Y-16575984D02*
X6063039Y-16575984D01*
X6063039Y-16575984D02*
X6043991Y-16566460D01*
X6043991Y-16566460D02*
X6034467Y-16556936D01*
X6034467Y-16556936D02*
X6024943Y-16537888D01*
X6024943Y-16537888D02*
X6015420Y-16499793D01*
X6015420Y-16499793D02*
X6015420Y-16452174D01*
X6015420Y-16452174D02*
X6024943Y-16414079D01*
X6024943Y-16414079D02*
X6034467Y-16395031D01*
X6034467Y-16395031D02*
X6043991Y-16385508D01*
X6043991Y-16385508D02*
X6063039Y-16375984D01*
X6215420Y-16575984D02*
X6215420Y-16442650D01*
X6215420Y-16461698D02*
X6224943Y-16452174D01*
X6224943Y-16452174D02*
X6243991Y-16442650D01*
X6243991Y-16442650D02*
X6272563Y-16442650D01*
X6272563Y-16442650D02*
X6291610Y-16452174D01*
X6291610Y-16452174D02*
X6301134Y-16471222D01*
X6301134Y-16471222D02*
X6301134Y-16575984D01*
X6301134Y-16471222D02*
X6310658Y-16452174D01*
X6310658Y-16452174D02*
X6329705Y-16442650D01*
X6329705Y-16442650D02*
X6358277Y-16442650D01*
X6358277Y-16442650D02*
X6377324Y-16452174D01*
X6377324Y-16452174D02*
X6386848Y-16471222D01*
X6386848Y-16471222D02*
X6386848Y-16575984D01*
X6482086Y-16575984D02*
X6482086Y-16442650D01*
X6482086Y-16461698D02*
X6491610Y-16452174D01*
X6491610Y-16452174D02*
X6510658Y-16442650D01*
X6510658Y-16442650D02*
X6539229Y-16442650D01*
X6539229Y-16442650D02*
X6558277Y-16452174D01*
X6558277Y-16452174D02*
X6567801Y-16471222D01*
X6567801Y-16471222D02*
X6567801Y-16575984D01*
X6567801Y-16471222D02*
X6577324Y-16452174D01*
X6577324Y-16452174D02*
X6596372Y-16442650D01*
X6596372Y-16442650D02*
X6624943Y-16442650D01*
X6624943Y-16442650D02*
X6643991Y-16452174D01*
X6643991Y-16452174D02*
X6653515Y-16471222D01*
X6653515Y-16471222D02*
X6653515Y-16575984D01*
X7043991Y-16366460D02*
X6872563Y-16623603D01*
X7301134Y-16375984D02*
X7320182Y-16375984D01*
X7320182Y-16375984D02*
X7339229Y-16385508D01*
X7339229Y-16385508D02*
X7348753Y-16395031D01*
X7348753Y-16395031D02*
X7358277Y-16414079D01*
X7358277Y-16414079D02*
X7367801Y-16452174D01*
X7367801Y-16452174D02*
X7367801Y-16499793D01*
X7367801Y-16499793D02*
X7358277Y-16537888D01*
X7358277Y-16537888D02*
X7348753Y-16556936D01*
X7348753Y-16556936D02*
X7339229Y-16566460D01*
X7339229Y-16566460D02*
X7320182Y-16575984D01*
X7320182Y-16575984D02*
X7301134Y-16575984D01*
X7301134Y-16575984D02*
X7282086Y-16566460D01*
X7282086Y-16566460D02*
X7272563Y-16556936D01*
X7272563Y-16556936D02*
X7263039Y-16537888D01*
X7263039Y-16537888D02*
X7253515Y-16499793D01*
X7253515Y-16499793D02*
X7253515Y-16452174D01*
X7253515Y-16452174D02*
X7263039Y-16414079D01*
X7263039Y-16414079D02*
X7272563Y-16395031D01*
X7272563Y-16395031D02*
X7282086Y-16385508D01*
X7282086Y-16385508D02*
X7301134Y-16375984D01*
X7453515Y-16556936D02*
X7463039Y-16566460D01*
X7463039Y-16566460D02*
X7453515Y-16575984D01*
X7453515Y-16575984D02*
X7443991Y-16566460D01*
X7443991Y-16566460D02*
X7453515Y-16556936D01*
X7453515Y-16556936D02*
X7453515Y-16575984D01*
X7586848Y-16375984D02*
X7605896Y-16375984D01*
X7605896Y-16375984D02*
X7624944Y-16385508D01*
X7624944Y-16385508D02*
X7634467Y-16395031D01*
X7634467Y-16395031D02*
X7643991Y-16414079D01*
X7643991Y-16414079D02*
X7653515Y-16452174D01*
X7653515Y-16452174D02*
X7653515Y-16499793D01*
X7653515Y-16499793D02*
X7643991Y-16537888D01*
X7643991Y-16537888D02*
X7634467Y-16556936D01*
X7634467Y-16556936D02*
X7624944Y-16566460D01*
X7624944Y-16566460D02*
X7605896Y-16575984D01*
X7605896Y-16575984D02*
X7586848Y-16575984D01*
X7586848Y-16575984D02*
X7567801Y-16566460D01*
X7567801Y-16566460D02*
X7558277Y-16556936D01*
X7558277Y-16556936D02*
X7548753Y-16537888D01*
X7548753Y-16537888D02*
X7539229Y-16499793D01*
X7539229Y-16499793D02*
X7539229Y-16452174D01*
X7539229Y-16452174D02*
X7548753Y-16414079D01*
X7548753Y-16414079D02*
X7558277Y-16395031D01*
X7558277Y-16395031D02*
X7567801Y-16385508D01*
X7567801Y-16385508D02*
X7586848Y-16375984D01*
X7720182Y-16375984D02*
X7853515Y-16375984D01*
X7853515Y-16375984D02*
X7767801Y-16575984D01*
X7958277Y-16461698D02*
X7939229Y-16452174D01*
X7939229Y-16452174D02*
X7929706Y-16442650D01*
X7929706Y-16442650D02*
X7920182Y-16423603D01*
X7920182Y-16423603D02*
X7920182Y-16414079D01*
X7920182Y-16414079D02*
X7929706Y-16395031D01*
X7929706Y-16395031D02*
X7939229Y-16385508D01*
X7939229Y-16385508D02*
X7958277Y-16375984D01*
X7958277Y-16375984D02*
X7996372Y-16375984D01*
X7996372Y-16375984D02*
X8015420Y-16385508D01*
X8015420Y-16385508D02*
X8024944Y-16395031D01*
X8024944Y-16395031D02*
X8034467Y-16414079D01*
X8034467Y-16414079D02*
X8034467Y-16423603D01*
X8034467Y-16423603D02*
X8024944Y-16442650D01*
X8024944Y-16442650D02*
X8015420Y-16452174D01*
X8015420Y-16452174D02*
X7996372Y-16461698D01*
X7996372Y-16461698D02*
X7958277Y-16461698D01*
X7958277Y-16461698D02*
X7939229Y-16471222D01*
X7939229Y-16471222D02*
X7929706Y-16480746D01*
X7929706Y-16480746D02*
X7920182Y-16499793D01*
X7920182Y-16499793D02*
X7920182Y-16537888D01*
X7920182Y-16537888D02*
X7929706Y-16556936D01*
X7929706Y-16556936D02*
X7939229Y-16566460D01*
X7939229Y-16566460D02*
X7958277Y-16575984D01*
X7958277Y-16575984D02*
X7996372Y-16575984D01*
X7996372Y-16575984D02*
X8015420Y-16566460D01*
X8015420Y-16566460D02*
X8024944Y-16556936D01*
X8024944Y-16556936D02*
X8034467Y-16537888D01*
X8034467Y-16537888D02*
X8034467Y-16499793D01*
X8034467Y-16499793D02*
X8024944Y-16480746D01*
X8024944Y-16480746D02*
X8015420Y-16471222D01*
X8015420Y-16471222D02*
X7996372Y-16461698D01*
X8101134Y-16375984D02*
X8234467Y-16375984D01*
X8234467Y-16375984D02*
X8148753Y-16575984D01*
X8301134Y-16375984D02*
X8301134Y-16414079D01*
X8377325Y-16375984D02*
X8377325Y-16414079D01*
X8672563Y-16652174D02*
X8663039Y-16642650D01*
X8663039Y-16642650D02*
X8643991Y-16614079D01*
X8643991Y-16614079D02*
X8634468Y-16595031D01*
X8634468Y-16595031D02*
X8624944Y-16566460D01*
X8624944Y-16566460D02*
X8615420Y-16518841D01*
X8615420Y-16518841D02*
X8615420Y-16480746D01*
X8615420Y-16480746D02*
X8624944Y-16433127D01*
X8624944Y-16433127D02*
X8634468Y-16404555D01*
X8634468Y-16404555D02*
X8643991Y-16385508D01*
X8643991Y-16385508D02*
X8663039Y-16356936D01*
X8663039Y-16356936D02*
X8672563Y-16347412D01*
X8786849Y-16375984D02*
X8805896Y-16375984D01*
X8805896Y-16375984D02*
X8824944Y-16385508D01*
X8824944Y-16385508D02*
X8834468Y-16395031D01*
X8834468Y-16395031D02*
X8843991Y-16414079D01*
X8843991Y-16414079D02*
X8853515Y-16452174D01*
X8853515Y-16452174D02*
X8853515Y-16499793D01*
X8853515Y-16499793D02*
X8843991Y-16537888D01*
X8843991Y-16537888D02*
X8834468Y-16556936D01*
X8834468Y-16556936D02*
X8824944Y-16566460D01*
X8824944Y-16566460D02*
X8805896Y-16575984D01*
X8805896Y-16575984D02*
X8786849Y-16575984D01*
X8786849Y-16575984D02*
X8767801Y-16566460D01*
X8767801Y-16566460D02*
X8758277Y-16556936D01*
X8758277Y-16556936D02*
X8748753Y-16537888D01*
X8748753Y-16537888D02*
X8739230Y-16499793D01*
X8739230Y-16499793D02*
X8739230Y-16452174D01*
X8739230Y-16452174D02*
X8748753Y-16414079D01*
X8748753Y-16414079D02*
X8758277Y-16395031D01*
X8758277Y-16395031D02*
X8767801Y-16385508D01*
X8767801Y-16385508D02*
X8786849Y-16375984D01*
X9091611Y-16575984D02*
X9091611Y-16375984D01*
X9177325Y-16575984D02*
X9177325Y-16471222D01*
X9177325Y-16471222D02*
X9167801Y-16452174D01*
X9167801Y-16452174D02*
X9148753Y-16442650D01*
X9148753Y-16442650D02*
X9120182Y-16442650D01*
X9120182Y-16442650D02*
X9101134Y-16452174D01*
X9101134Y-16452174D02*
X9091611Y-16461698D01*
X9301134Y-16575984D02*
X9282087Y-16566460D01*
X9282087Y-16566460D02*
X9272563Y-16556936D01*
X9272563Y-16556936D02*
X9263039Y-16537888D01*
X9263039Y-16537888D02*
X9263039Y-16480746D01*
X9263039Y-16480746D02*
X9272563Y-16461698D01*
X9272563Y-16461698D02*
X9282087Y-16452174D01*
X9282087Y-16452174D02*
X9301134Y-16442650D01*
X9301134Y-16442650D02*
X9329706Y-16442650D01*
X9329706Y-16442650D02*
X9348753Y-16452174D01*
X9348753Y-16452174D02*
X9358277Y-16461698D01*
X9358277Y-16461698D02*
X9367801Y-16480746D01*
X9367801Y-16480746D02*
X9367801Y-16537888D01*
X9367801Y-16537888D02*
X9358277Y-16556936D01*
X9358277Y-16556936D02*
X9348753Y-16566460D01*
X9348753Y-16566460D02*
X9329706Y-16575984D01*
X9329706Y-16575984D02*
X9301134Y-16575984D01*
X9482087Y-16575984D02*
X9463039Y-16566460D01*
X9463039Y-16566460D02*
X9453515Y-16547412D01*
X9453515Y-16547412D02*
X9453515Y-16375984D01*
X9634468Y-16566460D02*
X9615420Y-16575984D01*
X9615420Y-16575984D02*
X9577325Y-16575984D01*
X9577325Y-16575984D02*
X9558277Y-16566460D01*
X9558277Y-16566460D02*
X9548753Y-16547412D01*
X9548753Y-16547412D02*
X9548753Y-16471222D01*
X9548753Y-16471222D02*
X9558277Y-16452174D01*
X9558277Y-16452174D02*
X9577325Y-16442650D01*
X9577325Y-16442650D02*
X9615420Y-16442650D01*
X9615420Y-16442650D02*
X9634468Y-16452174D01*
X9634468Y-16452174D02*
X9643992Y-16471222D01*
X9643992Y-16471222D02*
X9643992Y-16490269D01*
X9643992Y-16490269D02*
X9548753Y-16509317D01*
X9720182Y-16566460D02*
X9739230Y-16575984D01*
X9739230Y-16575984D02*
X9777325Y-16575984D01*
X9777325Y-16575984D02*
X9796373Y-16566460D01*
X9796373Y-16566460D02*
X9805896Y-16547412D01*
X9805896Y-16547412D02*
X9805896Y-16537888D01*
X9805896Y-16537888D02*
X9796373Y-16518841D01*
X9796373Y-16518841D02*
X9777325Y-16509317D01*
X9777325Y-16509317D02*
X9748753Y-16509317D01*
X9748753Y-16509317D02*
X9729706Y-16499793D01*
X9729706Y-16499793D02*
X9720182Y-16480746D01*
X9720182Y-16480746D02*
X9720182Y-16471222D01*
X9720182Y-16471222D02*
X9729706Y-16452174D01*
X9729706Y-16452174D02*
X9748753Y-16442650D01*
X9748753Y-16442650D02*
X9777325Y-16442650D01*
X9777325Y-16442650D02*
X9796373Y-16452174D01*
X10043992Y-16499793D02*
X10196373Y-16499793D01*
X10120182Y-16575984D02*
X10120182Y-16423603D01*
X10472563Y-16461698D02*
X10453515Y-16452174D01*
X10453515Y-16452174D02*
X10443992Y-16442650D01*
X10443992Y-16442650D02*
X10434468Y-16423603D01*
X10434468Y-16423603D02*
X10434468Y-16414079D01*
X10434468Y-16414079D02*
X10443992Y-16395031D01*
X10443992Y-16395031D02*
X10453515Y-16385508D01*
X10453515Y-16385508D02*
X10472563Y-16375984D01*
X10472563Y-16375984D02*
X10510658Y-16375984D01*
X10510658Y-16375984D02*
X10529706Y-16385508D01*
X10529706Y-16385508D02*
X10539230Y-16395031D01*
X10539230Y-16395031D02*
X10548754Y-16414079D01*
X10548754Y-16414079D02*
X10548754Y-16423603D01*
X10548754Y-16423603D02*
X10539230Y-16442650D01*
X10539230Y-16442650D02*
X10529706Y-16452174D01*
X10529706Y-16452174D02*
X10510658Y-16461698D01*
X10510658Y-16461698D02*
X10472563Y-16461698D01*
X10472563Y-16461698D02*
X10453515Y-16471222D01*
X10453515Y-16471222D02*
X10443992Y-16480746D01*
X10443992Y-16480746D02*
X10434468Y-16499793D01*
X10434468Y-16499793D02*
X10434468Y-16537888D01*
X10434468Y-16537888D02*
X10443992Y-16556936D01*
X10443992Y-16556936D02*
X10453515Y-16566460D01*
X10453515Y-16566460D02*
X10472563Y-16575984D01*
X10472563Y-16575984D02*
X10510658Y-16575984D01*
X10510658Y-16575984D02*
X10529706Y-16566460D01*
X10529706Y-16566460D02*
X10539230Y-16556936D01*
X10539230Y-16556936D02*
X10548754Y-16537888D01*
X10548754Y-16537888D02*
X10548754Y-16499793D01*
X10548754Y-16499793D02*
X10539230Y-16480746D01*
X10539230Y-16480746D02*
X10529706Y-16471222D01*
X10529706Y-16471222D02*
X10510658Y-16461698D01*
X10777325Y-16566460D02*
X10796373Y-16575984D01*
X10796373Y-16575984D02*
X10834468Y-16575984D01*
X10834468Y-16575984D02*
X10853516Y-16566460D01*
X10853516Y-16566460D02*
X10863039Y-16547412D01*
X10863039Y-16547412D02*
X10863039Y-16537888D01*
X10863039Y-16537888D02*
X10853516Y-16518841D01*
X10853516Y-16518841D02*
X10834468Y-16509317D01*
X10834468Y-16509317D02*
X10805896Y-16509317D01*
X10805896Y-16509317D02*
X10786849Y-16499793D01*
X10786849Y-16499793D02*
X10777325Y-16480746D01*
X10777325Y-16480746D02*
X10777325Y-16471222D01*
X10777325Y-16471222D02*
X10786849Y-16452174D01*
X10786849Y-16452174D02*
X10805896Y-16442650D01*
X10805896Y-16442650D02*
X10834468Y-16442650D01*
X10834468Y-16442650D02*
X10853516Y-16452174D01*
X10977325Y-16575984D02*
X10958277Y-16566460D01*
X10958277Y-16566460D02*
X10948754Y-16547412D01*
X10948754Y-16547412D02*
X10948754Y-16375984D01*
X11082087Y-16575984D02*
X11063039Y-16566460D01*
X11063039Y-16566460D02*
X11053516Y-16556936D01*
X11053516Y-16556936D02*
X11043992Y-16537888D01*
X11043992Y-16537888D02*
X11043992Y-16480746D01*
X11043992Y-16480746D02*
X11053516Y-16461698D01*
X11053516Y-16461698D02*
X11063039Y-16452174D01*
X11063039Y-16452174D02*
X11082087Y-16442650D01*
X11082087Y-16442650D02*
X11110658Y-16442650D01*
X11110658Y-16442650D02*
X11129706Y-16452174D01*
X11129706Y-16452174D02*
X11139230Y-16461698D01*
X11139230Y-16461698D02*
X11148754Y-16480746D01*
X11148754Y-16480746D02*
X11148754Y-16537888D01*
X11148754Y-16537888D02*
X11139230Y-16556936D01*
X11139230Y-16556936D02*
X11129706Y-16566460D01*
X11129706Y-16566460D02*
X11110658Y-16575984D01*
X11110658Y-16575984D02*
X11082087Y-16575984D01*
X11205896Y-16442650D02*
X11282087Y-16442650D01*
X11234468Y-16375984D02*
X11234468Y-16547412D01*
X11234468Y-16547412D02*
X11243992Y-16566460D01*
X11243992Y-16566460D02*
X11263039Y-16575984D01*
X11263039Y-16575984D02*
X11282087Y-16575984D01*
X11339230Y-16566460D02*
X11358277Y-16575984D01*
X11358277Y-16575984D02*
X11396373Y-16575984D01*
X11396373Y-16575984D02*
X11415420Y-16566460D01*
X11415420Y-16566460D02*
X11424944Y-16547412D01*
X11424944Y-16547412D02*
X11424944Y-16537888D01*
X11424944Y-16537888D02*
X11415420Y-16518841D01*
X11415420Y-16518841D02*
X11396373Y-16509317D01*
X11396373Y-16509317D02*
X11367801Y-16509317D01*
X11367801Y-16509317D02*
X11348754Y-16499793D01*
X11348754Y-16499793D02*
X11339230Y-16480746D01*
X11339230Y-16480746D02*
X11339230Y-16471222D01*
X11339230Y-16471222D02*
X11348754Y-16452174D01*
X11348754Y-16452174D02*
X11367801Y-16442650D01*
X11367801Y-16442650D02*
X11396373Y-16442650D01*
X11396373Y-16442650D02*
X11415420Y-16452174D01*
X11491611Y-16652174D02*
X11501135Y-16642650D01*
X11501135Y-16642650D02*
X11520182Y-16614079D01*
X11520182Y-16614079D02*
X11529706Y-16595031D01*
X11529706Y-16595031D02*
X11539230Y-16566460D01*
X11539230Y-16566460D02*
X11548754Y-16518841D01*
X11548754Y-16518841D02*
X11548754Y-16480746D01*
X11548754Y-16480746D02*
X11539230Y-16433127D01*
X11539230Y-16433127D02*
X11529706Y-16404555D01*
X11529706Y-16404555D02*
X11520182Y-16385508D01*
X11520182Y-16385508D02*
X11501135Y-16356936D01*
X11501135Y-16356936D02*
X11491611Y-16347412D01*
M02*
