M48
; DRILL file {KiCad 9.0.4} date 2025-10-04T20:25:59+0200
; FORMAT={-:-/ absolute / metric / decimal}
; #@! TF.CreationDate,2025-10-04T20:25:59+02:00
; #@! TF.GenerationSoftware,Kicad,Pcbnew,9.0.4
; #@! TF.FileFunction,Plated,1,2,PTH
FMAT,2
METRIC
; #@! TA.AperFunction,Plated,PTH,ComponentDrill
T1C0.800
; #@! TA.AperFunction,Plated,PTH,ComponentDrill
T2C1.000
; #@! TA.AperFunction,Plated,PTH,ComponentDrill
T3C1.100
; #@! TA.AperFunction,Plated,PTH,ComponentDrill
T4C2.000
%
G90
G05
T1
X58.69Y-46.0
X58.69Y-73.55
X58.69Y-101.0
X58.69Y-128.5
X66.31Y-46.0
X66.31Y-73.55
X66.31Y-101.0
X66.31Y-128.5
T2
X53.0Y-48.0
X53.0Y-50.54
X53.0Y-53.08
X53.0Y-55.62
X53.0Y-58.16
X53.0Y-60.7
X53.0Y-103.0
X53.0Y-105.54
X53.0Y-108.08
X53.0Y-110.62
X53.0Y-113.16
X53.0Y-115.7
X60.0Y-62.0
X60.0Y-89.5
X60.0Y-117.0
X60.0Y-144.5
X62.5Y-62.0
X62.5Y-89.5
X62.5Y-117.0
X62.5Y-144.5
X65.0Y-62.0
X65.0Y-89.5
X65.0Y-117.0
X65.0Y-144.5
X83.75Y-65.5
X83.75Y-93.0
X83.75Y-120.5
X83.75Y-148.0
X86.25Y-65.5
X86.25Y-93.0
X86.25Y-120.5
X86.25Y-148.0
X88.75Y-65.5
X88.75Y-93.0
X88.75Y-120.5
X88.75Y-148.0
X91.25Y-65.5
X91.25Y-93.0
X91.25Y-120.5
X91.25Y-148.0
X97.0Y-77.0
X97.0Y-79.54
X97.0Y-82.08
X97.0Y-84.62
X97.0Y-87.16
X97.0Y-89.7
X97.0Y-120.0
X97.0Y-132.0
X97.0Y-134.54
X97.0Y-137.08
X97.0Y-139.62
X97.0Y-142.16
X97.0Y-144.7
T3
X57.7Y-54.85G85X57.7Y-54.15
G05
X57.7Y-82.35G85X57.7Y-81.65
G05
X57.7Y-109.85G85X57.7Y-109.15
G05
X57.7Y-137.35G85X57.7Y-136.65
G05
X67.3Y-54.85G85X67.3Y-54.15
G05
X67.3Y-82.35G85X67.3Y-81.65
G05
X67.3Y-109.85G85X67.3Y-109.15
G05
X67.3Y-137.35G85X67.3Y-136.65
G05
T4
X81.7Y-54.4G85X81.7Y-54.6
G05
X81.7Y-81.9G85X81.7Y-82.1
G05
X81.7Y-109.4G85X81.7Y-109.6
G05
X81.7Y-136.9G85X81.7Y-137.1
G05
X93.3Y-54.4G85X93.3Y-54.6
G05
X93.3Y-81.9G85X93.3Y-82.1
G05
X93.3Y-109.4G85X93.3Y-109.6
G05
X93.3Y-136.9G85X93.3Y-137.1
G05
M30
